<svg width="390" height="844" viewBox="0 0 390 844" fill="none" xmlns="http://www.w3.org/2000/svg">
<rect width="390" height="844" fill="#0156FE"/>
<path d="M27.1094 111V85.6348H43.7207V90.0117H32.418V96.8145H42.7363V101.016H32.418V111H27.1094ZM49.5996 89.7305C48.0527 89.7305 46.8574 88.5176 46.8574 87.0586C46.8574 85.5996 48.0527 84.3867 49.5996 84.3867C51.1465 84.3867 52.3418 85.5996 52.3418 87.0586C52.3418 88.5176 51.1465 89.7305 49.5996 89.7305ZM47.0332 111V92.1562H52.166V111H47.0332ZM56.1113 111V92.1562H61.2441V95.25H61.3496C62.3164 93.0879 64.25 91.7695 67.0977 91.7695C71.2461 91.7695 73.6016 94.4238 73.6016 98.8359V111H68.4688V99.8906C68.4688 97.4297 67.3086 96.0234 65.0059 96.0234C62.7031 96.0234 61.2441 97.7109 61.2441 100.172V111H56.1113ZM84.332 111.387C79.5859 111.387 76.668 107.695 76.668 101.578V101.561C76.668 95.4258 79.5859 91.7695 84.332 91.7695C87.0039 91.7695 89.1133 93.1406 90.1328 95.4258H90.2383V85.6348H95.3711V111H90.2383V107.783H90.1328C89.1309 110.016 87.0566 111.387 84.332 111.387ZM86.0547 107.133C88.5508 107.133 90.2559 104.988 90.2559 101.578V101.561C90.2559 98.168 88.5332 96.0234 86.0547 96.0234C83.5059 96.0234 81.8887 98.1152 81.8887 101.561V101.578C81.8887 105.006 83.4883 107.133 86.0547 107.133ZM114.424 111.387C110.24 111.387 108.271 109.77 108.271 105.727V96.0234H105.652V92.1562H108.271V87.5508H113.457V92.1562H116.902V96.0234H113.457V105.164C113.457 106.922 114.248 107.52 115.795 107.52C116.252 107.52 116.586 107.467 116.902 107.432V111.193C116.322 111.281 115.496 111.387 114.424 111.387ZM120.355 111V85.6348H125.488V95.4082H125.594C126.561 93.0703 128.547 91.7695 131.377 91.7695C135.455 91.7695 137.986 94.6172 137.986 99.1699V111H132.854V100.225C132.854 97.5879 131.553 96.0234 129.215 96.0234C126.947 96.0234 125.488 97.7461 125.488 100.207V111H120.355ZM150.369 111.387C144.604 111.387 141.105 107.643 141.105 101.613V101.596C141.105 95.6016 144.639 91.7695 150.158 91.7695C155.678 91.7695 159.141 95.5137 159.141 101.209V102.791H146.168C146.221 105.797 147.855 107.555 150.475 107.555C152.584 107.555 153.867 106.395 154.236 105.34L154.271 105.234H158.982L158.93 105.428C158.35 108.205 155.748 111.387 150.369 111.387ZM150.246 95.6016C148.137 95.6016 146.555 97.0078 146.221 99.5566H154.219C153.902 96.9551 152.373 95.6016 150.246 95.6016ZM181.094 111.387C178.387 111.387 176.312 110.016 175.293 107.783H175.188V111H170.055V85.6348H175.188V95.4258H175.293C176.33 93.1406 178.422 91.7695 181.111 91.7695C185.84 91.7695 188.775 95.4258 188.775 101.561V101.578C188.775 107.695 185.84 111.387 181.094 111.387ZM179.389 107.133C181.938 107.133 183.555 105.006 183.555 101.578V101.561C183.555 98.1152 181.938 96.0234 179.389 96.0234C176.91 96.0234 175.188 98.168 175.188 101.561V101.578C175.188 104.988 176.893 107.133 179.389 107.133ZM200.49 111.387C194.725 111.387 191.227 107.643 191.227 101.613V101.596C191.227 95.6016 194.76 91.7695 200.279 91.7695C205.799 91.7695 209.262 95.5137 209.262 101.209V102.791H196.289C196.342 105.797 197.977 107.555 200.596 107.555C202.705 107.555 203.988 106.395 204.357 105.34L204.393 105.234H209.104L209.051 105.428C208.471 108.205 205.869 111.387 200.49 111.387ZM200.367 95.6016C198.258 95.6016 196.676 97.0078 196.342 99.5566H204.34C204.023 96.9551 202.494 95.6016 200.367 95.6016ZM220.168 111.387C214.947 111.387 212.047 108.979 211.643 105.41L211.625 105.252H216.635L216.67 105.41C217.004 106.887 218.111 107.748 220.168 107.748C222.102 107.748 223.279 106.992 223.279 105.779V105.762C223.279 104.76 222.646 104.18 220.801 103.775L217.602 103.107C213.945 102.334 212.1 100.506 212.1 97.6934V97.6758C212.1 94.0898 215.193 91.7695 219.992 91.7695C225.002 91.7695 227.797 94.4238 227.92 97.7285V97.9043H223.191L223.174 97.7637C222.998 96.4102 221.891 95.3906 219.992 95.3906C218.217 95.3906 217.109 96.1816 217.109 97.3945V97.4121C217.109 98.3789 217.76 99.0117 219.658 99.416L222.857 100.102C226.795 100.928 228.412 102.475 228.412 105.252V105.27C228.412 108.961 225.02 111.387 220.168 111.387ZM238.932 111.387C234.748 111.387 232.779 109.77 232.779 105.727V96.0234H230.16V92.1562H232.779V87.5508H237.965V92.1562H241.41V96.0234H237.965V105.164C237.965 106.922 238.756 107.52 240.303 107.52C240.76 107.52 241.094 107.467 241.41 107.432V111.193C240.83 111.281 240.004 111.387 238.932 111.387ZM256.051 111L251.041 92.1562H256.209L259.057 106.131H259.162L262.502 92.1562H267.424L270.781 106.131H270.887L273.752 92.1562H278.814L273.822 111H268.355L264.945 97.6758H264.84L261.447 111H256.051ZM286.293 111.299C282.514 111.299 279.965 108.926 279.965 105.604V105.568C279.965 102.141 282.619 100.137 287.295 99.8379L291.953 99.5566V98.3965C291.953 96.7266 290.863 95.6895 288.859 95.6895C286.943 95.6895 285.783 96.5859 285.537 97.7988L285.502 97.957H280.809L280.826 97.7461C281.107 94.2656 284.096 91.7695 289.07 91.7695C293.939 91.7695 297.086 94.2832 297.086 98.0801V111H291.953V108.188H291.848C290.775 110.121 288.771 111.299 286.293 111.299ZM285.045 105.34C285.045 106.729 286.188 107.555 287.963 107.555C290.266 107.555 291.953 106.078 291.953 104.109V102.756L288.068 103.002C286.082 103.125 285.045 103.969 285.045 105.305V105.34ZM303.756 117.205C302.754 117.205 301.734 117.082 301.137 116.977V113.162C301.506 113.232 302.104 113.338 302.859 113.338C304.389 113.338 305.232 112.898 305.689 111.615L305.918 111L299.256 92.1562H304.898L308.871 106.887H309.012L313.002 92.1562H318.416L311.947 111.334C310.471 115.781 307.939 117.205 303.756 117.205ZM35.3184 154.387C29.5879 154.387 25.9844 150.713 25.9844 144.578V144.543C25.9844 138.479 29.6758 134.77 35.3008 134.77C40.9434 134.77 44.6523 138.443 44.6523 144.543V144.578C44.6523 150.73 41.0137 154.387 35.3184 154.387ZM35.3359 150.361C37.832 150.361 39.4316 148.252 39.4316 144.578V144.543C39.4316 140.904 37.7969 138.795 35.3008 138.795C32.8223 138.795 31.2051 140.904 31.2051 144.543V144.578C31.2051 148.27 32.8047 150.361 35.3359 150.361ZM47.8066 154V135.156H52.9395V138.443H53.0449C53.6074 136.123 55.1367 134.77 57.334 134.77C57.8965 134.77 58.4238 134.857 58.8105 134.963V139.48C58.3887 139.305 57.6855 139.199 56.9473 139.199C54.416 139.199 52.9395 140.711 52.9395 143.453V154H47.8066ZM69.0566 154V135.156H74.1895V138.443H74.2949C74.8574 136.123 76.3867 134.77 78.584 134.77C79.1465 134.77 79.6738 134.857 80.0605 134.963V139.48C79.6387 139.305 78.9355 139.199 78.1973 139.199C75.666 139.199 74.1895 140.711 74.1895 143.453V154H69.0566ZM87.8203 154.299C84.041 154.299 81.4922 151.926 81.4922 148.604V148.568C81.4922 145.141 84.1465 143.137 88.8223 142.838L93.4805 142.557V141.396C93.4805 139.727 92.3906 138.689 90.3867 138.689C88.4707 138.689 87.3105 139.586 87.0645 140.799L87.0293 140.957H82.3359L82.3535 140.746C82.6348 137.266 85.623 134.77 90.5977 134.77C95.4668 134.77 98.6133 137.283 98.6133 141.08V154H93.4805V151.188H93.375C92.3027 153.121 90.2988 154.299 87.8203 154.299ZM86.5723 148.34C86.5723 149.729 87.7148 150.555 89.4902 150.555C91.793 150.555 93.4805 149.078 93.4805 147.109V145.756L89.5957 146.002C87.6094 146.125 86.5723 146.969 86.5723 148.305V148.34ZM109.924 154.387C105.74 154.387 103.771 152.77 103.771 148.727V139.023H101.152V135.156H103.771V130.551H108.957V135.156H112.402V139.023H108.957V148.164C108.957 149.922 109.748 150.52 111.295 150.52C111.752 150.52 112.086 150.467 112.402 150.432V154.193C111.822 154.281 110.996 154.387 109.924 154.387ZM124.029 154.387C118.264 154.387 114.766 150.643 114.766 144.613V144.596C114.766 138.602 118.299 134.77 123.818 134.77C129.338 134.77 132.801 138.514 132.801 144.209V145.791H119.828C119.881 148.797 121.516 150.555 124.135 150.555C126.244 150.555 127.527 149.395 127.896 148.34L127.932 148.234H132.643L132.59 148.428C132.01 151.205 129.408 154.387 124.029 154.387ZM123.906 138.602C121.797 138.602 120.215 140.008 119.881 142.557H127.879C127.562 139.955 126.033 138.602 123.906 138.602ZM143.707 154.387C138.486 154.387 135.586 151.979 135.182 148.41L135.164 148.252H140.174L140.209 148.41C140.543 149.887 141.65 150.748 143.707 150.748C145.641 150.748 146.818 149.992 146.818 148.779V148.762C146.818 147.76 146.186 147.18 144.34 146.775L141.141 146.107C137.484 145.334 135.639 143.506 135.639 140.693V140.676C135.639 137.09 138.732 134.77 143.531 134.77C148.541 134.77 151.336 137.424 151.459 140.729V140.904H146.73L146.713 140.764C146.537 139.41 145.43 138.391 143.531 138.391C141.756 138.391 140.648 139.182 140.648 140.395V140.412C140.648 141.379 141.299 142.012 143.197 142.416L146.396 143.102C150.334 143.928 151.951 145.475 151.951 148.252V148.27C151.951 151.961 148.559 154.387 143.707 154.387ZM168.227 154.299C164.447 154.299 161.898 151.926 161.898 148.604V148.568C161.898 145.141 164.553 143.137 169.229 142.838L173.887 142.557V141.396C173.887 139.727 172.797 138.689 170.793 138.689C168.877 138.689 167.717 139.586 167.471 140.799L167.436 140.957H162.742L162.76 140.746C163.041 137.266 166.029 134.77 171.004 134.77C175.873 134.77 179.02 137.283 179.02 141.08V154H173.887V151.188H173.781C172.709 153.121 170.705 154.299 168.227 154.299ZM166.979 148.34C166.979 149.729 168.121 150.555 169.896 150.555C172.199 150.555 173.887 149.078 173.887 147.109V145.756L170.002 146.002C168.016 146.125 166.979 146.969 166.979 148.305V148.34ZM182.842 154V135.156H187.975V138.25H188.08C189.047 136.088 190.98 134.77 193.828 134.77C197.977 134.77 200.332 137.424 200.332 141.836V154H195.199V142.891C195.199 140.43 194.039 139.023 191.736 139.023C189.434 139.023 187.975 140.711 187.975 143.172V154H182.842ZM211.062 154.387C206.316 154.387 203.398 150.695 203.398 144.578V144.561C203.398 138.426 206.316 134.77 211.062 134.77C213.734 134.77 215.844 136.141 216.863 138.426H216.969V128.635H222.102V154H216.969V150.783H216.863C215.861 153.016 213.787 154.387 211.062 154.387ZM212.785 150.133C215.281 150.133 216.986 147.988 216.986 144.578V144.561C216.986 141.168 215.264 139.023 212.785 139.023C210.236 139.023 208.619 141.115 208.619 144.561V144.578C208.619 148.006 210.219 150.133 212.785 150.133ZM241.418 154.387C236.197 154.387 233.297 151.979 232.893 148.41L232.875 148.252H237.885L237.92 148.41C238.254 149.887 239.361 150.748 241.418 150.748C243.352 150.748 244.529 149.992 244.529 148.779V148.762C244.529 147.76 243.896 147.18 242.051 146.775L238.852 146.107C235.195 145.334 233.35 143.506 233.35 140.693V140.676C233.35 137.09 236.443 134.77 241.242 134.77C246.252 134.77 249.047 137.424 249.17 140.729V140.904H244.441L244.424 140.764C244.248 139.41 243.141 138.391 241.242 138.391C239.467 138.391 238.359 139.182 238.359 140.395V140.412C238.359 141.379 239.01 142.012 240.908 142.416L244.107 143.102C248.045 143.928 249.662 145.475 249.662 148.252V148.27C249.662 151.961 246.27 154.387 241.418 154.387ZM261.271 154.387C255.506 154.387 252.008 150.643 252.008 144.613V144.596C252.008 138.602 255.541 134.77 261.061 134.77C266.58 134.77 270.043 138.514 270.043 144.209V145.791H257.07C257.123 148.797 258.758 150.555 261.377 150.555C263.486 150.555 264.77 149.395 265.139 148.34L265.174 148.234H269.885L269.832 148.428C269.252 151.205 266.65 154.387 261.271 154.387ZM261.148 138.602C259.039 138.602 257.457 140.008 257.123 142.557H265.121C264.805 139.955 263.275 138.602 261.148 138.602ZM273.197 154V135.156H278.33V138.25H278.436C279.402 136.088 281.336 134.77 284.184 134.77C288.332 134.77 290.688 137.424 290.688 141.836V154H285.555V142.891C285.555 140.43 284.395 139.023 282.092 139.023C279.789 139.023 278.33 140.711 278.33 143.172V154H273.197ZM301.418 154.387C296.672 154.387 293.754 150.695 293.754 144.578V144.561C293.754 138.426 296.672 134.77 301.418 134.77C304.09 134.77 306.199 136.141 307.219 138.426H307.324V128.635H312.457V154H307.324V150.783H307.219C306.217 153.016 304.143 154.387 301.418 154.387ZM303.141 150.133C305.637 150.133 307.342 147.988 307.342 144.578V144.561C307.342 141.168 305.619 139.023 303.141 139.023C300.592 139.023 298.975 141.115 298.975 144.561V144.578C298.975 148.006 300.574 150.133 303.141 150.133ZM34.1582 197.387C29.9746 197.387 28.0059 195.77 28.0059 191.727V182.023H25.3867V178.156H28.0059V173.551H33.1914V178.156H36.6367V182.023H33.1914V191.164C33.1914 192.922 33.9824 193.52 35.5293 193.52C35.9863 193.52 36.3203 193.467 36.6367 193.432V197.193C36.0566 197.281 35.2305 197.387 34.1582 197.387ZM40.0898 197V171.635H45.2227V181.408H45.3281C46.2949 179.07 48.2812 177.77 51.1113 177.77C55.1895 177.77 57.7207 180.617 57.7207 185.17V197H52.5879V186.225C52.5879 183.588 51.2871 182.023 48.9492 182.023C46.6816 182.023 45.2227 183.746 45.2227 186.207V197H40.0898ZM70.1035 197.387C64.3379 197.387 60.8398 193.643 60.8398 187.613V187.596C60.8398 181.602 64.373 177.77 69.8926 177.77C75.4121 177.77 78.875 181.514 78.875 187.209V188.791H65.9023C65.9551 191.797 67.5898 193.555 70.209 193.555C72.3184 193.555 73.6016 192.395 73.9707 191.34L74.0059 191.234H78.7168L78.6641 191.428C78.084 194.205 75.4824 197.387 70.1035 197.387ZM69.9805 181.602C67.8711 181.602 66.2891 183.008 65.9551 185.557H73.9531C73.6367 182.955 72.1074 181.602 69.9805 181.602ZM89.666 197V178.156H94.7988V181.32H94.9043C95.6777 179.176 97.6465 177.77 100.178 177.77C102.814 177.77 104.73 179.176 105.363 181.654H105.469C106.312 179.281 108.562 177.77 111.322 177.77C115.014 177.77 117.492 180.318 117.492 184.115V197H112.359V185.398C112.359 183.219 111.27 182.023 109.283 182.023C107.332 182.023 106.049 183.447 106.049 185.539V197H101.109V185.24C101.109 183.219 99.9668 182.023 98.0684 182.023C96.1172 182.023 94.7988 183.5 94.7988 185.627V197H89.666ZM129.893 197.387C124.162 197.387 120.559 193.713 120.559 187.578V187.543C120.559 181.479 124.25 177.77 129.875 177.77C135.518 177.77 139.227 181.443 139.227 187.543V187.578C139.227 193.73 135.588 197.387 129.893 197.387ZM129.91 193.361C132.406 193.361 134.006 191.252 134.006 187.578V187.543C134.006 183.904 132.371 181.795 129.875 181.795C127.396 181.795 125.779 183.904 125.779 187.543V187.578C125.779 191.27 127.379 193.361 129.91 193.361ZM150.133 197.387C144.912 197.387 142.012 194.979 141.607 191.41L141.59 191.252H146.6L146.635 191.41C146.969 192.887 148.076 193.748 150.133 193.748C152.066 193.748 153.244 192.992 153.244 191.779V191.762C153.244 190.76 152.611 190.18 150.766 189.775L147.566 189.107C143.91 188.334 142.064 186.506 142.064 183.693V183.676C142.064 180.09 145.158 177.77 149.957 177.77C154.967 177.77 157.762 180.424 157.885 183.729V183.904H153.156L153.139 183.764C152.963 182.41 151.855 181.391 149.957 181.391C148.182 181.391 147.074 182.182 147.074 183.395V183.412C147.074 184.379 147.725 185.012 149.623 185.416L152.822 186.102C156.76 186.928 158.377 188.475 158.377 191.252V191.27C158.377 194.961 154.984 197.387 150.133 197.387ZM168.896 197.387C164.713 197.387 162.744 195.77 162.744 191.727V182.023H160.125V178.156H162.744V173.551H167.93V178.156H171.375V182.023H167.93V191.164C167.93 192.922 168.721 193.52 170.268 193.52C170.725 193.52 171.059 193.467 171.375 193.432V197.193C170.795 197.281 169.969 197.387 168.896 197.387ZM182.342 197V178.156H187.475V181.32H187.58C188.354 179.176 190.322 177.77 192.854 177.77C195.49 177.77 197.406 179.176 198.039 181.654H198.145C198.988 179.281 201.238 177.77 203.998 177.77C207.689 177.77 210.168 180.318 210.168 184.115V197H205.035V185.398C205.035 183.219 203.945 182.023 201.959 182.023C200.008 182.023 198.725 183.447 198.725 185.539V197H193.785V185.24C193.785 183.219 192.643 182.023 190.744 182.023C188.793 182.023 187.475 183.5 187.475 185.627V197H182.342ZM222.568 197.387C216.838 197.387 213.234 193.713 213.234 187.578V187.543C213.234 181.479 216.926 177.77 222.551 177.77C228.193 177.77 231.902 181.443 231.902 187.543V187.578C231.902 193.73 228.264 197.387 222.568 197.387ZM222.586 193.361C225.082 193.361 226.682 191.252 226.682 187.578V187.543C226.682 183.904 225.047 181.795 222.551 181.795C220.072 181.795 218.455 183.904 218.455 187.543V187.578C218.455 191.27 220.055 193.361 222.586 193.361ZM235.057 197V178.156H240.189V181.25H240.295C241.262 179.088 243.195 177.77 246.043 177.77C250.191 177.77 252.547 180.424 252.547 184.836V197H247.414V185.891C247.414 183.43 246.254 182.023 243.951 182.023C241.648 182.023 240.189 183.711 240.189 186.172V197H235.057ZM264.877 197.387C259.111 197.387 255.613 193.643 255.613 187.613V187.596C255.613 181.602 259.146 177.77 264.666 177.77C270.186 177.77 273.648 181.514 273.648 187.209V188.791H260.676C260.729 191.797 262.363 193.555 264.982 193.555C267.092 193.555 268.375 192.395 268.744 191.34L268.779 191.234H273.49L273.438 191.428C272.857 194.205 270.256 197.387 264.877 197.387ZM264.754 181.602C262.645 181.602 261.062 183.008 260.729 185.557H268.727C268.41 182.955 266.881 181.602 264.754 181.602ZM279.053 203.205C278.051 203.205 277.031 203.082 276.434 202.977V199.162C276.803 199.232 277.4 199.338 278.156 199.338C279.686 199.338 280.529 198.898 280.986 197.615L281.215 197L274.553 178.156H280.195L284.168 192.887H284.309L288.299 178.156H293.713L287.244 197.334C285.768 201.781 283.236 203.205 279.053 203.205Z" fill="white"/>
<rect x="15" y="293" width="359" height="353" rx="17" fill="white"/>
<path d="M35.3403 375.149C36.6279 375.149 37.5464 374.257 37.5464 372.979V372.97C37.5464 371.744 36.6895 370.852 35.4985 370.852C34.9229 370.852 34.4263 371.084 34.145 371.511H34.0747L34.29 369.366H37.1948V368.659H33.666L33.332 372.302H34.0176C34.0967 372.152 34.1978 372.029 34.3076 371.924C34.5801 371.665 34.9404 371.537 35.3623 371.537C36.1841 371.537 36.7729 372.139 36.7729 372.983V372.992C36.7729 373.849 36.1929 374.451 35.3491 374.451C34.6064 374.451 34.0571 373.967 33.9824 373.361L33.978 373.326H33.2178L33.2222 373.374C33.3145 374.389 34.1582 375.149 35.3403 375.149ZM38.8691 375H39.6338V373.203L40.0776 372.772L41.853 375H42.8154L40.6138 372.253L42.6792 370.263H41.752L39.7041 372.333H39.6338V368.382H38.8691V375Z" fill="#B9C1D9"/>
<path d="M35.9248 412H36.6982V410.686H37.5991V409.979H36.6982V405.659H35.5513C34.6636 406.981 33.6924 408.528 32.8354 409.965V410.686H35.9248V412ZM33.644 409.983V409.93C34.334 408.766 35.1646 407.456 35.8765 406.393H35.9292V409.983H33.644ZM38.8691 412H39.6338V410.203L40.0776 409.772L41.853 412H42.8154L40.6138 409.253L42.6792 407.263H41.752L39.7041 409.333H39.6338V405.382H38.8691V412Z" fill="#B9C1D9"/>
<path d="M35.3359 449.105C36.606 449.105 37.5376 448.323 37.5376 447.264V447.255C37.5376 446.354 36.9092 445.779 35.9863 445.7V445.682C36.7773 445.515 37.3311 444.979 37.3311 444.197V444.188C37.3311 443.226 36.5356 442.553 35.3271 442.553C34.1406 442.553 33.3232 443.243 33.2222 444.276L33.2178 444.32H33.978L33.9824 444.276C34.0483 443.634 34.5801 443.239 35.3271 443.239C36.1006 443.239 36.5356 443.621 36.5356 444.285V444.293C36.5356 444.926 36.0083 445.392 35.2524 445.392H34.4922V446.06H35.2876C36.1753 446.06 36.7334 446.495 36.7334 447.273V447.282C36.7334 447.954 36.1665 448.42 35.3359 448.42C34.4922 448.42 33.9165 447.989 33.855 447.365L33.8506 447.321H33.0903L33.0947 447.374C33.1782 448.376 34.0264 449.105 35.3359 449.105ZM38.8691 449H39.6338V447.203L40.0776 446.772L41.853 449H42.8154L40.6138 446.253L42.6792 444.263H41.752L39.7041 446.333H39.6338V442.382H38.8691V449Z" fill="#B9C1D9"/>
<path d="M33.3892 486H37.4937V485.288H34.4878V485.218L35.9292 483.728C37.0762 482.546 37.3882 482.019 37.3882 481.293V481.285C37.3882 480.261 36.54 479.509 35.4326 479.509C34.2197 479.509 33.3496 480.318 33.3452 481.443L33.354 481.447L34.1099 481.452L34.1143 481.443C34.1143 480.696 34.6196 480.199 35.3799 480.199C36.127 480.199 36.5796 480.7 36.5796 481.368V481.377C36.5796 481.931 36.3423 482.26 35.5337 483.135L33.3892 485.455V486ZM38.8691 486H39.6338V484.203L40.0776 483.772L41.853 486H42.8154L40.6138 483.253L42.6792 481.263H41.752L39.7041 483.333H39.6338V479.382H38.8691V486Z" fill="#B9C1D9"/>
<path d="M36.1973 523H36.9883V516.659H36.2017L34.5142 517.872V518.707L36.127 517.538H36.1973V523ZM38.8691 523H39.6338V521.203L40.0776 520.772L41.853 523H42.8154L40.6138 520.253L42.6792 518.263H41.752L39.7041 520.333H39.6338V516.382H38.8691V523Z" fill="#B9C1D9"/>
<path d="M34.2832 560.149C35.707 560.149 36.5244 558.945 36.5244 556.84C36.5244 554.74 35.6938 553.509 34.2832 553.509C32.8638 553.509 32.0332 554.735 32.0332 556.827C32.0332 558.937 32.855 560.149 34.2832 560.149ZM34.2832 559.459C33.3472 559.459 32.8286 558.523 32.8286 556.827C32.8286 555.153 33.356 554.204 34.2832 554.204C35.2104 554.204 35.729 555.144 35.729 556.827C35.729 558.528 35.2192 559.459 34.2832 559.459ZM38.6953 557.333H38.625V553.382H37.8691V560H38.625V558.203L39.0776 557.781L40.853 560H41.8154L39.6401 557.293L41.6792 555.263H40.752L38.6953 557.333Z" fill="#B9C1D9"/>
<path d="M60.7861 348.815H65.3467V348.024H62.0068V347.946L63.6084 346.291C64.8828 344.978 65.2295 344.392 65.2295 343.586V343.576C65.2295 342.438 64.2871 341.604 63.0566 341.604C61.709 341.604 60.7422 342.502 60.7373 343.752L60.7471 343.757L61.5869 343.762L61.5918 343.752C61.5918 342.922 62.1533 342.37 62.998 342.37C63.8281 342.37 64.3311 342.927 64.3311 343.669V343.679C64.3311 344.294 64.0674 344.66 63.1689 345.632L60.7861 348.21V348.815ZM69.8926 348.815H70.752V347.355H71.7529V346.569H70.752V341.77H69.4775C68.4912 343.239 67.4121 344.958 66.46 346.555V347.355H69.8926V348.815ZM67.3584 346.574V346.516C68.125 345.222 69.0479 343.767 69.8389 342.585H69.8975V346.574H67.3584ZM73.2227 348.815H74.1016V345.607H77.9688V348.815H78.8477V341.77H77.9688V344.816H74.1016V341.77H73.2227V348.815Z" fill="white"/>
<rect x="114" y="332.815" width="40" height="24" rx="5" fill="#2C2C33"/>
<path d="M129.352 348.815H130.23V341.77H129.356L127.481 343.117V344.045L129.273 342.746H129.352V348.815ZM133.839 348.815H134.669L136.29 343.254H136.349L137.97 348.815H138.8L140.719 341.77H139.801L138.399 347.497H138.341L136.764 341.77H135.875L134.298 347.497H134.239L132.838 341.77H131.92L133.839 348.815Z" fill="white"/>
<path d="M193.82 348.815H194.699V341.77H193.825L191.95 343.117V344.045L193.742 342.746H193.82V348.815ZM196.848 348.815H197.668V343.435H197.722L199.948 348.815H200.69L202.917 343.435H202.971V348.815H203.791V341.77H202.771L200.358 347.648H200.28L197.868 341.77H196.848V348.815Z" fill="white"/>
<path d="M258.914 348.815H259.793V341.77H258.919L257.044 343.117V344.045L258.836 342.746H258.914V348.815ZM263.88 348.815H264.759V345.783L267.259 341.77H266.258L264.358 344.899H264.28L262.381 341.77H261.38L263.88 345.783V348.815Z" fill="white"/>
<path d="M320.438 348.815H321.361L322.069 346.799H324.872L325.58 348.815H326.503L323.905 341.77H323.036L320.438 348.815ZM323.432 342.907H323.51L324.613 346.052H322.328L323.432 342.907ZM327.68 348.815H328.529V341.462H327.68V348.815ZM330.209 348.815H331.059V341.462H330.209V348.815Z" fill="white"/>
<rect x="50" y="368.815" width="0.996633" height="186" fill="#525766" fill-opacity="0.2"/>
<rect x="86.8754" y="368.815" width="0.996632" height="186" fill="#525766" fill-opacity="0.2"/>
<rect x="123.751" y="368.815" width="0.996635" height="186" fill="#525766" fill-opacity="0.2"/>
<rect x="160.626" y="368.815" width="0.996635" height="186" fill="#525766" fill-opacity="0.2"/>
<rect x="197.502" y="368.815" width="0.996643" height="186" fill="#525766" fill-opacity="0.2"/>
<rect x="234.377" y="368.815" width="0.996643" height="186" fill="#525766" fill-opacity="0.2"/>
<rect x="271.253" y="368.815" width="0.996643" height="186" fill="#525766" fill-opacity="0.2"/>
<rect x="308.128" y="368.815" width="0.996674" height="186" fill="#525766" fill-opacity="0.2"/>
<rect x="345" y="553.815" width="1.00002" height="294" transform="rotate(90 345 553.815)" fill="#525766" fill-opacity="0.2"/>
<rect x="345" y="516.815" width="1.00002" height="294" transform="rotate(90 345 516.815)" fill="#525766" fill-opacity="0.2"/>
<rect x="345" y="479.815" width="1.00002" height="294" transform="rotate(90 345 479.815)" fill="#525766" fill-opacity="0.2"/>
<rect x="345" y="442.815" width="1.00002" height="294" transform="rotate(90 345 442.815)" fill="#525766" fill-opacity="0.2"/>
<rect x="345" y="405.815" width="1.00001" height="294" transform="rotate(90 345 405.815)" fill="#525766" fill-opacity="0.2"/>
<rect x="345" y="368.815" width="1.00001" height="294" transform="rotate(90 345 368.815)" fill="#525766" fill-opacity="0.2"/>
<rect x="345.003" y="368.815" width="0.996643" height="186" fill="#525766" fill-opacity="0.2"/>
<path d="M62.1421 532.568H51V552.815C51 553.368 51.4477 553.815 52 553.815H344C344.552 553.815 345 553.368 345 552.815V409.815L332.693 429.94C332.245 430.672 331.143 430.537 330.886 429.718L325.786 413.515C325.655 413.099 325.269 412.815 324.832 412.815H307.112C306.808 412.815 306.52 412.954 306.33 413.192L298.958 422.439C298.768 422.677 298.48 422.815 298.176 422.815H292.994C292.788 422.815 292.588 422.752 292.419 422.634L283.14 416.116C282.872 415.928 282.528 415.883 282.221 415.996L272.945 419.397C272.814 419.445 272.694 419.521 272.593 419.618L268.401 423.68C268.308 423.769 268.234 423.876 268.182 423.993L266.318 428.201C266.285 428.277 266.242 428.348 266.191 428.413L258.871 437.749C258.819 437.815 258.759 437.875 258.693 437.926L252.315 442.815L247.445 446.236C247.37 446.289 247.288 446.331 247.202 446.361L237.476 449.777C237.403 449.802 237.327 449.82 237.25 449.828L228.19 450.785C228 450.805 227.819 450.879 227.669 450.999L223.099 454.668C222.978 454.765 222.882 454.889 222.817 455.029L210.726 481.234C210.562 481.589 210.208 481.815 209.818 481.815H204.66C204.54 481.815 204.42 481.794 204.308 481.751L192.851 477.441C192.636 477.36 192.4 477.355 192.182 477.428L186.798 479.229C186.628 479.286 186.477 479.387 186.36 479.522L173.291 494.578C173.157 494.733 173.073 494.924 173.051 495.128L171.613 508.6C171.598 508.742 171.552 508.879 171.48 509.002L168.621 513.85C168.492 514.068 168.286 514.23 168.043 514.301L154.506 518.304C154.235 518.385 154.01 518.577 153.887 518.833L148.329 530.482C148.226 530.697 148.05 530.869 147.832 530.965L144.92 532.257C144.507 532.441 144.022 532.324 143.737 531.972L136.51 523.043C136.32 522.808 136.035 522.672 135.733 522.672H132.253C131.923 522.672 131.614 522.835 131.428 523.107L118.569 541.881C118.383 542.153 118.074 542.315 117.744 542.315H113.907C113.528 542.315 113.181 542.101 113.012 541.761L110.395 536.51C110.331 536.382 110.241 536.269 110.13 536.179L106.298 533.072C105.935 532.777 105.416 532.774 105.049 533.063L98.6719 538.092C98.5626 538.178 98.4365 538.241 98.3016 538.275L90.6334 540.247C90.4585 540.292 90.2746 540.288 90.1014 540.237L82.2667 537.925C82.0275 537.855 81.8233 537.697 81.6942 537.484L73.6183 524.137C73.4929 523.93 73.2964 523.775 73.0654 523.702L70.5117 522.891C70.1007 522.76 69.6523 522.908 69.3993 523.257L62.9519 532.155C62.7638 532.414 62.4627 532.568 62.1421 532.568Z" fill="url(#paint0_linear_1273_27184)"/>
<path d="M52.756 532.568C52.756 532.568 59.1246 534.144 62.6583 532.568C67.0096 530.627 65.3966 524.419 69.8289 522.672C77.5043 519.647 76.3657 535.552 84.1701 538.223C89.4707 540.037 93.3746 540.462 98.5112 538.223C101.778 536.799 102.125 532.752 105.682 532.568C110.651 532.311 109.327 540.174 113.749 542.464C124.109 547.828 125.797 517.308 136.157 522.672C140.579 524.962 139.309 531.79 144.224 532.568C150.857 533.619 148.537 522.23 154.083 518.431C158.906 515.128 163.919 517.916 168.424 514.19C174.662 509.031 168.437 499.526 174.699 494.398C178.195 491.534 181.078 479.83 189.532 477.315C196.96 475.106 204.986 484.145 208.966 481.315C217.051 475.566 219.634 449.101 229.396 450.815C236.168 452.005 249.419 445.599 254.809 441.315C267.327 431.367 266.247 416.453 282.215 416.315C286.557 416.278 291.419 424.21 295.669 423.315C302.983 421.776 301.788 411.88 309.123 413.316C311.785 413.837 319.93 412.694 323.662 412.119C324.728 411.955 325.738 412.65 325.963 413.704C327.071 418.876 330.204 432.789 331.546 431.315C337.094 425.226 338.024 417.315 345 410.315" stroke="#40BF6A" stroke-width="2" stroke-linecap="round"/>
<path d="M65.3379 575.815V569.474H64.4194L62.2485 574.765H62.1782L60.0073 569.474H59.0889V575.815H59.8271V570.973H59.8799L61.8794 575.815H62.5474L64.5469 570.973H64.5996V575.815H65.3379ZM68.8052 575.899C70.1543 575.899 70.9893 574.967 70.9893 573.447C70.9893 571.922 70.1543 570.995 68.8052 570.995C67.4561 570.995 66.6211 571.922 66.6211 573.447C66.6211 574.967 67.4561 575.899 68.8052 575.899ZM68.8052 575.218C67.9087 575.218 67.4033 574.567 67.4033 573.447C67.4033 572.322 67.9087 571.676 68.8052 571.676C69.7017 571.676 70.207 572.322 70.207 573.447C70.207 574.567 69.7017 575.218 68.8052 575.218ZM72.1758 575.815H72.9316V573.012C72.9316 572.181 73.4194 571.676 74.1753 571.676C74.9312 571.676 75.2915 572.08 75.2915 572.933V575.815H76.0474V572.748C76.0474 571.623 75.4541 570.995 74.3906 570.995C73.6655 570.995 73.2041 571.302 72.9668 571.825H72.8965V571.078H72.1758V575.815Z" fill="#B9C1D9"/>
<path d="M64.0195 593.815H65.0742V585.36H64.0254L61.7754 586.978V588.091L63.9258 586.532H64.0195V593.815ZM70.2949 594.015C72.0117 594.015 73.2363 592.825 73.2363 591.12V591.108C73.2363 589.474 72.0937 588.284 70.5059 588.284C69.7383 588.284 69.0762 588.595 68.7012 589.163H68.6074L68.8945 586.304H72.7676V585.36H68.0625L67.6172 590.218H68.5312C68.6367 590.019 68.7715 589.854 68.918 589.714C69.2812 589.368 69.7617 589.198 70.3242 589.198C71.4199 589.198 72.2051 590.001 72.2051 591.126V591.138C72.2051 592.28 71.4316 593.083 70.3066 593.083C69.3164 593.083 68.584 592.438 68.4844 591.63L68.4785 591.583H67.4648L67.4707 591.647C67.5937 593.001 68.7187 594.015 70.2949 594.015Z" fill="#575B66"/>
<path d="M101.812 575.815V570.186H103.856V569.474H98.9777V570.186H101.021V575.815H101.812ZM108.153 571.078H107.398V573.882C107.398 574.712 106.941 575.209 106.106 575.209C105.35 575.209 105.033 574.813 105.033 573.961V571.078H104.277V574.146C104.277 575.266 104.831 575.899 105.895 575.899C106.62 575.899 107.125 575.6 107.362 575.073H107.433V575.815H108.153V571.078ZM111.467 571.663C112.218 571.663 112.719 572.216 112.737 573.056H110.127C110.184 572.216 110.711 571.663 111.467 571.663ZM112.715 574.589C112.517 575.007 112.104 575.231 111.493 575.231C110.689 575.231 110.166 574.638 110.127 573.702V573.667H113.532V573.376C113.532 571.904 112.755 570.995 111.476 570.995C110.175 570.995 109.34 571.961 109.34 573.451C109.34 574.95 110.162 575.899 111.476 575.899C112.513 575.899 113.251 575.398 113.471 574.589H112.715Z" fill="#B9C1D9"/>
<path d="M102.694 593.815H103.749V585.36H102.7L100.45 586.978V588.091L102.6 586.532H102.694V593.815ZM109.18 594.015C110.885 594.015 112.139 592.79 112.139 591.103V591.091C112.139 589.468 110.956 588.261 109.368 588.261C108.225 588.261 107.428 588.876 107.118 589.567H107.006C107.006 589.503 107.006 589.433 107.012 589.368C107.077 587.604 107.704 586.104 109.239 586.104C110.094 586.104 110.686 586.544 110.944 587.253L110.967 587.317H112.028L112.01 587.241C111.723 585.993 110.669 585.161 109.251 585.161C107.2 585.161 105.999 586.849 105.999 589.731V589.743C105.999 592.925 107.633 594.015 109.18 594.015ZM107.258 591.091V591.085C107.258 589.983 108.09 589.181 109.186 589.181C110.282 589.181 111.079 589.989 111.079 591.114V591.126C111.079 592.222 110.229 593.083 109.169 593.083C108.096 593.083 107.258 592.204 107.258 591.091Z" fill="#575B66"/>
<path d="M140.43 570.81H140.483L141.942 575.815H142.689L144.416 569.474H143.589L142.328 574.629H142.276L140.856 569.474H140.056L138.637 574.629H138.584L137.323 569.474H136.497L138.224 575.815H138.971L140.43 570.81ZM146.973 571.663C147.725 571.663 148.226 572.216 148.243 573.056H145.633C145.69 572.216 146.217 571.663 146.973 571.663ZM148.221 574.589C148.024 575.007 147.61 575.231 147 575.231C146.195 575.231 145.672 574.638 145.633 573.702V573.667H149.039V573.376C149.039 571.904 148.261 570.995 146.982 570.995C145.681 570.995 144.846 571.961 144.846 573.451C144.846 574.95 145.668 575.899 146.982 575.899C148.019 575.899 148.757 575.398 148.977 574.589H148.221ZM151.979 575.899C152.633 575.899 153.196 575.587 153.495 575.06H153.565V575.815H154.286V569.197H153.53V571.825H153.464C153.196 571.307 152.638 570.995 151.979 570.995C150.775 570.995 149.988 571.961 149.988 573.447C149.988 574.937 150.766 575.899 151.979 575.899ZM152.154 571.676C153.011 571.676 153.547 572.361 153.547 573.447C153.547 574.541 153.016 575.218 152.154 575.218C151.289 575.218 150.77 574.554 150.77 573.447C150.77 572.344 151.293 571.676 152.154 571.676Z" fill="#B9C1D9"/>
<path d="M142.384 593.815H143.439V585.36H142.39L140.14 586.978V588.091L142.29 586.532H142.384V593.815ZM146.233 593.815H147.341L151.103 586.339V585.36H145.507V586.304H150.03V586.386L146.233 593.815Z" fill="#575B66"/>
<path d="M180.453 575.815V570.186H182.496V569.474H177.618V570.186H179.662V575.815H180.453ZM183.665 575.815H184.421V573.012C184.421 572.212 184.887 571.676 185.735 571.676C186.451 571.676 186.829 572.093 186.829 572.933V575.815H187.585V572.748C187.585 571.636 186.952 570.995 185.95 570.995C185.225 570.995 184.729 571.302 184.491 571.825H184.421V569.197H183.665V575.815ZM192.797 571.078H192.041V573.882C192.041 574.712 191.584 575.209 190.749 575.209C189.993 575.209 189.677 574.813 189.677 573.961V571.078H188.921V574.146C188.921 575.266 189.475 575.899 190.538 575.899C191.263 575.899 191.769 575.6 192.006 575.073H192.076V575.815H192.797V571.078Z" fill="#B9C1D9"/>
<path d="M181.754 593.815H182.808V585.36H181.76L179.51 586.978V588.091L181.66 586.532H181.754V593.815ZM188.14 593.956C189.933 593.956 191.211 592.948 191.211 591.53V591.519C191.211 590.476 190.478 589.608 189.394 589.356V589.333C190.32 589.046 190.906 588.343 190.906 587.452V587.44C190.906 586.163 189.74 585.22 188.14 585.22C186.541 585.22 185.375 586.163 185.375 587.44V587.452C185.375 588.343 185.961 589.046 186.886 589.333V589.356C185.802 589.608 185.07 590.476 185.07 591.519V591.53C185.07 592.948 186.347 593.956 188.14 593.956ZM188.14 588.94C187.121 588.94 186.424 588.36 186.424 587.54V587.528C186.424 586.708 187.121 586.128 188.14 586.128C189.16 586.128 189.857 586.708 189.857 587.528V587.54C189.857 588.36 189.16 588.94 188.14 588.94ZM188.14 593.036C186.974 593.036 186.142 592.38 186.142 591.466V591.454C186.142 590.528 186.969 589.866 188.14 589.866C189.312 589.866 190.138 590.528 190.138 591.454V591.466C190.138 592.38 189.306 593.036 188.14 593.036Z" fill="#575B66"/>
<path d="M215.846 575.815V573.069H218.654V572.366H215.846V570.186H218.905V569.474H215.055V575.815H215.846ZM220.109 575.815H220.865V572.88C220.865 572.212 221.387 571.729 222.108 571.729C222.258 571.729 222.53 571.755 222.592 571.772V571.017C222.495 571.003 222.337 570.995 222.214 570.995C221.585 570.995 221.04 571.32 220.9 571.781H220.829V571.078H220.109V575.815ZM223.554 575.815H224.31V571.078H223.554V575.815ZM223.932 570.164C224.222 570.164 224.459 569.927 224.459 569.637C224.459 569.347 224.222 569.109 223.932 569.109C223.642 569.109 223.405 569.347 223.405 569.637C223.405 569.927 223.642 570.164 223.932 570.164Z" fill="#B9C1D9"/>
<path d="M216.051 593.815H217.106V585.36H216.057L213.807 586.978V588.091L215.957 586.532H216.051V593.815ZM222.315 585.161C220.61 585.161 219.356 586.386 219.356 588.073V588.085C219.356 589.708 220.539 590.915 222.127 590.915C223.27 590.915 224.067 590.3 224.377 589.608H224.489C224.489 589.673 224.489 589.743 224.483 589.808C224.418 591.571 223.791 593.071 222.256 593.071C221.401 593.071 220.809 592.632 220.551 591.923L220.528 591.858H219.467L219.485 591.935C219.772 593.183 220.826 594.015 222.244 594.015C224.295 594.015 225.496 592.327 225.496 589.444V589.433C225.496 586.251 223.862 585.161 222.315 585.161ZM222.309 589.995C221.213 589.995 220.416 589.187 220.416 588.062V588.05C220.416 586.954 221.266 586.093 222.326 586.093C223.399 586.093 224.237 586.972 224.237 588.085V588.091C224.237 589.192 223.405 589.995 222.309 589.995Z" fill="#575B66"/>
<path d="M245.947 574.159C246.03 575.253 246.957 575.965 248.302 575.965C249.752 575.965 250.671 575.222 250.671 574.058C250.671 573.126 250.143 572.616 248.829 572.287L248.166 572.111C247.291 571.887 246.944 571.601 246.944 571.104C246.944 570.463 247.502 570.041 248.346 570.041C249.137 570.041 249.673 570.428 249.783 571.078H250.578C250.513 570.054 249.599 569.325 248.372 569.325C247.032 569.325 246.131 570.054 246.131 571.131C246.131 572.032 246.628 572.55 247.775 572.84L248.588 573.051C249.462 573.271 249.858 573.614 249.858 574.154C249.858 574.783 249.229 575.244 248.377 575.244C247.476 575.244 246.843 574.822 246.746 574.159H245.947ZM253.351 575.235C252.802 575.235 252.393 574.954 252.393 574.471C252.393 573.996 252.71 573.746 253.431 573.697L254.705 573.614V574.049C254.705 574.726 254.129 575.235 253.351 575.235ZM253.211 575.899C253.844 575.899 254.362 575.622 254.67 575.117H254.74V575.815H255.461V572.572C255.461 571.588 254.815 570.995 253.659 570.995C252.648 570.995 251.901 571.496 251.8 572.256H252.565C252.67 571.882 253.066 571.667 253.633 571.667C254.34 571.667 254.705 571.988 254.705 572.572V573.003L253.338 573.086C252.235 573.152 251.611 573.64 251.611 574.488C251.611 575.354 252.292 575.899 253.211 575.899ZM257.175 569.852V571.078H256.41V571.711H257.175V574.585C257.175 575.49 257.566 575.851 258.541 575.851C258.691 575.851 258.836 575.833 258.985 575.807V575.169C258.845 575.183 258.77 575.187 258.634 575.187C258.141 575.187 257.931 574.95 257.931 574.392V571.711H258.985V571.078H257.931V569.852H257.175Z" fill="#B9C1D9"/>
<path d="M245.972 593.815H251.444V592.866H247.436V592.772L249.358 590.786C250.888 589.21 251.304 588.507 251.304 587.54V587.528C251.304 586.163 250.173 585.161 248.696 585.161C247.079 585.161 245.919 586.239 245.913 587.739L245.925 587.745L246.933 587.751L246.938 587.739C246.938 586.743 247.612 586.081 248.626 586.081C249.622 586.081 250.225 586.749 250.225 587.64V587.651C250.225 588.39 249.909 588.829 248.831 589.995L245.972 593.089V593.815ZM256.044 594.015C257.913 594.015 259.038 592.31 259.038 589.591V589.579C259.038 586.86 257.913 585.161 256.044 585.161C254.175 585.161 253.061 586.86 253.061 589.579V589.591C253.061 592.31 254.175 594.015 256.044 594.015ZM256.044 593.095C254.831 593.095 254.122 591.747 254.122 589.591V589.579C254.122 587.423 254.831 586.087 256.044 586.087C257.257 586.087 257.977 587.423 257.977 589.579V589.591C257.977 591.747 257.257 593.095 256.044 593.095Z" fill="#575B66"/>
<path d="M281.594 574.159C281.678 575.253 282.605 575.965 283.95 575.965C285.4 575.965 286.318 575.222 286.318 574.058C286.318 573.126 285.791 572.616 284.477 572.287L283.813 572.111C282.939 571.887 282.592 571.601 282.592 571.104C282.592 570.463 283.15 570.041 283.994 570.041C284.785 570.041 285.321 570.428 285.431 571.078H286.226C286.16 570.054 285.246 569.325 284.02 569.325C282.68 569.325 281.779 570.054 281.779 571.131C281.779 572.032 282.275 572.55 283.422 572.84L284.235 573.051C285.11 573.271 285.505 573.614 285.505 574.154C285.505 574.783 284.877 575.244 284.024 575.244C283.124 575.244 282.491 574.822 282.394 574.159H281.594ZM291.372 571.078H290.616V573.882C290.616 574.712 290.159 575.209 289.324 575.209C288.568 575.209 288.252 574.813 288.252 573.961V571.078H287.496V574.146C287.496 575.266 288.05 575.899 289.113 575.899C289.838 575.899 290.344 575.6 290.581 575.073H290.651V575.815H291.372V571.078ZM292.796 575.815H293.552V573.012C293.552 572.181 294.04 571.676 294.795 571.676C295.551 571.676 295.912 572.08 295.912 572.933V575.815H296.667V572.748C296.667 571.623 296.074 570.995 295.011 570.995C294.286 570.995 293.824 571.302 293.587 571.825H293.517V571.078H292.796V575.815Z" fill="#B9C1D9"/>
<path d="M283.753 593.815H289.226V592.866H285.218V592.772L287.14 590.786C288.669 589.21 289.085 588.507 289.085 587.54V587.528C289.085 586.163 287.955 585.161 286.478 585.161C284.861 585.161 283.701 586.239 283.695 587.739L283.707 587.745L284.714 587.751L284.72 587.739C284.72 586.743 285.394 586.081 286.408 586.081C287.404 586.081 288.007 586.749 288.007 587.64V587.651C288.007 588.39 287.691 588.829 286.613 589.995L283.753 593.089V593.815ZM293.064 593.815H294.119V585.36H293.07L290.82 586.978V588.091L292.97 586.532H293.064V593.815Z" fill="#575B66"/>
<path d="M326.338 575.815V569.474H325.419L323.249 574.765H323.178L321.007 569.474H320.089V575.815H320.827V570.973H320.88L322.879 575.815H323.547L325.547 570.973H325.6V575.815H326.338ZM329.805 575.899C331.154 575.899 331.989 574.967 331.989 573.447C331.989 571.922 331.154 570.995 329.805 570.995C328.456 570.995 327.621 571.922 327.621 573.447C327.621 574.967 328.456 575.899 329.805 575.899ZM329.805 575.218C328.909 575.218 328.403 574.567 328.403 573.447C328.403 572.322 328.909 571.676 329.805 571.676C330.702 571.676 331.207 572.322 331.207 573.447C331.207 574.567 330.702 575.218 329.805 575.218ZM333.176 575.815H333.932V573.012C333.932 572.181 334.419 571.676 335.175 571.676C335.931 571.676 336.292 572.08 336.292 572.933V575.815H337.047V572.748C337.047 571.623 336.454 570.995 335.391 570.995C334.666 570.995 334.204 571.302 333.967 571.825H333.896V571.078H333.176V575.815Z" fill="#B9C1D9"/>
<path d="M322.201 593.815H327.674V592.866H323.666V592.772L325.588 590.786C327.117 589.21 327.533 588.507 327.533 587.54V587.528C327.533 586.163 326.402 585.161 324.926 585.161C323.309 585.161 322.148 586.239 322.143 587.739L322.154 587.745L323.162 587.751L323.168 587.739C323.168 586.743 323.842 586.081 324.855 586.081C325.852 586.081 326.455 586.749 326.455 587.64V587.651C326.455 588.39 326.139 588.829 325.061 589.995L322.201 593.089V593.815ZM329.443 593.815H334.916V592.866H330.908V592.772L332.83 590.786C334.359 589.21 334.775 588.507 334.775 587.54V587.528C334.775 586.163 333.645 585.161 332.168 585.161C330.551 585.161 329.391 586.239 329.385 587.739L329.397 587.745L330.404 587.751L330.41 587.739C330.41 586.743 331.084 586.081 332.098 586.081C333.094 586.081 333.697 586.749 333.697 587.64V587.651C333.697 588.39 333.381 588.829 332.303 589.995L329.443 593.089V593.815Z" fill="#575B66"/>
<defs>
<linearGradient id="paint0_linear_1273_27184" x1="198" y1="413.815" x2="198" y2="553.815" gradientUnits="userSpaceOnUse">
<stop stop-color="#40BF6A" stop-opacity="0.3"/>
<stop offset="1" stop-color="#40BF6A" stop-opacity="0"/>
</linearGradient>
</defs>
</svg>
