<svg width="390" height="844" viewBox="0 0 390 844" fill="none" xmlns="http://www.w3.org/2000/svg">
<g clip-path="url(#clip0_1617_33426)">
<rect width="390" height="844" fill="#0156FE"/>
<rect x="128" y="831" width="134" height="5" rx="2.5" fill="#625F63"/>
<path d="M27.3945 125.439C19.9766 125.439 15.3184 120.482 15.3184 112.309V112.291C15.3184 104.117 19.9941 99.1953 27.3945 99.1953C33.5469 99.1953 37.959 103.08 38.4512 108.459L38.4688 108.617H33.3008L33.2305 108.318C32.6328 105.523 30.5586 103.695 27.3945 103.695C23.334 103.695 20.7324 106.965 20.7324 112.273V112.291C20.7324 117.635 23.334 120.939 27.3945 120.939C30.4531 120.939 32.5977 119.182 33.2832 116.176L33.3184 116H38.4863L38.4688 116.193C37.9766 121.59 33.5293 125.439 27.3945 125.439ZM41.834 125V106.156H46.9668V109.443H47.0723C47.6348 107.123 49.1641 105.77 51.3613 105.77C51.9238 105.77 52.4512 105.857 52.8379 105.963V110.48C52.416 110.305 51.7129 110.199 50.9746 110.199C48.4434 110.199 46.9668 111.711 46.9668 114.453V125H41.834ZM59.0332 131.205C58.0312 131.205 57.0117 131.082 56.4141 130.977V127.162C56.7832 127.232 57.3809 127.338 58.1367 127.338C59.666 127.338 60.5098 126.898 60.9668 125.615L61.1953 125L54.5332 106.156H60.1758L64.1484 120.887H64.2891L68.2793 106.156H73.6934L67.2246 125.334C65.748 129.781 63.2168 131.205 59.0332 131.205ZM75.9863 131.152V106.156H81.1191V109.443H81.2422C82.2617 107.158 84.3184 105.77 86.9902 105.77C91.7715 105.77 94.6895 109.426 94.6895 115.561V115.578C94.6895 121.695 91.7715 125.387 87.0605 125.387C84.3711 125.387 82.2441 124.016 81.2246 121.783H81.1191V131.152H75.9863ZM85.3027 121.133C87.8516 121.133 89.4688 119.006 89.4688 115.578V115.561C89.4688 112.115 87.8516 110.023 85.3027 110.023C82.8066 110.023 81.1016 112.168 81.1016 115.578V115.596C81.1016 118.988 82.8066 121.133 85.3027 121.133ZM105.35 125.387C101.166 125.387 99.1973 123.77 99.1973 119.727V110.023H96.5781V106.156H99.1973V101.551H104.383V106.156H107.828V110.023H104.383V119.164C104.383 120.922 105.174 121.52 106.721 121.52C107.178 121.52 107.512 121.467 107.828 121.432V125.193C107.248 125.281 106.422 125.387 105.35 125.387ZM119.525 125.387C113.795 125.387 110.191 121.713 110.191 115.578V115.543C110.191 109.479 113.883 105.77 119.508 105.77C125.15 105.77 128.859 109.443 128.859 115.543V115.578C128.859 121.73 125.221 125.387 119.525 125.387ZM119.543 121.361C122.039 121.361 123.639 119.252 123.639 115.578V115.543C123.639 111.904 122.004 109.795 119.508 109.795C117.029 109.795 115.412 111.904 115.412 115.543V115.578C115.412 119.27 117.012 121.361 119.543 121.361ZM130.502 130.291L131.785 120.57H136.637L134.053 130.291H130.502ZM153.949 125.387C148.729 125.387 145.828 122.979 145.424 119.41L145.406 119.252H150.416L150.451 119.41C150.785 120.887 151.893 121.748 153.949 121.748C155.883 121.748 157.061 120.992 157.061 119.779V119.762C157.061 118.76 156.428 118.18 154.582 117.775L151.383 117.107C147.727 116.334 145.881 114.506 145.881 111.693V111.676C145.881 108.09 148.975 105.77 153.773 105.77C158.783 105.77 161.578 108.424 161.701 111.729V111.904H156.973L156.955 111.764C156.779 110.41 155.672 109.391 153.773 109.391C151.998 109.391 150.891 110.182 150.891 111.395V111.412C150.891 112.379 151.541 113.012 153.439 113.416L156.639 114.102C160.576 114.928 162.193 116.475 162.193 119.252V119.27C162.193 122.961 158.801 125.387 153.949 125.387ZM172.713 125.387C168.529 125.387 166.561 123.77 166.561 119.727V110.023H163.941V106.156H166.561V101.551H171.746V106.156H175.191V110.023H171.746V119.164C171.746 120.922 172.537 121.52 174.084 121.52C174.541 121.52 174.875 121.467 175.191 121.432V125.193C174.611 125.281 173.785 125.387 172.713 125.387ZM183.953 125.299C180.174 125.299 177.625 122.926 177.625 119.604V119.568C177.625 116.141 180.279 114.137 184.955 113.838L189.613 113.557V112.396C189.613 110.727 188.523 109.689 186.52 109.689C184.604 109.689 183.443 110.586 183.197 111.799L183.162 111.957H178.469L178.486 111.746C178.768 108.266 181.756 105.77 186.73 105.77C191.6 105.77 194.746 108.283 194.746 112.08V125H189.613V122.188H189.508C188.436 124.121 186.432 125.299 183.953 125.299ZM182.705 119.34C182.705 120.729 183.848 121.555 185.623 121.555C187.926 121.555 189.613 120.078 189.613 118.109V116.756L185.729 117.002C183.742 117.125 182.705 117.969 182.705 119.305V119.34ZM209.73 125.387C207.023 125.387 204.949 124.016 203.93 121.783H203.824V125H198.691V99.6348H203.824V109.426H203.93C204.967 107.141 207.059 105.77 209.748 105.77C214.477 105.77 217.412 109.426 217.412 115.561V115.578C217.412 121.695 214.477 125.387 209.73 125.387ZM208.025 121.133C210.574 121.133 212.191 119.006 212.191 115.578V115.561C212.191 112.115 210.574 110.023 208.025 110.023C205.547 110.023 203.824 112.168 203.824 115.561V115.578C203.824 118.988 205.529 121.133 208.025 121.133ZM220.672 125V99.6348H225.805V125H220.672ZM238.346 125.387C232.58 125.387 229.082 121.643 229.082 115.613V115.596C229.082 109.602 232.615 105.77 238.135 105.77C243.654 105.77 247.117 109.514 247.117 115.209V116.791H234.145C234.197 119.797 235.832 121.555 238.451 121.555C240.561 121.555 241.844 120.395 242.213 119.34L242.248 119.234H246.959L246.906 119.428C246.326 122.205 243.725 125.387 238.346 125.387ZM238.223 109.602C236.113 109.602 234.531 111.008 234.197 113.557H242.195C241.879 110.955 240.35 109.602 238.223 109.602ZM24.2832 168.387C18.5352 168.387 14.9844 164.643 14.9844 158.561V158.543C14.9844 152.514 18.5879 148.77 24.2305 148.77C29.3457 148.77 32.5977 151.916 32.791 155.994V156.117H28.0273L27.9922 155.959C27.6758 154.166 26.4277 152.795 24.3008 152.795C21.7871 152.795 20.2051 154.957 20.2051 158.561V158.578C20.2051 162.27 21.7871 164.361 24.3184 164.361C26.375 164.361 27.6582 163.096 28.0098 161.197L28.0273 161.039H32.8086V161.145C32.5625 165.258 29.3105 168.387 24.2832 168.387ZM44.4355 168.387C38.7051 168.387 35.1016 164.713 35.1016 158.578V158.543C35.1016 152.479 38.793 148.77 44.418 148.77C50.0605 148.77 53.7695 152.443 53.7695 158.543V158.578C53.7695 164.73 50.1309 168.387 44.4355 168.387ZM44.4531 164.361C46.9492 164.361 48.5488 162.252 48.5488 158.578V158.543C48.5488 154.904 46.9141 152.795 44.418 152.795C41.9395 152.795 40.3223 154.904 40.3223 158.543V158.578C40.3223 162.27 41.9219 164.361 44.4531 164.361ZM59.5957 146.73C58.0488 146.73 56.8535 145.518 56.8535 144.059C56.8535 142.6 58.0488 141.387 59.5957 141.387C61.1426 141.387 62.3379 142.6 62.3379 144.059C62.3379 145.518 61.1426 146.73 59.5957 146.73ZM57.0293 168V149.156H62.1621V168H57.0293ZM66.1074 168V149.156H71.2402V152.25H71.3457C72.3125 150.088 74.2461 148.77 77.0938 148.77C81.2422 148.77 83.5977 151.424 83.5977 155.836V168H78.4648V156.891C78.4648 154.43 77.3047 153.023 75.002 153.023C72.6992 153.023 71.2402 154.711 71.2402 157.172V168H66.1074ZM95.1016 168.387C89.8809 168.387 86.9805 165.979 86.5762 162.41L86.5586 162.252H91.5684L91.6035 162.41C91.9375 163.887 93.0449 164.748 95.1016 164.748C97.0352 164.748 98.2129 163.992 98.2129 162.779V162.762C98.2129 161.76 97.5801 161.18 95.7344 160.775L92.5352 160.107C88.8789 159.334 87.0332 157.506 87.0332 154.693V154.676C87.0332 151.09 90.127 148.77 94.9258 148.77C99.9355 148.77 102.73 151.424 102.854 154.729V154.904H98.125L98.1074 154.764C97.9316 153.41 96.8242 152.391 94.9258 152.391C93.1504 152.391 92.043 153.182 92.043 154.395V154.412C92.043 155.379 92.6934 156.012 94.5918 156.416L97.791 157.102C101.729 157.928 103.346 159.475 103.346 162.252V162.27C103.346 165.961 99.9531 168.387 95.1016 168.387ZM111.123 159.791L111.105 158.771C110.93 156.275 111.844 154.676 114.27 153.252C116.537 151.898 117.223 151.02 117.223 149.385V149.367C117.223 147.68 115.869 146.484 113.883 146.484C111.861 146.484 110.543 147.803 110.438 149.613L110.42 149.754H105.656V149.578C105.797 145.447 108.803 142.406 114.199 142.406C119.209 142.406 122.549 145.184 122.549 149.209V149.227C122.549 151.863 121.266 153.709 118.787 155.168C116.449 156.521 115.799 157.4 115.799 159.07V159.791H111.123ZM113.531 168.211C111.949 168.211 110.666 166.998 110.666 165.451C110.666 163.904 111.949 162.691 113.531 162.691C115.131 162.691 116.414 163.904 116.414 165.451C116.414 166.998 115.131 168.211 113.531 168.211ZM141.391 168V158.525L132.566 142.635H138.297L143.992 153.463H144.115L149.793 142.635H155.541L146.699 158.525V168H141.391ZM162.967 168.387C157.236 168.387 153.633 164.713 153.633 158.578V158.543C153.633 152.479 157.324 148.77 162.949 148.77C168.592 148.77 172.301 152.443 172.301 158.543V158.578C172.301 164.73 168.662 168.387 162.967 168.387ZM162.984 164.361C165.48 164.361 167.08 162.252 167.08 158.578V158.543C167.08 154.904 165.445 152.795 162.949 152.795C160.471 152.795 158.854 154.904 158.854 158.543V158.578C158.854 162.27 160.453 164.361 162.984 164.361ZM181.871 168.387C177.723 168.387 175.367 165.732 175.367 161.32V149.156H180.5V160.248C180.5 162.709 181.66 164.133 183.963 164.133C186.266 164.133 187.725 162.445 187.725 159.984V149.156H192.857V168H187.725V164.889H187.619C186.652 167.051 184.719 168.387 181.871 168.387ZM204.334 168V149.156H209.467V152.25H209.572C210.539 150.088 212.473 148.77 215.32 148.77C219.469 148.77 221.824 151.424 221.824 155.836V168H216.691V156.891C216.691 154.43 215.531 153.023 213.229 153.023C210.926 153.023 209.467 154.711 209.467 157.172V168H204.334ZM231.184 168.299C227.404 168.299 224.855 165.926 224.855 162.604V162.568C224.855 159.141 227.51 157.137 232.186 156.838L236.844 156.557V155.396C236.844 153.727 235.754 152.689 233.75 152.689C231.834 152.689 230.674 153.586 230.428 154.799L230.393 154.957H225.699L225.717 154.746C225.998 151.266 228.986 148.77 233.961 148.77C238.83 148.77 241.977 151.283 241.977 155.08V168H236.844V165.188H236.738C235.666 167.121 233.662 168.299 231.184 168.299ZM229.936 162.34C229.936 163.729 231.078 164.555 232.854 164.555C235.156 164.555 236.844 163.078 236.844 161.109V159.756L232.959 160.002C230.973 160.125 229.936 160.969 229.936 162.305V162.34ZM245.799 168V149.156H250.932V152.32H251.037C251.811 150.176 253.779 148.77 256.311 148.77C258.947 148.77 260.863 150.176 261.496 152.654H261.602C262.445 150.281 264.695 148.77 267.455 148.77C271.146 148.77 273.625 151.318 273.625 155.115V168H268.492V156.398C268.492 154.219 267.402 153.023 265.416 153.023C263.465 153.023 262.182 154.447 262.182 156.539V168H257.242V156.24C257.242 154.219 256.1 153.023 254.201 153.023C252.25 153.023 250.932 154.5 250.932 156.627V168H245.799ZM285.955 168.387C280.189 168.387 276.691 164.643 276.691 158.613V158.596C276.691 152.602 280.225 148.77 285.744 148.77C291.264 148.77 294.727 152.514 294.727 158.209V159.791H281.754C281.807 162.797 283.441 164.555 286.061 164.555C288.17 164.555 289.453 163.395 289.822 162.34L289.857 162.234H294.568L294.516 162.428C293.936 165.205 291.334 168.387 285.955 168.387ZM285.832 152.602C283.723 152.602 282.141 154.008 281.807 156.557H289.805C289.488 153.955 287.959 152.602 285.832 152.602ZM308.189 146.73C306.643 146.73 305.447 145.518 305.447 144.059C305.447 142.6 306.643 141.387 308.189 141.387C309.736 141.387 310.932 142.6 310.932 144.059C310.932 145.518 309.736 146.73 308.189 146.73ZM305.623 168V149.156H310.756V168H305.623ZM322.189 168.387C318.006 168.387 316.037 166.77 316.037 162.727V153.023H313.418V149.156H316.037V144.551H321.223V149.156H324.668V153.023H321.223V162.164C321.223 163.922 322.014 164.52 323.561 164.52C324.018 164.52 324.352 164.467 324.668 164.432V168.193C324.088 168.281 323.262 168.387 322.189 168.387ZM330.67 168.299C329.07 168.299 327.822 167.033 327.822 165.451C327.822 163.852 329.07 162.604 330.67 162.604C332.252 162.604 333.518 163.852 333.518 165.451C333.518 167.033 332.252 168.299 330.67 168.299ZM21.4707 211L14.7559 185.635H20.2578L24.2656 203.811H24.3711L29.0469 185.635H33.7051L38.3809 203.811H38.4863L42.5117 185.635H48.0137L41.2812 211H36.0957L31.4375 194.002H31.332L26.6562 211H21.4707ZM57.4082 211.387C51.6426 211.387 48.1445 207.643 48.1445 201.613V201.596C48.1445 195.602 51.6777 191.77 57.1973 191.77C62.7168 191.77 66.1797 195.514 66.1797 201.209V202.791H53.207C53.2598 205.797 54.8945 207.555 57.5137 207.555C59.623 207.555 60.9062 206.395 61.2754 205.34L61.3105 205.234H66.0215L65.9688 205.428C65.3887 208.205 62.7871 211.387 57.4082 211.387ZM57.2852 195.602C55.1758 195.602 53.5938 197.008 53.2598 199.557H61.2578C60.9414 196.955 59.4121 195.602 57.2852 195.602ZM77.0938 211V185.635H82.2266V195.408H82.332C83.2988 193.07 85.2852 191.77 88.1152 191.77C92.1934 191.77 94.7246 194.617 94.7246 199.17V211H89.5918V200.225C89.5918 197.588 88.291 196.023 85.9531 196.023C83.6855 196.023 82.2266 197.746 82.2266 200.207V211H77.0938ZM104.137 211.299C100.357 211.299 97.8086 208.926 97.8086 205.604V205.568C97.8086 202.141 100.463 200.137 105.139 199.838L109.797 199.557V198.396C109.797 196.727 108.707 195.689 106.703 195.689C104.787 195.689 103.627 196.586 103.381 197.799L103.346 197.957H98.6523L98.6699 197.746C98.9512 194.266 101.939 191.77 106.914 191.77C111.783 191.77 114.93 194.283 114.93 198.08V211H109.797V208.188H109.691C108.619 210.121 106.615 211.299 104.137 211.299ZM102.889 205.34C102.889 206.729 104.031 207.555 105.807 207.555C108.109 207.555 109.797 206.078 109.797 204.109V202.756L105.912 203.002C103.926 203.125 102.889 203.969 102.889 205.305V205.34ZM123.621 211L117.1 192.156H122.584L126.521 206.465H126.627L130.512 192.156H135.873L129.404 211H123.621ZM146.076 211.387C140.311 211.387 136.812 207.643 136.812 201.613V201.596C136.812 195.602 140.346 191.77 145.865 191.77C151.385 191.77 154.848 195.514 154.848 201.209V202.791H141.875C141.928 205.797 143.562 207.555 146.182 207.555C148.291 207.555 149.574 206.395 149.943 205.34L149.979 205.234H154.689L154.637 205.428C154.057 208.205 151.455 211.387 146.076 211.387ZM145.953 195.602C143.844 195.602 142.262 197.008 141.928 199.557H149.926C149.609 196.955 148.08 195.602 145.953 195.602ZM168.311 189.73C166.764 189.73 165.568 188.518 165.568 187.059C165.568 185.6 166.764 184.387 168.311 184.387C169.857 184.387 171.053 185.6 171.053 187.059C171.053 188.518 169.857 189.73 168.311 189.73ZM165.744 211V192.156H170.877V211H165.744ZM182.311 211.387C178.127 211.387 176.158 209.77 176.158 205.727V196.023H173.539V192.156H176.158V187.551H181.344V192.156H184.789V196.023H181.344V205.164C181.344 206.922 182.135 207.52 183.682 207.52C184.139 207.52 184.473 207.467 184.789 207.432V211.193C184.209 211.281 183.383 211.387 182.311 211.387ZM190.791 211.299C189.191 211.299 187.943 210.033 187.943 208.451C187.943 206.852 189.191 205.604 190.791 205.604C192.373 205.604 193.639 206.852 193.639 208.451C193.639 210.033 192.373 211.299 190.791 211.299Z" fill="white"/>
<rect x="14" y="248" width="357" height="470" rx="17" fill="white"/>
<g clip-path="url(#clip1_1617_33426)">
<rect x="22" y="266" width="343" height="74" rx="15" fill="#0156FE"/>
<rect x="34" y="278" width="50" height="50" rx="10" fill="#FF971A" fill-opacity="0.15"/>
<path d="M67.953 300.648C68.3274 298.126 66.4213 296.771 63.8149 295.866L64.6604 292.45L62.596 291.932L61.7728 295.258C61.2301 295.122 60.6727 294.994 60.1188 294.866L60.9479 291.518L58.8847 291L58.0387 294.415C57.5896 294.312 57.1485 294.21 56.7205 294.103L56.7229 294.092L53.8759 293.376L53.3268 295.597C53.3268 295.597 54.8584 295.951 54.8261 295.972C55.6621 296.183 55.8133 296.74 55.7882 297.182L54.825 301.074C54.8826 301.088 54.9573 301.11 55.0397 301.143C54.9708 301.126 54.8975 301.107 54.8215 301.089L53.4714 306.54C53.3693 306.796 53.1099 307.18 52.5254 307.034C52.5461 307.064 51.025 306.657 51.025 306.657L50 309.037L52.6866 309.712C53.1863 309.838 53.6761 309.97 54.1584 310.095L53.3041 313.55L55.3662 314.068L56.2122 310.649C56.7756 310.803 57.3223 310.945 57.8574 311.079L57.0143 314.482L59.0788 315L59.933 311.551C63.4534 312.222 66.1004 311.952 67.2146 308.744C68.1123 306.162 67.1699 304.673 65.3178 303.702C66.6668 303.388 67.6821 302.494 67.953 300.648ZM63.2362 307.31C62.5982 309.893 58.2818 308.497 56.8824 308.147L58.0161 303.569C59.4154 303.921 63.9029 304.617 63.2362 307.31ZM63.8746 300.611C63.2926 302.96 59.7001 301.766 58.5347 301.474L59.5625 297.322C60.7279 297.615 64.4807 298.161 63.8746 300.611Z" fill="#F7931A"/>
<path d="M93.8809 296H98.5137C100.92 296 102.365 294.797 102.365 292.82V292.805C102.365 291.336 101.35 290.258 99.8262 290.094V289.961C100.936 289.773 101.803 288.719 101.803 287.547V287.531C101.803 285.805 100.529 284.727 98.4122 284.727H93.8809V296ZM98.0059 286.156C99.3028 286.156 100.061 286.773 100.061 287.836V287.852C100.061 288.945 99.2559 289.523 97.7091 289.523H95.6309V286.156H98.0059ZM98.0606 290.859C99.7091 290.859 100.576 291.484 100.576 292.695V292.711C100.576 293.922 99.7403 294.57 98.1622 294.57H95.6309V290.859H98.0606ZM104.983 286C105.561 286 106.045 285.523 106.045 284.945C106.045 284.359 105.561 283.883 104.983 283.883C104.397 283.883 103.92 284.359 103.92 284.945C103.92 285.523 104.397 286 104.983 286ZM104.131 296H105.819V287.516H104.131V296ZM111.171 296.055C111.499 296.055 111.811 296.016 112.085 295.969V294.617C111.85 294.641 111.702 294.648 111.444 294.648C110.608 294.648 110.264 294.273 110.264 293.359V288.852H112.085V287.516H110.264V285.375H108.538V287.516H107.21V288.852H108.538V293.766C108.538 295.398 109.303 296.055 111.171 296.055ZM117.218 296.164C119.319 296.164 120.53 295.031 120.835 293.383L120.851 293.312H119.226L119.21 293.352C118.937 294.266 118.28 294.75 117.218 294.75C115.819 294.75 114.952 293.609 114.952 291.734V291.719C114.952 289.891 115.804 288.766 117.218 288.766C118.343 288.766 119.03 289.391 119.218 290.227L119.226 290.25L120.851 290.242V290.203C120.616 288.555 119.343 287.352 117.21 287.352C114.733 287.352 113.226 289.031 113.226 291.719V291.734C113.226 294.477 114.741 296.164 117.218 296.164ZM126.046 296.164C128.531 296.164 130.054 294.5 130.054 291.766V291.75C130.054 289.016 128.523 287.352 126.046 287.352C123.562 287.352 122.031 289.023 122.031 291.75V291.766C122.031 294.5 123.554 296.164 126.046 296.164ZM126.046 294.75C124.585 294.75 123.765 293.648 123.765 291.766V291.75C123.765 289.867 124.585 288.766 126.046 288.766C127.499 288.766 128.327 289.867 128.327 291.75V291.766C128.327 293.641 127.499 294.75 126.046 294.75ZM132.64 286C133.218 286 133.703 285.523 133.703 284.945C133.703 284.359 133.218 283.883 132.64 283.883C132.054 283.883 131.578 284.359 131.578 284.945C131.578 285.523 132.054 286 132.64 286ZM131.789 296H133.476V287.516H131.789V296ZM135.625 296H137.32V291.023C137.32 289.656 138.094 288.805 139.336 288.805C140.578 288.805 141.164 289.5 141.164 290.906V296H142.852V290.508C142.852 288.484 141.805 287.352 139.906 287.352C138.672 287.352 137.859 287.898 137.445 288.805H137.32V287.516H135.625V296Z" fill="white"/>
<path d="M93.8277 319H97.1265C98.9253 319 99.9917 318.115 99.9917 316.633V316.621C99.9917 315.508 99.2593 314.717 98.105 314.57V314.477C98.9195 314.33 99.564 313.533 99.564 312.66V312.648C99.564 311.359 98.6148 310.545 97.062 310.545H93.8277V319ZM96.8394 311.477C97.8882 311.477 98.4976 311.975 98.4976 312.83V312.842C98.4976 313.732 97.8472 314.189 96.5698 314.189H94.8823V311.477H96.8394ZM96.8687 315.098C98.2163 315.098 98.9077 315.596 98.9077 316.568V316.58C98.9077 317.553 98.2398 318.068 96.9683 318.068H94.8823V315.098H96.8687ZM103.672 319H104.726V311.494H107.451V310.545H100.947V311.494H103.672V319ZM111.893 319.199C113.691 319.199 115.027 318.197 115.309 316.65V316.639H114.242L114.23 316.65C113.967 317.623 113.07 318.227 111.893 318.227C110.264 318.227 109.244 316.896 109.244 314.781V314.77C109.244 312.654 110.264 311.318 111.887 311.318C113.053 311.318 113.955 312.004 114.236 313.088L114.242 313.1H115.303L115.309 313.088C115.057 311.465 113.668 310.346 111.887 310.346C109.59 310.346 108.16 312.045 108.16 314.77V314.781C108.16 317.5 109.596 319.199 111.893 319.199Z" fill="#575B66"/>
<path d="M170.225 316.95L168.5 315.357V319.5C168.5 320.052 168.948 320.5 169.5 320.5H251.5C252.052 320.5 252.5 320.052 252.5 319.5V303.571L251.174 307.977C251.114 308.178 250.992 308.354 250.826 308.482L249.721 309.332C249.154 309.768 248.326 309.485 248.144 308.793L246.453 302.353C246.337 301.914 245.94 301.607 245.486 301.607H244.774C244.312 301.607 243.91 301.291 243.802 300.841L243.09 297.886C242.899 297.09 241.838 296.926 241.416 297.628C241.25 297.903 240.952 298.071 240.631 298.071H237.073C236.778 298.071 236.498 297.941 236.308 297.716L235.699 296.992C235.211 296.414 234.284 296.565 234.005 297.267L232.648 300.682C232.289 301.585 230.983 301.497 230.748 300.554L228.741 292.497C228.69 292.29 228.574 292.105 228.41 291.969L226.205 290.138C225.965 289.939 225.646 289.863 225.342 289.933L223.186 290.43C222.736 290.534 222.273 290.316 222.067 289.903L220.751 287.271C220.384 286.537 219.338 286.533 218.965 287.264L217.207 290.713C216.906 291.304 216.055 291.283 215.783 290.679C215.499 290.052 214.605 290.062 214.335 290.696L213.236 293.282C212.876 294.13 211.658 294.081 211.367 293.208L209.833 288.606C209.521 287.67 208.185 287.704 207.921 288.655L206.163 294.982C206.043 295.415 205.649 295.714 205.199 295.714H204.722C204.278 295.714 203.887 296.007 203.762 296.433L200.332 308.121C200.3 308.23 200.25 308.333 200.183 308.425L196.501 313.522C196.118 314.053 195.336 314.078 194.919 313.573L193.949 312.398C193.667 312.056 193.193 311.941 192.786 312.114L190.309 313.169C189.984 313.308 189.756 313.608 189.709 313.959L189.33 316.845C189.265 317.342 188.841 317.714 188.339 317.714H186.672C186.315 317.714 185.985 317.524 185.806 317.215L183.513 313.247C183.138 312.598 182.207 312.577 181.804 313.21L179.168 317.346C178.804 317.917 177.99 317.969 177.556 317.449L175 314.382C174.582 313.881 173.804 313.908 173.422 314.437L171.714 316.8C171.363 317.286 170.666 317.356 170.225 316.95Z" fill="url(#paint0_linear_1617_33426)"/>
<path d="M168.5 315.357L170.225 316.95C170.666 317.356 171.363 317.286 171.714 316.8L173.422 314.437C173.804 313.908 174.582 313.881 175 314.382L177.556 317.449C177.99 317.969 178.804 317.917 179.168 317.346L181.804 313.21C182.207 312.577 183.138 312.598 183.513 313.247L185.806 317.215C185.985 317.524 186.315 317.714 186.672 317.714H188.339C188.841 317.714 189.265 317.342 189.33 316.845L189.709 313.959C189.756 313.608 189.984 313.308 190.309 313.169L192.786 312.114C193.193 311.941 193.667 312.056 193.949 312.398L194.919 313.573C195.336 314.078 196.118 314.053 196.501 313.522L200.183 308.425C200.25 308.333 200.3 308.23 200.332 308.121L203.762 296.433C203.887 296.007 204.278 295.714 204.722 295.714H205.199C205.649 295.714 206.043 295.415 206.163 294.982L207.921 288.655C208.185 287.704 209.521 287.67 209.833 288.606L211.367 293.208C211.658 294.081 212.876 294.13 213.236 293.282L214.335 290.696C214.605 290.062 215.499 290.052 215.783 290.679V290.679C216.055 291.283 216.906 291.304 217.207 290.713L218.965 287.264C219.338 286.533 220.384 286.537 220.751 287.271L222.067 289.903C222.273 290.316 222.736 290.534 223.186 290.43L225.342 289.933C225.646 289.863 225.965 289.939 226.205 290.138L228.41 291.969C228.574 292.105 228.69 292.29 228.741 292.497L230.748 300.554C230.983 301.497 232.289 301.585 232.648 300.682L234.005 297.267C234.284 296.565 235.211 296.414 235.699 296.992L236.308 297.716C236.498 297.941 236.778 298.071 237.073 298.071H240.631C240.952 298.071 241.25 297.903 241.416 297.628V297.628C241.838 296.926 242.899 297.09 243.09 297.886L243.802 300.841C243.91 301.291 244.312 301.607 244.774 301.607H245.486C245.94 301.607 246.337 301.914 246.453 302.353L248.144 308.793C248.326 309.485 249.154 309.768 249.721 309.332L250.78 308.517C250.974 308.368 251.107 308.153 251.153 307.913L252 303.5" stroke="#40BF6A" stroke-linecap="round"/>
<path d="M283.391 295H285.078V292.758H286.633V291.273H285.078V283.727H282.586C281.031 286.062 279.375 288.727 277.891 291.273V292.758H283.391V295ZM279.57 291.305V291.195C280.727 289.219 282.102 287.023 283.312 285.203H283.414V291.305H279.57ZM289.242 295H291.078L295.984 285.242V283.727H288.305V285.203H294.211V285.328L289.242 295ZM296.031 297.93H297.227L298.523 293.344H296.719L296.031 297.93ZM306.156 295H307.844V292.758H309.398V291.273H307.844V283.727H305.352C303.797 286.062 302.141 288.727 300.656 291.273V292.758H306.156V295ZM302.336 291.305V291.195C303.492 289.219 304.867 287.023 306.078 285.203H306.18V291.305H302.336ZM314.117 295H315.867V283.727H314.117L311.148 285.836V287.555L313.984 285.531H314.117V295ZM319.062 295H326.656V293.508H321.445V293.352L323.836 290.969C325.883 288.938 326.477 287.953 326.477 286.672V286.648C326.477 284.789 324.93 283.453 322.828 283.453C320.562 283.453 318.969 284.906 318.961 286.969L318.977 286.984H320.617L320.625 286.961C320.625 285.727 321.469 284.898 322.734 284.898C323.969 284.898 324.727 285.711 324.727 286.812V286.836C324.727 287.75 324.297 288.328 322.805 289.883L319.062 293.812V295ZM330.055 295.117C330.703 295.117 331.195 294.617 331.195 293.984C331.195 293.344 330.703 292.844 330.055 292.844C329.406 292.844 328.906 293.344 328.906 293.984C328.906 294.617 329.406 295.117 330.055 295.117ZM337.289 295.273C339.656 295.273 341.367 293.617 341.367 291.352V291.336C341.367 289.18 339.828 287.586 337.68 287.586C336.141 287.586 335.125 288.391 334.711 289.297H334.562C334.562 289.211 334.562 289.125 334.57 289.039C334.656 286.789 335.445 284.938 337.344 284.938C338.406 284.938 339.141 285.484 339.453 286.344L339.484 286.422H341.219L341.203 286.328C340.828 284.625 339.344 283.453 337.352 283.453C334.562 283.453 332.898 285.703 332.898 289.516V289.531C332.898 293.68 335.023 295.273 337.289 295.273ZM334.906 291.352V291.344C334.906 289.984 335.938 289 337.289 289C338.656 289 339.641 290 339.641 291.383V291.398C339.641 292.75 338.594 293.805 337.273 293.805C335.945 293.805 334.906 292.727 334.906 291.352ZM347.5 295.273C349.875 295.273 351.547 293.68 351.547 291.367V291.352C351.547 289.188 350.031 287.609 347.914 287.609C346.875 287.609 345.992 288.047 345.516 288.805H345.383L345.727 285.211H350.906V283.727H344.352L343.789 290.273H345.297C345.43 290.016 345.609 289.797 345.812 289.617C346.258 289.211 346.844 289.008 347.531 289.008C348.891 289.008 349.875 289.992 349.875 291.383V291.398C349.875 292.812 348.906 293.805 347.516 293.805C346.281 293.805 345.383 293.016 345.234 292.023L345.227 291.961H343.586L343.594 292.062C343.75 293.891 345.281 295.273 347.5 295.273Z" fill="white"/>
<path d="M307.22 319.5H310.78C312.993 319.5 313.893 317.933 312.793 316.02L312.3 315.166C312.18 314.96 311.96 314.833 311.72 314.833H306.28C306.04 314.833 305.82 314.96 305.7 315.166L305.207 316.02C304.107 317.933 305.007 319.5 307.22 319.5Z" fill="#40BF6A"/>
<path opacity="0.4" d="M306.86 314.166H311.147C311.407 314.166 311.567 313.886 311.433 313.666L311.007 312.933C309.907 311.02 308.093 311.02 306.993 312.933L306.567 313.666C306.44 313.886 306.6 314.166 306.86 314.166Z" fill="#40BF6A"/>
<path d="M319.964 317.07H322.589V319.754H323.538V317.07H326.163V316.121H323.538V313.438H322.589V316.121H319.964V317.07ZM329.615 320H330.669V311.545H329.62L327.37 313.162V314.275L329.521 312.717H329.615V320ZM333.417 320.059C333.839 320.059 334.179 319.713 334.179 319.297C334.179 318.875 333.839 318.535 333.417 318.535C333.001 318.535 332.656 318.875 332.656 319.297C332.656 319.713 333.001 320.059 333.417 320.059ZM338.422 320.199C340.127 320.199 341.381 318.975 341.381 317.287V317.275C341.381 315.652 340.197 314.445 338.609 314.445C337.467 314.445 336.67 315.061 336.359 315.752H336.248C336.248 315.688 336.248 315.617 336.254 315.553C336.318 313.789 336.945 312.289 338.48 312.289C339.336 312.289 339.927 312.729 340.185 313.438L340.209 313.502H341.269L341.252 313.426C340.965 312.178 339.91 311.346 338.492 311.346C336.441 311.346 335.24 313.033 335.24 315.916V315.928C335.24 319.109 336.875 320.199 338.422 320.199ZM336.5 317.275V317.27C336.5 316.168 337.332 315.365 338.427 315.365C339.523 315.365 340.32 316.174 340.32 317.299V317.311C340.32 318.406 339.47 319.268 338.41 319.268C337.338 319.268 336.5 318.389 336.5 317.275ZM344.41 315.992C345.488 315.992 346.145 315.113 346.145 313.713V313.707C346.145 312.307 345.488 311.434 344.41 311.434C343.332 311.434 342.682 312.307 342.682 313.707V313.713C342.682 315.113 343.332 315.992 344.41 315.992ZM345.043 320L350.797 311.545H349.848L344.094 320H345.043ZM344.41 315.295C343.83 315.295 343.496 314.703 343.496 313.713V313.707C343.496 312.717 343.83 312.131 344.41 312.131C344.99 312.131 345.33 312.717 345.33 313.707V313.713C345.33 314.703 344.99 315.295 344.41 315.295ZM350.469 320.111C351.547 320.111 352.203 319.232 352.203 317.832V317.826C352.203 316.426 351.547 315.553 350.469 315.553C349.391 315.553 348.74 316.426 348.74 317.826V317.832C348.74 319.232 349.391 320.111 350.469 320.111ZM350.469 319.414C349.889 319.414 349.555 318.822 349.555 317.832V317.826C349.555 316.836 349.889 316.25 350.469 316.25C351.049 316.25 351.389 316.836 351.389 317.826V317.832C351.389 318.822 351.049 319.414 350.469 319.414Z" fill="#40BF6A"/>
<rect x="22" y="356" width="343" height="74" rx="15" fill="#0156FE"/>
<rect x="34" y="368" width="50" height="50" rx="10" fill="#212227"/>
<path d="M68.1912 382.167H71.949L64.1287 389.91C61.2966 392.713 56.705 392.713 53.8709 389.91L46.0475 382.167H49.8084L55.7498 388.049C56.6155 388.902 57.7821 389.38 58.9975 389.38C60.213 389.38 61.3796 388.902 62.2452 388.049L68.1912 382.167Z" fill="white"/>
<path d="M49.7604 403.699H46L53.8711 395.908C56.7032 393.105 61.2948 393.105 64.1289 395.908L72 403.699H68.2422L62.25 397.769C61.3843 396.916 60.2177 396.437 59.0023 396.437C57.7869 396.437 56.6202 396.916 55.7546 397.769L49.7604 403.699Z" fill="white"/>
<path d="M93.5609 386H95.3109V381.664H97.7797L100.077 386H102.1L99.5687 381.391C100.944 380.93 101.756 379.695 101.756 378.18V378.164C101.756 376.07 100.319 374.727 98.0062 374.727H93.5609V386ZM95.3109 380.242V376.195H97.7797C99.1312 376.195 99.9594 376.961 99.9594 378.211V378.227C99.9594 379.508 99.1781 380.242 97.8344 380.242H95.3109ZM104.616 376C105.194 376 105.678 375.523 105.678 374.945C105.678 374.359 105.194 373.883 104.616 373.883C104.03 373.883 103.553 374.359 103.553 374.945C103.553 375.523 104.03 376 104.616 376ZM103.764 386H105.452V377.516H103.764V386ZM107.601 388.828H109.296V384.656H109.421C109.874 385.57 110.866 386.141 112.03 386.141C114.187 386.141 115.546 384.453 115.546 381.766V381.75C115.546 379.078 114.171 377.367 112.03 377.367C110.843 377.367 109.913 377.922 109.421 378.852H109.296V377.516H107.601V388.828ZM111.554 384.695C110.14 384.695 109.265 383.578 109.265 381.766V381.75C109.265 379.938 110.14 378.82 111.554 378.82C112.968 378.82 113.819 379.922 113.819 381.75V381.766C113.819 383.586 112.968 384.695 111.554 384.695ZM117.265 388.828H118.96V384.656H119.085C119.538 385.57 120.531 386.141 121.695 386.141C123.851 386.141 125.21 384.453 125.21 381.766V381.75C125.21 379.078 123.835 377.367 121.695 377.367C120.507 377.367 119.577 377.922 119.085 378.852H118.96V377.516H117.265V388.828ZM121.218 384.695C119.804 384.695 118.929 383.578 118.929 381.766V381.75C118.929 379.938 119.804 378.82 121.218 378.82C122.632 378.82 123.484 379.922 123.484 381.75V381.766C123.484 383.586 122.632 384.695 121.218 384.695ZM127.007 386H128.703V374.188H127.007V386ZM134.469 386.164C136.641 386.164 137.812 384.914 138.094 383.797L138.109 383.727L136.477 383.734L136.445 383.797C136.242 384.234 135.594 384.773 134.508 384.773C133.109 384.773 132.219 383.828 132.188 382.203H138.203V381.609C138.203 379.062 136.75 377.352 134.383 377.352C132.016 377.352 130.484 379.125 130.484 381.773V381.781C130.484 384.469 131.984 386.164 134.469 386.164ZM134.391 378.742C135.539 378.742 136.391 379.477 136.523 380.992H132.211C132.359 379.531 133.234 378.742 134.391 378.742Z" fill="white"/>
<path d="M93.3882 409H94.5835L96.8628 405.625H96.898L99.148 409H100.414L97.5542 404.805V404.781L100.478 400.545H99.2769L96.9917 403.949H96.9566L94.6948 400.545H93.4234L96.271 404.729V404.752L93.3882 409ZM101.849 409H102.904V405.654H104.984L106.795 409H108.031L106.074 405.49C107.135 405.156 107.773 404.242 107.773 403.07V403.059C107.773 401.541 106.707 400.545 105.078 400.545H101.849V409ZM102.904 404.717V401.482H104.937C106.027 401.482 106.683 402.086 106.683 403.094V403.105C106.683 404.137 106.068 404.717 104.984 404.717H102.904ZM109.449 409H110.504V405.982H112.637C114.225 405.982 115.35 404.863 115.35 403.258V403.246C115.35 401.641 114.225 400.545 112.637 400.545H109.449V409ZM112.367 401.482C113.574 401.482 114.271 402.145 114.271 403.258V403.27C114.271 404.383 113.574 405.045 112.367 405.045H110.504V401.482H112.367Z" fill="#575B66"/>
<path d="M176.842 407.135H174V411.75C174 412.302 174.448 412.75 175 412.75H257C257.552 412.75 258 412.302 258 411.75V377.245L255.5 375.75L253.439 374.101C253.166 373.883 252.8 373.823 252.472 373.942L247.711 375.673C247.572 375.724 247.446 375.804 247.342 375.91L244.662 378.617C244.367 378.915 243.917 378.997 243.536 378.823L241.112 377.718C240.562 377.467 239.917 377.758 239.74 378.337L237.553 385.518C237.318 386.287 236.318 386.479 235.815 385.851L234.012 383.596C233.731 383.245 233.183 383.3 232.977 383.7C232.803 384.038 232.369 384.141 232.061 383.917L231.501 383.508C231.019 383.156 230.339 383.302 230.043 383.82L228.41 386.679C228.189 387.066 227.738 387.26 227.305 387.155L225.89 386.811C225.371 386.684 224.845 386.988 224.695 387.5L222.026 396.583C221.94 396.876 221.725 397.114 221.443 397.228L218.1 398.583C217.632 398.772 217.096 398.584 216.85 398.143L214.86 394.569C214.472 393.871 213.462 393.888 213.097 394.598L212.594 395.578C212.479 395.802 212.283 395.974 212.047 396.06L209.79 396.883C209.506 396.987 209.285 397.213 209.187 397.498L207.72 401.777C207.613 402.09 207.358 402.33 207.038 402.417L203.78 403.308C203.567 403.367 203.379 403.494 203.246 403.671L201.372 406.156C200.991 406.661 200.242 406.69 199.824 406.215L198.905 405.172C198.575 404.798 198.019 404.724 197.603 404.999L192.495 408.375C192.152 408.601 191.706 408.595 191.369 408.359L190.208 407.545C189.857 407.3 189.39 407.304 189.044 407.556L187.837 408.437C187.665 408.562 187.459 408.629 187.247 408.629H183.891C183.625 408.629 183.37 408.523 183.183 408.335L180.176 405.32C179.752 404.894 179.051 404.936 178.681 405.409L177.63 406.751C177.44 406.993 177.15 407.135 176.842 407.135Z" fill="url(#paint1_linear_1617_33426)"/>
<path d="M174.5 407.135H176.842C177.15 407.135 177.44 406.993 177.63 406.751L178.681 405.409C179.051 404.936 179.752 404.894 180.176 405.32L183.183 408.335C183.37 408.523 183.625 408.629 183.891 408.629H187.247C187.459 408.629 187.665 408.562 187.837 408.437L188.885 407.672C189.303 407.368 189.883 407.431 190.225 407.819L191.29 409.027C191.645 409.431 192.256 409.481 192.673 409.141L197.583 405.129C198 404.788 198.611 404.839 198.966 405.242L199.824 406.215C200.242 406.69 200.991 406.661 201.372 406.156L203.246 403.671C203.379 403.494 203.567 403.367 203.78 403.308L207.038 402.417C207.358 402.33 207.613 402.09 207.72 401.777L209.187 397.498C209.285 397.213 209.506 396.987 209.79 396.883L212.047 396.06C212.283 395.974 212.479 395.802 212.594 395.578L213.097 394.598C213.462 393.888 214.472 393.871 214.86 394.569L216.85 398.143C217.096 398.584 217.632 398.772 218.1 398.583L221.443 397.228C221.725 397.114 221.94 396.876 222.026 396.583L224.695 387.5C224.845 386.988 225.371 386.684 225.89 386.811L227.305 387.155C227.738 387.26 228.189 387.066 228.41 386.679L230.043 383.82C230.339 383.302 231.019 383.156 231.501 383.508L232.061 383.917C232.369 384.141 232.803 384.038 232.977 383.7V383.7C233.183 383.3 233.732 383.245 234.012 383.596L235.815 385.851C236.318 386.479 237.318 386.287 237.553 385.518L239.741 378.337C239.917 377.758 240.562 377.467 241.112 377.718L243.536 378.823C243.917 378.997 244.367 378.915 244.662 378.617L247.371 375.881C247.456 375.794 247.557 375.724 247.667 375.674L252.408 373.519C252.768 373.355 253.19 373.419 253.486 373.681L257.5 377.245" stroke="#DF2040" stroke-linecap="round"/>
<path d="M307.977 386H309.727V374.727H307.977L305.008 376.836V378.555L307.844 376.531H307.977V386ZM313.82 386.117C314.469 386.117 314.961 385.617 314.961 384.984C314.961 384.344 314.469 383.844 313.82 383.844C313.172 383.844 312.672 384.344 312.672 384.984C312.672 385.617 313.172 386.117 313.82 386.117ZM319.742 386H321.492V374.727H319.742L316.773 376.836V378.555L319.609 376.531H319.742V386ZM327.445 386H329.195V374.727H327.445L324.477 376.836V378.555L327.312 376.531H327.445V386ZM336.438 386.211C338.945 386.211 340.711 384.867 340.711 382.953V382.938C340.711 381.516 339.688 380.383 338.211 380.062V380.023C339.477 379.664 340.297 378.719 340.297 377.523V377.508C340.297 375.781 338.688 374.516 336.438 374.516C334.195 374.516 332.578 375.781 332.578 377.508V377.523C332.578 378.719 333.406 379.664 334.672 380.023V380.062C333.195 380.383 332.172 381.516 332.172 382.938V382.953C332.172 384.867 333.938 386.211 336.438 386.211ZM336.438 379.438C335.18 379.438 334.312 378.703 334.312 377.672V377.656C334.312 376.625 335.18 375.906 336.438 375.906C337.695 375.906 338.562 376.625 338.562 377.656V377.672C338.562 378.703 337.703 379.438 336.438 379.438ZM336.438 384.805C335 384.805 333.977 383.984 333.977 382.844V382.828C333.977 381.672 334.992 380.836 336.438 380.836C337.891 380.836 338.906 381.672 338.906 382.828V382.844C338.906 383.984 337.883 384.805 336.438 384.805ZM348.109 386H349.797V383.758H351.352V382.273H349.797V374.727H347.305C345.75 377.062 344.094 379.727 342.609 382.273V383.758H348.109V386ZM344.289 382.305V382.195C345.445 380.219 346.82 378.023 348.031 376.203H348.133V382.305H344.289Z" fill="white"/>
<path d="M299.22 400.5H302.78C304.993 400.5 305.893 402.067 304.793 403.98L304.3 404.833C304.18 405.04 303.96 405.167 303.72 405.167H298.28C298.04 405.167 297.82 405.04 297.7 404.833L297.207 403.98C296.107 402.067 297.007 400.5 299.22 400.5Z" fill="#DF2040"/>
<path opacity="0.4" d="M298.86 405.833H303.147C303.407 405.833 303.567 406.113 303.433 406.333L303.007 407.066C301.907 408.98 300.093 408.98 298.993 407.066L298.567 406.333C298.44 406.113 298.6 405.833 298.86 405.833Z" fill="#DF2040"/>
<path d="M312.745 406.07H316.682V405.121H312.745V406.07ZM321.077 409.199C322.946 409.199 324.071 407.494 324.071 404.775V404.764C324.071 402.045 322.946 400.346 321.077 400.346C319.208 400.346 318.095 402.045 318.095 404.764V404.775C318.095 407.494 319.208 409.199 321.077 409.199ZM321.077 408.279C319.864 408.279 319.155 406.932 319.155 404.775V404.764C319.155 402.607 319.864 401.271 321.077 401.271C322.29 401.271 323.011 402.607 323.011 404.764V404.775C323.011 406.932 322.29 408.279 321.077 408.279ZM325.935 409.059C326.357 409.059 326.697 408.713 326.697 408.297C326.697 407.875 326.357 407.535 325.935 407.535C325.519 407.535 325.173 407.875 325.173 408.297C325.173 408.713 325.519 409.059 325.935 409.059ZM330.898 409.141C332.691 409.141 333.968 408.133 333.968 406.715V406.703C333.968 405.66 333.236 404.793 332.152 404.541V404.518C333.078 404.23 333.664 403.527 333.664 402.637V402.625C333.664 401.348 332.498 400.404 330.898 400.404C329.298 400.404 328.132 401.348 328.132 402.625V402.637C328.132 403.527 328.718 404.23 329.644 404.518V404.541C328.56 404.793 327.828 405.66 327.828 406.703V406.715C327.828 408.133 329.105 409.141 330.898 409.141ZM330.898 404.125C329.878 404.125 329.181 403.545 329.181 402.725V402.713C329.181 401.893 329.878 401.312 330.898 401.312C331.917 401.312 332.615 401.893 332.615 402.713V402.725C332.615 403.545 331.917 404.125 330.898 404.125ZM330.898 408.221C329.732 408.221 328.9 407.564 328.9 406.65V406.639C328.9 405.713 329.726 405.051 330.898 405.051C332.07 405.051 332.896 405.713 332.896 406.639V406.65C332.896 407.564 332.064 408.221 330.898 408.221ZM338.422 409.199C340.127 409.199 341.381 407.975 341.381 406.287V406.275C341.381 404.652 340.197 403.445 338.609 403.445C337.467 403.445 336.67 404.061 336.359 404.752H336.248C336.248 404.688 336.248 404.617 336.254 404.553C336.318 402.789 336.945 401.289 338.48 401.289C339.336 401.289 339.928 401.729 340.185 402.438L340.209 402.502H341.269L341.252 402.426C340.965 401.178 339.91 400.346 338.492 400.346C336.441 400.346 335.24 402.033 335.24 404.916V404.928C335.24 408.109 336.875 409.199 338.422 409.199ZM336.5 406.275V406.27C336.5 405.168 337.332 404.365 338.428 404.365C339.523 404.365 340.32 405.174 340.32 406.299V406.311C340.32 407.406 339.47 408.268 338.41 408.268C337.338 408.268 336.5 407.389 336.5 406.275ZM344.41 404.992C345.488 404.992 346.145 404.113 346.145 402.713V402.707C346.145 401.307 345.488 400.434 344.41 400.434C343.332 400.434 342.682 401.307 342.682 402.707V402.713C342.682 404.113 343.332 404.992 344.41 404.992ZM345.043 409L350.797 400.545H349.848L344.094 409H345.043ZM344.41 404.295C343.83 404.295 343.496 403.703 343.496 402.713V402.707C343.496 401.717 343.83 401.131 344.41 401.131C344.99 401.131 345.33 401.717 345.33 402.707V402.713C345.33 403.703 344.99 404.295 344.41 404.295ZM350.469 409.111C351.547 409.111 352.203 408.232 352.203 406.832V406.826C352.203 405.426 351.547 404.553 350.469 404.553C349.391 404.553 348.74 405.426 348.74 406.826V406.832C348.74 408.232 349.391 409.111 350.469 409.111ZM350.469 408.414C349.889 408.414 349.555 407.822 349.555 406.832V406.826C349.555 405.836 349.889 405.25 350.469 405.25C351.049 405.25 351.389 405.836 351.389 406.826V406.832C351.389 407.822 351.049 408.414 350.469 408.414Z" fill="#DF2040"/>
<rect x="22" y="446" width="343" height="74" rx="15" fill="#0156FE"/>
<rect x="34" y="458" width="50" height="50" rx="10" fill="#181F2C"/>
<g clip-path="url(#clip2_1617_33426)">
<path d="M58.9999 498.16C67.3726 498.16 74.1599 491.373 74.1599 483C74.1599 474.627 67.3726 467.84 58.9999 467.84C50.6272 467.84 43.8398 474.627 43.8398 483C43.8398 491.373 50.6272 498.16 58.9999 498.16Z" fill="white"/>
<path d="M59 466C55.6377 466 52.3509 466.997 49.5553 468.865C46.7596 470.733 44.5807 473.388 43.294 476.494C42.0073 479.601 41.6707 483.019 42.3266 486.317C42.9826 489.614 44.6017 492.643 46.9792 495.021C49.3567 497.398 52.3858 499.017 55.6834 499.673C58.9811 500.329 62.3993 499.993 65.5056 498.706C68.6119 497.419 71.267 495.24 73.135 492.445C75.0029 489.649 76 486.362 76 483C76.0065 480.774 75.5745 478.569 74.7286 476.51C73.8828 474.45 72.6396 472.578 71.0702 471C69.5008 469.421 67.6358 468.167 65.5817 467.309C63.5277 466.451 61.3248 466.006 59.0988 466H59ZM59.2881 483.576L57.5181 489.545H66.9854C67.0482 489.543 67.1107 489.553 67.1695 489.575C67.2282 489.597 67.2821 489.63 67.328 489.673C67.3739 489.716 67.4108 489.767 67.4368 489.824C67.4628 489.881 67.4773 489.943 67.4794 490.006V490.162L66.6562 493.002C66.6199 493.137 66.539 493.255 66.4268 493.337C66.3146 493.419 66.1777 493.461 66.0387 493.455H51.5496L53.9782 485.182L51.2615 486.005L51.8789 484.111L54.5956 483.288L58.0121 471.68C58.0497 471.547 58.1309 471.43 58.2428 471.348C58.3547 471.266 58.4908 471.223 58.6295 471.228H62.293C62.3557 471.225 62.4182 471.236 62.477 471.258C62.5357 471.28 62.5896 471.313 62.6355 471.356C62.6814 471.399 62.7183 471.45 62.7443 471.507C62.7703 471.564 62.7848 471.626 62.7869 471.689V471.845L59.9055 481.642L62.6223 480.818L62.046 482.794L59.2881 483.576Z" fill="#181F2C"/>
</g>
<path d="M94.1694 477H102.08V475.304H96.1382V464.317H94.1694V477ZM104.989 465.75C105.639 465.75 106.184 465.214 106.184 464.563C106.184 463.904 105.639 463.368 104.989 463.368C104.33 463.368 103.794 463.904 103.794 464.563C103.794 465.214 104.33 465.75 104.989 465.75ZM104.031 477H105.93V467.455H104.031V477ZM111.95 477.062C112.32 477.062 112.671 477.018 112.979 476.965V475.444C112.715 475.471 112.548 475.479 112.258 475.479C111.318 475.479 110.931 475.058 110.931 474.029V468.958H112.979V467.455H110.931V465.047H108.988V467.455H107.494V468.958H108.988V474.486C108.988 476.323 109.85 477.062 111.95 477.062ZM118.745 477.185C121.188 477.185 122.506 475.778 122.823 474.521L122.84 474.442L121.003 474.451L120.968 474.521C120.74 475.014 120.01 475.62 118.789 475.62C117.215 475.62 116.213 474.557 116.178 472.729H122.946V472.061C122.946 469.195 121.311 467.271 118.648 467.271C115.985 467.271 114.262 469.266 114.262 472.245V472.254C114.262 475.277 115.95 477.185 118.745 477.185ZM118.657 468.835C119.949 468.835 120.907 469.661 121.056 471.366H116.205C116.372 469.723 117.356 468.835 118.657 468.835ZM128.87 477.185C131.234 477.185 132.597 475.91 132.939 474.056L132.957 473.977H131.129L131.111 474.021C130.804 475.049 130.065 475.594 128.87 475.594C127.297 475.594 126.321 474.311 126.321 472.201V472.184C126.321 470.127 127.279 468.861 128.87 468.861C130.136 468.861 130.909 469.564 131.12 470.505L131.129 470.531L132.957 470.522V470.479C132.693 468.624 131.261 467.271 128.861 467.271C126.075 467.271 124.379 469.16 124.379 472.184V472.201C124.379 475.286 126.084 477.185 128.87 477.185ZM138.802 477.185C141.597 477.185 143.311 475.312 143.311 472.236V472.219C143.311 469.143 141.588 467.271 138.802 467.271C136.007 467.271 134.284 469.151 134.284 472.219V472.236C134.284 475.312 135.998 477.185 138.802 477.185ZM138.802 475.594C137.158 475.594 136.236 474.354 136.236 472.236V472.219C136.236 470.101 137.158 468.861 138.802 468.861C140.437 468.861 141.368 470.101 141.368 472.219V472.236C141.368 474.346 140.437 475.594 138.802 475.594ZM146.22 465.75C146.871 465.75 147.416 465.214 147.416 464.563C147.416 463.904 146.871 463.368 146.22 463.368C145.561 463.368 145.025 463.904 145.025 464.563C145.025 465.214 145.561 465.75 146.22 465.75ZM145.262 477H147.161V467.455H145.262V477ZM149.578 477H151.485V471.401C151.485 469.863 152.355 468.905 153.753 468.905C155.15 468.905 155.81 469.688 155.81 471.27V477H157.708V470.821C157.708 468.545 156.53 467.271 154.395 467.271C153.006 467.271 152.092 467.886 151.626 468.905H151.485V467.455H149.578V477Z" fill="white"/>
<path d="M94.0073 500H99.1402V499.051H95.062V491.545H94.0073V500ZM101.672 500H102.726V492.494H105.451V491.545H98.947V492.494H101.672V500ZM109.893 500.199C111.691 500.199 113.027 499.197 113.309 497.65V497.639H112.242L112.23 497.65C111.967 498.623 111.07 499.227 109.893 499.227C108.264 499.227 107.244 497.896 107.244 495.781V495.77C107.244 493.654 108.264 492.318 109.887 492.318C111.053 492.318 111.955 493.004 112.236 494.088L112.242 494.1H113.303L113.309 494.088C113.057 492.465 111.668 491.346 109.887 491.346C107.59 491.346 106.16 493.045 106.16 495.77V495.781C106.16 498.5 107.596 500.199 109.893 500.199Z" fill="#575B66"/>
<path d="M190.307 496.913H188V499.5C188 500.052 188.448 500.5 189 500.5H271C271.552 500.5 272 500.052 272 499.5V474L269.215 483.826C268.92 484.868 267.411 484.763 267.262 483.69L266.645 479.22C266.534 478.42 265.57 478.075 264.977 478.622L264.617 478.952C264.109 479.421 263.29 479.244 263.02 478.608L262.224 476.738C261.92 476.022 260.95 475.912 260.494 476.543L256.434 482.152C256.142 482.556 255.586 482.666 255.162 482.403C254.637 482.077 253.945 482.331 253.756 482.92L251.832 488.918C251.529 489.864 250.181 489.836 249.916 488.879L248.274 482.938C248.262 482.892 248.246 482.848 248.227 482.804L246.002 477.706C245.671 476.946 244.612 476.897 244.211 477.623L243.77 478.419C243.455 478.99 242.687 479.111 242.211 478.665L240.162 476.746C239.581 476.202 238.628 476.521 238.493 477.306L237.556 482.731C237.54 482.823 237.511 482.912 237.471 482.996L236.535 484.93C236.192 485.64 235.202 485.692 234.786 485.023L233.681 483.247C233.532 483.007 233.288 482.841 233.01 482.791L232.048 482.617C231.657 482.546 231.345 482.25 231.253 481.863L228.952 472.146C228.739 471.249 227.528 471.093 227.096 471.907L227.044 472.005C226.61 472.822 225.394 472.662 225.186 471.76L224.527 468.896C224.301 467.917 222.935 467.844 222.607 468.794L220.913 473.696C220.774 474.099 220.395 474.37 219.968 474.37H217.248C216.852 474.37 216.493 474.604 216.333 474.967L215.546 476.758C215.264 477.4 214.354 477.4 214.072 476.758C213.753 476.033 212.688 476.156 212.543 476.935L208.763 497.211C208.711 497.492 208.541 497.737 208.296 497.884L206.675 498.862C206.13 499.19 205.421 498.933 205.214 498.332L203.909 494.556C203.652 493.813 202.679 493.643 202.185 494.255L199.165 498.002C198.657 498.632 197.649 498.429 197.425 497.651L196.709 495.164C196.69 495.098 196.665 495.035 196.633 494.974L194.529 490.992C194.107 490.194 192.928 490.318 192.682 491.187L191.27 496.185C191.148 496.616 190.755 496.913 190.307 496.913Z" fill="url(#paint2_linear_1617_33426)"/>
<path d="M188 496.913H190.307C190.755 496.913 191.148 496.616 191.27 496.185L192.682 491.187C192.928 490.318 194.107 490.194 194.529 490.992L196.633 494.974C196.665 495.035 196.69 495.098 196.709 495.164L197.425 497.651C197.649 498.429 198.657 498.632 199.165 498.002L202.185 494.255C202.679 493.643 203.652 493.813 203.909 494.556L205.214 498.332C205.421 498.933 206.13 499.19 206.675 498.862L208.296 497.884C208.541 497.737 208.711 497.492 208.763 497.211L212.543 476.935C212.688 476.156 213.753 476.033 214.072 476.758V476.758C214.354 477.4 215.264 477.4 215.546 476.758L216.333 474.967C216.493 474.604 216.852 474.37 217.248 474.37H219.968C220.395 474.37 220.774 474.099 220.913 473.696L222.607 468.794C222.935 467.844 224.301 467.917 224.527 468.896L225.186 471.76C225.394 472.662 226.61 472.822 227.044 472.005L227.096 471.907C227.528 471.093 228.739 471.249 228.952 472.146L231.253 481.863C231.345 482.25 231.657 482.546 232.048 482.617L233.01 482.791C233.288 482.841 233.532 483.007 233.681 483.247L234.786 485.023C235.202 485.692 236.192 485.64 236.535 484.93L237.471 482.996C237.511 482.912 237.54 482.823 237.556 482.731L238.493 477.306C238.628 476.521 239.581 476.202 240.162 476.746L242.211 478.665C242.687 479.111 243.455 478.99 243.77 478.419L244.211 477.623C244.612 476.897 245.671 476.946 246.002 477.706L248.227 482.804C248.246 482.848 248.262 482.892 248.274 482.938L249.916 488.879C250.181 489.836 251.529 489.864 251.832 488.918L253.756 482.92C253.945 482.331 254.637 482.077 255.162 482.403V482.403C255.586 482.666 256.142 482.556 256.434 482.152L260.494 476.543C260.95 475.912 261.92 476.022 262.224 476.738L263.02 478.608C263.29 479.244 264.109 479.421 264.617 478.952L264.977 478.622C265.57 478.075 266.534 478.42 266.645 479.22L267.205 483.277C267.356 484.368 268.901 484.45 269.166 483.382L271.5 474" stroke="#40BF6A" stroke-linecap="round"/>
<path d="M308.474 477H310.442V464.317H308.474L305.134 466.69V468.624L308.324 466.348H308.474V477ZM318.722 477.308C321.385 477.308 323.31 475.444 323.31 472.896V472.878C323.31 470.452 321.578 468.659 319.161 468.659C317.43 468.659 316.287 469.564 315.821 470.584H315.654C315.654 470.487 315.654 470.391 315.663 470.294C315.76 467.763 316.647 465.68 318.783 465.68C319.979 465.68 320.805 466.295 321.156 467.262L321.191 467.35H323.143L323.125 467.244C322.703 465.328 321.033 464.01 318.792 464.01C315.654 464.01 313.782 466.541 313.782 470.83V470.848C313.782 475.515 316.173 477.308 318.722 477.308ZM316.041 472.896V472.887C316.041 471.357 317.201 470.25 318.722 470.25C320.26 470.25 321.367 471.375 321.367 472.931V472.948C321.367 474.469 320.189 475.655 318.704 475.655C317.21 475.655 316.041 474.442 316.041 472.896ZM330.156 464.01C327.493 464.01 325.56 465.873 325.56 468.422V468.439C325.56 470.865 327.3 472.658 329.717 472.658C331.439 472.658 332.591 471.753 333.048 470.733H333.224C333.224 470.83 333.215 470.927 333.215 471.023C333.118 473.555 332.222 475.638 330.086 475.638C328.899 475.638 328.073 475.022 327.713 474.056L327.687 473.968H325.727L325.753 474.073C326.166 475.989 327.836 477.308 330.086 477.308C333.224 477.308 335.096 474.776 335.096 470.479V470.461C335.096 465.803 332.696 464.01 330.156 464.01ZM330.147 471.067C328.618 471.067 327.502 469.942 327.502 468.387V468.369C327.502 466.849 328.688 465.662 330.174 465.662C331.668 465.662 332.837 466.875 332.837 468.422V468.431C332.837 469.96 331.668 471.067 330.147 471.067ZM338.269 477.132C338.998 477.132 339.552 476.569 339.552 475.857C339.552 475.137 338.998 474.574 338.269 474.574C337.539 474.574 336.977 475.137 336.977 475.857C336.977 476.569 337.539 477.132 338.269 477.132ZM346.407 477.308C349.07 477.308 350.995 475.444 350.995 472.896V472.878C350.995 470.452 349.264 468.659 346.847 468.659C345.115 468.659 343.973 469.564 343.507 470.584H343.34C343.34 470.487 343.34 470.391 343.349 470.294C343.445 467.763 344.333 465.68 346.469 465.68C347.664 465.68 348.49 466.295 348.842 467.262L348.877 467.35H350.828L350.811 467.244C350.389 465.328 348.719 464.01 346.478 464.01C343.34 464.01 341.468 466.541 341.468 470.83V470.848C341.468 475.515 343.858 477.308 346.407 477.308ZM343.727 472.896V472.887C343.727 471.357 344.887 470.25 346.407 470.25C347.945 470.25 349.053 471.375 349.053 472.931V472.948C349.053 474.469 347.875 475.655 346.39 475.655C344.896 475.655 343.727 474.442 343.727 472.896Z" fill="white"/>
<path d="M307.22 499.5H310.78C312.993 499.5 313.893 497.933 312.793 496.02L312.3 495.166C312.18 494.96 311.96 494.833 311.72 494.833H306.28C306.04 494.833 305.82 494.96 305.7 495.166L305.207 496.02C304.107 497.933 305.007 499.5 307.22 499.5Z" fill="#40BF6A"/>
<path opacity="0.4" d="M306.86 494.166H311.147C311.407 494.166 311.567 493.886 311.433 493.666L311.007 492.933C309.907 491.02 308.093 491.02 306.993 492.933L306.567 493.666C306.44 493.886 306.6 494.166 306.86 494.166Z" fill="#40BF6A"/>
<path d="M320.128 497.07H322.753V499.754H323.702V497.07H326.327V496.121H323.702V493.438H322.753V496.121H320.128V497.07ZM329.779 500H330.833V491.545H329.784L327.534 493.162V494.275L329.685 492.717H329.779V500ZM333.582 500.059C334.003 500.059 334.343 499.713 334.343 499.297C334.343 498.875 334.003 498.535 333.582 498.535C333.166 498.535 332.82 498.875 332.82 499.297C332.82 499.713 333.166 500.059 333.582 500.059ZM335.832 500H341.304V499.051H337.297V498.957L339.219 496.971C340.748 495.395 341.164 494.691 341.164 493.725V493.713C341.164 492.348 340.033 491.346 338.556 491.346C336.939 491.346 335.779 492.424 335.773 493.924L335.785 493.93L336.793 493.936L336.799 493.924C336.799 492.928 337.472 492.266 338.486 492.266C339.482 492.266 340.086 492.934 340.086 493.824V493.836C340.086 494.574 339.769 495.014 338.691 496.18L335.832 499.273V500ZM344.41 495.992C345.488 495.992 346.145 495.113 346.145 493.713V493.707C346.145 492.307 345.488 491.434 344.41 491.434C343.332 491.434 342.682 492.307 342.682 493.707V493.713C342.682 495.113 343.332 495.992 344.41 495.992ZM345.043 500L350.797 491.545H349.848L344.094 500H345.043ZM344.41 495.295C343.83 495.295 343.496 494.703 343.496 493.713V493.707C343.496 492.717 343.83 492.131 344.41 492.131C344.99 492.131 345.33 492.717 345.33 493.707V493.713C345.33 494.703 344.99 495.295 344.41 495.295ZM350.469 500.111C351.547 500.111 352.203 499.232 352.203 497.832V497.826C352.203 496.426 351.547 495.553 350.469 495.553C349.391 495.553 348.74 496.426 348.74 497.826V497.832C348.74 499.232 349.391 500.111 350.469 500.111ZM350.469 499.414C349.889 499.414 349.555 498.822 349.555 497.832V497.826C349.555 496.836 349.889 496.25 350.469 496.25C351.049 496.25 351.389 496.836 351.389 497.826V497.832C351.389 498.822 351.049 499.414 350.469 499.414Z" fill="#40BF6A"/>
<rect x="22" y="536" width="343" height="74" rx="15" fill="#0156FE"/>
<rect x="34" y="548" width="50" height="50" rx="10" fill="url(#paint3_linear_1617_33426)"/>
<path d="M65.6017 568.936C65.4897 569.048 65.3393 569.112 65.1825 569.112H50.3185C49.7937 569.112 49.5281 568.472 49.8929 568.091L52.3313 565.566C52.4433 565.451 52.5969 565.384 52.7569 565.384H67.6753C68.2033 565.384 68.4689 566.03 68.0945 566.411L65.6017 568.936ZM65.6017 580.219C65.4897 580.328 65.3393 580.392 65.1825 580.392H50.3185C49.7937 580.392 49.5281 579.768 49.8929 579.397L52.3313 576.933C52.4433 576.821 52.5969 576.757 52.7569 576.757H67.6753C68.2033 576.757 68.4689 577.387 68.0945 577.758L65.6017 580.219ZM65.1825 571.07C65.3393 571.07 65.4897 571.131 65.6017 571.243L68.0945 573.707C68.4689 574.075 68.2033 574.709 67.6753 574.709H52.7569C52.5969 574.709 52.4433 574.645 52.3313 574.533L49.8929 572.069C49.5249 571.697 49.7905 571.073 50.3185 571.073L65.1825 571.07Z" fill="#00FFAD"/>
<path fill-rule="evenodd" clip-rule="evenodd" d="M50.3984 571.474H65.2048C65.3904 571.474 65.5664 571.547 65.6944 571.679L68.0368 574.037C68.4688 574.472 68.1616 575.215 67.5472 575.215H52.7408C52.5552 575.215 52.3792 575.141 52.2512 575.01L49.9088 572.651C49.4736 572.216 49.784 571.474 50.3984 571.474ZM49.9088 568.347L52.2512 565.989C52.3824 565.858 52.5584 565.784 52.7408 565.784H67.544C68.1584 565.784 68.4688 566.527 68.0336 566.962L65.6944 569.32C65.5632 569.451 65.3872 569.525 65.2048 569.525H50.3984C49.784 569.525 49.4736 568.783 49.9088 568.347ZM68.0336 578.341L65.6912 580.699C65.56 580.831 65.384 580.904 65.2016 580.904H50.3984C49.784 580.904 49.4736 580.162 49.9088 579.727L52.2512 577.368C52.3824 577.237 52.5584 577.163 52.7408 577.163H67.544C68.1584 577.163 68.4688 577.906 68.0336 578.341Z" fill="url(#paint4_linear_1617_33426)"/>
<path d="M98.1447 567.308C101.098 567.308 102.987 565.796 102.987 563.37V563.361C102.987 561.48 101.898 560.408 99.2346 559.837L97.8547 559.529C96.2111 559.178 95.5432 558.562 95.5432 557.622V557.613C95.5432 556.418 96.6418 555.724 98.1271 555.724C99.6652 555.715 100.658 556.471 100.825 557.508L100.843 557.622H102.75L102.741 557.499C102.601 555.53 100.843 554.01 98.1535 554.01C95.4641 554.01 93.5656 555.521 93.5568 557.71V557.719C93.5568 559.591 94.6643 560.786 97.2395 561.331L98.6281 561.63C100.307 561.99 100.992 562.623 100.992 563.599V563.607C100.992 564.785 99.841 565.594 98.2238 565.594C96.5275 565.594 95.3059 564.855 95.2004 563.704L95.1916 563.607H93.258L93.2668 563.722C93.4426 565.857 95.2795 567.308 98.1447 567.308ZM109.044 567.185C111.838 567.185 113.552 565.312 113.552 562.236V562.219C113.552 559.143 111.83 557.271 109.044 557.271C106.249 557.271 104.526 559.151 104.526 562.219V562.236C104.526 565.312 106.24 567.185 109.044 567.185ZM109.044 565.594C107.4 565.594 106.477 564.354 106.477 562.236V562.219C106.477 560.101 107.4 558.861 109.044 558.861C110.678 558.861 111.61 560.101 111.61 562.219V562.236C111.61 564.346 110.678 565.594 109.044 565.594ZM115.557 567H117.464V553.711H115.557V567ZM122.562 567.158C123.827 567.158 124.829 566.613 125.392 565.646H125.541V567H127.431V560.47C127.431 558.466 126.077 557.271 123.678 557.271C121.507 557.271 120.004 558.316 119.776 559.881L119.767 559.942H121.604L121.613 559.907C121.841 559.23 122.535 558.844 123.59 558.844C124.882 558.844 125.541 559.424 125.541 560.47V561.313L122.957 561.463C120.681 561.604 119.398 562.597 119.398 564.302V564.319C119.398 566.051 120.742 567.158 122.562 567.158ZM121.296 564.24V564.223C121.296 563.361 121.894 562.887 123.212 562.808L125.541 562.658V563.476C125.541 564.706 124.495 565.638 123.072 565.638C122.043 565.638 121.296 565.119 121.296 564.24ZM129.76 567H131.668V561.401C131.668 559.863 132.538 558.905 133.935 558.905C135.333 558.905 135.992 559.688 135.992 561.27V567H137.89V560.821C137.89 558.545 136.713 557.271 134.577 557.271C133.188 557.271 132.274 557.886 131.808 558.905H131.668V557.455H129.76V567ZM142.812 567.158C144.078 567.158 145.08 566.613 145.643 565.646H145.792V567H147.682V560.47C147.682 558.466 146.328 557.271 143.929 557.271C141.758 557.271 140.255 558.316 140.026 559.881L140.018 559.942H141.854L141.863 559.907C142.092 559.23 142.786 558.844 143.841 558.844C145.133 558.844 145.792 559.424 145.792 560.47V561.313L143.208 561.463C140.932 561.604 139.648 562.597 139.648 564.302V564.319C139.648 566.051 140.993 567.158 142.812 567.158ZM141.547 564.24V564.223C141.547 563.361 142.145 562.887 143.463 562.808L145.792 562.658V563.476C145.792 564.706 144.746 565.638 143.322 565.638C142.294 565.638 141.547 565.119 141.547 564.24Z" fill="white"/>
<path d="M96.5991 590.199C98.4859 590.199 99.7222 589.215 99.7222 587.633V587.627C99.7222 586.408 99.0249 585.699 97.2612 585.307L96.3237 585.096C95.1753 584.844 94.7124 584.387 94.7124 583.713V583.707C94.7124 582.822 95.5269 582.324 96.5816 582.318C97.6831 582.312 98.3862 582.863 98.5034 583.607L98.5152 583.684H99.5698L99.564 583.602C99.4761 582.342 98.2984 581.346 96.6109 581.346C94.8648 581.346 93.6402 582.336 93.6343 583.736V583.742C93.6343 584.967 94.3667 585.746 96.0601 586.121L96.9976 586.326C98.1577 586.584 98.6441 587.064 98.6441 587.768V587.773C98.6441 588.635 97.8062 589.227 96.6577 589.227C95.439 589.227 94.5601 588.693 94.4839 587.85L94.478 587.785H93.4234L93.4292 587.85C93.5523 589.227 94.7476 590.199 96.5991 590.199ZM104.791 590.199C107.205 590.199 108.67 588.471 108.67 585.775V585.764C108.67 583.057 107.193 581.346 104.791 581.346C102.4 581.346 100.912 583.051 100.912 585.764V585.775C100.912 588.477 102.365 590.199 104.791 590.199ZM104.791 589.227C103.033 589.227 101.99 587.867 101.99 585.775V585.764C101.99 583.654 103.068 582.318 104.791 582.318C106.519 582.318 107.592 583.654 107.592 585.764V585.775C107.592 587.867 106.525 589.227 104.791 589.227ZM110.258 590H115.391V589.051H111.312V581.545H110.258V590Z" fill="#575B66"/>
<path d="M182.225 586.95L180.5 585.357V589.5C180.5 590.052 180.948 590.5 181.5 590.5H263.5C264.052 590.5 264.5 590.052 264.5 589.5V579L263.352 578.422C263.175 578.333 263.029 578.194 262.932 578.022L261.544 575.578C261.515 575.526 261.481 575.477 261.443 575.431L258.557 571.967C258.367 571.739 258.085 571.607 257.788 571.607H256.774C256.312 571.607 255.91 571.291 255.802 570.841L255.09 567.886C254.899 567.09 253.838 566.926 253.416 567.628C253.25 567.903 252.952 568.071 252.631 568.071H249.073C248.778 568.071 248.498 567.941 248.308 567.716L247.699 566.992C247.211 566.414 246.284 566.565 246.005 567.267L244.648 570.682C244.289 571.585 242.983 571.497 242.748 570.554L240.741 562.497C240.69 562.29 240.574 562.105 240.41 561.969L238.205 560.138C237.965 559.939 237.646 559.863 237.342 559.933L235.186 560.43C234.736 560.534 234.273 560.316 234.067 559.903L232.751 557.271C232.384 556.537 231.338 556.533 230.965 557.264L229.207 560.713C228.906 561.304 228.055 561.283 227.783 560.679C227.499 560.052 226.605 560.062 226.335 560.696L225.236 563.282C224.876 564.13 223.658 564.081 223.367 563.208L221.833 558.606C221.521 557.67 220.185 557.704 219.921 558.655L218.163 564.982C218.043 565.415 217.649 565.714 217.199 565.714H216.722C216.278 565.714 215.887 566.007 215.762 566.433L212.332 578.121C212.3 578.23 212.25 578.333 212.183 578.425L208.501 583.522C208.118 584.053 207.336 584.078 206.919 583.573L205.949 582.398C205.667 582.056 205.193 581.941 204.786 582.114L202.309 583.169C201.984 583.308 201.756 583.608 201.709 583.959L201.33 586.845C201.265 587.342 200.841 587.714 200.339 587.714H198.672C198.315 587.714 197.985 587.524 197.806 587.215L195.513 583.247C195.138 582.598 194.207 582.577 193.804 583.21L191.168 587.346C190.804 587.917 189.99 587.969 189.556 587.449L187 584.382C186.582 583.881 185.804 583.908 185.422 584.437L183.714 586.8C183.363 587.286 182.666 587.356 182.225 586.95Z" fill="url(#paint5_linear_1617_33426)"/>
<path d="M180.5 585.357L182.225 586.95C182.666 587.356 183.363 587.286 183.714 586.8L185.422 584.437C185.804 583.908 186.582 583.881 187 584.382L189.556 587.449C189.99 587.969 190.804 587.917 191.168 587.346L193.804 583.21C194.207 582.577 195.138 582.598 195.513 583.247L197.806 587.215C197.985 587.524 198.315 587.714 198.672 587.714H200.339C200.841 587.714 201.265 587.342 201.33 586.845L201.709 583.959C201.756 583.608 201.984 583.308 202.309 583.169L204.786 582.114C205.193 581.941 205.667 582.056 205.949 582.398L206.919 583.573C207.336 584.078 208.118 584.053 208.501 583.522L212.183 578.425C212.25 578.333 212.3 578.23 212.332 578.121L215.762 566.433C215.887 566.007 216.278 565.714 216.722 565.714H217.199C217.649 565.714 218.043 565.415 218.163 564.982L219.921 558.655C220.185 557.704 221.521 557.67 221.833 558.606L223.367 563.208C223.658 564.081 224.876 564.13 225.236 563.282L226.335 560.696C226.605 560.062 227.499 560.052 227.783 560.679V560.679C228.055 561.283 228.906 561.304 229.207 560.713L230.965 557.264C231.338 556.533 232.384 556.537 232.751 557.271L234.067 559.903C234.273 560.316 234.736 560.534 235.186 560.43L237.342 559.933C237.646 559.863 237.965 559.939 238.205 560.138L240.41 561.969C240.574 562.105 240.69 562.29 240.741 562.497L242.748 570.554C242.983 571.497 244.289 571.585 244.648 570.682L246.005 567.267C246.284 566.565 247.211 566.414 247.699 566.992L248.308 567.716C248.498 567.941 248.778 568.071 249.073 568.071H252.631C252.952 568.071 253.25 567.903 253.416 567.628V567.628C253.838 566.926 254.899 567.09 255.09 567.886L255.802 570.841C255.91 571.291 256.312 571.607 256.774 571.607H257.767C258.076 571.607 258.368 571.75 258.557 571.994L264 579" stroke="#DF2040" stroke-linecap="round"/>
<path d="M300.474 567H302.442V554.317H300.474L297.134 556.69V558.624L300.324 556.348H300.474V567ZM309.14 567H311.108V554.317H309.14L305.8 556.69V558.624L308.99 556.348H309.14V567ZM319.045 554.01C316.382 554.01 314.448 555.873 314.448 558.422V558.439C314.448 560.865 316.188 562.658 318.605 562.658C320.328 562.658 321.479 561.753 321.937 560.733H322.112C322.112 560.83 322.104 560.927 322.104 561.023C322.007 563.555 321.11 565.638 318.975 565.638C317.788 565.638 316.962 565.022 316.602 564.056L316.575 563.968H314.615L314.642 564.073C315.055 565.989 316.725 567.308 318.975 567.308C322.112 567.308 323.984 564.776 323.984 560.479V560.461C323.984 555.803 321.585 554.01 319.045 554.01ZM319.036 561.067C317.507 561.067 316.391 559.942 316.391 558.387V558.369C316.391 556.849 317.577 555.662 319.062 555.662C320.557 555.662 321.726 556.875 321.726 558.422V558.431C321.726 559.96 320.557 561.067 319.036 561.067ZM327.157 567.132C327.887 567.132 328.44 566.569 328.44 565.857C328.44 565.137 327.887 564.574 327.157 564.574C326.428 564.574 325.865 565.137 325.865 565.857C325.865 566.569 326.428 567.132 327.157 567.132ZM335.296 567.308C337.959 567.308 339.884 565.444 339.884 562.896V562.878C339.884 560.452 338.152 558.659 335.735 558.659C334.004 558.659 332.861 559.564 332.396 560.584H332.229C332.229 560.487 332.229 560.391 332.237 560.294C332.334 557.763 333.222 555.68 335.357 555.68C336.553 555.68 337.379 556.295 337.73 557.262L337.766 557.35H339.717L339.699 557.244C339.277 555.328 337.607 554.01 335.366 554.01C332.229 554.01 330.356 556.541 330.356 560.83V560.848C330.356 565.515 332.747 567.308 335.296 567.308ZM332.615 562.896V562.887C332.615 561.357 333.775 560.25 335.296 560.25C336.834 560.25 337.941 561.375 337.941 562.931V562.948C337.941 564.469 336.764 565.655 335.278 565.655C333.784 565.655 332.615 564.442 332.615 562.896ZM346.73 554.01C344.067 554.01 342.134 555.873 342.134 558.422V558.439C342.134 560.865 343.874 562.658 346.291 562.658C348.014 562.658 349.165 561.753 349.622 560.733H349.798C349.798 560.83 349.789 560.927 349.789 561.023C349.692 563.555 348.796 565.638 346.66 565.638C345.474 565.638 344.647 565.022 344.287 564.056L344.261 563.968H342.301L342.327 564.073C342.74 565.989 344.41 567.308 346.66 567.308C349.798 567.308 351.67 564.776 351.67 560.479V560.461C351.67 555.803 349.271 554.01 346.73 554.01ZM346.722 561.067C345.192 561.067 344.076 559.942 344.076 558.387V558.369C344.076 556.849 345.263 555.662 346.748 555.662C348.242 555.662 349.411 556.875 349.411 558.422V558.431C349.411 559.96 348.242 561.067 346.722 561.067Z" fill="white"/>
<path d="M307.22 581.5H310.78C312.993 581.5 313.893 583.067 312.793 584.98L312.3 585.833C312.18 586.04 311.96 586.167 311.72 586.167H306.28C306.04 586.167 305.82 586.04 305.7 585.833L305.207 584.98C304.107 583.067 305.007 581.5 307.22 581.5Z" fill="#DF2040"/>
<path opacity="0.4" d="M306.86 586.833H311.147C311.407 586.833 311.567 587.113 311.433 587.333L311.007 588.066C309.907 589.98 308.093 589.98 306.993 588.066L306.567 587.333C306.44 587.113 306.6 586.833 306.86 586.833Z" fill="#DF2040"/>
<path d="M320.228 587.07H324.165V586.121H320.228V587.07ZM328.56 590.199C330.429 590.199 331.554 588.494 331.554 585.775V585.764C331.554 583.045 330.429 581.346 328.56 581.346C326.691 581.346 325.577 583.045 325.577 585.764V585.775C325.577 588.494 326.691 590.199 328.56 590.199ZM328.56 589.279C327.347 589.279 326.638 587.932 326.638 585.775V585.764C326.638 583.607 327.347 582.271 328.56 582.271C329.773 582.271 330.493 583.607 330.493 585.764V585.775C330.493 587.932 329.773 589.279 328.56 589.279ZM333.417 590.059C333.839 590.059 334.179 589.713 334.179 589.297C334.179 588.875 333.839 588.535 333.417 588.535C333.001 588.535 332.656 588.875 332.656 589.297C332.656 589.713 333.001 590.059 333.417 590.059ZM338.422 590.199C340.127 590.199 341.381 588.975 341.381 587.287V587.275C341.381 585.652 340.197 584.445 338.609 584.445C337.467 584.445 336.67 585.061 336.359 585.752H336.248C336.248 585.688 336.248 585.617 336.254 585.553C336.318 583.789 336.945 582.289 338.48 582.289C339.336 582.289 339.927 582.729 340.185 583.438L340.209 583.502H341.269L341.252 583.426C340.965 582.178 339.91 581.346 338.492 581.346C336.441 581.346 335.24 583.033 335.24 585.916V585.928C335.24 589.109 336.875 590.199 338.422 590.199ZM336.5 587.275V587.27C336.5 586.168 337.332 585.365 338.427 585.365C339.523 585.365 340.32 586.174 340.32 587.299V587.311C340.32 588.406 339.47 589.268 338.41 589.268C337.338 589.268 336.5 588.389 336.5 587.275ZM344.41 585.992C345.488 585.992 346.145 585.113 346.145 583.713V583.707C346.145 582.307 345.488 581.434 344.41 581.434C343.332 581.434 342.682 582.307 342.682 583.707V583.713C342.682 585.113 343.332 585.992 344.41 585.992ZM345.043 590L350.797 581.545H349.848L344.094 590H345.043ZM344.41 585.295C343.83 585.295 343.496 584.703 343.496 583.713V583.707C343.496 582.717 343.83 582.131 344.41 582.131C344.99 582.131 345.33 582.717 345.33 583.707V583.713C345.33 584.703 344.99 585.295 344.41 585.295ZM350.469 590.111C351.547 590.111 352.203 589.232 352.203 587.832V587.826C352.203 586.426 351.547 585.553 350.469 585.553C349.391 585.553 348.74 586.426 348.74 587.826V587.832C348.74 589.232 349.391 590.111 350.469 590.111ZM350.469 589.414C349.889 589.414 349.555 588.822 349.555 587.832V587.826C349.555 586.836 349.889 586.25 350.469 586.25C351.049 586.25 351.389 586.836 351.389 587.826V587.832C351.389 588.822 351.049 589.414 350.469 589.414Z" fill="#DF2040"/>
<rect x="22" y="626" width="343" height="74" rx="15" fill="#0156FE"/>
<rect x="34" y="638" width="50" height="50" rx="10" fill="url(#paint6_linear_1617_33426)"/>
<g clip-path="url(#clip3_1617_33426)">
<path d="M52.7853 660.447L58.9999 654.232L65.2175 660.449L68.8335 656.833L58.9999 647L49.1696 656.83L52.7854 660.446L52.7853 660.447ZM43 663L46.6161 659.383L50.232 662.999L46.6159 666.615L43 663ZM52.7853 665.554L58.9999 671.768L65.2174 665.551L68.8353 669.165L68.8335 669.167L58.9999 679L49.1696 669.17L49.1645 669.164L52.7857 665.553L52.7853 665.554ZM67.7679 663.002L71.384 659.385L74.9999 663.001L71.3839 666.617L67.7679 663.002Z" fill="#F3BA2F"/>
<path d="M62.6674 662.998H62.6689L58.9999 659.329L56.288 662.04L55.9764 662.352L55.3339 662.995L55.3288 663L55.3339 663.005L58.9999 666.672L62.6691 663.002L62.6709 663L62.6676 662.998" fill="#F3BA2F"/>
</g>
<path d="M94.4579 657H99.6698C102.377 657 104.003 655.646 104.003 653.423V653.405C104.003 651.753 102.86 650.54 101.146 650.355V650.206C102.394 649.995 103.37 648.809 103.37 647.49V647.473C103.37 645.53 101.937 644.317 99.5555 644.317H94.4579V657ZM99.0985 645.926C100.557 645.926 101.41 646.62 101.41 647.815V647.833C101.41 649.063 100.505 649.714 98.7645 649.714H96.4266V645.926H99.0985ZM99.16 651.217C101.014 651.217 101.99 651.92 101.99 653.282V653.3C101.99 654.662 101.05 655.392 99.2743 655.392H96.4266V651.217H99.16ZM106.947 645.75C107.598 645.75 108.143 645.214 108.143 644.563C108.143 643.904 107.598 643.368 106.947 643.368C106.288 643.368 105.752 643.904 105.752 644.563C105.752 645.214 106.288 645.75 106.947 645.75ZM105.989 657H107.888V647.455H105.989V657ZM110.305 657H112.212V651.401C112.212 649.863 113.083 648.905 114.48 648.905C115.878 648.905 116.537 649.688 116.537 651.27V657H118.435V650.821C118.435 648.545 117.257 647.271 115.122 647.271C113.733 647.271 112.819 647.886 112.353 648.905H112.212V647.455H110.305V657ZM123.357 657.158C124.623 657.158 125.625 656.613 126.187 655.646H126.337V657H128.226V650.47C128.226 648.466 126.873 647.271 124.474 647.271C122.303 647.271 120.8 648.316 120.571 649.881L120.562 649.942H122.399L122.408 649.907C122.637 649.23 123.331 648.844 124.386 648.844C125.678 648.844 126.337 649.424 126.337 650.47V651.313L123.753 651.463C121.476 651.604 120.193 652.597 120.193 654.302V654.319C120.193 656.051 121.538 657.158 123.357 657.158ZM122.092 654.24V654.223C122.092 653.361 122.689 652.887 124.008 652.808L126.337 652.658V653.476C126.337 654.706 125.291 655.638 123.867 655.638C122.839 655.638 122.092 655.119 122.092 654.24ZM130.556 657H132.463V651.401C132.463 649.863 133.333 648.905 134.731 648.905C136.128 648.905 136.787 649.688 136.787 651.27V657H138.686V650.821C138.686 648.545 137.508 647.271 135.372 647.271C133.984 647.271 133.07 647.886 132.604 648.905H132.463V647.455H130.556V657ZM145.006 657.185C147.37 657.185 148.732 655.91 149.075 654.056L149.092 653.977H147.264L147.247 654.021C146.939 655.049 146.201 655.594 145.006 655.594C143.432 655.594 142.457 654.311 142.457 652.201V652.184C142.457 650.127 143.415 648.861 145.006 648.861C146.271 648.861 147.045 649.564 147.256 650.505L147.264 650.531L149.092 650.522V650.479C148.829 648.624 147.396 647.271 144.997 647.271C142.211 647.271 140.514 649.16 140.514 652.184V652.201C140.514 655.286 142.219 657.185 145.006 657.185ZM154.902 657.185C157.346 657.185 158.664 655.778 158.98 654.521L158.998 654.442L157.161 654.451L157.126 654.521C156.897 655.014 156.168 655.62 154.946 655.62C153.373 655.62 152.371 654.557 152.336 652.729H159.104V652.061C159.104 649.195 157.469 647.271 154.806 647.271C152.143 647.271 150.42 649.266 150.42 652.245V652.254C150.42 655.277 152.107 657.185 154.902 657.185ZM154.814 648.835C156.106 648.835 157.064 649.661 157.214 651.366H152.362C152.529 649.723 153.514 648.835 154.814 648.835Z" fill="white"/>
<path d="M93.8784 680H97.1773C98.9761 680 100.042 679.115 100.042 677.633V677.621C100.042 676.508 99.3101 675.717 98.1558 675.57V675.477C98.9702 675.33 99.6148 674.533 99.6148 673.66V673.648C99.6148 672.359 98.6655 671.545 97.1128 671.545H93.8784V680ZM96.8902 672.477C97.939 672.477 98.5484 672.975 98.5484 673.83V673.842C98.5484 674.732 97.898 675.189 96.6206 675.189H94.9331V672.477H96.8902ZM96.9195 676.098C98.2671 676.098 98.9585 676.596 98.9585 677.568V677.58C98.9585 678.553 98.2905 679.068 97.0191 679.068H94.9331V676.098H96.9195ZM101.525 680H102.568V673.443H102.662L107.25 680H108.275V671.545H107.232V678.125H107.138L102.551 671.545H101.525V680ZM110.191 680H113.49C115.289 680 116.355 679.115 116.355 677.633V677.621C116.355 676.508 115.623 675.717 114.469 675.57V675.477C115.283 675.33 115.928 674.533 115.928 673.66V673.648C115.928 672.359 114.979 671.545 113.426 671.545H110.191V680ZM113.203 672.477C114.252 672.477 114.861 672.975 114.861 673.83V673.842C114.861 674.732 114.211 675.189 112.934 675.189H111.246V672.477H113.203ZM113.232 676.098C114.58 676.098 115.271 676.596 115.271 677.568V677.58C115.271 678.553 114.604 679.068 113.332 679.068H111.246V676.098H113.232Z" fill="#575B66"/>
<path d="M184.725 676.95L183 675.357V679.5C183 680.052 183.448 680.5 184 680.5H266C266.552 680.5 267 680.052 267 679.5V669V667.5V665V653.662C267 652.953 266.282 652.469 265.625 652.735L262.5 654L257.428 655.6C257.196 655.674 256.998 655.83 256.872 656.038L255.94 657.587C255.759 657.888 255.434 658.071 255.083 658.071H251.573C251.278 658.071 250.998 657.941 250.808 657.716L250.199 656.992C249.711 656.414 248.784 656.565 248.505 657.267L247.148 660.682C246.789 661.585 245.483 661.497 245.248 660.554L243.241 652.497C243.19 652.29 243.074 652.105 242.91 651.969L240.705 650.138C240.465 649.939 240.146 649.863 239.842 649.933L237.686 650.43C237.236 650.534 236.773 650.316 236.567 649.903L235.251 647.271C234.884 646.537 233.838 646.533 233.465 647.264L231.707 650.713C231.406 651.304 230.555 651.283 230.283 650.679C229.999 650.052 229.105 650.062 228.835 650.696L227.736 653.282C227.376 654.13 226.158 654.081 225.867 653.208L224.333 648.606C224.021 647.67 222.685 647.704 222.421 648.655L220.663 654.982C220.543 655.415 220.149 655.714 219.699 655.714H219.222C218.778 655.714 218.387 656.007 218.262 656.433L214.832 668.121C214.8 668.23 214.75 668.333 214.683 668.425L211.001 673.522C210.618 674.053 209.836 674.078 209.419 673.573L208.449 672.398C208.167 672.056 207.693 671.941 207.286 672.114L204.809 673.169C204.484 673.308 204.256 673.608 204.209 673.959L203.83 676.845C203.765 677.342 203.341 677.714 202.839 677.714H201.172C200.815 677.714 200.485 677.524 200.306 677.215L198.013 673.247C197.638 672.598 196.707 672.577 196.304 673.21L193.668 677.346C193.304 677.917 192.49 677.969 192.056 677.449L189.5 674.382C189.082 673.881 188.304 673.908 187.922 674.437L186.214 676.8C185.863 677.286 185.166 677.356 184.725 676.95Z" fill="url(#paint7_linear_1617_33426)"/>
<path d="M183 675.357L184.725 676.95C185.166 677.356 185.863 677.286 186.214 676.8L187.922 674.437C188.304 673.908 189.082 673.881 189.5 674.382L192.056 677.449C192.49 677.969 193.304 677.917 193.668 677.346L196.304 673.21C196.707 672.577 197.638 672.598 198.013 673.247L200.306 677.215C200.485 677.524 200.815 677.714 201.172 677.714H202.839C203.341 677.714 203.765 677.342 203.83 676.845L204.209 673.959C204.256 673.608 204.484 673.308 204.809 673.169L207.286 672.114C207.693 671.941 208.167 672.056 208.449 672.398L209.419 673.573C209.836 674.078 210.618 674.053 211.001 673.522L214.683 668.425C214.75 668.333 214.8 668.23 214.832 668.121L218.262 656.433C218.387 656.007 218.778 655.714 219.222 655.714H219.699C220.149 655.714 220.543 655.415 220.663 654.982L222.421 648.655C222.685 647.704 224.021 647.67 224.333 648.606L225.867 653.208C226.158 654.081 227.376 654.13 227.736 653.282L228.835 650.696C229.105 650.062 229.999 650.052 230.283 650.679V650.679C230.555 651.283 231.406 651.304 231.707 650.713L233.465 647.264C233.838 646.533 234.884 646.537 235.251 647.271L236.567 649.903C236.773 650.316 237.236 650.534 237.686 650.43L239.842 649.933C240.146 649.863 240.465 649.939 240.705 650.138L242.91 651.969C243.074 652.105 243.19 652.29 243.241 652.497L245.248 660.554C245.483 661.497 246.789 661.585 247.148 660.682L248.505 657.267C248.784 656.565 249.711 656.414 250.199 656.992L250.808 657.716C250.998 657.941 251.278 658.071 251.573 658.071H255.083C255.434 658.071 255.759 657.888 255.94 657.587L256.875 656.035C256.999 655.828 257.194 655.673 257.423 655.599L267 652.5" stroke="#40BF6A" stroke-linecap="round"/>
<path d="M297.189 657H299.088V654.478H300.837V652.808H299.088V644.317H296.284C294.535 646.945 292.672 649.942 291.002 652.808V654.478H297.189V657ZM292.892 652.843V652.72C294.192 650.496 295.739 648.026 297.102 645.979H297.216V652.843H292.892ZM307.921 657.308C310.584 657.308 312.509 655.444 312.509 652.896V652.878C312.509 650.452 310.777 648.659 308.36 648.659C306.629 648.659 305.486 649.564 305.021 650.584H304.854C304.854 650.487 304.854 650.391 304.862 650.294C304.959 647.763 305.847 645.68 307.982 645.68C309.178 645.68 310.004 646.295 310.355 647.262L310.391 647.35H312.342L312.324 647.244C311.902 645.328 310.232 644.01 307.991 644.01C304.854 644.01 302.981 646.541 302.981 650.83V650.848C302.981 655.515 305.372 657.308 307.921 657.308ZM305.24 652.896V652.887C305.24 651.357 306.4 650.25 307.921 650.25C309.459 650.25 310.566 651.375 310.566 652.931V652.948C310.566 654.469 309.389 655.655 307.903 655.655C306.409 655.655 305.24 654.442 305.24 652.896ZM319.408 657.308C322.08 657.308 323.961 655.515 323.961 652.913V652.896C323.961 650.461 322.256 648.686 319.874 648.686C318.705 648.686 317.712 649.178 317.176 650.03H317.026L317.413 645.987H323.24V644.317H315.866L315.233 651.683H316.93C317.079 651.393 317.281 651.146 317.51 650.944C318.011 650.487 318.67 650.259 319.443 650.259C320.973 650.259 322.08 651.366 322.08 652.931V652.948C322.08 654.539 320.99 655.655 319.426 655.655C318.037 655.655 317.026 654.768 316.859 653.651L316.851 653.581H315.005L315.014 653.695C315.189 655.752 316.912 657.308 319.408 657.308ZM327.257 657.132C327.986 657.132 328.54 656.569 328.54 655.857C328.54 655.137 327.986 654.574 327.257 654.574C326.527 654.574 325.965 655.137 325.965 655.857C325.965 656.569 326.527 657.132 327.257 657.132ZM335.404 657.237C338.094 657.237 340.001 655.673 340.001 653.493V653.476C340.001 651.7 338.753 650.575 336.89 650.408V650.364C338.437 650.039 339.562 648.984 339.562 647.411V647.394C339.562 645.434 337.909 644.08 335.387 644.08C332.908 644.08 331.221 645.495 331.027 647.631L331.019 647.728H332.864L332.873 647.64C332.996 646.444 333.98 645.697 335.387 645.697C336.819 645.697 337.646 646.418 337.646 647.648V647.666C337.646 648.844 336.661 649.696 335.211 649.696H333.726V651.226H335.272C336.96 651.226 337.997 652.025 337.997 653.458V653.476C337.997 654.724 336.951 655.594 335.404 655.594C333.831 655.594 332.768 654.785 332.645 653.634L332.636 653.546H330.755L330.764 653.651C330.931 655.752 332.697 657.237 335.404 657.237ZM346.971 657.237C349.66 657.237 351.567 655.673 351.567 653.493V653.476C351.567 651.7 350.319 650.575 348.456 650.408V650.364C350.003 650.039 351.128 648.984 351.128 647.411V647.394C351.128 645.434 349.476 644.08 346.953 644.08C344.475 644.08 342.787 645.495 342.594 647.631L342.585 647.728H344.431L344.439 647.64C344.562 646.444 345.547 645.697 346.953 645.697C348.386 645.697 349.212 646.418 349.212 647.648V647.666C349.212 648.844 348.228 649.696 346.777 649.696H345.292V651.226H346.839C348.526 651.226 349.563 652.025 349.563 653.458V653.476C349.563 654.724 348.518 655.594 346.971 655.594C345.397 655.594 344.334 654.785 344.211 653.634L344.202 653.546H342.321L342.33 653.651C342.497 655.752 344.264 657.237 346.971 657.237Z" fill="white"/>
<path d="M298.22 679.5H301.78C303.993 679.5 304.893 677.933 303.793 676.02L303.3 675.166C303.18 674.96 302.96 674.833 302.72 674.833H297.28C297.04 674.833 296.82 674.96 296.7 675.166L296.207 676.02C295.107 677.933 296.007 679.5 298.22 679.5Z" fill="#40BF6A"/>
<path opacity="0.4" d="M297.86 674.166H302.147C302.407 674.166 302.567 673.886 302.433 673.666L302.007 672.933C300.907 671.02 299.093 671.02 297.993 672.933L297.567 673.666C297.44 673.886 297.6 674.166 297.86 674.166Z" fill="#40BF6A"/>
<path d="M310.77 677.07H313.395V679.754H314.345V677.07H316.97V676.121H314.345V673.438H313.395V676.121H310.77V677.07ZM321.183 680.199C323.052 680.199 324.177 678.494 324.177 675.775V675.764C324.177 673.045 323.052 671.346 321.183 671.346C319.314 671.346 318.2 673.045 318.2 675.764V675.775C318.2 678.494 319.314 680.199 321.183 680.199ZM321.183 679.279C319.97 679.279 319.261 677.932 319.261 675.775V675.764C319.261 673.607 319.97 672.271 321.183 672.271C322.396 672.271 323.116 673.607 323.116 675.764V675.775C323.116 677.932 322.396 679.279 321.183 679.279ZM326.04 680.059C326.462 680.059 326.802 679.713 326.802 679.297C326.802 678.875 326.462 678.535 326.04 678.535C325.624 678.535 325.279 678.875 325.279 679.297C325.279 679.713 325.624 680.059 326.04 680.059ZM332.035 680H333.066V678.248H334.267V677.305H333.066V671.545H331.537C330.353 673.309 329.058 675.371 327.916 677.287V678.248H332.035V680ZM328.994 677.311V677.24C329.914 675.688 331.021 673.941 331.97 672.523H332.041V677.311H328.994ZM338.433 680.199C340.15 680.199 341.375 679.01 341.375 677.305V677.293C341.375 675.658 340.232 674.469 338.644 674.469C337.877 674.469 337.215 674.779 336.84 675.348H336.746L337.033 672.488H340.906V671.545H336.201L335.756 676.402H336.67C336.775 676.203 336.91 676.039 337.056 675.898C337.42 675.553 337.9 675.383 338.463 675.383C339.558 675.383 340.344 676.186 340.344 677.311V677.322C340.344 678.465 339.57 679.268 338.445 679.268C337.455 679.268 336.722 678.623 336.623 677.814L336.617 677.768H335.603L335.609 677.832C335.732 679.186 336.857 680.199 338.433 680.199ZM344.41 675.992C345.488 675.992 346.145 675.113 346.145 673.713V673.707C346.145 672.307 345.488 671.434 344.41 671.434C343.332 671.434 342.682 672.307 342.682 673.707V673.713C342.682 675.113 343.332 675.992 344.41 675.992ZM345.043 680L350.797 671.545H349.848L344.094 680H345.043ZM344.41 675.295C343.83 675.295 343.496 674.703 343.496 673.713V673.707C343.496 672.717 343.83 672.131 344.41 672.131C344.99 672.131 345.33 672.717 345.33 673.707V673.713C345.33 674.703 344.99 675.295 344.41 675.295ZM350.469 680.111C351.547 680.111 352.203 679.232 352.203 677.832V677.826C352.203 676.426 351.547 675.553 350.469 675.553C349.391 675.553 348.74 676.426 348.74 677.826V677.832C348.74 679.232 349.391 680.111 350.469 680.111ZM350.469 679.414C349.889 679.414 349.555 678.822 349.555 677.832V677.826C349.555 676.836 349.889 676.25 350.469 676.25C351.049 676.25 351.389 676.836 351.389 677.826V677.832C351.389 678.822 351.049 679.414 350.469 679.414Z" fill="#40BF6A"/>
</g>
</g>
<defs>
<linearGradient id="paint0_linear_1617_33426" x1="210.5" y1="285.5" x2="210.5" y2="320.5" gradientUnits="userSpaceOnUse">
<stop stop-color="#40BF6A" stop-opacity="0.2"/>
<stop offset="1" stop-color="#40BF6A" stop-opacity="0"/>
</linearGradient>
<linearGradient id="paint1_linear_1617_33426" x1="216" y1="375.75" x2="216" y2="412.75" gradientUnits="userSpaceOnUse">
<stop stop-color="#DF2040" stop-opacity="0.2"/>
<stop offset="1" stop-color="#DF2040" stop-opacity="0"/>
</linearGradient>
<linearGradient id="paint2_linear_1617_33426" x1="230" y1="465.5" x2="230" y2="500.5" gradientUnits="userSpaceOnUse">
<stop stop-color="#40BF6A" stop-opacity="0.2"/>
<stop offset="1" stop-color="#40BF6A" stop-opacity="0"/>
</linearGradient>
<linearGradient id="paint3_linear_1617_33426" x1="93" y1="538" x2="23.5" y2="604" gradientUnits="userSpaceOnUse">
<stop stop-color="#18EEB4" stop-opacity="0.3"/>
<stop offset="1" stop-color="#C355E6" stop-opacity="0.3"/>
</linearGradient>
<linearGradient id="paint4_linear_1617_33426" x1="50.7606" y1="581.555" x2="67.1817" y2="565.134" gradientUnits="userSpaceOnUse">
<stop stop-color="#CB4EE8"/>
<stop offset="1" stop-color="#10F4B1"/>
</linearGradient>
<linearGradient id="paint5_linear_1617_33426" x1="222.5" y1="555.5" x2="222.5" y2="590.5" gradientUnits="userSpaceOnUse">
<stop stop-color="#DF2040" stop-opacity="0.2"/>
<stop offset="1" stop-color="#DF2040" stop-opacity="0"/>
</linearGradient>
<linearGradient id="paint6_linear_1617_33426" x1="90" y1="631.5" x2="26" y2="696.5" gradientUnits="userSpaceOnUse">
<stop stop-color="#F3BA2F" stop-opacity="0.3"/>
<stop offset="1" stop-color="#F32F99" stop-opacity="0.3"/>
</linearGradient>
<linearGradient id="paint7_linear_1617_33426" x1="225" y1="645.5" x2="225" y2="680.5" gradientUnits="userSpaceOnUse">
<stop stop-color="#27AE60" stop-opacity="0.2"/>
<stop offset="1" stop-color="#27AE60" stop-opacity="0"/>
</linearGradient>
<clipPath id="clip0_1617_33426">
<rect width="390" height="844" fill="white"/>
</clipPath>
<clipPath id="clip1_1617_33426">
<rect width="343" height="434" fill="white" transform="translate(22 266)"/>
</clipPath>
<clipPath id="clip2_1617_33426">
<rect width="34" height="34" fill="white" transform="translate(42 466)"/>
</clipPath>
<clipPath id="clip3_1617_33426">
<rect width="32" height="32" fill="white" transform="translate(43 647)"/>
</clipPath>
</defs>
</svg>
