<svg width="390" height="844" viewBox="0 0 390 844" fill="none" xmlns="http://www.w3.org/2000/svg">
<g clip-path="url(#clip0_1273_27274)">
<rect width="390" height="844" fill="#0156FE"/>
<path d="M36.373 105.439C30.3438 105.439 26.459 102.68 26.1602 98.0039L26.1426 97.7227H31.1523L31.1875 97.916C31.5215 99.8848 33.6133 101.115 36.5137 101.115C39.4492 101.115 41.2949 99.832 41.2949 97.8984V97.8809C41.2949 96.1582 40.0469 95.2969 36.9004 94.6465L34.2285 94.1191C29.2188 93.1172 26.6875 90.7266 26.6875 86.9121V86.8945C26.6875 82.2539 30.7305 79.1953 36.3555 79.1953C42.2266 79.1953 45.8301 82.1309 46.0762 86.5781L46.0938 86.9121H41.084L41.0664 86.7012C40.8027 84.7148 38.9746 83.502 36.3555 83.502C33.6309 83.5195 31.9961 84.7676 31.9961 86.5781V86.5957C31.9961 88.1953 33.2969 89.127 36.2148 89.707L38.9043 90.252C44.2129 91.3066 46.6035 93.4688 46.6035 97.459V97.4766C46.6035 102.346 42.7715 105.439 36.373 105.439ZM58.4941 105.387C52.7285 105.387 49.2305 101.643 49.2305 95.6133V95.5957C49.2305 89.6016 52.7637 85.7695 58.2832 85.7695C63.8027 85.7695 67.2656 89.5137 67.2656 95.209V96.791H54.293C54.3457 99.7969 55.9805 101.555 58.5996 101.555C60.709 101.555 61.9922 100.395 62.3613 99.3398L62.3965 99.2344H67.1074L67.0547 99.4277C66.4746 102.205 63.873 105.387 58.4941 105.387ZM58.3711 89.6016C56.2617 89.6016 54.6797 91.0078 54.3457 93.5566H62.3438C62.0273 90.9551 60.498 89.6016 58.3711 89.6016ZM78.998 105.387C73.2324 105.387 69.7344 101.643 69.7344 95.6133V95.5957C69.7344 89.6016 73.2676 85.7695 78.7871 85.7695C84.3066 85.7695 87.7695 89.5137 87.7695 95.209V96.791H74.7969C74.8496 99.7969 76.4844 101.555 79.1035 101.555C81.2129 101.555 82.4961 100.395 82.8652 99.3398L82.9004 99.2344H87.6113L87.5586 99.4277C86.9785 102.205 84.377 105.387 78.998 105.387ZM78.875 89.6016C76.7656 89.6016 75.1836 91.0078 74.8496 93.5566H82.8477C82.5312 90.9551 81.002 89.6016 78.875 89.6016ZM98.6836 105V79.6348H103.816V105H98.6836ZM110.451 83.7305C108.904 83.7305 107.709 82.5176 107.709 81.0586C107.709 79.5996 108.904 78.3867 110.451 78.3867C111.998 78.3867 113.193 79.5996 113.193 81.0586C113.193 82.5176 111.998 83.7305 110.451 83.7305ZM107.885 105V86.1562H113.018V105H107.885ZM121.938 105L115.416 86.1562H120.9L124.838 100.465H124.943L128.828 86.1562H134.189L127.721 105H121.938ZM144.393 105.387C138.627 105.387 135.129 101.643 135.129 95.6133V95.5957C135.129 89.6016 138.662 85.7695 144.182 85.7695C149.701 85.7695 153.164 89.5137 153.164 95.209V96.791H140.191C140.244 99.7969 141.879 101.555 144.498 101.555C146.607 101.555 147.891 100.395 148.26 99.3398L148.295 99.2344H153.006L152.953 99.4277C152.373 102.205 149.771 105.387 144.393 105.387ZM144.27 89.6016C142.16 89.6016 140.578 91.0078 140.244 93.5566H148.242C147.926 90.9551 146.396 89.6016 144.27 89.6016ZM163.955 105V86.1562H169.088V89.4434H169.193C169.756 87.123 171.285 85.7695 173.482 85.7695C174.045 85.7695 174.572 85.8574 174.959 85.9629V90.4805C174.537 90.3047 173.834 90.1992 173.096 90.1992C170.564 90.1992 169.088 91.7109 169.088 94.4531V105H163.955ZM182.719 105.299C178.939 105.299 176.391 102.926 176.391 99.6035V99.5684C176.391 96.1406 179.045 94.1367 183.721 93.8379L188.379 93.5566V92.3965C188.379 90.7266 187.289 89.6895 185.285 89.6895C183.369 89.6895 182.209 90.5859 181.963 91.7988L181.928 91.957H177.234L177.252 91.7461C177.533 88.2656 180.521 85.7695 185.496 85.7695C190.365 85.7695 193.512 88.2832 193.512 92.0801V105H188.379V102.188H188.273C187.201 104.121 185.197 105.299 182.719 105.299ZM181.471 99.3398C181.471 100.729 182.613 101.555 184.389 101.555C186.691 101.555 188.379 100.078 188.379 98.1094V96.7559L184.494 97.002C182.508 97.125 181.471 97.9688 181.471 99.3047V99.3398ZM204.822 105.387C200.639 105.387 198.67 103.77 198.67 99.7266V90.0234H196.051V86.1562H198.67V81.5508H203.855V86.1562H207.301V90.0234H203.855V99.1641C203.855 100.922 204.646 101.52 206.193 101.52C206.65 101.52 206.984 101.467 207.301 101.432V105.193C206.721 105.281 205.895 105.387 204.822 105.387ZM218.928 105.387C213.162 105.387 209.664 101.643 209.664 95.6133V95.5957C209.664 89.6016 213.197 85.7695 218.717 85.7695C224.236 85.7695 227.699 89.5137 227.699 95.209V96.791H214.727C214.779 99.7969 216.414 101.555 219.033 101.555C221.143 101.555 222.426 100.395 222.795 99.3398L222.83 99.2344H227.541L227.488 99.4277C226.908 102.205 224.307 105.387 218.928 105.387ZM218.805 89.6016C216.695 89.6016 215.113 91.0078 214.779 93.5566H222.777C222.461 90.9551 220.932 89.6016 218.805 89.6016ZM238.605 105.387C233.385 105.387 230.484 102.979 230.08 99.4102L230.062 99.252H235.072L235.107 99.4102C235.441 100.887 236.549 101.748 238.605 101.748C240.539 101.748 241.717 100.992 241.717 99.7793V99.7617C241.717 98.7598 241.084 98.1797 239.238 97.7754L236.039 97.1074C232.383 96.334 230.537 94.5059 230.537 91.6934V91.6758C230.537 88.0898 233.631 85.7695 238.43 85.7695C243.439 85.7695 246.234 88.4238 246.357 91.7285V91.9043H241.629L241.611 91.7637C241.436 90.4102 240.328 89.3906 238.43 89.3906C236.654 89.3906 235.547 90.1816 235.547 91.3945V91.4121C235.547 92.3789 236.197 93.0117 238.096 93.416L241.295 94.1016C245.232 94.9277 246.85 96.4746 246.85 99.252V99.2695C246.85 102.961 243.457 105.387 238.605 105.387ZM32.2773 148.299C28.498 148.299 25.9492 145.926 25.9492 142.604V142.568C25.9492 139.141 28.6035 137.137 33.2793 136.838L37.9375 136.557V135.396C37.9375 133.727 36.8477 132.689 34.8438 132.689C32.9277 132.689 31.7676 133.586 31.5215 134.799L31.4863 134.957H26.793L26.8105 134.746C27.0918 131.266 30.0801 128.77 35.0547 128.77C39.9238 128.77 43.0703 131.283 43.0703 135.08V148H37.9375V145.188H37.832C36.7598 147.121 34.7559 148.299 32.2773 148.299ZM31.0293 142.34C31.0293 143.729 32.1719 144.555 33.9473 144.555C36.25 144.555 37.9375 143.078 37.9375 141.109V139.756L34.0527 140.002C32.0664 140.125 31.0293 140.969 31.0293 142.305V142.34ZM55.5059 148.387C49.7578 148.387 46.207 144.643 46.207 138.561V138.543C46.207 132.514 49.8105 128.77 55.4531 128.77C60.5684 128.77 63.8203 131.916 64.0137 135.994V136.117H59.25L59.2148 135.959C58.8984 134.166 57.6504 132.795 55.5234 132.795C53.0098 132.795 51.4277 134.957 51.4277 138.561V138.578C51.4277 142.27 53.0098 144.361 55.541 144.361C57.5977 144.361 58.8809 143.096 59.2324 141.197L59.25 141.039H64.0312V141.145C63.7852 145.258 60.5332 148.387 55.5059 148.387ZM67.0098 148V129.156H72.1426V132.443H72.248C72.8105 130.123 74.3398 128.77 76.5371 128.77C77.0996 128.77 77.627 128.857 78.0137 128.963V133.48C77.5918 133.305 76.8887 133.199 76.1504 133.199C73.6191 133.199 72.1426 134.711 72.1426 137.453V148H67.0098ZM88.6387 148.387C82.9082 148.387 79.3047 144.713 79.3047 138.578V138.543C79.3047 132.479 82.9961 128.77 88.6211 128.77C94.2637 128.77 97.9727 132.443 97.9727 138.543V138.578C97.9727 144.73 94.334 148.387 88.6387 148.387ZM88.6562 144.361C91.1523 144.361 92.752 142.252 92.752 138.578V138.543C92.752 134.904 91.1172 132.795 88.6211 132.795C86.1426 132.795 84.5254 134.904 84.5254 138.543V138.578C84.5254 142.27 86.125 144.361 88.6562 144.361ZM108.879 148.387C103.658 148.387 100.758 145.979 100.354 142.41L100.336 142.252H105.346L105.381 142.41C105.715 143.887 106.822 144.748 108.879 144.748C110.812 144.748 111.99 143.992 111.99 142.779V142.762C111.99 141.76 111.357 141.18 109.512 140.775L106.312 140.107C102.656 139.334 100.811 137.506 100.811 134.693V134.676C100.811 131.09 103.904 128.77 108.703 128.77C113.713 128.77 116.508 131.424 116.631 134.729V134.904H111.902L111.885 134.764C111.709 133.41 110.602 132.391 108.703 132.391C106.928 132.391 105.82 133.182 105.82 134.395V134.412C105.82 135.379 106.471 136.012 108.369 136.416L111.568 137.102C115.506 137.928 117.123 139.475 117.123 142.252V142.27C117.123 145.961 113.73 148.387 108.879 148.387ZM127.906 148.387C122.686 148.387 119.785 145.979 119.381 142.41L119.363 142.252H124.373L124.408 142.41C124.742 143.887 125.85 144.748 127.906 144.748C129.84 144.748 131.018 143.992 131.018 142.779V142.762C131.018 141.76 130.385 141.18 128.539 140.775L125.34 140.107C121.684 139.334 119.838 137.506 119.838 134.693V134.676C119.838 131.09 122.932 128.77 127.73 128.77C132.74 128.77 135.535 131.424 135.658 134.729V134.904H130.93L130.912 134.764C130.736 133.41 129.629 132.391 127.73 132.391C125.955 132.391 124.848 133.182 124.848 134.395V134.412C124.848 135.379 125.498 136.012 127.396 136.416L130.596 137.102C134.533 137.928 136.15 139.475 136.15 142.252V142.27C136.15 145.961 132.758 148.387 127.906 148.387ZM146.818 148V129.156H151.951V132.32H152.057C152.83 130.176 154.799 128.77 157.33 128.77C159.967 128.77 161.883 130.176 162.516 132.654H162.621C163.465 130.281 165.715 128.77 168.475 128.77C172.166 128.77 174.645 131.318 174.645 135.115V148H169.512V136.398C169.512 134.219 168.422 133.023 166.436 133.023C164.484 133.023 163.201 134.447 163.201 136.539V148H158.262V136.24C158.262 134.219 157.119 133.023 155.221 133.023C153.27 133.023 151.951 134.5 151.951 136.627V148H146.818ZM184.812 148.387C180.664 148.387 178.309 145.732 178.309 141.32V129.156H183.441V140.248C183.441 142.709 184.602 144.133 186.904 144.133C189.207 144.133 190.666 142.445 190.666 139.984V129.156H195.799V148H190.666V144.889H190.561C189.594 147.051 187.66 148.387 184.812 148.387ZM199.762 148V122.635H204.895V148H199.762ZM216.346 148.387C212.162 148.387 210.193 146.77 210.193 142.727V133.023H207.574V129.156H210.193V124.551H215.379V129.156H218.824V133.023H215.379V142.164C215.379 143.922 216.17 144.52 217.717 144.52C218.174 144.52 218.508 144.467 218.824 144.432V148.193C218.244 148.281 217.418 148.387 216.346 148.387ZM224.826 126.73C223.279 126.73 222.084 125.518 222.084 124.059C222.084 122.6 223.279 121.387 224.826 121.387C226.373 121.387 227.568 122.6 227.568 124.059C227.568 125.518 226.373 126.73 224.826 126.73ZM222.26 148V129.156H227.393V148H222.26ZM231.338 154.152V129.156H236.471V132.443H236.594C237.613 130.158 239.67 128.77 242.342 128.77C247.123 128.77 250.041 132.426 250.041 138.561V138.578C250.041 144.695 247.123 148.387 242.412 148.387C239.723 148.387 237.596 147.016 236.576 144.783H236.471V154.152H231.338ZM240.654 144.133C243.203 144.133 244.82 142.006 244.82 138.578V138.561C244.82 135.115 243.203 133.023 240.654 133.023C238.158 133.023 236.453 135.168 236.453 138.578V138.596C236.453 141.988 238.158 144.133 240.654 144.133ZM253.336 148V122.635H258.469V148H253.336ZM271.01 148.387C265.244 148.387 261.746 144.643 261.746 138.613V138.596C261.746 132.602 265.279 128.77 270.799 128.77C276.318 128.77 279.781 132.514 279.781 138.209V139.791H266.809C266.861 142.797 268.496 144.555 271.115 144.555C273.225 144.555 274.508 143.395 274.877 142.34L274.912 142.234H279.623L279.57 142.428C278.99 145.205 276.389 148.387 271.01 148.387ZM270.887 132.602C268.777 132.602 267.195 134.008 266.861 136.557H274.859C274.543 133.955 273.014 132.602 270.887 132.602ZM35.2832 191.387C29.5352 191.387 25.9844 187.643 25.9844 181.561V181.543C25.9844 175.514 29.5879 171.77 35.2305 171.77C40.3457 171.77 43.5977 174.916 43.791 178.994V179.117H39.0273L38.9922 178.959C38.6758 177.166 37.4277 175.795 35.3008 175.795C32.7871 175.795 31.2051 177.957 31.2051 181.561V181.578C31.2051 185.27 32.7871 187.361 35.3184 187.361C37.375 187.361 38.6582 186.096 39.0098 184.197L39.0273 184.039H43.8086V184.145C43.5625 188.258 40.3105 191.387 35.2832 191.387ZM53.2031 191.387C49.0547 191.387 46.6992 188.732 46.6992 184.32V172.156H51.832V183.248C51.832 185.709 52.9922 187.133 55.2949 187.133C57.5977 187.133 59.0566 185.445 59.0566 182.984V172.156H64.1895V191H59.0566V187.889H58.9512C57.9844 190.051 56.0508 191.387 53.2031 191.387ZM68.0293 191V172.156H73.1621V175.443H73.2676C73.8301 173.123 75.3594 171.77 77.5566 171.77C78.1191 171.77 78.6465 171.857 79.0332 171.963V176.48C78.6113 176.305 77.9082 176.199 77.1699 176.199C74.6387 176.199 73.1621 177.711 73.1621 180.453V191H68.0293ZM81.6426 191V172.156H86.7754V175.443H86.8809C87.4434 173.123 88.9727 171.77 91.1699 171.77C91.7324 171.77 92.2598 171.857 92.6465 171.963V176.48C92.2246 176.305 91.5215 176.199 90.7832 176.199C88.252 176.199 86.7754 177.711 86.7754 180.453V191H81.6426ZM103.201 191.387C97.4355 191.387 93.9375 187.643 93.9375 181.613V181.596C93.9375 175.602 97.4707 171.77 102.99 171.77C108.51 171.77 111.973 175.514 111.973 181.209V182.791H99C99.0527 185.797 100.688 187.555 103.307 187.555C105.416 187.555 106.699 186.395 107.068 185.34L107.104 185.234H111.814L111.762 185.428C111.182 188.205 108.58 191.387 103.201 191.387ZM103.078 175.602C100.969 175.602 99.3867 177.008 99.0527 179.557H107.051C106.734 176.955 105.205 175.602 103.078 175.602ZM115.127 191V172.156H120.26V175.25H120.365C121.332 173.088 123.266 171.77 126.113 171.77C130.262 171.77 132.617 174.424 132.617 178.836V191H127.484V179.891C127.484 177.43 126.324 176.023 124.021 176.023C121.719 176.023 120.26 177.711 120.26 180.172V191H115.127ZM144.982 191.387C139.234 191.387 135.684 187.643 135.684 181.561V181.543C135.684 175.514 139.287 171.77 144.93 171.77C150.045 171.77 153.297 174.916 153.49 178.994V179.117H148.727L148.691 178.959C148.375 177.166 147.127 175.795 145 175.795C142.486 175.795 140.904 177.957 140.904 181.561V181.578C140.904 185.27 142.486 187.361 145.018 187.361C147.074 187.361 148.357 186.096 148.709 184.197L148.727 184.039H153.508V184.145C153.262 188.258 150.01 191.387 144.982 191.387ZM159.158 169.73C157.611 169.73 156.416 168.518 156.416 167.059C156.416 165.6 157.611 164.387 159.158 164.387C160.705 164.387 161.9 165.6 161.9 167.059C161.9 168.518 160.705 169.73 159.158 169.73ZM156.592 191V172.156H161.725V191H156.592ZM174.248 191.387C168.482 191.387 164.984 187.643 164.984 181.613V181.596C164.984 175.602 168.518 171.77 174.037 171.77C179.557 171.77 183.02 175.514 183.02 181.209V182.791H170.047C170.1 185.797 171.734 187.555 174.354 187.555C176.463 187.555 177.746 186.395 178.115 185.34L178.15 185.234H182.861L182.809 185.428C182.229 188.205 179.627 191.387 174.248 191.387ZM174.125 175.602C172.016 175.602 170.434 177.008 170.1 179.557H178.098C177.781 176.955 176.252 175.602 174.125 175.602ZM193.926 191.387C188.705 191.387 185.805 188.979 185.4 185.41L185.383 185.252H190.393L190.428 185.41C190.762 186.887 191.869 187.748 193.926 187.748C195.859 187.748 197.037 186.992 197.037 185.779V185.762C197.037 184.76 196.404 184.18 194.559 183.775L191.359 183.107C187.703 182.334 185.857 180.506 185.857 177.693V177.676C185.857 174.09 188.951 171.77 193.75 171.77C198.76 171.77 201.555 174.424 201.678 177.729V177.904H196.949L196.932 177.764C196.756 176.41 195.648 175.391 193.75 175.391C191.975 175.391 190.867 176.182 190.867 177.395V177.412C190.867 178.379 191.518 179.012 193.416 179.416L196.615 180.102C200.553 180.928 202.17 182.475 202.17 185.252V185.27C202.17 188.961 198.777 191.387 193.926 191.387ZM30.3438 234L25.334 215.156H30.502L33.3496 229.131H33.4551L36.7949 215.156H41.7168L45.0742 229.131H45.1797L48.0449 215.156H53.1074L48.1152 234H42.6484L39.2383 220.676H39.1328L35.7402 234H30.3438ZM63.9785 234.387C58.248 234.387 54.6445 230.713 54.6445 224.578V224.543C54.6445 218.479 58.3359 214.77 63.9609 214.77C69.6035 214.77 73.3125 218.443 73.3125 224.543V224.578C73.3125 230.73 69.6738 234.387 63.9785 234.387ZM63.9961 230.361C66.4922 230.361 68.0918 228.252 68.0918 224.578V224.543C68.0918 220.904 66.457 218.795 63.9609 218.795C61.4824 218.795 59.8652 220.904 59.8652 224.543V224.578C59.8652 228.27 61.4648 230.361 63.9961 230.361ZM76.4668 234V215.156H81.5996V218.443H81.7051C82.2676 216.123 83.7969 214.77 85.9941 214.77C86.5566 214.77 87.084 214.857 87.4707 214.963V219.48C87.0488 219.305 86.3457 219.199 85.6074 219.199C83.0762 219.199 81.5996 220.711 81.5996 223.453V234H76.4668ZM90.2031 234V208.635H95.3359V234H90.2031ZM106.277 234.387C101.531 234.387 98.6133 230.695 98.6133 224.578V224.561C98.6133 218.426 101.531 214.77 106.277 214.77C108.949 214.77 111.059 216.141 112.078 218.426H112.184V208.635H117.316V234H112.184V230.783H112.078C111.076 233.016 109.002 234.387 106.277 234.387ZM108 230.133C110.496 230.133 112.201 227.988 112.201 224.578V224.561C112.201 221.168 110.479 219.023 108 219.023C105.451 219.023 103.834 221.115 103.834 224.561V224.578C103.834 228.006 105.434 230.133 108 230.133ZM124.918 234L119.908 215.156H125.076L127.924 229.131H128.029L131.369 215.156H136.291L139.648 229.131H139.754L142.619 215.156H147.682L142.689 234H137.223L133.812 220.676H133.707L130.314 234H124.918ZM152.857 212.73C151.311 212.73 150.115 211.518 150.115 210.059C150.115 208.6 151.311 207.387 152.857 207.387C154.404 207.387 155.6 208.6 155.6 210.059C155.6 211.518 154.404 212.73 152.857 212.73ZM150.291 234V215.156H155.424V234H150.291ZM166.348 234.387C161.602 234.387 158.684 230.695 158.684 224.578V224.561C158.684 218.426 161.602 214.77 166.348 214.77C169.02 214.77 171.129 216.141 172.148 218.426H172.254V208.635H177.387V234H172.254V230.783H172.148C171.146 233.016 169.072 234.387 166.348 234.387ZM168.07 230.133C170.566 230.133 172.271 227.988 172.271 224.578V224.561C172.271 221.168 170.549 219.023 168.07 219.023C165.521 219.023 163.904 221.115 163.904 224.561V224.578C163.904 228.006 165.504 230.133 168.07 230.133ZM189.893 234.387C184.127 234.387 180.629 230.643 180.629 224.613V224.596C180.629 218.602 184.162 214.77 189.682 214.77C195.201 214.77 198.664 218.514 198.664 224.209V225.791H185.691C185.744 228.797 187.379 230.555 189.998 230.555C192.107 230.555 193.391 229.395 193.76 228.34L193.795 228.234H198.506L198.453 228.428C197.873 231.205 195.271 234.387 189.893 234.387ZM189.77 218.602C187.66 218.602 186.078 220.008 185.744 222.557H193.742C193.426 219.955 191.896 218.602 189.77 218.602Z" fill="white"/>
<rect x="16" y="287" width="356.625" height="402" rx="17" fill="white"/>
<rect x="18.7328" y="291" width="348.427" height="74" rx="9.56466" fill="white"/>
<g clip-path="url(#clip1_1273_27274)">
<g clip-path="url(#clip2_1273_27274)">
<path d="M84.0934 303H19.6648V349.02H84.0934V303Z" fill="url(#paint0_linear_1273_27274)"/>
<path d="M84.0867 303H19.6581V349.02H84.0867V303Z" fill="url(#paint1_linear_1273_27274)"/>
<path fill-rule="evenodd" clip-rule="evenodd" d="M35.0151 333.68H19.6587V318.34H35.0151L13.2765 303.677L16.7077 298.59L44.2029 317.136V299.932H59.5431V317.136L87.0383 298.59L90.4695 303.677L68.7309 318.34H84.0873V333.68H68.7309L90.4695 348.343L87.0383 353.43L59.5431 334.884V352.088H44.2029V334.884L16.7077 353.43L13.2765 348.343L35.0151 333.68Z" fill="url(#paint2_linear_1273_27274)"/>
<path d="M63.0363 318.211L92.1796 299.039C92.5334 298.806 92.6316 298.33 92.3988 297.976C92.166 297.623 91.6904 297.524 91.3365 297.757L62.1932 316.93C61.8393 317.163 61.7412 317.638 61.974 317.992C62.2068 318.346 62.6824 318.444 63.0363 318.211Z" fill="#DB1F35"/>
<path d="M65.2799 335.155L91.4053 352.764C91.7566 353.001 92.2333 352.908 92.47 352.557C92.7068 352.206 92.614 351.729 92.2627 351.492L66.1373 333.883C65.786 333.646 65.3094 333.739 65.0726 334.09C64.8358 334.442 64.9287 334.918 65.2799 335.155Z" fill="#DB1F35"/>
<path d="M38.5089 316.885L11.2579 298.52C10.9066 298.283 10.4299 298.376 10.1932 298.727C9.95643 299.078 10.0493 299.555 10.4006 299.792L37.6516 318.157C38.0029 318.394 38.4795 318.301 38.7163 317.95C38.953 317.599 38.8602 317.122 38.5089 316.885Z" fill="#DB1F35"/>
<path d="M40.612 333.667L10.4053 353.699C10.0523 353.933 9.95589 354.409 10.19 354.762C10.4241 355.115 10.9001 355.211 11.2531 354.977L41.4598 334.945C41.8129 334.711 41.9093 334.235 41.6751 333.882C41.441 333.529 40.9651 333.433 40.612 333.667Z" fill="#DB1F35"/>
<path fill-rule="evenodd" clip-rule="evenodd" d="M19.6581 330.612H47.2703V349.02H56.4744V330.612H84.0867V321.408H56.4744V303H47.2703V321.408H19.6581V330.612Z" fill="url(#paint3_linear_1273_27274)"/>
</g>
</g>
<path d="M89.798 322V310.022H94.5792C96.7042 310.022 98.0988 311.201 98.0988 313.01V313.027C98.0988 314.289 97.1442 315.459 95.8824 315.633V315.675C97.5841 315.841 98.6881 317.011 98.6881 318.597V318.613C98.6881 320.722 97.1525 322 94.6041 322H89.798ZM94.131 311.541H91.6573V315.11H93.7408C95.3512 315.11 96.2394 314.446 96.2394 313.259V313.243C96.2394 312.147 95.4674 311.541 94.131 311.541ZM94.1144 316.546H91.6573V320.481H94.2223C95.8907 320.481 96.7872 319.809 96.7872 318.514V318.497C96.7872 317.21 95.8741 316.546 94.1144 316.546ZM100.574 322V313.268H102.301V314.712H102.342C102.608 313.716 103.388 313.102 104.418 313.102C104.675 313.102 104.899 313.143 105.04 313.168V314.836C104.899 314.778 104.584 314.737 104.235 314.737C103.081 314.737 102.367 315.509 102.367 316.746V322H100.574ZM107.624 311.923C107.043 311.923 106.578 311.458 106.578 310.894C106.578 310.321 107.043 309.856 107.624 309.856C108.213 309.856 108.67 310.321 108.67 310.894C108.67 311.458 108.213 311.923 107.624 311.923ZM106.727 322V313.268H108.52V322H106.727ZM113.934 322.174C112.208 322.174 111.378 321.444 111.378 319.701V314.695H110.124V313.268H111.378V310.993H113.212V313.268H114.847V314.695H113.212V319.593C113.212 320.481 113.61 320.747 114.366 320.747C114.557 320.747 114.714 320.73 114.847 320.713V322.1C114.64 322.133 114.299 322.174 113.934 322.174ZM117.804 311.923C117.223 311.923 116.758 311.458 116.758 310.894C116.758 310.321 117.223 309.856 117.804 309.856C118.394 309.856 118.85 310.321 118.85 310.894C118.85 311.458 118.394 311.923 117.804 311.923ZM116.908 322V313.268H118.701V322H116.908ZM124.322 322.174C122.139 322.174 120.861 321.095 120.678 319.501L120.67 319.427H122.446L122.463 319.51C122.629 320.315 123.227 320.788 124.331 320.788C125.41 320.788 126.057 320.34 126.057 319.634V319.626C126.057 319.062 125.742 318.738 124.804 318.514L123.376 318.19C121.716 317.808 120.894 317.011 120.894 315.741V315.733C120.894 314.172 122.255 313.102 124.264 313.102C126.331 313.102 127.576 314.255 127.668 315.741L127.676 315.841H125.991L125.983 315.783C125.875 315.019 125.277 314.488 124.264 314.488C123.301 314.488 122.695 314.944 122.695 315.642V315.65C122.695 316.189 123.052 316.555 123.99 316.779L125.41 317.103C127.194 317.518 127.875 318.223 127.875 319.477V319.485C127.875 321.079 126.381 322.174 124.322 322.174ZM129.836 322V310.022H131.629V314.704H131.671C132.135 313.691 133.073 313.102 134.377 313.102C136.244 313.102 137.473 314.496 137.473 316.604V322H135.68V316.945C135.68 315.5 134.949 314.637 133.688 314.637C132.451 314.637 131.629 315.583 131.629 316.945V322H129.836ZM143.885 322V310.022H148.342C150.692 310.022 152.318 311.599 152.318 313.948V313.965C152.318 316.306 150.692 317.908 148.342 317.908H145.744V322H143.885ZM147.878 311.591H145.744V316.347H147.878C149.496 316.347 150.426 315.476 150.426 313.973V313.957C150.426 312.462 149.496 311.591 147.878 311.591ZM157.6 322.174C155.093 322.174 153.458 320.439 153.458 317.634V317.617C153.458 314.828 155.109 313.102 157.591 313.102C160.082 313.102 161.742 314.82 161.742 317.617V317.634C161.742 320.448 160.098 322.174 157.6 322.174ZM157.608 320.672C159.011 320.672 159.907 319.56 159.907 317.634V317.617C159.907 315.708 158.994 314.604 157.591 314.604C156.214 314.604 155.292 315.708 155.292 317.617V317.634C155.292 319.568 156.205 320.672 157.608 320.672ZM166.6 322.174C164.682 322.174 163.587 320.938 163.587 318.929V313.268H165.38V318.58C165.38 319.9 165.994 320.63 167.239 320.63C168.501 320.63 169.314 319.726 169.314 318.364V313.268H171.115V322H169.314V320.688H169.273C168.816 321.568 167.928 322.174 166.6 322.174ZM173.392 322V313.268H175.185V314.587H175.226C175.683 313.699 176.579 313.102 177.899 313.102C179.817 313.102 180.921 314.338 180.921 316.347V322H179.119V316.688C179.119 315.376 178.505 314.637 177.26 314.637C175.998 314.637 175.185 315.55 175.185 316.912V322H173.392ZM186.418 322.174C184.193 322.174 182.765 320.415 182.765 317.634V317.625C182.765 314.845 184.21 313.102 186.401 313.102C187.638 313.102 188.634 313.724 189.157 314.753H189.19V310.022H190.991V322H189.19V320.522H189.157C188.634 321.543 187.671 322.174 186.418 322.174ZM186.891 320.63C188.244 320.63 189.198 319.452 189.198 317.634V317.625C189.198 315.816 188.235 314.637 186.891 314.637C185.48 314.637 184.6 315.783 184.6 317.625V317.634C184.6 319.493 185.471 320.63 186.891 320.63Z" fill="black"/>
<path d="M94.0397 344.232C91.3121 344.232 89.569 342.223 89.569 339.071V339.058C89.569 335.947 91.3395 333.903 94.0397 333.903C96.2272 333.903 97.7653 335.134 98.1549 337.007L98.1686 337.075H96.9244L96.9039 337.007C96.5006 335.735 95.5094 335.038 94.0397 335.038C92.0846 335.038 90.8268 336.61 90.8268 339.058V339.071C90.8268 341.553 92.0641 343.098 94.0465 343.098C95.8102 343.098 96.9996 341.97 96.9996 340.302V340.062H94.2311V338.982H98.2301V340.186C98.2301 342.619 96.5621 344.232 94.0397 344.232ZM100.411 344V334.136H104.184C105.996 334.136 107.103 335.086 107.103 336.59V336.604C107.103 337.622 106.351 338.552 105.401 338.723V338.832C106.748 339.003 107.602 339.926 107.602 341.225V341.238C107.602 342.968 106.358 344 104.259 344H100.411ZM103.924 335.223H101.641V338.388H103.61C105.1 338.388 105.859 337.854 105.859 336.815V336.802C105.859 335.804 105.148 335.223 103.924 335.223ZM103.959 339.447H101.641V342.913H104.075C105.558 342.913 106.338 342.312 106.338 341.177V341.163C106.338 340.028 105.531 339.447 103.959 339.447ZM109.612 344V334.136H113.331C115.183 334.136 116.496 335.414 116.496 337.287V337.301C116.496 339.174 115.183 340.479 113.331 340.479H110.842V344H109.612ZM113.016 335.229H110.842V339.386H113.016C114.424 339.386 115.238 338.613 115.238 337.314V337.301C115.238 336.002 114.424 335.229 113.016 335.229Z" fill="#737A86"/>
<path d="M331.254 331V320.607H331.221L328.05 322.89V321.313L331.238 319.022H332.699V331H331.254ZM340.179 331.199C337.381 331.199 335.763 328.792 335.763 325.007C335.763 321.255 337.398 318.823 340.179 318.823C342.959 318.823 344.578 321.238 344.578 324.999C344.578 328.784 342.968 331.199 340.179 331.199ZM340.179 329.896C342.046 329.896 343.076 327.995 343.076 325.007C343.076 322.06 342.03 320.134 340.179 320.134C338.328 320.134 337.265 322.077 337.265 324.999C337.265 327.987 338.303 329.896 340.179 329.896ZM350.738 331.199C347.941 331.199 346.322 328.792 346.322 325.007C346.322 321.255 347.958 318.823 350.738 318.823C353.519 318.823 355.138 321.238 355.138 324.999C355.138 328.784 353.527 331.199 350.738 331.199ZM350.738 329.896C352.606 329.896 353.635 327.995 353.635 325.007C353.635 322.06 352.589 320.134 350.738 320.134C348.887 320.134 347.825 322.077 347.825 324.999C347.825 327.987 348.862 329.896 350.738 329.896Z" fill="#191B1E"/>
<rect x="327.229" y="336" width="29" height="1" fill="#E0E3E7"/>
<rect x="18.7328" y="371" width="348.427" height="74" rx="9.56466" fill="white"/>
<g clip-path="url(#clip3_1273_27274)">
<g clip-path="url(#clip4_1273_27274)">
<path d="M81.5187 387.145H23.3767V428.675H81.5187V387.145Z" fill="url(#paint4_linear_1273_27274)"/>
<path d="M81.5193 382.43H23.3767V434.287H81.5193V382.43Z" fill="url(#paint5_linear_1273_27274)"/>
<path fill-rule="evenodd" clip-rule="evenodd" d="M51.7492 393.766L49.813 394.333L50.3801 392.397L49.813 390.461L51.7492 391.028L53.6854 390.461L53.1183 392.397L53.6854 394.333L51.7492 393.766ZM51.7492 421.149L49.813 421.716L50.3801 419.779L49.813 417.843L51.7492 418.41L53.6854 417.843L53.1183 419.779L53.6854 421.716L51.7492 421.149ZM65.4403 407.457L63.5041 408.025L64.0712 406.088L63.5041 404.152L65.4403 404.719L67.3765 404.152L66.8094 406.088L67.3765 408.025L65.4403 407.457ZM38.058 407.457L36.1218 408.025L36.6889 406.088L36.1218 404.152L38.058 404.719L39.9943 404.152L39.4272 406.088L39.9943 408.025L38.058 407.457ZM63.6061 400.612L61.6698 401.179L62.2369 399.243L61.6698 397.307L63.6061 397.874L65.5423 397.307L64.9752 399.243L65.5423 401.179L63.6061 400.612ZM39.8923 414.303L37.9561 414.87L38.5232 412.934L37.9561 410.998L39.8923 411.565L41.8285 410.998L41.2614 412.934L41.8285 414.87L39.8923 414.303ZM58.5948 395.601L56.6585 396.168L57.2256 394.231L56.6585 392.295L58.5948 392.862L60.531 392.295L59.9639 394.231L60.531 396.168L58.5948 395.601ZM44.9036 419.314L42.9674 419.881L43.5345 417.945L42.9674 416.009L44.9036 416.576L46.8398 416.009L46.2727 417.945L46.8398 419.881L44.9036 419.314ZM63.6061 414.303L61.6698 414.87L62.2369 412.934L61.6698 410.998L63.6061 411.565L65.5423 410.998L64.9752 412.934L65.5423 414.87L63.6061 414.303ZM39.8923 400.612L37.9561 401.179L38.5232 399.243L37.9561 397.307L39.8923 397.874L41.8285 397.307L41.2614 399.243L41.8285 401.179L39.8923 400.612ZM58.5948 419.314L56.6585 419.881L57.2256 417.945L56.6585 416.009L58.5948 416.576L60.531 416.009L59.9639 417.945L60.531 419.881L58.5948 419.314ZM44.9036 395.601L42.9674 396.168L43.5345 394.231L42.9674 392.295L44.9036 392.862L46.8398 392.295L46.2727 394.231L46.8398 396.168L44.9036 395.601Z" fill="url(#paint6_linear_1273_27274)"/>
</g>
</g>
<path d="M89.798 402V390.022H97.4015V391.624H91.6573V395.119H97.0944V396.679H91.6573V400.398H97.4015V402H89.798ZM102.567 402.174C100.649 402.174 99.5533 400.938 99.5533 398.929V393.268H101.346V398.58C101.346 399.9 101.961 400.63 103.206 400.63C104.467 400.63 105.281 399.726 105.281 398.364V393.268H107.082V402H105.281V400.688H105.239C104.783 401.568 103.895 402.174 102.567 402.174ZM109.359 402V393.268H111.085V394.712H111.127C111.392 393.716 112.172 393.102 113.202 393.102C113.459 393.102 113.683 393.143 113.824 393.168V394.836C113.683 394.778 113.368 394.737 113.019 394.737C111.865 394.737 111.151 395.509 111.151 396.746V402H109.359ZM118.807 402.174C116.3 402.174 114.665 400.439 114.665 397.634V397.617C114.665 394.828 116.317 393.102 118.798 393.102C121.289 393.102 122.949 394.82 122.949 397.617V397.634C122.949 400.448 121.305 402.174 118.807 402.174ZM118.815 400.672C120.218 400.672 121.114 399.56 121.114 397.634V397.617C121.114 395.708 120.201 394.604 118.798 394.604C117.421 394.604 116.499 395.708 116.499 397.617V397.634C116.499 399.568 117.412 400.672 118.815 400.672Z" fill="black"/>
<path d="M89.9518 424V414.136H96.0631V415.243H91.1823V418.408H95.8102V419.502H91.1823V422.893H96.0631V424H89.9518ZM102.202 424.232C99.7545 424.232 98.278 422.756 98.278 420.609V414.136H99.5084V420.527C99.5084 422.045 100.493 423.098 102.202 423.098C103.911 423.098 104.881 422.045 104.881 420.527V414.136H106.112V420.609C106.112 422.756 104.649 424.232 102.202 424.232ZM108.614 424V414.136H112.38C114.281 414.136 115.525 415.298 115.525 417.068V417.082C115.525 418.449 114.78 419.516 113.543 419.905L115.826 424H114.383L112.271 420.097H109.844V424H108.614ZM109.844 419.003H112.271C113.536 419.003 114.254 418.326 114.254 417.123V417.109C114.254 415.934 113.488 415.229 112.216 415.229H109.844V419.003Z" fill="#737A86"/>
<path d="M311.254 411V400.607H311.221L308.05 402.815V401.313L311.238 399.022H312.699V411H311.254ZM319.042 411V400.607H319.008L315.837 402.815V401.313L319.025 399.022H320.486V411H319.042ZM327.808 411.199C325.334 411.199 323.732 409.821 323.575 407.929L323.566 407.829H325.002L325.011 407.912C325.135 409.091 326.214 409.904 327.808 409.904C329.377 409.904 330.448 409.024 330.448 407.754V407.738C330.448 406.269 329.394 405.447 327.717 405.447H326.214V404.185H327.65C329.078 404.185 330.074 403.305 330.074 402.11V402.093C330.074 400.84 329.252 400.118 327.792 400.118C326.38 400.118 325.376 400.865 325.251 402.077L325.243 402.16H323.807L323.815 402.077C324.006 400.126 325.55 398.823 327.792 398.823C330.074 398.823 331.577 400.093 331.577 401.911V401.927C331.577 403.405 330.531 404.417 329.037 404.733V404.766C330.78 404.916 331.967 406.003 331.967 407.705V407.721C331.967 409.722 330.207 411.199 327.808 411.199ZM334.69 411.116C334.159 411.116 333.744 410.701 333.744 410.17C333.744 409.639 334.159 409.224 334.69 409.224C335.222 409.224 335.637 409.639 335.637 410.17C335.637 410.701 335.222 411.116 334.69 411.116ZM337.846 411L343.266 400.383V400.35H336.816V399.022H344.744V400.408L339.415 411H337.846ZM350.871 411.199C348.663 411.199 346.322 409.672 346.322 405.231V405.214C346.322 401.18 348.04 398.823 350.97 398.823C353.004 398.823 354.523 399.985 354.921 401.728L354.946 401.836H353.427L353.394 401.745C353.037 400.757 352.182 400.143 350.954 400.143C348.646 400.143 347.783 402.45 347.766 405.082H347.799C348.281 404.019 349.509 403.156 351.136 403.156C353.419 403.156 355.112 404.841 355.112 407.115V407.132C355.112 409.489 353.319 411.199 350.871 411.199ZM348.123 407.115C348.123 408.651 349.318 409.871 350.854 409.871C352.381 409.871 353.593 408.676 353.593 407.165V407.148C353.593 405.588 352.456 404.467 350.879 404.467C349.31 404.467 348.123 405.58 348.123 407.107V407.115Z" fill="#191B1E"/>
<rect x="307.229" y="416" width="49" height="1" fill="#E0E3E7"/>
<rect x="18.7328" y="451" width="348.427" height="74" rx="9.56466" fill="white"/>
<g clip-path="url(#clip5_1273_27274)">
<g clip-path="url(#clip6_1273_27274)">
<path d="M91.8932 462.43H28.0935V508.001H91.8932V462.43Z" fill="url(#paint7_linear_1273_27274)"/>
<path fill-rule="evenodd" clip-rule="evenodd" d="M28.0935 462.43H91.8932V465.468H28.0935V462.43ZM28.0935 468.506H91.8932V471.544H28.0935V468.506ZM28.0935 474.582H91.8932V477.62H28.0935V474.582ZM28.0935 480.658H91.8932V483.696H28.0935V480.658ZM28.0935 486.734H91.8932V489.772H28.0935V486.734ZM28.0935 492.811H91.8932V495.849H28.0935V492.811ZM28.0935 498.887H91.8932V501.925H28.0935V498.887ZM28.0935 504.963H91.8932V508.001H28.0935V504.963Z" fill="url(#paint8_linear_1273_27274)"/>
<path d="M55.4362 462.43H28.0935V483.696H55.4362V462.43Z" fill="url(#paint9_linear_1273_27274)"/>
<path fill-rule="evenodd" clip-rule="evenodd" d="M32.6506 468.507C31.8117 468.507 31.1316 467.827 31.1316 466.988C31.1316 466.149 31.8117 465.469 32.6506 465.469C33.4896 465.469 34.1697 466.149 34.1697 466.988C34.1697 467.827 33.4896 468.507 32.6506 468.507ZM38.7268 468.507C37.8879 468.507 37.2078 467.827 37.2078 466.988C37.2078 466.149 37.8879 465.469 38.7268 465.469C39.5657 465.469 40.2458 466.149 40.2458 466.988C40.2458 467.827 39.5657 468.507 38.7268 468.507ZM44.803 468.507C43.964 468.507 43.2839 467.827 43.2839 466.988C43.2839 466.149 43.964 465.469 44.803 465.469C45.6419 465.469 46.322 466.149 46.322 466.988C46.322 467.827 45.6419 468.507 44.803 468.507ZM50.8791 468.507C50.0402 468.507 49.3601 467.827 49.3601 466.988C49.3601 466.149 50.0402 465.469 50.8791 465.469C51.7181 465.469 52.3982 466.149 52.3982 466.988C52.3982 467.827 51.7181 468.507 50.8791 468.507ZM35.6887 471.545C34.8498 471.545 34.1697 470.865 34.1697 470.026C34.1697 469.187 34.8498 468.507 35.6887 468.507C36.5277 468.507 37.2078 469.187 37.2078 470.026C37.2078 470.865 36.5277 471.545 35.6887 471.545ZM41.7649 471.545C40.9259 471.545 40.2458 470.865 40.2458 470.026C40.2458 469.187 40.9259 468.507 41.7649 468.507C42.6038 468.507 43.2839 469.187 43.2839 470.026C43.2839 470.865 42.6038 471.545 41.7649 471.545ZM47.841 471.545C47.0021 471.545 46.322 470.865 46.322 470.026C46.322 469.187 47.0021 468.507 47.841 468.507C48.68 468.507 49.3601 469.187 49.3601 470.026C49.3601 470.865 48.68 471.545 47.841 471.545ZM50.8791 474.583C50.0402 474.583 49.3601 473.903 49.3601 473.064C49.3601 472.225 50.0402 471.545 50.8791 471.545C51.7181 471.545 52.3982 472.225 52.3982 473.064C52.3982 473.903 51.7181 474.583 50.8791 474.583ZM44.803 474.583C43.964 474.583 43.2839 473.903 43.2839 473.064C43.2839 472.225 43.964 471.545 44.803 471.545C45.6419 471.545 46.322 472.225 46.322 473.064C46.322 473.903 45.6419 474.583 44.803 474.583ZM38.7268 474.583C37.8879 474.583 37.2078 473.903 37.2078 473.064C37.2078 472.225 37.8879 471.545 38.7268 471.545C39.5657 471.545 40.2458 472.225 40.2458 473.064C40.2458 473.903 39.5657 474.583 38.7268 474.583ZM32.6506 474.583C31.8117 474.583 31.1316 473.903 31.1316 473.064C31.1316 472.225 31.8117 471.545 32.6506 471.545C33.4896 471.545 34.1697 472.225 34.1697 473.064C34.1697 473.903 33.4896 474.583 32.6506 474.583ZM35.6887 477.621C34.8498 477.621 34.1697 476.941 34.1697 476.102C34.1697 475.263 34.8498 474.583 35.6887 474.583C36.5277 474.583 37.2078 475.263 37.2078 476.102C37.2078 476.941 36.5277 477.621 35.6887 477.621ZM41.7649 477.621C40.9259 477.621 40.2458 476.941 40.2458 476.102C40.2458 475.263 40.9259 474.583 41.7649 474.583C42.6038 474.583 43.2839 475.263 43.2839 476.102C43.2839 476.941 42.6038 477.621 41.7649 477.621ZM47.841 477.621C47.0021 477.621 46.322 476.941 46.322 476.102C46.322 475.263 47.0021 474.583 47.841 474.583C48.68 474.583 49.3601 475.263 49.3601 476.102C49.3601 476.941 48.68 477.621 47.841 477.621ZM50.8791 480.659C50.0402 480.659 49.3601 479.979 49.3601 479.14C49.3601 478.301 50.0402 477.621 50.8791 477.621C51.7181 477.621 52.3982 478.301 52.3982 479.14C52.3982 479.979 51.7181 480.659 50.8791 480.659ZM44.803 480.659C43.964 480.659 43.2839 479.979 43.2839 479.14C43.2839 478.301 43.964 477.621 44.803 477.621C45.6419 477.621 46.322 478.301 46.322 479.14C46.322 479.979 45.6419 480.659 44.803 480.659ZM38.7268 480.659C37.8879 480.659 37.2078 479.979 37.2078 479.14C37.2078 478.301 37.8879 477.621 38.7268 477.621C39.5657 477.621 40.2458 478.301 40.2458 479.14C40.2458 479.979 39.5657 480.659 38.7268 480.659ZM32.6506 480.659C31.8117 480.659 31.1316 479.979 31.1316 479.14C31.1316 478.301 31.8117 477.621 32.6506 477.621C33.4896 477.621 34.1697 478.301 34.1697 479.14C34.1697 479.979 33.4896 480.659 32.6506 480.659Z" fill="url(#paint10_linear_1273_27274)"/>
</g>
</g>
<path d="M94.6539 482.199C91.649 482.199 89.798 480.415 89.798 477.792V470.022H91.6573V477.642C91.6573 479.385 92.7448 480.556 94.6539 480.556C96.5631 480.556 97.6422 479.385 97.6422 477.642V470.022H99.4933V477.792C99.4933 480.415 97.6671 482.199 94.6539 482.199ZM106.285 482.199C103.596 482.199 101.819 480.921 101.67 478.812L101.662 478.688H103.471L103.488 478.796C103.654 479.9 104.758 480.589 106.36 480.589C107.962 480.589 108.975 479.867 108.975 478.746V478.738C108.975 477.775 108.319 477.252 106.734 476.903L105.43 476.629C103.081 476.131 101.944 475.052 101.944 473.276V473.268C101.952 471.226 103.754 469.823 106.285 469.823C108.784 469.823 110.494 471.184 110.618 473.193L110.627 473.334H108.817L108.809 473.218C108.643 472.105 107.68 471.433 106.26 471.433C104.775 471.441 103.828 472.147 103.828 473.193V473.201C103.828 474.098 104.509 474.646 106.003 474.969L107.315 475.243C109.788 475.766 110.851 476.771 110.851 478.622V478.63C110.851 480.813 109.124 482.199 106.285 482.199ZM116.981 482V470.022H121.206C124.758 470.022 126.875 472.205 126.875 475.974V475.99C126.875 479.775 124.775 482 121.206 482H116.981ZM118.84 480.39H121.031C123.571 480.39 124.974 478.837 124.974 476.007V475.99C124.974 473.176 123.555 471.624 121.031 471.624H118.84V480.39ZM132.688 482.174C130.181 482.174 128.546 480.439 128.546 477.634V477.617C128.546 474.828 130.197 473.102 132.679 473.102C135.17 473.102 136.83 474.82 136.83 477.617V477.634C136.83 480.448 135.186 482.174 132.688 482.174ZM132.696 480.672C134.099 480.672 134.995 479.56 134.995 477.634V477.617C134.995 475.708 134.082 474.604 132.679 474.604C131.301 474.604 130.38 475.708 130.38 477.617V477.634C130.38 479.568 131.293 480.672 132.696 480.672ZM138.782 482V470.022H140.575V482H138.782ZM142.984 482V470.022H144.777V482H142.984ZM149.685 482.158C147.942 482.158 146.772 481.087 146.772 479.518V479.501C146.772 477.982 147.95 477.053 150.017 476.928L152.391 476.787V476.131C152.391 475.168 151.769 474.587 150.656 474.587C149.619 474.587 148.98 475.077 148.83 475.774L148.814 475.849H147.12L147.129 475.758C147.253 474.255 148.556 473.102 150.706 473.102C152.839 473.102 154.193 474.23 154.193 475.982V482H152.391V480.622H152.358C151.852 481.56 150.839 482.158 149.685 482.158ZM148.581 479.477C148.581 480.24 149.212 480.722 150.175 480.722C151.437 480.722 152.391 479.867 152.391 478.729V478.049L150.258 478.182C149.179 478.248 148.581 478.721 148.581 479.46V479.477ZM156.436 482V473.268H158.162V474.712H158.204C158.469 473.716 159.25 473.102 160.279 473.102C160.536 473.102 160.76 473.143 160.901 473.168V474.836C160.76 474.778 160.445 474.737 160.096 474.737C158.943 474.737 158.229 475.509 158.229 476.746V482H156.436Z" fill="black"/>
<path d="M93.8619 504.232C91.4147 504.232 89.9381 502.756 89.9381 500.609V494.136H91.1686V500.527C91.1686 502.045 92.153 503.098 93.8619 503.098C95.5709 503.098 96.5416 502.045 96.5416 500.527V494.136H97.7721V500.609C97.7721 502.756 96.3092 504.232 93.8619 504.232ZM103.507 504.232C101.347 504.232 99.9528 503.098 99.8092 501.491L99.8024 501.416H101.033L101.04 501.491C101.129 502.476 102.154 503.098 103.576 503.098C104.916 503.098 105.893 502.407 105.893 501.402V501.396C105.893 500.575 105.326 500.015 103.972 499.714L102.879 499.475C100.903 499.037 100.048 498.128 100.048 496.699V496.692C100.055 495.059 101.484 493.903 103.521 493.903C105.49 493.903 106.864 495.065 106.966 496.535L106.973 496.631H105.743L105.729 496.542C105.592 495.674 104.772 495.031 103.487 495.038C102.256 495.045 101.306 495.626 101.306 496.658V496.665C101.306 497.451 101.846 497.984 103.186 498.278L104.28 498.524C106.338 498.982 107.151 499.81 107.151 501.231V501.238C107.151 503.084 105.709 504.232 103.507 504.232ZM109.202 504V494.136H112.586C115.511 494.136 117.241 495.961 117.241 499.058V499.071C117.241 502.175 115.518 504 112.586 504H109.202ZM110.432 502.893H112.504C114.705 502.893 115.983 501.484 115.983 499.085V499.071C115.983 496.665 114.691 495.243 112.504 495.243H110.432V502.893Z" fill="#737A86"/>
<path d="M309.254 491V480.607H309.221L306.05 482.89V481.313L309.238 479.022H310.699V491H309.254ZM313.912 482.475C313.912 480.383 315.605 478.823 317.863 478.823C320.005 478.823 321.69 480.275 321.69 482.11C321.69 483.446 321.084 484.442 319.083 486.509L316.054 489.639V489.672H321.889V491H313.987V489.971L318.204 485.53C319.814 483.836 320.196 483.197 320.196 482.201C320.196 481.047 319.142 480.126 317.822 480.126C316.419 480.126 315.356 481.139 315.356 482.475V482.483H313.912V482.475ZM329.145 491V488.51H323.127V487.157C324.148 485.264 325.551 483.081 328.381 479.022H330.589V487.198H332.283V488.51H330.589V491H329.145ZM324.604 487.165V487.198H329.145V480.267H329.12C326.854 483.504 325.551 485.505 324.604 487.165ZM335.181 491.083C334.649 491.083 334.234 490.668 334.234 490.137C334.234 489.605 334.649 489.19 335.181 489.19C335.712 489.19 336.127 489.605 336.127 490.137C336.127 490.668 335.712 491.083 335.181 491.083ZM338.668 491L344.088 480.383V480.35H337.639V479.022H345.566V480.408L340.237 491H338.668ZM347.451 482.475C347.451 480.383 349.145 478.823 351.402 478.823C353.544 478.823 355.229 480.275 355.229 482.11C355.229 483.446 354.623 484.442 352.623 486.509L349.593 489.639V489.672H355.428V491H347.526V489.971L351.743 485.53C353.353 483.836 353.735 483.197 353.735 482.201C353.735 481.047 352.681 480.126 351.361 480.126C349.958 480.126 348.896 481.139 348.896 482.475V482.483H347.451V482.475Z" fill="#191B1E"/>
<rect x="305.229" y="496" width="51" height="1" fill="#E0E3E7"/>
<rect x="18.7328" y="531" width="348.427" height="74" rx="9.56466" fill="white"/>
<path fill-rule="evenodd" clip-rule="evenodd" d="M30.3228 560.684C33.2609 548.895 45.1957 541.72 56.9853 544.658C68.7705 547.598 75.9451 559.538 73.0048 571.325C70.069 583.115 58.1275 590.287 46.3379 587.349C34.5571 584.409 27.3826 572.47 30.3228 560.684ZM58.2816 566.415C59.8573 566.05 61.048 565.013 61.3671 562.87C61.8028 559.943 59.5756 558.367 56.5298 557.313L57.5179 553.347L55.1036 552.746L54.1397 556.608C53.5059 556.45 52.8522 556.3 52.2052 556.153L53.1736 552.266L50.7593 551.665L49.7712 555.631C49.2452 555.512 48.7302 555.394 48.2306 555.268L48.2328 555.257L44.9008 554.425L44.2604 557.005C44.2604 557.005 46.054 557.416 46.0144 557.44C46.9938 557.685 47.1676 558.332 47.139 558.847L46.0122 563.365C46.0804 563.383 46.1663 563.407 46.2631 563.446C46.2245 563.437 46.1844 563.427 46.1432 563.416C46.0998 563.405 46.0552 563.394 46.01 563.383L44.4277 569.71C44.3088 570.009 44.0073 570.454 43.3229 570.284C43.3471 570.319 41.5688 569.846 41.5688 569.846L40.3672 572.61L43.5121 573.392C43.8753 573.482 44.2342 573.576 44.5899 573.669C44.8054 573.725 45.0198 573.782 45.2331 573.836L44.234 577.848L46.6438 578.454L47.632 574.483C48.2944 574.664 48.9349 574.829 49.5577 574.985L48.5739 578.933L50.986 579.534L51.9851 575.529C56.105 576.308 59.1993 575.993 60.5022 572.272C61.5497 569.272 60.4493 567.542 58.2816 566.415ZM50.3498 563.826L51.5536 559.006C51.6927 559.041 51.8636 559.079 52.0574 559.122C53.7586 559.5 57.2318 560.272 56.5956 562.822C55.9725 565.323 52.391 564.368 50.7478 563.93C50.5977 563.89 50.4638 563.854 50.3498 563.826ZM48.4175 571.575L49.7446 566.26C49.9081 566.3 50.1076 566.345 50.3335 566.396C52.3698 566.851 56.5506 567.787 55.8473 570.604C55.1623 573.357 50.8496 572.216 48.8829 571.696C48.7078 571.649 48.5512 571.608 48.4175 571.575Z" fill="#ED911E"/>
<path d="M89.798 562V550.022H94.5792C96.7042 550.022 98.0988 551.201 98.0988 553.01V553.027C98.0988 554.289 97.1442 555.459 95.8824 555.633V555.675C97.5841 555.841 98.6881 557.011 98.6881 558.597V558.613C98.6881 560.722 97.1525 562 94.6041 562H89.798ZM94.131 551.541H91.6573V555.11H93.7408C95.3512 555.11 96.2394 554.446 96.2394 553.259V553.243C96.2394 552.147 95.4674 551.541 94.131 551.541ZM94.1144 556.546H91.6573V560.481H94.2223C95.8907 560.481 96.7872 559.809 96.7872 558.514V558.497C96.7872 557.21 95.8741 556.546 94.1144 556.546ZM101.546 551.923C100.964 551.923 100.5 551.458 100.5 550.894C100.5 550.321 100.964 549.856 101.546 549.856C102.135 549.856 102.591 550.321 102.591 550.894C102.591 551.458 102.135 551.923 101.546 551.923ZM100.649 562V553.268H102.442V562H100.649ZM107.856 562.174C106.13 562.174 105.299 561.444 105.299 559.701V554.695H104.046V553.268H105.299V550.993H107.134V553.268H108.769V554.695H107.134V559.593C107.134 560.481 107.532 560.747 108.288 560.747C108.479 560.747 108.636 560.73 108.769 560.713V562.1C108.562 562.133 108.221 562.174 107.856 562.174ZM114.291 562.174C111.743 562.174 110.149 560.423 110.149 557.625V557.617C110.149 554.853 111.776 553.102 114.266 553.102C116.516 553.102 117.877 554.546 118.026 556.189L118.035 556.248H116.325L116.308 556.181C116.117 555.326 115.453 554.604 114.283 554.604C112.888 554.604 111.984 555.766 111.984 557.634V557.642C111.984 559.551 112.905 560.672 114.291 560.672C115.395 560.672 116.101 560.033 116.317 559.086L116.325 559.02H118.051L118.043 559.078C117.852 560.83 116.391 562.174 114.291 562.174ZM123.573 562.174C121.067 562.174 119.431 560.439 119.431 557.634V557.617C119.431 554.828 121.083 553.102 123.565 553.102C126.055 553.102 127.715 554.82 127.715 557.617V557.634C127.715 560.448 126.072 562.174 123.573 562.174ZM123.582 560.672C124.984 560.672 125.881 559.56 125.881 557.634V557.617C125.881 555.708 124.968 554.604 123.565 554.604C122.187 554.604 121.266 555.708 121.266 557.617V557.634C121.266 559.568 122.179 560.672 123.582 560.672ZM130.573 551.923C129.992 551.923 129.527 551.458 129.527 550.894C129.527 550.321 129.992 549.856 130.573 549.856C131.162 549.856 131.619 550.321 131.619 550.894C131.619 551.458 131.162 551.923 130.573 551.923ZM129.676 562V553.268H131.469V562H129.676ZM133.82 562V553.268H135.613V554.587H135.655C136.111 553.699 137.008 553.102 138.328 553.102C140.245 553.102 141.349 554.338 141.349 556.347V562H139.548V556.688C139.548 555.376 138.934 554.637 137.689 554.637C136.427 554.637 135.613 555.55 135.613 556.912V562H133.82Z" fill="black"/>
<path d="M89.9518 584V574.136H93.7252C95.5367 574.136 96.6442 575.086 96.6442 576.59V576.604C96.6442 577.622 95.8922 578.552 94.942 578.723V578.832C96.2887 579.003 97.1432 579.926 97.1432 581.225V581.238C97.1432 582.968 95.899 584 93.8004 584H89.9518ZM93.4655 575.223H91.1823V578.388H93.151C94.6412 578.388 95.4 577.854 95.4 576.815V576.802C95.4 575.804 94.6891 575.223 93.4655 575.223ZM93.4996 579.447H91.1823V582.913H93.6158C95.0992 582.913 95.8785 582.312 95.8785 581.177V581.163C95.8785 580.028 95.0719 579.447 93.4996 579.447ZM101.716 584V575.243H98.5377V574.136H106.126V575.243H102.947V584H101.716ZM111.588 584.232C108.908 584.232 107.233 582.25 107.233 579.078V579.064C107.233 575.886 108.901 573.903 111.581 573.903C113.659 573.903 115.279 575.209 115.573 577.103L115.566 577.116H114.329L114.322 577.103C113.994 575.838 112.941 575.038 111.581 575.038C109.687 575.038 108.498 576.597 108.498 579.064V579.078C108.498 581.546 109.687 583.098 111.588 583.098C112.962 583.098 114.007 582.394 114.315 581.259L114.329 581.245H115.573V581.259C115.245 583.063 113.686 584.232 111.588 584.232Z" fill="#737A86"/>
<path d="M273.392 571.199C270.594 571.199 268.976 568.792 268.976 565.007C268.976 561.255 270.611 558.823 273.392 558.823C276.172 558.823 277.791 561.238 277.791 564.999C277.791 568.784 276.181 571.199 273.392 571.199ZM273.392 569.896C275.259 569.896 276.289 567.995 276.289 565.007C276.289 562.06 275.243 560.134 273.392 560.134C271.541 560.134 270.478 562.077 270.478 564.999C270.478 567.987 271.516 569.896 273.392 569.896ZM280.614 571.083C280.083 571.083 279.668 570.668 279.668 570.137C279.668 569.605 280.083 569.19 280.614 569.19C281.146 569.19 281.561 569.605 281.561 570.137C281.561 570.668 281.146 571.083 280.614 571.083ZM288.186 571.199C285.388 571.199 283.77 568.792 283.77 565.007C283.77 561.255 285.405 558.823 288.186 558.823C290.966 558.823 292.585 561.238 292.585 564.999C292.585 568.784 290.975 571.199 288.186 571.199ZM288.186 569.896C290.053 569.896 291.083 567.995 291.083 565.007C291.083 562.06 290.037 560.134 288.186 560.134C286.334 560.134 285.272 562.077 285.272 564.999C285.272 567.987 286.31 569.896 288.186 569.896ZM298.745 571.199C295.948 571.199 294.329 568.792 294.329 565.007C294.329 561.255 295.964 558.823 298.745 558.823C301.526 558.823 303.145 561.238 303.145 564.999C303.145 568.784 301.534 571.199 298.745 571.199ZM298.745 569.896C300.613 569.896 301.642 567.995 301.642 565.007C301.642 562.06 300.596 560.134 298.745 560.134C296.894 560.134 295.832 562.077 295.832 564.999C295.832 567.987 296.869 569.896 298.745 569.896ZM310.807 571V568.51H304.789V567.157C305.81 565.264 307.213 563.081 310.043 559.022H312.251V567.198H313.945V568.51H312.251V571H310.807ZM306.267 567.165V567.198H310.807V560.267H310.782C308.516 563.504 307.213 565.505 306.267 567.165ZM321.35 571V568.51H315.332V567.157C316.353 565.264 317.756 563.081 320.586 559.022H322.794V567.198H324.488V568.51H322.794V571H321.35ZM316.81 567.165V567.198H321.35V560.267H321.325C319.059 563.504 317.756 565.505 316.81 567.165ZM328.639 565.472V564.21H330.075C331.453 564.21 332.416 563.322 332.416 562.11C332.416 560.923 331.611 560.118 330.092 560.118C328.714 560.118 327.801 560.906 327.668 562.16H326.232C326.398 560.126 327.909 558.823 330.158 558.823C332.3 558.823 333.918 560.109 333.918 561.911C333.918 563.413 332.956 564.492 331.461 564.758V564.791C333.271 564.899 334.433 566.02 334.433 567.705C334.433 569.763 332.557 571.199 330.208 571.199C327.701 571.199 326.099 569.813 325.991 567.829H327.427C327.56 569.058 328.581 569.904 330.191 569.904C331.777 569.904 332.914 569.008 332.914 567.754C332.914 566.343 331.852 565.472 330.142 565.472H328.639ZM340.842 571.208C339.049 571.208 337.622 570.236 336.883 568.51C336.484 567.588 336.293 566.509 336.293 565.214C336.293 561.18 338.012 558.814 340.942 558.814C342.976 558.814 344.536 560.035 344.918 561.919H343.399C343.075 560.832 342.112 560.134 340.925 560.134C338.925 560.134 337.788 561.911 337.738 565.098H337.763C338.302 563.928 339.622 563.156 341.108 563.156C343.391 563.156 345.084 564.841 345.084 567.115C345.084 569.481 343.299 571.208 340.842 571.208ZM340.826 569.879C342.353 569.879 343.565 568.676 343.565 567.165C343.565 565.596 342.436 564.467 340.851 564.467C339.265 564.467 338.095 565.596 338.095 567.124C338.095 568.659 339.29 569.879 340.826 569.879ZM351.053 571.199C348.762 571.199 347.069 569.771 346.944 567.729H348.414C348.546 569.008 349.634 569.888 351.07 569.888C352.697 569.888 353.826 568.759 353.826 567.148C353.826 565.538 352.688 564.384 351.095 564.384C349.974 564.384 349.02 564.891 348.53 565.729H347.127L347.783 559.022H354.639V560.35H349.011L348.646 564.251H348.679C349.219 563.529 350.215 563.098 351.36 563.098C353.66 563.098 355.32 564.783 355.32 567.107C355.32 569.514 353.552 571.199 351.053 571.199Z" fill="#191B1E"/>
<rect x="268.229" y="576" width="88" height="1" fill="#E0E3E7"/>
<rect x="18.7328" y="611" width="348.427" height="74" rx="9.56466" fill="white"/>
<rect x="29.9138" y="624.25" width="43.5" height="43.5" rx="21.75" stroke="#EDEFF2" stroke-width="0.5"/>
<rect x="39.9138" y="634.25" width="23.5" height="23.5" rx="4.75" fill="url(#paint11_radial_1273_27274)"/>
<rect x="39.9138" y="634.25" width="23.5" height="23.5" rx="4.75" fill="url(#paint12_linear_1273_27274)" fill-opacity="0.2"/>
<rect x="39.9138" y="634.25" width="23.5" height="23.5" rx="4.75" stroke="url(#paint13_linear_1273_27274)" stroke-width="0.5"/>
<path d="M46.7613 650.075H44.6638L47.3882 642H49.9864L52.7108 650.075H50.6133L48.7169 644.034H48.6538L46.7613 650.075ZM46.4814 646.897H50.8656V648.379H46.4814V646.897Z" fill="#B19B79"/>
<path d="M57.4873 647.461V644.019H59.4113V650.075H57.5741V648.947H57.511C57.3769 649.318 57.1482 649.612 56.8249 649.83C56.5043 650.046 56.1166 650.153 55.6619 650.153C55.2492 650.153 54.8865 650.059 54.5737 649.87C54.2609 649.68 54.0178 649.416 53.8443 649.077C53.6708 648.735 53.5828 648.336 53.5801 647.879V644.019H55.5081V647.5C55.5107 647.829 55.5975 648.087 55.7683 648.277C55.9392 648.466 56.1718 648.561 56.4662 648.561C56.658 648.561 56.8302 648.519 56.9827 648.434C57.1377 648.348 57.26 648.223 57.3493 648.06C57.4413 647.894 57.4873 647.695 57.4873 647.461Z" fill="#B19B79"/>
<path d="M94.9528 642.199C91.5245 642.199 89.3663 639.809 89.3663 635.957V635.949C89.3663 632.172 91.5245 629.823 94.9279 629.823C97.7335 629.823 99.4933 631.441 99.9913 633.6L100.025 633.749H98.1154L98.0905 633.658C97.5841 632.271 96.4967 631.466 94.9362 631.466C92.6451 631.466 91.2589 633.135 91.2589 635.94V635.949C91.2589 638.812 92.6866 640.556 94.9694 640.556C96.9117 640.556 98.2565 639.327 98.2814 637.509V637.31H95.1852V635.791H100.116V637.02C100.116 640.265 98.1984 642.199 94.9528 642.199ZM105.97 642.174C103.463 642.174 101.828 640.439 101.828 637.634V637.617C101.828 634.828 103.48 633.102 105.962 633.102C108.452 633.102 110.112 634.82 110.112 637.617V637.634C110.112 640.448 108.468 642.174 105.97 642.174ZM105.978 640.672C107.381 640.672 108.277 639.56 108.277 637.634V637.617C108.277 635.708 107.364 634.604 105.962 634.604C104.584 634.604 103.662 635.708 103.662 637.617V637.634C103.662 639.568 104.575 640.672 105.978 640.672ZM112.065 642V630.022H113.858V642H112.065ZM119.463 642.174C117.238 642.174 115.81 640.415 115.81 637.634V637.625C115.81 634.845 117.255 633.102 119.446 633.102C120.683 633.102 121.679 633.724 122.202 634.753H122.235V630.022H124.036V642H122.235V640.522H122.202C121.679 641.543 120.716 642.174 119.463 642.174ZM119.936 640.63C121.289 640.63 122.243 639.452 122.243 637.634V637.625C122.243 635.816 121.28 634.637 119.936 634.637C118.525 634.637 117.645 635.783 117.645 637.625V637.634C117.645 639.493 118.516 640.63 119.936 640.63Z" fill="black"/>
<path d="M89.3024 664L92.6656 659.044V659.017L89.3434 654.136H90.8268L93.4655 658.107H93.5065L96.1725 654.136H97.5739L94.1627 659.078V659.105L97.4987 664H96.0221L93.3971 660.062H93.3561L90.6969 664H89.3024ZM98.6676 664L102.304 654.136H103.521L107.158 664H105.866L104.875 661.177H100.951L99.9596 664H98.6676ZM102.858 655.729L101.313 660.131H104.512L102.967 655.729H102.858ZM112.592 664.232C110.145 664.232 108.669 662.756 108.669 660.609V654.136H109.899V660.527C109.899 662.045 110.883 663.098 112.592 663.098C114.301 663.098 115.272 662.045 115.272 660.527V654.136H116.503V660.609C116.503 662.756 115.04 664.232 112.592 664.232Z" fill="#737A86"/>
<path d="M305.392 651.199C302.594 651.199 300.976 648.792 300.976 645.007C300.976 641.255 302.611 638.823 305.392 638.823C308.172 638.823 309.791 641.238 309.791 644.999C309.791 648.784 308.181 651.199 305.392 651.199ZM305.392 649.896C307.259 649.896 308.289 647.995 308.289 645.007C308.289 642.06 307.243 640.134 305.392 640.134C303.541 640.134 302.478 642.077 302.478 644.999C302.478 647.987 303.516 649.896 305.392 649.896ZM312.614 651.083C312.083 651.083 311.668 650.668 311.668 650.137C311.668 649.605 312.083 649.19 312.614 649.19C313.146 649.19 313.561 649.605 313.561 650.137C313.561 650.668 313.146 651.083 312.614 651.083ZM320.186 651.199C317.388 651.199 315.77 648.792 315.77 645.007C315.77 641.255 317.405 638.823 320.186 638.823C322.966 638.823 324.585 641.238 324.585 644.999C324.585 648.784 322.975 651.199 320.186 651.199ZM320.186 649.896C322.053 649.896 323.083 647.995 323.083 645.007C323.083 642.06 322.037 640.134 320.186 640.134C318.334 640.134 317.272 642.077 317.272 644.999C317.272 647.987 318.31 649.896 320.186 649.896ZM330.886 651.208C329.093 651.208 327.666 650.236 326.927 648.51C326.528 647.588 326.337 646.509 326.337 645.214C326.337 641.18 328.056 638.814 330.986 638.814C333.02 638.814 334.58 640.035 334.962 641.919H333.443C333.119 640.832 332.156 640.134 330.969 640.134C328.969 640.134 327.832 641.911 327.782 645.098H327.807C328.346 643.928 329.666 643.156 331.152 643.156C333.435 643.156 335.128 644.841 335.128 647.115C335.128 649.481 333.343 651.208 330.886 651.208ZM330.87 649.879C332.397 649.879 333.609 648.676 333.609 647.165C333.609 645.596 332.48 644.467 330.895 644.467C329.309 644.467 328.139 645.596 328.139 647.124C328.139 648.659 329.334 649.879 330.87 649.879ZM336.905 642.475C336.905 640.383 338.599 638.823 340.856 638.823C342.998 638.823 344.683 640.275 344.683 642.11C344.683 643.446 344.077 644.442 342.077 646.509L339.047 649.639V649.672H344.882V651H336.98V649.971L341.197 645.53C342.807 643.836 343.189 643.197 343.189 642.201C343.189 641.047 342.135 640.126 340.815 640.126C339.412 640.126 338.35 641.139 338.35 642.475V642.483H336.905V642.475ZM350.976 651.199C348.444 651.199 346.635 649.763 346.635 647.763C346.635 646.269 347.664 645.04 349.208 644.683V644.65C347.913 644.251 347.108 643.23 347.108 641.969C347.108 640.159 348.751 638.823 350.976 638.823C353.217 638.823 354.836 640.151 354.836 641.977C354.836 643.222 354.047 644.235 352.744 644.65V644.683C354.296 645.048 355.326 646.277 355.326 647.763C355.326 649.771 353.516 651.199 350.976 651.199ZM350.976 649.896C352.628 649.896 353.798 648.958 353.798 647.655C353.798 646.335 352.628 645.405 350.976 645.405C349.333 645.405 348.154 646.343 348.154 647.655C348.154 648.958 349.333 649.896 350.976 649.896ZM350.976 644.094C352.371 644.094 353.358 643.272 353.358 642.11C353.358 640.931 352.379 640.109 350.976 640.109C349.573 640.109 348.594 640.939 348.594 642.11C348.594 643.272 349.573 644.094 350.976 644.094Z" fill="#191B1E"/>
<rect x="300.229" y="656" width="56" height="1" fill="#E0E3E7"/>
</g>
<defs>
<linearGradient id="paint0_linear_1273_27274" x1="3241.09" y1="303" x2="3241.09" y2="4905.04" gradientUnits="userSpaceOnUse">
<stop stop-color="white"/>
<stop offset="1" stop-color="#F0F0F0"/>
</linearGradient>
<linearGradient id="paint1_linear_1273_27274" x1="3241.09" y1="303" x2="3241.09" y2="4905.04" gradientUnits="userSpaceOnUse">
<stop stop-color="#0A17A7"/>
<stop offset="1" stop-color="#030E88"/>
</linearGradient>
<linearGradient id="paint2_linear_1273_27274" x1="3872.93" y1="298.59" x2="3872.93" y2="5782.59" gradientUnits="userSpaceOnUse">
<stop stop-color="white"/>
<stop offset="1" stop-color="#F0F0F0"/>
</linearGradient>
<linearGradient id="paint3_linear_1273_27274" x1="3241.09" y1="303" x2="3241.09" y2="4905.04" gradientUnits="userSpaceOnUse">
<stop stop-color="#E6273E"/>
<stop offset="1" stop-color="#CF152B"/>
</linearGradient>
<linearGradient id="paint4_linear_1273_27274" x1="2930.48" y1="387.145" x2="2930.48" y2="4540.14" gradientUnits="userSpaceOnUse">
<stop stop-color="white"/>
<stop offset="1" stop-color="#F0F0F0"/>
</linearGradient>
<linearGradient id="paint5_linear_1273_27274" x1="2930.51" y1="382.43" x2="2930.51" y2="5568.12" gradientUnits="userSpaceOnUse">
<stop stop-color="#043CAE"/>
<stop offset="1" stop-color="#00339A"/>
</linearGradient>
<linearGradient id="paint6_linear_1273_27274" x1="1598.86" y1="390.461" x2="1598.86" y2="3515.93" gradientUnits="userSpaceOnUse">
<stop stop-color="#FFD429"/>
<stop offset="1" stop-color="#FFCC00"/>
</linearGradient>
<linearGradient id="paint7_linear_1273_27274" x1="3218.08" y1="462.43" x2="3218.08" y2="5019.55" gradientUnits="userSpaceOnUse">
<stop stop-color="white"/>
<stop offset="1" stop-color="#F0F0F0"/>
</linearGradient>
<linearGradient id="paint8_linear_1273_27274" x1="3218.08" y1="462.43" x2="3218.08" y2="5019.55" gradientUnits="userSpaceOnUse">
<stop stop-color="#D02F44"/>
<stop offset="1" stop-color="#B12537"/>
</linearGradient>
<linearGradient id="paint9_linear_1273_27274" x1="1395.23" y1="462.43" x2="1395.23" y2="2589.09" gradientUnits="userSpaceOnUse">
<stop stop-color="#46467F"/>
<stop offset="1" stop-color="#3C3C6D"/>
</linearGradient>
<linearGradient id="paint10_linear_1273_27274" x1="1094.46" y1="465.469" x2="1094.46" y2="1984.51" gradientUnits="userSpaceOnUse">
<stop stop-color="white"/>
<stop offset="1" stop-color="#F0F0F0"/>
</linearGradient>
<radialGradient id="paint11_radial_1273_27274" cx="0" cy="0" r="1" gradientUnits="userSpaceOnUse" gradientTransform="translate(59.6638 637.5) rotate(133.315) scale(24.052)">
<stop stop-color="#DFC39B"/>
<stop offset="0.0659791" stop-color="#DEC29A"/>
<stop offset="0.478976" stop-color="#DBBF97"/>
<stop offset="1" stop-color="#A79375"/>
</radialGradient>
<linearGradient id="paint12_linear_1273_27274" x1="61.1638" y1="636" x2="61.1638" y2="656" gradientUnits="userSpaceOnUse">
<stop stop-color="#FEE3B4"/>
<stop offset="1" stop-opacity="0"/>
</linearGradient>
<linearGradient id="paint13_linear_1273_27274" x1="60.6638" y1="634.5" x2="50.1638" y2="644" gradientUnits="userSpaceOnUse">
<stop stop-color="#A59A8B"/>
<stop offset="1" stop-color="#85796D"/>
</linearGradient>
<clipPath id="clip0_1273_27274">
<rect width="390" height="844" fill="white"/>
</clipPath>
<clipPath id="clip1_1273_27274">
<rect x="29.6638" y="304" width="44" height="44" rx="22" fill="white"/>
</clipPath>
<clipPath id="clip2_1273_27274">
<rect width="64.4286" height="46.0204" fill="white" transform="translate(19.6638 303)"/>
</clipPath>
<clipPath id="clip3_1273_27274">
<rect x="29.6638" y="384" width="43.9998" height="43.9998" rx="21.9999" fill="white"/>
</clipPath>
<clipPath id="clip4_1273_27274">
<rect width="63.7997" height="45.5712" fill="white" transform="translate(18.9797 384)"/>
</clipPath>
<clipPath id="clip5_1273_27274">
<rect x="29.6638" y="464" width="43.9998" height="43.9998" rx="21.9999" fill="white"/>
</clipPath>
<clipPath id="clip6_1273_27274">
<rect width="63.7997" height="45.5712" fill="white" transform="translate(28.092 462.43)"/>
</clipPath>
</defs>
</svg>
