<svg width="390" height="844" viewBox="0 0 390 844" fill="none" xmlns="http://www.w3.org/2000/svg">
<g clip-path="url(#clip0_1273_27342)">
<rect width="390" height="844" fill="#0156FE"/>
<path d="M38.3945 100.439C30.9766 100.439 26.3184 95.4824 26.3184 87.3086V87.291C26.3184 79.1172 30.9941 74.1953 38.3945 74.1953C44.5469 74.1953 48.959 78.0801 49.4512 83.459L49.4688 83.6172H44.3008L44.2305 83.3184C43.6328 80.5234 41.5586 78.6953 38.3945 78.6953C34.334 78.6953 31.7324 81.9648 31.7324 87.2734V87.291C31.7324 92.6348 34.334 95.9395 38.3945 95.9395C41.4531 95.9395 43.5977 94.1816 44.2832 91.1758L44.3184 91H49.4863L49.4688 91.1934C48.9766 96.5898 44.5293 100.439 38.3945 100.439ZM52.834 100V81.1562H57.9668V84.4434H58.0723C58.6348 82.123 60.1641 80.7695 62.3613 80.7695C62.9238 80.7695 63.4512 80.8574 63.8379 80.9629V85.4805C63.416 85.3047 62.7129 85.1992 61.9746 85.1992C59.4434 85.1992 57.9668 86.7109 57.9668 89.4531V100H52.834ZM74.4629 100.387C68.7324 100.387 65.1289 96.7129 65.1289 90.5781V90.543C65.1289 84.4785 68.8203 80.7695 74.4453 80.7695C80.0879 80.7695 83.7969 84.4434 83.7969 90.543V90.5781C83.7969 96.7305 80.1582 100.387 74.4629 100.387ZM74.4805 96.3613C76.9766 96.3613 78.5762 94.252 78.5762 90.5781V90.543C78.5762 86.9043 76.9414 84.7949 74.4453 84.7949C71.9668 84.7949 70.3496 86.9043 70.3496 90.543V90.5781C70.3496 94.2695 71.9492 96.3613 74.4805 96.3613ZM94.7031 100.387C89.4824 100.387 86.582 97.9785 86.1777 94.4102L86.1602 94.252H91.1699L91.2051 94.4102C91.5391 95.8867 92.6465 96.748 94.7031 96.748C96.6367 96.748 97.8145 95.9922 97.8145 94.7793V94.7617C97.8145 93.7598 97.1816 93.1797 95.3359 92.7754L92.1367 92.1074C88.4805 91.334 86.6348 89.5059 86.6348 86.6934V86.6758C86.6348 83.0898 89.7285 80.7695 94.5273 80.7695C99.5371 80.7695 102.332 83.4238 102.455 86.7285V86.9043H97.7266L97.709 86.7637C97.5332 85.4102 96.4258 84.3906 94.5273 84.3906C92.752 84.3906 91.6445 85.1816 91.6445 86.3945V86.4121C91.6445 87.3789 92.2949 88.0117 94.1934 88.416L97.3926 89.1016C101.33 89.9277 102.947 91.4746 102.947 94.252V94.2695C102.947 97.9609 99.5547 100.387 94.7031 100.387ZM113.73 100.387C108.51 100.387 105.609 97.9785 105.205 94.4102L105.188 94.252H110.197L110.232 94.4102C110.566 95.8867 111.674 96.748 113.73 96.748C115.664 96.748 116.842 95.9922 116.842 94.7793V94.7617C116.842 93.7598 116.209 93.1797 114.363 92.7754L111.164 92.1074C107.508 91.334 105.662 89.5059 105.662 86.6934V86.6758C105.662 83.0898 108.756 80.7695 113.555 80.7695C118.564 80.7695 121.359 83.4238 121.482 86.7285V86.9043H116.754L116.736 86.7637C116.561 85.4102 115.453 84.3906 113.555 84.3906C111.779 84.3906 110.672 85.1816 110.672 86.3945V86.4121C110.672 87.3789 111.322 88.0117 113.221 88.416L116.42 89.1016C120.357 89.9277 121.975 91.4746 121.975 94.252V94.2695C121.975 97.9609 118.582 100.387 113.73 100.387ZM141.291 100.387C135.561 100.387 131.957 96.7129 131.957 90.5781V90.543C131.957 84.4785 135.648 80.7695 141.273 80.7695C146.916 80.7695 150.625 84.4434 150.625 90.543V90.5781C150.625 96.7305 146.986 100.387 141.291 100.387ZM141.309 96.3613C143.805 96.3613 145.404 94.252 145.404 90.5781V90.543C145.404 86.9043 143.77 84.7949 141.273 84.7949C138.795 84.7949 137.178 86.9043 137.178 90.543V90.5781C137.178 94.2695 138.777 96.3613 141.309 96.3613ZM158.086 100L151.564 81.1562H157.049L160.986 95.4648H161.092L164.977 81.1562H170.338L163.869 100H158.086ZM180.541 100.387C174.775 100.387 171.277 96.6426 171.277 90.6133V90.5957C171.277 84.6016 174.811 80.7695 180.33 80.7695C185.85 80.7695 189.312 84.5137 189.312 90.209V91.791H176.34C176.393 94.7969 178.027 96.5547 180.646 96.5547C182.756 96.5547 184.039 95.3945 184.408 94.3398L184.443 94.2344H189.154L189.102 94.4277C188.521 97.2051 185.92 100.387 180.541 100.387ZM180.418 84.6016C178.309 84.6016 176.727 86.0078 176.393 88.5566H184.391C184.074 85.9551 182.545 84.6016 180.418 84.6016ZM192.467 100V81.1562H197.6V84.4434H197.705C198.268 82.123 199.797 80.7695 201.994 80.7695C202.557 80.7695 203.084 80.8574 203.471 80.9629V85.4805C203.049 85.3047 202.346 85.1992 201.607 85.1992C199.076 85.1992 197.6 86.7109 197.6 89.4531V100H192.467ZM213.717 100V81.1562H218.85V84.4434H218.955C219.518 82.123 221.047 80.7695 223.244 80.7695C223.807 80.7695 224.334 80.8574 224.721 80.9629V85.4805C224.299 85.3047 223.596 85.1992 222.857 85.1992C220.326 85.1992 218.85 86.7109 218.85 89.4531V100H213.717ZM232.48 100.299C228.701 100.299 226.152 97.9258 226.152 94.6035V94.5684C226.152 91.1406 228.807 89.1367 233.482 88.8379L238.141 88.5566V87.3965C238.141 85.7266 237.051 84.6895 235.047 84.6895C233.131 84.6895 231.971 85.5859 231.725 86.7988L231.689 86.957H226.996L227.014 86.7461C227.295 83.2656 230.283 80.7695 235.258 80.7695C240.127 80.7695 243.273 83.2832 243.273 87.0801V100H238.141V97.1875H238.035C236.963 99.1211 234.959 100.299 232.48 100.299ZM231.232 94.3398C231.232 95.7285 232.375 96.5547 234.15 96.5547C236.453 96.5547 238.141 95.0781 238.141 93.1094V91.7559L234.256 92.002C232.27 92.125 231.232 92.9688 231.232 94.3047V94.3398ZM254.584 100.387C250.4 100.387 248.432 98.7695 248.432 94.7266V85.0234H245.812V81.1562H248.432V76.5508H253.617V81.1562H257.062V85.0234H253.617V94.1641C253.617 95.9219 254.408 96.5195 255.955 96.5195C256.412 96.5195 256.746 96.4668 257.062 96.4316V100.193C256.482 100.281 255.656 100.387 254.584 100.387ZM268.689 100.387C262.924 100.387 259.426 96.6426 259.426 90.6133V90.5957C259.426 84.6016 262.959 80.7695 268.479 80.7695C273.998 80.7695 277.461 84.5137 277.461 90.209V91.791H264.488C264.541 94.7969 266.176 96.5547 268.795 96.5547C270.904 96.5547 272.188 95.3945 272.557 94.3398L272.592 94.2344H277.303L277.25 94.4277C276.67 97.2051 274.068 100.387 268.689 100.387ZM268.566 84.6016C266.457 84.6016 264.875 86.0078 264.541 88.5566H272.539C272.223 85.9551 270.693 84.6016 268.566 84.6016ZM288.367 100.387C283.146 100.387 280.246 97.9785 279.842 94.4102L279.824 94.252H284.834L284.869 94.4102C285.203 95.8867 286.311 96.748 288.367 96.748C290.301 96.748 291.479 95.9922 291.479 94.7793V94.7617C291.479 93.7598 290.846 93.1797 289 92.7754L285.801 92.1074C282.145 91.334 280.299 89.5059 280.299 86.6934V86.6758C280.299 83.0898 283.393 80.7695 288.191 80.7695C293.201 80.7695 295.996 83.4238 296.119 86.7285V86.9043H291.391L291.373 86.7637C291.197 85.4102 290.09 84.3906 288.191 84.3906C286.416 84.3906 285.309 85.1816 285.309 86.3945V86.4121C285.309 87.3789 285.959 88.0117 287.857 88.416L291.057 89.1016C294.994 89.9277 296.611 91.4746 296.611 94.252V94.2695C296.611 97.9609 293.219 100.387 288.367 100.387ZM37.832 143.387C35.125 143.387 33.0508 142.016 32.0312 139.783H31.9258V143H26.793V117.635H31.9258V127.426H32.0312C33.0684 125.141 35.1602 123.77 37.8496 123.77C42.5781 123.77 45.5137 127.426 45.5137 133.561V133.578C45.5137 139.695 42.5781 143.387 37.832 143.387ZM36.127 139.133C38.6758 139.133 40.293 137.006 40.293 133.578V133.561C40.293 130.115 38.6758 128.023 36.127 128.023C33.6484 128.023 31.9258 130.168 31.9258 133.561V133.578C31.9258 136.988 33.6309 139.133 36.127 139.133ZM57.2285 143.387C51.4629 143.387 47.9648 139.643 47.9648 133.613V133.596C47.9648 127.602 51.498 123.77 57.0176 123.77C62.5371 123.77 66 127.514 66 133.209V134.791H53.0273C53.0801 137.797 54.7148 139.555 57.334 139.555C59.4434 139.555 60.7266 138.395 61.0957 137.34L61.1309 137.234H65.8418L65.7891 137.428C65.209 140.205 62.6074 143.387 57.2285 143.387ZM57.1055 127.602C54.9961 127.602 53.4141 129.008 53.0801 131.557H61.0781C60.7617 128.955 59.2324 127.602 57.1055 127.602ZM76.6426 143.387C72.459 143.387 70.4902 141.77 70.4902 137.727V128.023H67.8711V124.156H70.4902V119.551H75.6758V124.156H79.1211V128.023H75.6758V137.164C75.6758 138.922 76.4668 139.52 78.0137 139.52C78.4707 139.52 78.8047 139.467 79.1211 139.432V143.193C78.541 143.281 77.7148 143.387 76.6426 143.387ZM86.125 143L81.1152 124.156H86.2832L89.1309 138.131H89.2363L92.5762 124.156H97.498L100.855 138.131H100.961L103.826 124.156H108.889L103.896 143H98.4297L95.0195 129.676H94.9141L91.5215 143H86.125ZM119.689 143.387C113.924 143.387 110.426 139.643 110.426 133.613V133.596C110.426 127.602 113.959 123.77 119.479 123.77C124.998 123.77 128.461 127.514 128.461 133.209V134.791H115.488C115.541 137.797 117.176 139.555 119.795 139.555C121.904 139.555 123.188 138.395 123.557 137.34L123.592 137.234H128.303L128.25 137.428C127.67 140.205 125.068 143.387 119.689 143.387ZM119.566 127.602C117.457 127.602 115.875 129.008 115.541 131.557H123.539C123.223 128.955 121.693 127.602 119.566 127.602ZM140.193 143.387C134.428 143.387 130.93 139.643 130.93 133.613V133.596C130.93 127.602 134.463 123.77 139.982 123.77C145.502 123.77 148.965 127.514 148.965 133.209V134.791H135.992C136.045 137.797 137.68 139.555 140.299 139.555C142.408 139.555 143.691 138.395 144.061 137.34L144.096 137.234H148.807L148.754 137.428C148.174 140.205 145.572 143.387 140.193 143.387ZM140.07 127.602C137.961 127.602 136.379 129.008 136.045 131.557H144.043C143.727 128.955 142.197 127.602 140.07 127.602ZM152.119 143V124.156H157.252V127.25H157.357C158.324 125.088 160.258 123.77 163.105 123.77C167.254 123.77 169.609 126.424 169.609 130.836V143H164.477V131.891C164.477 129.43 163.316 128.023 161.014 128.023C158.711 128.023 157.252 129.711 157.252 132.172V143H152.119ZM182.369 143V128.023H179.803V124.156H182.369V122.645C182.369 118.953 184.127 117.248 188.574 117.248C189.523 117.248 190.561 117.336 191.158 117.459V120.852C190.807 120.781 190.314 120.764 189.84 120.764C188.135 120.764 187.379 121.484 187.379 122.838V124.156H191.123V128.023H187.502V143H182.369ZM197.002 121.73C195.455 121.73 194.26 120.518 194.26 119.059C194.26 117.6 195.455 116.387 197.002 116.387C198.549 116.387 199.744 117.6 199.744 119.059C199.744 120.518 198.549 121.73 197.002 121.73ZM194.436 143V124.156H199.568V143H194.436ZM209.121 143.299C205.342 143.299 202.793 140.926 202.793 137.604V137.568C202.793 134.141 205.447 132.137 210.123 131.838L214.781 131.557V130.396C214.781 128.727 213.691 127.689 211.688 127.689C209.771 127.689 208.611 128.586 208.365 129.799L208.33 129.957H203.637L203.654 129.746C203.936 126.266 206.924 123.77 211.898 123.77C216.768 123.77 219.914 126.283 219.914 130.08V143H214.781V140.188H214.676C213.604 142.121 211.6 143.299 209.121 143.299ZM207.873 137.34C207.873 138.729 209.016 139.555 210.791 139.555C213.094 139.555 214.781 138.078 214.781 136.109V134.756L210.896 135.002C208.91 135.125 207.873 135.969 207.873 137.305V137.34ZM231.225 143.387C227.041 143.387 225.072 141.77 225.072 137.727V128.023H222.453V124.156H225.072V119.551H230.258V124.156H233.703V128.023H230.258V137.164C230.258 138.922 231.049 139.52 232.596 139.52C233.053 139.52 233.387 139.467 233.703 139.432V143.193C233.123 143.281 232.297 143.387 231.225 143.387ZM250.277 143.299C246.498 143.299 243.949 140.926 243.949 137.604V137.568C243.949 134.141 246.604 132.137 251.279 131.838L255.938 131.557V130.396C255.938 128.727 254.848 127.689 252.844 127.689C250.928 127.689 249.768 128.586 249.521 129.799L249.486 129.957H244.793L244.811 129.746C245.092 126.266 248.08 123.77 253.055 123.77C257.924 123.77 261.07 126.283 261.07 130.08V143H255.938V140.188H255.832C254.76 142.121 252.756 143.299 250.277 143.299ZM249.029 137.34C249.029 138.729 250.172 139.555 251.947 139.555C254.25 139.555 255.938 138.078 255.938 136.109V134.756L252.053 135.002C250.066 135.125 249.029 135.969 249.029 137.305V137.34ZM264.893 143V124.156H270.025V127.25H270.131C271.098 125.088 273.031 123.77 275.879 123.77C280.027 123.77 282.383 126.424 282.383 130.836V143H277.25V131.891C277.25 129.43 276.09 128.023 273.787 128.023C271.484 128.023 270.025 129.711 270.025 132.172V143H264.893ZM293.113 143.387C288.367 143.387 285.449 139.695 285.449 133.578V133.561C285.449 127.426 288.367 123.77 293.113 123.77C295.785 123.77 297.895 125.141 298.914 127.426H299.02V117.635H304.152V143H299.02V139.783H298.914C297.912 142.016 295.838 143.387 293.113 143.387ZM294.836 139.133C297.332 139.133 299.037 136.988 299.037 133.578V133.561C299.037 130.168 297.314 128.023 294.836 128.023C292.287 128.023 290.67 130.115 290.67 133.561V133.578C290.67 137.006 292.27 139.133 294.836 139.133ZM35.2832 186.387C29.5352 186.387 25.9844 182.643 25.9844 176.561V176.543C25.9844 170.514 29.5879 166.77 35.2305 166.77C40.3457 166.77 43.5977 169.916 43.791 173.994V174.117H39.0273L38.9922 173.959C38.6758 172.166 37.4277 170.795 35.3008 170.795C32.7871 170.795 31.2051 172.957 31.2051 176.561V176.578C31.2051 180.27 32.7871 182.361 35.3184 182.361C37.375 182.361 38.6582 181.096 39.0098 179.197L39.0273 179.039H43.8086V179.145C43.5625 183.258 40.3105 186.387 35.2832 186.387ZM46.7871 186V167.156H51.9199V170.443H52.0254C52.5879 168.123 54.1172 166.77 56.3145 166.77C56.877 166.77 57.4043 166.857 57.791 166.963V171.48C57.3691 171.305 56.666 171.199 55.9277 171.199C53.3965 171.199 51.9199 172.711 51.9199 175.453V186H46.7871ZM63.9863 192.205C62.9844 192.205 61.9648 192.082 61.3672 191.977V188.162C61.7363 188.232 62.334 188.338 63.0898 188.338C64.6191 188.338 65.4629 187.898 65.9199 186.615L66.1484 186L59.4863 167.156H65.1289L69.1016 181.887H69.2422L73.2324 167.156H78.6465L72.1777 186.334C70.7012 190.781 68.1699 192.205 63.9863 192.205ZM80.9395 192.152V167.156H86.0723V170.443H86.1953C87.2148 168.158 89.2715 166.77 91.9434 166.77C96.7246 166.77 99.6426 170.426 99.6426 176.561V176.578C99.6426 182.695 96.7246 186.387 92.0137 186.387C89.3242 186.387 87.1973 185.016 86.1777 182.783H86.0723V192.152H80.9395ZM90.2559 182.133C92.8047 182.133 94.4219 180.006 94.4219 176.578V176.561C94.4219 173.115 92.8047 171.023 90.2559 171.023C87.7598 171.023 86.0547 173.168 86.0547 176.578V176.596C86.0547 179.988 87.7598 182.133 90.2559 182.133ZM110.303 186.387C106.119 186.387 104.15 184.77 104.15 180.727V171.023H101.531V167.156H104.15V162.551H109.336V167.156H112.781V171.023H109.336V180.164C109.336 181.922 110.127 182.52 111.674 182.52C112.131 182.52 112.465 182.467 112.781 182.432V186.193C112.201 186.281 111.375 186.387 110.303 186.387ZM124.479 186.387C118.748 186.387 115.145 182.713 115.145 176.578V176.543C115.145 170.479 118.836 166.77 124.461 166.77C130.104 166.77 133.812 170.443 133.812 176.543V176.578C133.812 182.73 130.174 186.387 124.479 186.387ZM124.496 182.361C126.992 182.361 128.592 180.252 128.592 176.578V176.543C128.592 172.904 126.957 170.795 124.461 170.795C121.982 170.795 120.365 172.904 120.365 176.543V176.578C120.365 180.27 121.965 182.361 124.496 182.361ZM153.217 186.387C147.469 186.387 143.918 182.643 143.918 176.561V176.543C143.918 170.514 147.521 166.77 153.164 166.77C158.279 166.77 161.531 169.916 161.725 173.994V174.117H156.961L156.926 173.959C156.609 172.166 155.361 170.795 153.234 170.795C150.721 170.795 149.139 172.957 149.139 176.561V176.578C149.139 180.27 150.721 182.361 153.252 182.361C155.309 182.361 156.592 181.096 156.943 179.197L156.961 179.039H161.742V179.145C161.496 183.258 158.244 186.387 153.217 186.387ZM171.137 186.387C166.988 186.387 164.633 183.732 164.633 179.32V167.156H169.766V178.248C169.766 180.709 170.926 182.133 173.229 182.133C175.531 182.133 176.99 180.445 176.99 177.984V167.156H182.123V186H176.99V182.889H176.885C175.918 185.051 173.984 186.387 171.137 186.387ZM185.963 186V167.156H191.096V170.443H191.201C191.764 168.123 193.293 166.77 195.49 166.77C196.053 166.77 196.58 166.857 196.967 166.963V171.48C196.545 171.305 195.842 171.199 195.104 171.199C192.572 171.199 191.096 172.711 191.096 175.453V186H185.963ZM199.576 186V167.156H204.709V170.443H204.814C205.377 168.123 206.906 166.77 209.104 166.77C209.666 166.77 210.193 166.857 210.58 166.963V171.48C210.158 171.305 209.455 171.199 208.717 171.199C206.186 171.199 204.709 172.711 204.709 175.453V186H199.576ZM221.135 186.387C215.369 186.387 211.871 182.643 211.871 176.613V176.596C211.871 170.602 215.404 166.77 220.924 166.77C226.443 166.77 229.906 170.514 229.906 176.209V177.791H216.934C216.986 180.797 218.621 182.555 221.24 182.555C223.35 182.555 224.633 181.395 225.002 180.34L225.037 180.234H229.748L229.695 180.428C229.115 183.205 226.514 186.387 221.135 186.387ZM221.012 170.602C218.902 170.602 217.32 172.008 216.986 174.557H224.984C224.668 171.955 223.139 170.602 221.012 170.602ZM233.061 186V167.156H238.193V170.25H238.299C239.266 168.088 241.199 166.77 244.047 166.77C248.195 166.77 250.551 169.424 250.551 173.836V186H245.418V174.891C245.418 172.43 244.258 171.023 241.955 171.023C239.652 171.023 238.193 172.711 238.193 175.172V186H233.061ZM262.916 186.387C257.168 186.387 253.617 182.643 253.617 176.561V176.543C253.617 170.514 257.221 166.77 262.863 166.77C267.979 166.77 271.23 169.916 271.424 173.994V174.117H266.66L266.625 173.959C266.309 172.166 265.061 170.795 262.934 170.795C260.42 170.795 258.838 172.957 258.838 176.561V176.578C258.838 180.27 260.42 182.361 262.951 182.361C265.008 182.361 266.291 181.096 266.643 179.197L266.66 179.039H271.441V179.145C271.195 183.258 267.943 186.387 262.916 186.387ZM277.092 164.73C275.545 164.73 274.35 163.518 274.35 162.059C274.35 160.6 275.545 159.387 277.092 159.387C278.639 159.387 279.834 160.6 279.834 162.059C279.834 163.518 278.639 164.73 277.092 164.73ZM274.525 186V167.156H279.658V186H274.525ZM292.182 186.387C286.416 186.387 282.918 182.643 282.918 176.613V176.596C282.918 170.602 286.451 166.77 291.971 166.77C297.49 166.77 300.953 170.514 300.953 176.209V177.791H287.98C288.033 180.797 289.668 182.555 292.287 182.555C294.396 182.555 295.68 181.395 296.049 180.34L296.084 180.234H300.795L300.742 180.428C300.162 183.205 297.561 186.387 292.182 186.387ZM292.059 170.602C289.949 170.602 288.367 172.008 288.033 174.557H296.031C295.715 171.955 294.186 170.602 292.059 170.602ZM311.859 186.387C306.639 186.387 303.738 183.979 303.334 180.41L303.316 180.252H308.326L308.361 180.41C308.695 181.887 309.803 182.748 311.859 182.748C313.793 182.748 314.971 181.992 314.971 180.779V180.762C314.971 179.76 314.338 179.18 312.492 178.775L309.293 178.107C305.637 177.334 303.791 175.506 303.791 172.693V172.676C303.791 169.09 306.885 166.77 311.684 166.77C316.693 166.77 319.488 169.424 319.611 172.729V172.904H314.883L314.865 172.764C314.689 171.41 313.582 170.391 311.684 170.391C309.908 170.391 308.801 171.182 308.801 172.395V172.412C308.801 173.379 309.451 174.012 311.35 174.416L314.549 175.102C318.486 175.928 320.104 177.475 320.104 180.252V180.27C320.104 183.961 316.711 186.387 311.859 186.387ZM29.3418 207.73C27.7949 207.73 26.5996 206.518 26.5996 205.059C26.5996 203.6 27.7949 202.387 29.3418 202.387C30.8887 202.387 32.084 203.6 32.084 205.059C32.084 206.518 30.8887 207.73 29.3418 207.73ZM26.7754 229V210.156H31.9082V229H26.7754ZM35.8535 229V210.156H40.9863V213.25H41.0918C42.0586 211.088 43.9922 209.77 46.8398 209.77C50.9883 209.77 53.3438 212.424 53.3438 216.836V229H48.2109V217.891C48.2109 215.43 47.0508 214.023 44.748 214.023C42.4453 214.023 40.9863 215.711 40.9863 218.172V229H35.8535ZM64.8477 229.387C59.627 229.387 56.7266 226.979 56.3223 223.41L56.3047 223.252H61.3145L61.3496 223.41C61.6836 224.887 62.791 225.748 64.8477 225.748C66.7812 225.748 67.959 224.992 67.959 223.779V223.762C67.959 222.76 67.3262 222.18 65.4805 221.775L62.2812 221.107C58.625 220.334 56.7793 218.506 56.7793 215.693V215.676C56.7793 212.09 59.873 209.77 64.6719 209.77C69.6816 209.77 72.4766 212.424 72.5996 215.729V215.904H67.8711L67.8535 215.764C67.6777 214.41 66.5703 213.391 64.6719 213.391C62.8965 213.391 61.7891 214.182 61.7891 215.395V215.412C61.7891 216.379 62.4395 217.012 64.3379 217.416L67.5371 218.102C71.4746 218.928 73.0918 220.475 73.0918 223.252V223.27C73.0918 226.961 69.6992 229.387 64.8477 229.387ZM83.6113 229.387C79.4277 229.387 77.459 227.77 77.459 223.727V214.023H74.8398V210.156H77.459V205.551H82.6445V210.156H86.0898V214.023H82.6445V223.164C82.6445 224.922 83.4355 225.52 84.9824 225.52C85.4395 225.52 85.7734 225.467 86.0898 225.432V229.193C85.5098 229.281 84.6836 229.387 83.6113 229.387ZM94.8516 229.299C91.0723 229.299 88.5234 226.926 88.5234 223.604V223.568C88.5234 220.141 91.1777 218.137 95.8535 217.838L100.512 217.557V216.396C100.512 214.727 99.4219 213.689 97.418 213.689C95.502 213.689 94.3418 214.586 94.0957 215.799L94.0605 215.957H89.3672L89.3848 215.746C89.666 212.266 92.6543 209.77 97.6289 209.77C102.498 209.77 105.645 212.283 105.645 216.08V229H100.512V226.188H100.406C99.334 228.121 97.3301 229.299 94.8516 229.299ZM93.6035 223.34C93.6035 224.729 94.7461 225.555 96.5215 225.555C98.8242 225.555 100.512 224.078 100.512 222.109V220.756L96.627 221.002C94.6406 221.125 93.6035 221.969 93.6035 223.305V223.34ZM109.467 229V210.156H114.6V213.25H114.705C115.672 211.088 117.605 209.77 120.453 209.77C124.602 209.77 126.957 212.424 126.957 216.836V229H121.824V217.891C121.824 215.43 120.664 214.023 118.361 214.023C116.059 214.023 114.6 215.711 114.6 218.172V229H109.467ZM138.197 229.387C134.014 229.387 132.045 227.77 132.045 223.727V214.023H129.426V210.156H132.045V205.551H137.23V210.156H140.676V214.023H137.23V223.164C137.23 224.922 138.021 225.52 139.568 225.52C140.025 225.52 140.359 225.467 140.676 225.432V229.193C140.096 229.281 139.27 229.387 138.197 229.387ZM144.129 229V203.635H149.262V229H144.129ZM156.178 235.205C155.176 235.205 154.156 235.082 153.559 234.977V231.162C153.928 231.232 154.525 231.338 155.281 231.338C156.811 231.338 157.654 230.898 158.111 229.615L158.34 229L151.678 210.156H157.32L161.293 224.887H161.434L165.424 210.156H170.838L164.369 229.334C162.893 233.781 160.361 235.205 156.178 235.205Z" fill="white"/>
<rect x="17" y="292" width="359" height="299" rx="17" fill="white"/>
<g clip-path="url(#clip1_1273_27342)">
<rect x="33" y="303.5" width="50" height="50" rx="10" fill="#FF971A" fill-opacity="0.15"/>
<path d="M66.953 326.148C67.3274 323.626 65.4213 322.271 62.8149 321.366L63.6604 317.95L61.596 317.432L60.7728 320.758C60.2301 320.622 59.6727 320.494 59.1188 320.366L59.9479 317.018L57.8847 316.5L57.0387 319.915C56.5896 319.812 56.1485 319.71 55.7205 319.603L55.7229 319.592L52.8759 318.876L52.3268 321.097C52.3268 321.097 53.8584 321.451 53.8261 321.472C54.6621 321.683 54.8133 322.24 54.7882 322.682L53.825 326.574C53.8826 326.588 53.9573 326.61 54.0397 326.643C53.9708 326.626 53.8975 326.607 53.8215 326.589L52.4714 332.04C52.3693 332.296 52.1099 332.68 51.5254 332.534C51.5461 332.564 50.025 332.157 50.025 332.157L49 334.537L51.6866 335.212C52.1863 335.338 52.6761 335.47 53.1584 335.595L52.3041 339.05L54.3662 339.568L55.2122 336.149C55.7756 336.303 56.3223 336.445 56.8574 336.579L56.0143 339.982L58.0788 340.5L58.933 337.051C62.4534 337.722 65.1004 337.452 66.2146 334.244C67.1123 331.662 66.1699 330.173 64.3178 329.202C65.6668 328.888 66.6821 327.994 66.953 326.148ZM62.2362 332.81C61.5982 335.393 57.2818 333.997 55.8824 333.647L57.0161 329.069C58.4154 329.421 62.9029 330.117 62.2362 332.81ZM62.8746 326.111C62.2926 328.46 58.7001 327.266 57.5347 326.974L58.5625 322.822C59.7279 323.115 63.4807 323.661 62.8746 326.111Z" fill="#F7931A"/>
<path d="M92.8809 321V309.727H97.4122C99.5294 309.727 100.803 310.805 100.803 312.531V312.547C100.803 313.719 99.9356 314.773 98.8262 314.961V315.094C100.35 315.258 101.365 316.336 101.365 317.805V317.82C101.365 319.797 99.92 321 97.5137 321H92.8809ZM97.0059 311.156H94.6309V314.523H96.7091C98.2559 314.523 99.0606 313.945 99.0606 312.852V312.836C99.0606 311.773 98.3028 311.156 97.0059 311.156ZM97.0606 315.859H94.6309V319.57H97.1622C98.7403 319.57 99.5762 318.922 99.5762 317.711V317.695C99.5762 316.484 98.7091 315.859 97.0606 315.859ZM103.983 311C103.397 311 102.92 310.523 102.92 309.945C102.92 309.359 103.397 308.883 103.983 308.883C104.561 308.883 105.045 309.359 105.045 309.945C105.045 310.523 104.561 311 103.983 311ZM103.131 321V312.516H104.819V321H103.131ZM110.171 321.055C108.303 321.055 107.538 320.398 107.538 318.766V313.852H106.21V312.516H107.538V310.375H109.264V312.516H111.085V313.852H109.264V318.359C109.264 319.273 109.608 319.648 110.444 319.648C110.702 319.648 110.85 319.641 111.085 319.617V320.969C110.811 321.016 110.499 321.055 110.171 321.055ZM116.218 321.164C113.741 321.164 112.226 319.477 112.226 316.734V316.719C112.226 314.031 113.733 312.352 116.21 312.352C118.343 312.352 119.616 313.555 119.851 315.203V315.242L118.226 315.25L118.218 315.227C118.03 314.391 117.343 313.766 116.218 313.766C114.804 313.766 113.952 314.891 113.952 316.719V316.734C113.952 318.609 114.819 319.75 116.218 319.75C117.28 319.75 117.937 319.266 118.21 318.352L118.226 318.312H119.851L119.835 318.383C119.53 320.031 118.319 321.164 116.218 321.164ZM125.046 321.164C122.554 321.164 121.031 319.5 121.031 316.766V316.75C121.031 314.023 122.562 312.352 125.046 312.352C127.523 312.352 129.054 314.016 129.054 316.75V316.766C129.054 319.5 127.531 321.164 125.046 321.164ZM125.046 319.75C126.499 319.75 127.327 318.641 127.327 316.766V316.75C127.327 314.867 126.499 313.766 125.046 313.766C123.585 313.766 122.765 314.867 122.765 316.75V316.766C122.765 318.648 123.585 319.75 125.046 319.75ZM131.64 311C131.054 311 130.578 310.523 130.578 309.945C130.578 309.359 131.054 308.883 131.64 308.883C132.218 308.883 132.703 309.359 132.703 309.945C132.703 310.523 132.218 311 131.64 311ZM130.789 321V312.516H132.476V321H130.789ZM134.625 321V312.516H136.32V313.805H136.445C136.859 312.898 137.672 312.352 138.906 312.352C140.805 312.352 141.852 313.484 141.852 315.508V321H140.164V315.906C140.164 314.5 139.578 313.805 138.336 313.805C137.094 313.805 136.32 314.656 136.32 316.023V321H134.625Z" fill="black"/>
<path d="M92.8277 345H96.1265C97.9253 345 98.9917 344.115 98.9917 342.633V342.621C98.9917 341.508 98.2593 340.717 97.105 340.57V340.477C97.9195 340.33 98.564 339.533 98.564 338.66V338.648C98.564 337.359 97.6148 336.545 96.062 336.545H92.8277V345ZM95.8394 337.477C96.8882 337.477 97.4976 337.975 97.4976 338.83V338.842C97.4976 339.732 96.8472 340.189 95.5698 340.189H93.8823V337.477H95.8394ZM95.8687 341.098C97.2163 341.098 97.9077 341.596 97.9077 342.568V342.58C97.9077 343.553 97.2398 344.068 95.9683 344.068H93.8823V341.098H95.8687ZM102.672 345H103.726V337.494H106.451V336.545H99.947V337.494H102.672V345ZM110.893 345.199C112.691 345.199 114.027 344.197 114.309 342.65V342.639H113.242L113.23 342.65C112.967 343.623 112.07 344.227 110.893 344.227C109.264 344.227 108.244 342.896 108.244 340.781V340.77C108.244 338.654 109.264 337.318 110.887 337.318C112.053 337.318 112.955 338.004 113.236 339.088L113.242 339.1H114.303L114.309 339.088C114.057 337.465 112.668 336.346 110.887 336.346C108.59 336.346 107.16 338.045 107.16 340.77V340.781C107.16 343.5 108.596 345.199 110.893 345.199Z" fill="#575B66"/>
<path d="M173.225 342.45L171.5 340.857V345C171.5 345.552 171.948 346 172.5 346H254.5C255.052 346 255.5 345.552 255.5 345V329.071L254.174 333.477C254.114 333.678 253.992 333.854 253.826 333.982L252.721 334.832C252.154 335.268 251.326 334.985 251.144 334.293L249.453 327.853C249.337 327.414 248.94 327.107 248.486 327.107H247.774C247.312 327.107 246.91 326.791 246.802 326.341L246.09 323.386C245.899 322.59 244.838 322.426 244.416 323.128C244.25 323.403 243.952 323.571 243.631 323.571H240.073C239.778 323.571 239.498 323.441 239.308 323.216L238.699 322.492C238.211 321.914 237.284 322.065 237.005 322.767L235.648 326.182C235.289 327.085 233.983 326.997 233.748 326.054L231.741 317.997C231.69 317.79 231.574 317.605 231.41 317.469L229.205 315.638C228.965 315.439 228.646 315.363 228.342 315.433L226.186 315.93C225.736 316.034 225.273 315.816 225.067 315.403L223.751 312.771C223.384 312.037 222.338 312.033 221.965 312.764L220.207 316.213C219.906 316.804 219.055 316.783 218.783 316.179C218.499 315.552 217.605 315.562 217.335 316.196L216.236 318.782C215.876 319.63 214.658 319.581 214.367 318.708L212.833 314.106C212.521 313.17 211.185 313.204 210.921 314.155L209.163 320.482C209.043 320.915 208.649 321.214 208.199 321.214H207.722C207.278 321.214 206.887 321.507 206.762 321.933L203.332 333.621C203.3 333.73 203.25 333.833 203.183 333.925L199.501 339.022C199.118 339.553 198.336 339.578 197.919 339.073L196.949 337.898C196.667 337.556 196.193 337.441 195.786 337.614L193.309 338.669C192.984 338.808 192.756 339.108 192.709 339.459L192.33 342.345C192.265 342.842 191.841 343.214 191.339 343.214H189.672C189.315 343.214 188.985 343.024 188.806 342.715L186.513 338.747C186.138 338.098 185.207 338.077 184.804 338.71L182.168 342.846C181.804 343.417 180.99 343.469 180.556 342.949L178 339.882C177.582 339.381 176.804 339.408 176.422 339.937L174.714 342.3C174.363 342.786 173.666 342.856 173.225 342.45Z" fill="url(#paint0_linear_1273_27342)"/>
<path d="M171.5 340.857L173.225 342.45C173.666 342.856 174.363 342.786 174.714 342.3L176.422 339.937C176.804 339.408 177.582 339.381 178 339.882L180.556 342.949C180.99 343.469 181.804 343.417 182.168 342.846L184.804 338.71C185.207 338.077 186.138 338.098 186.513 338.747L188.806 342.715C188.985 343.024 189.315 343.214 189.672 343.214H191.339C191.841 343.214 192.265 342.842 192.33 342.345L192.709 339.459C192.756 339.108 192.984 338.808 193.309 338.669L195.786 337.614C196.193 337.441 196.667 337.556 196.949 337.898L197.919 339.073C198.336 339.578 199.118 339.553 199.501 339.022L203.183 333.925C203.25 333.833 203.3 333.73 203.332 333.621L206.762 321.933C206.887 321.507 207.278 321.214 207.722 321.214H208.199C208.649 321.214 209.043 320.915 209.163 320.482L210.921 314.155C211.185 313.204 212.521 313.17 212.833 314.106L214.367 318.708C214.658 319.581 215.876 319.63 216.236 318.782L217.335 316.196C217.605 315.562 218.499 315.552 218.783 316.179V316.179C219.055 316.783 219.906 316.804 220.207 316.213L221.965 312.764C222.338 312.033 223.384 312.037 223.751 312.771L225.067 315.403C225.273 315.816 225.736 316.034 226.186 315.93L228.342 315.433C228.646 315.363 228.965 315.439 229.205 315.638L231.41 317.469C231.574 317.605 231.69 317.79 231.741 317.997L233.748 326.054C233.983 326.997 235.289 327.085 235.648 326.182L237.005 322.767C237.284 322.065 238.211 321.914 238.699 322.492L239.308 323.216C239.498 323.441 239.778 323.571 240.073 323.571H243.631C243.952 323.571 244.25 323.403 244.416 323.128V323.128C244.838 322.426 245.899 322.59 246.09 323.386L246.802 326.341C246.91 326.791 247.312 327.107 247.774 327.107H248.486C248.94 327.107 249.337 327.414 249.453 327.853L251.144 334.293C251.326 334.985 252.154 335.268 252.721 334.832L253.78 334.017C253.974 333.868 254.107 333.653 254.153 333.413L255 329" stroke="#40BF6A" stroke-linecap="round"/>
<path d="M290.391 320.5H292.078V318.258H293.633V316.773H292.078V309.227H289.586C288.031 311.562 286.375 314.227 284.891 316.773V318.258H290.391V320.5ZM286.57 316.805V316.695C287.727 314.719 289.102 312.523 290.312 310.703H290.414V316.805H286.57ZM296.242 320.5H298.078L302.984 310.742V309.227H295.305V310.703H301.211V310.828L296.242 320.5ZM303.031 323.43H304.227L305.523 318.844H303.719L303.031 323.43ZM313.156 320.5H314.844V318.258H316.398V316.773H314.844V309.227H312.352C310.797 311.562 309.141 314.227 307.656 316.773V318.258H313.156V320.5ZM309.336 316.805V316.695C310.492 314.719 311.867 312.523 313.078 310.703H313.18V316.805H309.336ZM321.117 320.5H322.867V309.227H321.117L318.148 311.336V313.055L320.984 311.031H321.117V320.5ZM326.062 320.5H333.656V319.008H328.445V318.852L330.836 316.469C332.883 314.438 333.477 313.453 333.477 312.172V312.148C333.477 310.289 331.93 308.953 329.828 308.953C327.562 308.953 325.969 310.406 325.961 312.469L325.977 312.484H327.617L327.625 312.461C327.625 311.227 328.469 310.398 329.734 310.398C330.969 310.398 331.727 311.211 331.727 312.312V312.336C331.727 313.25 331.297 313.828 329.805 315.383L326.062 319.312V320.5ZM337.055 320.617C337.703 320.617 338.195 320.117 338.195 319.484C338.195 318.844 337.703 318.344 337.055 318.344C336.406 318.344 335.906 318.844 335.906 319.484C335.906 320.117 336.406 320.617 337.055 320.617ZM344.289 320.773C346.656 320.773 348.367 319.117 348.367 316.852V316.836C348.367 314.68 346.828 313.086 344.68 313.086C343.141 313.086 342.125 313.891 341.711 314.797H341.562C341.562 314.711 341.562 314.625 341.57 314.539C341.656 312.289 342.445 310.438 344.344 310.438C345.406 310.438 346.141 310.984 346.453 311.844L346.484 311.922H348.219L348.203 311.828C347.828 310.125 346.344 308.953 344.352 308.953C341.562 308.953 339.898 311.203 339.898 315.016V315.031C339.898 319.18 342.023 320.773 344.289 320.773ZM341.906 316.852V316.844C341.906 315.484 342.938 314.5 344.289 314.5C345.656 314.5 346.641 315.5 346.641 316.883V316.898C346.641 318.25 345.594 319.305 344.273 319.305C342.945 319.305 341.906 318.227 341.906 316.852ZM354.5 320.773C356.875 320.773 358.547 319.18 358.547 316.867V316.852C358.547 314.688 357.031 313.109 354.914 313.109C353.875 313.109 352.992 313.547 352.516 314.305H352.383L352.727 310.711H357.906V309.227H351.352L350.789 315.773H352.297C352.43 315.516 352.609 315.297 352.812 315.117C353.258 314.711 353.844 314.508 354.531 314.508C355.891 314.508 356.875 315.492 356.875 316.883V316.898C356.875 318.312 355.906 319.305 354.516 319.305C353.281 319.305 352.383 318.516 352.234 317.523L352.227 317.461H350.586L350.594 317.562C350.75 319.391 352.281 320.773 354.5 320.773Z" fill="white"/>
<path d="M314.22 345H317.78C319.993 345 320.893 343.433 319.793 341.52L319.3 340.666C319.18 340.46 318.96 340.333 318.72 340.333H313.28C313.04 340.333 312.82 340.46 312.7 340.666L312.207 341.52C311.107 343.433 312.007 345 314.22 345Z" fill="#40BF6A"/>
<path opacity="0.4" d="M313.86 339.666H318.147C318.407 339.666 318.567 339.386 318.433 339.166L318.007 338.433C316.907 336.52 315.093 336.52 313.993 338.433L313.567 339.166C313.44 339.386 313.6 339.666 313.86 339.666Z" fill="#40BF6A"/>
<path d="M326.964 342.57H329.589V345.254H330.538V342.57H333.163V341.621H330.538V338.938H329.589V341.621H326.964V342.57ZM336.615 345.5H337.669V337.045H336.62L334.37 338.662V339.775L336.521 338.217H336.615V345.5ZM340.417 345.559C340.839 345.559 341.179 345.213 341.179 344.797C341.179 344.375 340.839 344.035 340.417 344.035C340.001 344.035 339.656 344.375 339.656 344.797C339.656 345.213 340.001 345.559 340.417 345.559ZM345.422 345.699C347.127 345.699 348.381 344.475 348.381 342.787V342.775C348.381 341.152 347.197 339.945 345.609 339.945C344.467 339.945 343.67 340.561 343.359 341.252H343.248C343.248 341.188 343.248 341.117 343.254 341.053C343.318 339.289 343.945 337.789 345.48 337.789C346.336 337.789 346.927 338.229 347.185 338.938L347.209 339.002H348.269L348.252 338.926C347.965 337.678 346.91 336.846 345.492 336.846C343.441 336.846 342.24 338.533 342.24 341.416V341.428C342.24 344.609 343.875 345.699 345.422 345.699ZM343.5 342.775V342.77C343.5 341.668 344.332 340.865 345.427 340.865C346.523 340.865 347.32 341.674 347.32 342.799V342.811C347.32 343.906 346.47 344.768 345.41 344.768C344.338 344.768 343.5 343.889 343.5 342.775ZM351.41 341.492C352.488 341.492 353.145 340.613 353.145 339.213V339.207C353.145 337.807 352.488 336.934 351.41 336.934C350.332 336.934 349.682 337.807 349.682 339.207V339.213C349.682 340.613 350.332 341.492 351.41 341.492ZM352.043 345.5L357.797 337.045H356.848L351.094 345.5H352.043ZM351.41 340.795C350.83 340.795 350.496 340.203 350.496 339.213V339.207C350.496 338.217 350.83 337.631 351.41 337.631C351.99 337.631 352.33 338.217 352.33 339.207V339.213C352.33 340.203 351.99 340.795 351.41 340.795ZM357.469 345.611C358.547 345.611 359.203 344.732 359.203 343.332V343.326C359.203 341.926 358.547 341.053 357.469 341.053C356.391 341.053 355.74 341.926 355.74 343.326V343.332C355.74 344.732 356.391 345.611 357.469 345.611ZM357.469 344.914C356.889 344.914 356.555 344.322 356.555 343.332V343.326C356.555 342.336 356.889 341.75 357.469 341.75C358.049 341.75 358.389 342.336 358.389 343.326V343.332C358.389 344.322 358.049 344.914 357.469 344.914Z" fill="#40BF6A"/>
<line x1="33.5" y1="364" x2="359.5" y2="364" stroke="#26272E" stroke-linecap="round"/>
<rect x="33" y="375.5" width="50" height="50" rx="10" fill="#212227"/>
<path d="M67.1912 389.667H70.949L63.1287 397.41C60.2966 400.213 55.705 400.213 52.8709 397.41L45.0475 389.667H48.8084L54.7498 395.549C55.6155 396.402 56.7821 396.88 57.9975 396.88C59.213 396.88 60.3796 396.402 61.2452 395.549L67.1912 389.667Z" fill="white"/>
<path d="M48.7604 411.199H45L52.8711 403.408C55.7032 400.605 60.2948 400.605 63.1289 403.408L71 411.199H67.2422L61.25 405.269C60.3843 404.416 59.2177 403.937 58.0023 403.937C56.7869 403.937 55.6202 404.416 54.7546 405.269L48.7604 411.199Z" fill="white"/>
<path d="M92.5609 393.5V382.227H97.0062C99.3187 382.227 100.756 383.57 100.756 385.664V385.68C100.756 387.195 99.9437 388.43 98.5687 388.891L101.1 393.5H99.0766L96.7797 389.164H94.3109V393.5H92.5609ZM94.3109 387.742H96.8344C98.1781 387.742 98.9594 387.008 98.9594 385.727V385.711C98.9594 384.461 98.1312 383.695 96.7797 383.695H94.3109V387.742ZM103.616 383.5C103.03 383.5 102.553 383.023 102.553 382.445C102.553 381.859 103.03 381.383 103.616 381.383C104.194 381.383 104.678 381.859 104.678 382.445C104.678 383.023 104.194 383.5 103.616 383.5ZM102.764 393.5V385.016H104.452V393.5H102.764ZM106.601 396.328V385.016H108.296V386.352H108.421C108.913 385.422 109.843 384.867 111.03 384.867C113.171 384.867 114.546 386.578 114.546 389.25V389.266C114.546 391.953 113.187 393.641 111.03 393.641C109.866 393.641 108.874 393.07 108.421 392.156H108.296V396.328H106.601ZM110.554 392.195C111.968 392.195 112.819 391.086 112.819 389.266V389.25C112.819 387.422 111.968 386.32 110.554 386.32C109.14 386.32 108.265 387.438 108.265 389.25V389.266C108.265 391.078 109.14 392.195 110.554 392.195ZM116.265 396.328V385.016H117.96V386.352H118.085C118.577 385.422 119.507 384.867 120.695 384.867C122.835 384.867 124.21 386.578 124.21 389.25V389.266C124.21 391.953 122.851 393.641 120.695 393.641C119.531 393.641 118.538 393.07 118.085 392.156H117.96V396.328H116.265ZM120.218 392.195C121.632 392.195 122.484 391.086 122.484 389.266V389.25C122.484 387.422 121.632 386.32 120.218 386.32C118.804 386.32 117.929 387.438 117.929 389.25V389.266C117.929 391.078 118.804 392.195 120.218 392.195ZM126.007 393.5V381.688H127.703V393.5H126.007ZM133.469 393.664C130.984 393.664 129.484 391.969 129.484 389.281V389.273C129.484 386.625 131.016 384.852 133.383 384.852C135.75 384.852 137.203 386.562 137.203 389.109V389.703H131.188C131.219 391.328 132.109 392.273 133.508 392.273C134.594 392.273 135.242 391.734 135.445 391.297L135.477 391.234L137.109 391.227L137.094 391.297C136.812 392.414 135.641 393.664 133.469 393.664ZM133.391 386.242C132.234 386.242 131.359 387.031 131.211 388.492H135.523C135.391 386.977 134.539 386.242 133.391 386.242Z" fill="black"/>
<path d="M92.3882 416.5H93.5835L95.8628 413.125H95.898L98.148 416.5H99.4136L96.5542 412.305V412.281L99.478 408.045H98.2769L95.9917 411.449H95.9566L93.6948 408.045H92.4234L95.271 412.229V412.252L92.3882 416.5ZM100.849 416.5H101.904V413.154H103.984L105.795 416.5H107.031L105.074 412.99C106.135 412.656 106.773 411.742 106.773 410.57V410.559C106.773 409.041 105.707 408.045 104.078 408.045H100.849V416.5ZM101.904 412.217V408.982H103.937C105.027 408.982 105.683 409.586 105.683 410.594V410.605C105.683 411.637 105.068 412.217 103.984 412.217H101.904ZM108.449 416.5H109.504V413.482H111.637C113.225 413.482 114.35 412.363 114.35 410.758V410.746C114.35 409.141 113.225 408.045 111.637 408.045H108.449V416.5ZM111.367 408.982C112.574 408.982 113.271 409.645 113.271 410.758V410.77C113.271 411.883 112.574 412.545 111.367 412.545H109.504V408.982H111.367Z" fill="#575B66"/>
<path d="M179.842 414.635H177V419.25C177 419.802 177.448 420.25 178 420.25H260C260.552 420.25 261 419.802 261 419.25V384.745L258.5 383.25L256.439 381.601C256.166 381.383 255.8 381.323 255.472 381.442L250.711 383.173C250.572 383.224 250.446 383.304 250.342 383.41L247.662 386.117C247.367 386.415 246.917 386.497 246.536 386.323L244.112 385.218C243.562 384.967 242.917 385.258 242.74 385.837L240.553 393.018C240.318 393.787 239.318 393.979 238.815 393.351L237.012 391.096C236.731 390.745 236.183 390.8 235.977 391.2C235.803 391.538 235.369 391.641 235.061 391.417L234.501 391.008C234.019 390.656 233.339 390.802 233.043 391.32L231.41 394.179C231.189 394.566 230.738 394.76 230.305 394.655L228.89 394.311C228.371 394.184 227.845 394.488 227.695 395L225.026 404.083C224.94 404.376 224.725 404.614 224.443 404.728L221.1 406.083C220.632 406.272 220.096 406.084 219.85 405.643L217.86 402.069C217.472 401.371 216.462 401.388 216.097 402.098L215.594 403.078C215.479 403.302 215.283 403.474 215.047 403.56L212.79 404.383C212.506 404.487 212.285 404.713 212.187 404.998L210.72 409.277C210.613 409.59 210.358 409.83 210.038 409.917L206.78 410.808C206.567 410.867 206.379 410.994 206.246 411.171L204.372 413.656C203.991 414.161 203.242 414.19 202.824 413.715L201.905 412.672C201.575 412.298 201.019 412.224 200.603 412.499L195.495 415.875C195.152 416.101 194.706 416.095 194.369 415.859L193.208 415.045C192.857 414.8 192.39 414.804 192.044 415.056L190.837 415.937C190.665 416.062 190.459 416.129 190.247 416.129H186.891C186.625 416.129 186.37 416.023 186.183 415.835L183.176 412.82C182.752 412.394 182.051 412.436 181.681 412.909L180.63 414.251C180.44 414.493 180.15 414.635 179.842 414.635Z" fill="url(#paint1_linear_1273_27342)"/>
<path d="M177.5 414.635H179.842C180.15 414.635 180.44 414.493 180.63 414.251L181.681 412.909C182.051 412.436 182.752 412.394 183.176 412.82L186.183 415.835C186.37 416.023 186.625 416.129 186.891 416.129H190.247C190.459 416.129 190.665 416.062 190.837 415.937L191.885 415.172C192.303 414.868 192.883 414.931 193.225 415.319L194.29 416.527C194.645 416.931 195.256 416.981 195.673 416.641L200.583 412.629C201 412.288 201.611 412.339 201.966 412.742L202.824 413.715C203.242 414.19 203.991 414.161 204.372 413.656L206.246 411.171C206.379 410.994 206.567 410.867 206.78 410.808L210.038 409.917C210.358 409.83 210.613 409.59 210.72 409.277L212.187 404.998C212.285 404.713 212.506 404.487 212.79 404.383L215.047 403.56C215.283 403.474 215.479 403.302 215.594 403.078L216.097 402.098C216.462 401.388 217.472 401.371 217.86 402.069L219.85 405.643C220.096 406.084 220.632 406.272 221.1 406.083L224.443 404.728C224.725 404.614 224.94 404.376 225.026 404.083L227.695 395C227.845 394.488 228.371 394.184 228.89 394.311L230.305 394.655C230.738 394.76 231.189 394.566 231.41 394.179L233.043 391.32C233.339 390.802 234.019 390.656 234.501 391.008L235.061 391.417C235.369 391.641 235.803 391.538 235.977 391.2V391.2C236.183 390.8 236.732 390.745 237.012 391.096L238.815 393.351C239.318 393.979 240.318 393.787 240.553 393.018L242.741 385.837C242.917 385.258 243.562 384.967 244.112 385.218L246.536 386.323C246.917 386.497 247.367 386.415 247.662 386.117L250.371 383.381C250.456 383.294 250.557 383.224 250.667 383.174L255.408 381.019C255.768 380.855 256.19 380.919 256.486 381.181L260.5 384.745" stroke="#DF2040" stroke-linecap="round"/>
<path d="M314.977 393.5H316.727V382.227H314.977L312.008 384.336V386.055L314.844 384.031H314.977V393.5ZM320.82 393.617C321.469 393.617 321.961 393.117 321.961 392.484C321.961 391.844 321.469 391.344 320.82 391.344C320.172 391.344 319.672 391.844 319.672 392.484C319.672 393.117 320.172 393.617 320.82 393.617ZM326.742 393.5H328.492V382.227H326.742L323.773 384.336V386.055L326.609 384.031H326.742V393.5ZM334.445 393.5H336.195V382.227H334.445L331.477 384.336V386.055L334.312 384.031H334.445V393.5ZM343.438 393.711C345.945 393.711 347.711 392.367 347.711 390.453V390.438C347.711 389.016 346.688 387.883 345.211 387.562V387.523C346.477 387.164 347.297 386.219 347.297 385.023V385.008C347.297 383.281 345.688 382.016 343.438 382.016C341.195 382.016 339.578 383.281 339.578 385.008V385.023C339.578 386.219 340.406 387.164 341.672 387.523V387.562C340.195 387.883 339.172 389.016 339.172 390.438V390.453C339.172 392.367 340.938 393.711 343.438 393.711ZM343.438 386.938C342.18 386.938 341.312 386.203 341.312 385.172V385.156C341.312 384.125 342.18 383.406 343.438 383.406C344.695 383.406 345.562 384.125 345.562 385.156V385.172C345.562 386.203 344.703 386.938 343.438 386.938ZM343.438 392.305C342 392.305 340.977 391.484 340.977 390.344V390.328C340.977 389.172 341.992 388.336 343.438 388.336C344.891 388.336 345.906 389.172 345.906 390.328V390.344C345.906 391.484 344.883 392.305 343.438 392.305ZM355.109 393.5H356.797V391.258H358.352V389.773H356.797V382.227H354.305C352.75 384.562 351.094 387.227 349.609 389.773V391.258H355.109V393.5ZM351.289 389.805V389.695C352.445 387.719 353.82 385.523 355.031 383.703H355.133V389.805H351.289Z" fill="white"/>
<path d="M306.22 408H309.78C311.993 408 312.893 409.567 311.793 411.48L311.3 412.333C311.18 412.54 310.96 412.667 310.72 412.667H305.28C305.04 412.667 304.82 412.54 304.7 412.333L304.207 411.48C303.107 409.567 304.007 408 306.22 408Z" fill="#DF2040"/>
<path opacity="0.4" d="M305.86 413.333H310.147C310.407 413.333 310.567 413.613 310.433 413.833L310.007 414.566C308.907 416.48 307.093 416.48 305.993 414.566L305.567 413.833C305.44 413.613 305.6 413.333 305.86 413.333Z" fill="#DF2040"/>
<path d="M319.745 413.57H323.682V412.621H319.745V413.57ZM328.077 416.699C329.946 416.699 331.071 414.994 331.071 412.275V412.264C331.071 409.545 329.946 407.846 328.077 407.846C326.208 407.846 325.095 409.545 325.095 412.264V412.275C325.095 414.994 326.208 416.699 328.077 416.699ZM328.077 415.779C326.864 415.779 326.155 414.432 326.155 412.275V412.264C326.155 410.107 326.864 408.771 328.077 408.771C329.29 408.771 330.011 410.107 330.011 412.264V412.275C330.011 414.432 329.29 415.779 328.077 415.779ZM332.935 416.559C333.357 416.559 333.697 416.213 333.697 415.797C333.697 415.375 333.357 415.035 332.935 415.035C332.519 415.035 332.173 415.375 332.173 415.797C332.173 416.213 332.519 416.559 332.935 416.559ZM337.898 416.641C339.691 416.641 340.968 415.633 340.968 414.215V414.203C340.968 413.16 340.236 412.293 339.152 412.041V412.018C340.078 411.73 340.664 411.027 340.664 410.137V410.125C340.664 408.848 339.498 407.904 337.898 407.904C336.298 407.904 335.132 408.848 335.132 410.125V410.137C335.132 411.027 335.718 411.73 336.644 412.018V412.041C335.56 412.293 334.828 413.16 334.828 414.203V414.215C334.828 415.633 336.105 416.641 337.898 416.641ZM337.898 411.625C336.878 411.625 336.181 411.045 336.181 410.225V410.213C336.181 409.393 336.878 408.812 337.898 408.812C338.917 408.812 339.615 409.393 339.615 410.213V410.225C339.615 411.045 338.917 411.625 337.898 411.625ZM337.898 415.721C336.732 415.721 335.9 415.064 335.9 414.15V414.139C335.9 413.213 336.726 412.551 337.898 412.551C339.07 412.551 339.896 413.213 339.896 414.139V414.15C339.896 415.064 339.064 415.721 337.898 415.721ZM345.422 416.699C347.127 416.699 348.381 415.475 348.381 413.787V413.775C348.381 412.152 347.197 410.945 345.609 410.945C344.467 410.945 343.67 411.561 343.359 412.252H343.248C343.248 412.188 343.248 412.117 343.254 412.053C343.318 410.289 343.945 408.789 345.48 408.789C346.336 408.789 346.928 409.229 347.185 409.938L347.209 410.002H348.269L348.252 409.926C347.965 408.678 346.91 407.846 345.492 407.846C343.441 407.846 342.24 409.533 342.24 412.416V412.428C342.24 415.609 343.875 416.699 345.422 416.699ZM343.5 413.775V413.77C343.5 412.668 344.332 411.865 345.428 411.865C346.523 411.865 347.32 412.674 347.32 413.799V413.811C347.32 414.906 346.47 415.768 345.41 415.768C344.338 415.768 343.5 414.889 343.5 413.775ZM351.41 412.492C352.488 412.492 353.145 411.613 353.145 410.213V410.207C353.145 408.807 352.488 407.934 351.41 407.934C350.332 407.934 349.682 408.807 349.682 410.207V410.213C349.682 411.613 350.332 412.492 351.41 412.492ZM352.043 416.5L357.797 408.045H356.848L351.094 416.5H352.043ZM351.41 411.795C350.83 411.795 350.496 411.203 350.496 410.213V410.207C350.496 409.217 350.83 408.631 351.41 408.631C351.99 408.631 352.33 409.217 352.33 410.207V410.213C352.33 411.203 351.99 411.795 351.41 411.795ZM357.469 416.611C358.547 416.611 359.203 415.732 359.203 414.332V414.326C359.203 412.926 358.547 412.053 357.469 412.053C356.391 412.053 355.74 412.926 355.74 414.326V414.332C355.74 415.732 356.391 416.611 357.469 416.611ZM357.469 415.914C356.889 415.914 356.555 415.322 356.555 414.332V414.326C356.555 413.336 356.889 412.75 357.469 412.75C358.049 412.75 358.389 413.336 358.389 414.326V414.332C358.389 415.322 358.049 415.914 357.469 415.914Z" fill="#DF2040"/>
<line x1="33.5" y1="436" x2="359.5" y2="436" stroke="#26272E" stroke-linecap="round"/>
<rect x="33" y="447.5" width="50" height="50" rx="10" fill="#181F2C"/>
<g clip-path="url(#clip2_1273_27342)">
<path d="M57.9999 487.66C66.3726 487.66 73.1599 480.873 73.1599 472.5C73.1599 464.127 66.3726 457.34 57.9999 457.34C49.6272 457.34 42.8398 464.127 42.8398 472.5C42.8398 480.873 49.6272 487.66 57.9999 487.66Z" fill="white"/>
<path d="M58 455.5C54.6377 455.5 51.3509 456.497 48.5553 458.365C45.7597 460.233 43.5807 462.888 42.2941 465.994C41.0074 469.101 40.6707 472.519 41.3267 475.817C41.9826 479.114 43.6017 482.143 45.9792 484.521C48.3567 486.898 51.3858 488.517 54.6835 489.173C57.9811 489.829 61.3993 489.493 64.5056 488.206C67.612 486.919 70.267 484.74 72.135 481.945C74.003 479.149 75 475.862 75 472.5C75.0065 470.274 74.5745 468.069 73.7286 466.01C72.8828 463.95 71.6397 462.078 70.0702 460.5C68.5008 458.921 66.6358 457.667 64.5818 456.809C62.5277 455.951 60.3248 455.506 58.0988 455.5H58ZM58.2881 473.076L56.5182 479.045H65.9855C66.0482 479.043 66.1107 479.053 66.1695 479.075C66.2283 479.097 66.2821 479.13 66.328 479.173C66.3739 479.216 66.4109 479.267 66.4369 479.324C66.4628 479.381 66.4773 479.443 66.4794 479.506V479.662L65.6562 482.502C65.6199 482.637 65.539 482.755 65.4268 482.837C65.3146 482.919 65.1778 482.961 65.0387 482.955H50.5496L52.9782 474.682L50.2615 475.505L50.8789 473.611L53.5956 472.788L57.0121 461.18C57.0497 461.047 57.1309 460.93 57.2428 460.848C57.3547 460.766 57.4909 460.723 57.6295 460.728H61.293C61.3557 460.725 61.4182 460.736 61.477 460.758C61.5358 460.78 61.5896 460.813 61.6355 460.856C61.6814 460.899 61.7184 460.95 61.7444 461.007C61.7703 461.064 61.7848 461.126 61.7869 461.189V461.345L58.9056 471.142L61.6223 470.318L61.046 472.294L58.2881 473.076Z" fill="#181F2C"/>
</g>
<path d="M93.1694 466.5V453.817H95.1382V464.804H101.08V466.5H93.1694ZM103.989 455.25C103.33 455.25 102.794 454.714 102.794 454.063C102.794 453.404 103.33 452.868 103.989 452.868C104.639 452.868 105.184 453.404 105.184 454.063C105.184 454.714 104.639 455.25 103.989 455.25ZM103.031 466.5V456.955H104.93V466.5H103.031ZM110.95 466.562C108.85 466.562 107.988 465.823 107.988 463.986V458.458H106.494V456.955H107.988V454.547H109.931V456.955H111.979V458.458H109.931V463.529C109.931 464.558 110.318 464.979 111.258 464.979C111.548 464.979 111.715 464.971 111.979 464.944V466.465C111.671 466.518 111.32 466.562 110.95 466.562ZM117.745 466.685C114.95 466.685 113.262 464.777 113.262 461.754V461.745C113.262 458.766 114.985 456.771 117.648 456.771C120.311 456.771 121.946 458.695 121.946 461.561V462.229H115.178C115.213 464.057 116.215 465.12 117.789 465.12C119.01 465.12 119.74 464.514 119.968 464.021L120.003 463.951L121.84 463.942L121.823 464.021C121.506 465.278 120.188 466.685 117.745 466.685ZM117.657 458.335C116.356 458.335 115.372 459.223 115.205 460.866H120.056C119.907 459.161 118.949 458.335 117.657 458.335ZM127.87 466.685C125.084 466.685 123.379 464.786 123.379 461.701V461.684C123.379 458.66 125.075 456.771 127.861 456.771C130.261 456.771 131.693 458.124 131.957 459.979V460.022L130.129 460.031L130.12 460.005C129.909 459.064 129.136 458.361 127.87 458.361C126.279 458.361 125.321 459.627 125.321 461.684V461.701C125.321 463.811 126.297 465.094 127.87 465.094C129.065 465.094 129.804 464.549 130.111 463.521L130.129 463.477H131.957L131.939 463.556C131.597 465.41 130.234 466.685 127.87 466.685ZM137.802 466.685C134.998 466.685 133.284 464.812 133.284 461.736V461.719C133.284 458.651 135.007 456.771 137.802 456.771C140.588 456.771 142.311 458.643 142.311 461.719V461.736C142.311 464.812 140.597 466.685 137.802 466.685ZM137.802 465.094C139.437 465.094 140.368 463.846 140.368 461.736V461.719C140.368 459.601 139.437 458.361 137.802 458.361C136.158 458.361 135.236 459.601 135.236 461.719V461.736C135.236 463.854 136.158 465.094 137.802 465.094ZM145.22 455.25C144.561 455.25 144.025 454.714 144.025 454.063C144.025 453.404 144.561 452.868 145.22 452.868C145.871 452.868 146.416 453.404 146.416 454.063C146.416 454.714 145.871 455.25 145.22 455.25ZM144.262 466.5V456.955H146.161V466.5H144.262ZM148.578 466.5V456.955H150.485V458.405H150.626C151.092 457.386 152.006 456.771 153.395 456.771C155.53 456.771 156.708 458.045 156.708 460.321V466.5H154.81V460.77C154.81 459.188 154.15 458.405 152.753 458.405C151.355 458.405 150.485 459.363 150.485 460.901V466.5H148.578Z" fill="black"/>
<path d="M93.0073 489.5H98.1402V488.551H94.062V481.045H93.0073V489.5ZM100.672 489.5H101.726V481.994H104.451V481.045H97.947V481.994H100.672V489.5ZM108.893 489.699C110.691 489.699 112.027 488.697 112.309 487.15V487.139H111.242L111.23 487.15C110.967 488.123 110.07 488.727 108.893 488.727C107.264 488.727 106.244 487.396 106.244 485.281V485.27C106.244 483.154 107.264 481.818 108.887 481.818C110.053 481.818 110.955 482.504 111.236 483.588L111.242 483.6H112.303L112.309 483.588C112.057 481.965 110.668 480.846 108.887 480.846C106.59 480.846 105.16 482.545 105.16 485.27V485.281C105.16 488 106.596 489.699 108.893 489.699Z" fill="#575B66"/>
<path d="M193.307 486.413H191V489C191 489.552 191.448 490 192 490H274C274.552 490 275 489.552 275 489V463.5L272.215 473.326C271.92 474.368 270.411 474.263 270.262 473.19L269.645 468.72C269.534 467.92 268.57 467.575 267.977 468.122L267.617 468.452C267.109 468.921 266.29 468.744 266.02 468.108L265.224 466.238C264.92 465.522 263.95 465.412 263.494 466.043L259.434 471.652C259.142 472.056 258.586 472.166 258.162 471.903C257.637 471.577 256.945 471.831 256.756 472.42L254.832 478.418C254.529 479.364 253.181 479.336 252.916 478.379L251.274 472.438C251.262 472.392 251.246 472.348 251.227 472.304L249.002 467.206C248.671 466.446 247.612 466.397 247.211 467.123L246.77 467.919C246.455 468.49 245.687 468.611 245.211 468.165L243.162 466.246C242.581 465.702 241.628 466.021 241.493 466.806L240.556 472.231C240.54 472.323 240.511 472.412 240.471 472.496L239.535 474.43C239.192 475.14 238.202 475.192 237.786 474.523L236.681 472.747C236.532 472.507 236.288 472.341 236.01 472.291L235.048 472.117C234.657 472.046 234.345 471.75 234.253 471.363L231.952 461.646C231.739 460.749 230.528 460.593 230.096 461.407L230.044 461.505C229.61 462.322 228.394 462.162 228.186 461.26L227.527 458.396C227.301 457.417 225.935 457.344 225.607 458.294L223.913 463.196C223.774 463.599 223.395 463.87 222.968 463.87H220.248C219.852 463.87 219.493 464.104 219.333 464.467L218.546 466.258C218.264 466.9 217.354 466.9 217.072 466.258C216.753 465.533 215.688 465.656 215.543 466.435L211.763 486.711C211.711 486.992 211.541 487.237 211.296 487.384L209.675 488.362C209.13 488.69 208.421 488.433 208.214 487.832L206.909 484.056C206.652 483.313 205.679 483.143 205.185 483.755L202.165 487.502C201.657 488.132 200.649 487.929 200.425 487.151L199.709 484.664C199.69 484.598 199.665 484.535 199.633 484.474L197.529 480.492C197.107 479.694 195.928 479.818 195.682 480.687L194.27 485.685C194.148 486.116 193.755 486.413 193.307 486.413Z" fill="url(#paint2_linear_1273_27342)"/>
<path d="M191 486.413H193.307C193.755 486.413 194.148 486.116 194.27 485.685L195.682 480.687C195.928 479.818 197.107 479.694 197.529 480.492L199.633 484.474C199.665 484.535 199.69 484.598 199.709 484.664L200.425 487.151C200.649 487.929 201.657 488.132 202.165 487.502L205.185 483.755C205.679 483.143 206.652 483.313 206.909 484.056L208.214 487.832C208.421 488.433 209.13 488.69 209.675 488.362L211.296 487.384C211.541 487.237 211.711 486.992 211.763 486.711L215.543 466.435C215.688 465.656 216.753 465.533 217.072 466.258V466.258C217.354 466.9 218.264 466.9 218.546 466.258L219.333 464.467C219.493 464.104 219.852 463.87 220.248 463.87H222.968C223.395 463.87 223.774 463.599 223.913 463.196L225.607 458.294C225.935 457.344 227.301 457.417 227.527 458.396L228.186 461.26C228.394 462.162 229.61 462.322 230.044 461.505L230.096 461.407C230.528 460.593 231.739 460.749 231.952 461.646L234.253 471.363C234.345 471.75 234.657 472.046 235.048 472.117L236.01 472.291C236.288 472.341 236.532 472.507 236.681 472.747L237.786 474.523C238.202 475.192 239.192 475.14 239.535 474.43L240.471 472.496C240.511 472.412 240.54 472.323 240.556 472.231L241.493 466.806C241.628 466.021 242.581 465.702 243.162 466.246L245.211 468.165C245.687 468.611 246.455 468.49 246.77 467.919L247.211 467.123C247.612 466.397 248.671 466.446 249.002 467.206L251.227 472.304C251.246 472.348 251.262 472.392 251.274 472.438L252.916 478.379C253.181 479.336 254.529 479.364 254.832 478.418L256.756 472.42C256.945 471.831 257.637 471.577 258.162 471.903V471.903C258.586 472.166 259.142 472.056 259.434 471.652L263.494 466.043C263.95 465.412 264.92 465.522 265.224 466.238L266.02 468.108C266.29 468.744 267.109 468.921 267.617 468.452L267.977 468.122C268.57 467.575 269.534 467.92 269.645 468.72L270.205 472.777C270.356 473.868 271.901 473.95 272.166 472.882L274.5 463.5" stroke="#40BF6A" stroke-linecap="round"/>
<path d="M315.474 466.5H317.442V453.817H315.474L312.134 456.19V458.124L315.324 455.848H315.474V466.5ZM325.722 466.808C328.385 466.808 330.31 464.944 330.31 462.396V462.378C330.31 459.952 328.578 458.159 326.161 458.159C324.43 458.159 323.287 459.064 322.821 460.084H322.654C322.654 459.987 322.654 459.891 322.663 459.794C322.76 457.263 323.647 455.18 325.783 455.18C326.979 455.18 327.805 455.795 328.156 456.762L328.191 456.85H330.143L330.125 456.744C329.703 454.828 328.033 453.51 325.792 453.51C322.654 453.51 320.782 456.041 320.782 460.33V460.348C320.782 465.015 323.173 466.808 325.722 466.808ZM323.041 462.396V462.387C323.041 460.857 324.201 459.75 325.722 459.75C327.26 459.75 328.367 460.875 328.367 462.431V462.448C328.367 463.969 327.189 465.155 325.704 465.155C324.21 465.155 323.041 463.942 323.041 462.396ZM337.156 453.51C334.493 453.51 332.56 455.373 332.56 457.922V457.939C332.56 460.365 334.3 462.158 336.717 462.158C338.439 462.158 339.591 461.253 340.048 460.233H340.224C340.224 460.33 340.215 460.427 340.215 460.523C340.118 463.055 339.222 465.138 337.086 465.138C335.899 465.138 335.073 464.522 334.713 463.556L334.687 463.468H332.727L332.753 463.573C333.166 465.489 334.836 466.808 337.086 466.808C340.224 466.808 342.096 464.276 342.096 459.979V459.961C342.096 455.303 339.696 453.51 337.156 453.51ZM337.147 460.567C335.618 460.567 334.502 459.442 334.502 457.887V457.869C334.502 456.349 335.688 455.162 337.174 455.162C338.668 455.162 339.837 456.375 339.837 457.922V457.931C339.837 459.46 338.668 460.567 337.147 460.567ZM345.269 466.632C345.998 466.632 346.552 466.069 346.552 465.357C346.552 464.637 345.998 464.074 345.269 464.074C344.539 464.074 343.977 464.637 343.977 465.357C343.977 466.069 344.539 466.632 345.269 466.632ZM353.407 466.808C356.07 466.808 357.995 464.944 357.995 462.396V462.378C357.995 459.952 356.264 458.159 353.847 458.159C352.115 458.159 350.973 459.064 350.507 460.084H350.34C350.34 459.987 350.34 459.891 350.349 459.794C350.445 457.263 351.333 455.18 353.469 455.18C354.664 455.18 355.49 455.795 355.842 456.762L355.877 456.85H357.828L357.811 456.744C357.389 454.828 355.719 453.51 353.478 453.51C350.34 453.51 348.468 456.041 348.468 460.33V460.348C348.468 465.015 350.858 466.808 353.407 466.808ZM350.727 462.396V462.387C350.727 460.857 351.887 459.75 353.407 459.75C354.945 459.75 356.053 460.875 356.053 462.431V462.448C356.053 463.969 354.875 465.155 353.39 465.155C351.896 465.155 350.727 463.942 350.727 462.396Z" fill="white"/>
<path d="M314.22 489H317.78C319.993 489 320.893 487.433 319.793 485.52L319.3 484.666C319.18 484.46 318.96 484.333 318.72 484.333H313.28C313.04 484.333 312.82 484.46 312.7 484.666L312.207 485.52C311.107 487.433 312.007 489 314.22 489Z" fill="#40BF6A"/>
<path opacity="0.4" d="M313.86 483.666H318.147C318.407 483.666 318.567 483.386 318.433 483.166L318.007 482.433C316.907 480.52 315.093 480.52 313.993 482.433L313.567 483.166C313.44 483.386 313.6 483.666 313.86 483.666Z" fill="#40BF6A"/>
<path d="M327.128 486.57H329.753V489.254H330.702V486.57H333.327V485.621H330.702V482.938H329.753V485.621H327.128V486.57ZM336.779 489.5H337.833V481.045H336.784L334.534 482.662V483.775L336.685 482.217H336.779V489.5ZM340.582 489.559C341.003 489.559 341.343 489.213 341.343 488.797C341.343 488.375 341.003 488.035 340.582 488.035C340.166 488.035 339.82 488.375 339.82 488.797C339.82 489.213 340.166 489.559 340.582 489.559ZM342.832 489.5H348.304V488.551H344.297V488.457L346.219 486.471C347.748 484.895 348.164 484.191 348.164 483.225V483.213C348.164 481.848 347.033 480.846 345.556 480.846C343.939 480.846 342.779 481.924 342.773 483.424L342.785 483.43L343.793 483.436L343.799 483.424C343.799 482.428 344.472 481.766 345.486 481.766C346.482 481.766 347.086 482.434 347.086 483.324V483.336C347.086 484.074 346.769 484.514 345.691 485.68L342.832 488.773V489.5ZM351.41 485.492C352.488 485.492 353.145 484.613 353.145 483.213V483.207C353.145 481.807 352.488 480.934 351.41 480.934C350.332 480.934 349.682 481.807 349.682 483.207V483.213C349.682 484.613 350.332 485.492 351.41 485.492ZM352.043 489.5L357.797 481.045H356.848L351.094 489.5H352.043ZM351.41 484.795C350.83 484.795 350.496 484.203 350.496 483.213V483.207C350.496 482.217 350.83 481.631 351.41 481.631C351.99 481.631 352.33 482.217 352.33 483.207V483.213C352.33 484.203 351.99 484.795 351.41 484.795ZM357.469 489.611C358.547 489.611 359.203 488.732 359.203 487.332V487.326C359.203 485.926 358.547 485.053 357.469 485.053C356.391 485.053 355.74 485.926 355.74 487.326V487.332C355.74 488.732 356.391 489.611 357.469 489.611ZM357.469 488.914C356.889 488.914 356.555 488.322 356.555 487.332V487.326C356.555 486.336 356.889 485.75 357.469 485.75C358.049 485.75 358.389 486.336 358.389 487.326V487.332C358.389 488.322 358.049 488.914 357.469 488.914Z" fill="#40BF6A"/>
<line x1="33.5" y1="508" x2="359.5" y2="508" stroke="#26272E" stroke-linecap="round"/>
<rect x="33" y="519.5" width="50" height="50" rx="10" fill="url(#paint3_linear_1273_27342)"/>
<path d="M64.6016 540.436C64.4896 540.548 64.3392 540.612 64.1824 540.612H49.3184C48.7936 540.612 48.528 539.972 48.8928 539.591L51.3312 537.066C51.4432 536.951 51.5968 536.884 51.7568 536.884H66.6752C67.2032 536.884 67.4688 537.53 67.0944 537.911L64.6016 540.436ZM64.6016 551.719C64.4896 551.828 64.3392 551.892 64.1824 551.892H49.3184C48.7936 551.892 48.528 551.268 48.8928 550.897L51.3312 548.433C51.4432 548.321 51.5968 548.257 51.7568 548.257H66.6752C67.2032 548.257 67.4688 548.887 67.0944 549.258L64.6016 551.719ZM64.1824 542.57C64.3392 542.57 64.4896 542.631 64.6016 542.743L67.0944 545.207C67.4688 545.575 67.2032 546.209 66.6752 546.209H51.7568C51.5968 546.209 51.4432 546.145 51.3312 546.033L48.8928 543.569C48.5248 543.197 48.7904 542.573 49.3184 542.573L64.1824 542.57Z" fill="#00FFAD"/>
<path fill-rule="evenodd" clip-rule="evenodd" d="M49.3983 542.974H64.2047C64.3903 542.974 64.5663 543.047 64.6943 543.179L67.0367 545.537C67.4687 545.972 67.1615 546.715 66.5471 546.715H51.7407C51.5551 546.715 51.3791 546.641 51.2511 546.51L48.9087 544.151C48.4735 543.716 48.7839 542.974 49.3983 542.974ZM48.9087 539.847L51.2511 537.489C51.3823 537.358 51.5583 537.284 51.7407 537.284H66.5439C67.1583 537.284 67.4687 538.027 67.0335 538.462L64.6943 540.82C64.5631 540.951 64.3871 541.025 64.2047 541.025H49.3983C48.7839 541.025 48.4735 540.283 48.9087 539.847ZM67.0335 549.841L64.6911 552.199C64.5599 552.331 64.3839 552.404 64.2015 552.404H49.3983C48.7839 552.404 48.4735 551.662 48.9087 551.227L51.2511 548.868C51.3823 548.737 51.5583 548.663 51.7407 548.663H66.5439C67.1583 548.663 67.4687 549.406 67.0335 549.841Z" fill="url(#paint4_linear_1273_27342)"/>
<path d="M97.1447 538.808C94.2795 538.808 92.4426 537.357 92.2668 535.222L92.258 535.107H94.1916L94.2004 535.204C94.3059 536.355 95.5275 537.094 97.2238 537.094C98.841 537.094 99.9924 536.285 99.9924 535.107V535.099C99.9924 534.123 99.3068 533.49 97.6281 533.13L96.2395 532.831C93.6643 532.286 92.5568 531.091 92.5568 529.219V529.21C92.5656 527.021 94.4641 525.51 97.1535 525.51C99.843 525.51 101.601 527.03 101.741 528.999L101.75 529.122H99.843L99.8254 529.008C99.6584 527.971 98.6652 527.215 97.1271 527.224C95.6418 527.224 94.5432 527.918 94.5432 529.113V529.122C94.5432 530.062 95.2111 530.678 96.8547 531.029L98.2346 531.337C100.898 531.908 101.987 532.98 101.987 534.861V534.87C101.987 537.296 100.098 538.808 97.1447 538.808ZM108.044 538.685C105.24 538.685 103.526 536.812 103.526 533.736V533.719C103.526 530.651 105.249 528.771 108.044 528.771C110.83 528.771 112.552 530.643 112.552 533.719V533.736C112.552 536.812 110.838 538.685 108.044 538.685ZM108.044 537.094C109.678 537.094 110.61 535.846 110.61 533.736V533.719C110.61 531.601 109.678 530.361 108.044 530.361C106.4 530.361 105.477 531.601 105.477 533.719V533.736C105.477 535.854 106.4 537.094 108.044 537.094ZM114.557 538.5V525.211H116.464V538.5H114.557ZM121.562 538.658C119.742 538.658 118.398 537.551 118.398 535.819V535.802C118.398 534.097 119.681 533.104 121.957 532.963L124.541 532.813V531.97C124.541 530.924 123.882 530.344 122.59 530.344C121.535 530.344 120.841 530.73 120.613 531.407L120.604 531.442H118.767L118.776 531.381C119.004 529.816 120.507 528.771 122.678 528.771C125.077 528.771 126.431 529.966 126.431 531.97V538.5H124.541V537.146H124.392C123.829 538.113 122.827 538.658 121.562 538.658ZM120.296 535.74C120.296 536.619 121.043 537.138 122.072 537.138C123.495 537.138 124.541 536.206 124.541 534.976V534.158L122.212 534.308C120.894 534.387 120.296 534.861 120.296 535.723V535.74ZM128.76 538.5V528.955H130.668V530.405H130.808C131.274 529.386 132.188 528.771 133.577 528.771C135.713 528.771 136.89 530.045 136.89 532.321V538.5H134.992V532.77C134.992 531.188 134.333 530.405 132.935 530.405C131.538 530.405 130.668 531.363 130.668 532.901V538.5H128.76ZM141.812 538.658C139.993 538.658 138.648 537.551 138.648 535.819V535.802C138.648 534.097 139.932 533.104 142.208 532.963L144.792 532.813V531.97C144.792 530.924 144.133 530.344 142.841 530.344C141.786 530.344 141.092 530.73 140.863 531.407L140.854 531.442H139.018L139.026 531.381C139.255 529.816 140.758 528.771 142.929 528.771C145.328 528.771 146.682 529.966 146.682 531.97V538.5H144.792V537.146H144.643C144.08 538.113 143.078 538.658 141.812 538.658ZM140.547 535.74C140.547 536.619 141.294 537.138 142.322 537.138C143.746 537.138 144.792 536.206 144.792 534.976V534.158L142.463 534.308C141.145 534.387 140.547 534.861 140.547 535.723V535.74Z" fill="black"/>
<path d="M115.052 561.699C116.939 561.699 118.175 560.715 118.175 559.133V559.127C118.175 557.908 117.478 557.199 115.714 556.807L114.777 556.596C113.628 556.344 113.166 555.887 113.166 555.213V555.207C113.166 554.322 113.98 553.824 115.035 553.818C116.136 553.812 116.839 554.363 116.957 555.107L116.968 555.184H118.023L118.017 555.102C117.929 553.842 116.751 552.846 115.064 552.846C113.318 552.846 112.093 553.836 112.087 555.236V555.242C112.087 556.467 112.82 557.246 114.513 557.621L115.451 557.826C116.611 558.084 117.097 558.564 117.097 559.268V559.273C117.097 560.135 116.259 560.727 115.111 560.727C113.892 560.727 113.013 560.193 112.937 559.35L112.931 559.285H111.876L111.882 559.35C112.005 560.727 113.201 561.699 115.052 561.699ZM122.16 561.611C123.959 561.611 125.072 560.369 125.072 558.348V558.336C125.072 556.309 123.959 555.072 122.16 555.072C120.361 555.072 119.248 556.309 119.248 558.336V558.348C119.248 560.369 120.361 561.611 122.16 561.611ZM122.16 560.709C120.965 560.709 120.291 559.836 120.291 558.348V558.336C120.291 556.842 120.965 555.975 122.16 555.975C123.355 555.975 124.029 556.842 124.029 558.336V558.348C124.029 559.836 123.355 560.709 122.16 560.709ZM126.473 561.5H127.492V552.676H126.473V561.5Z" fill="#575B66"/>
<path d="M185.225 558.45L183.5 556.857V561C183.5 561.552 183.948 562 184.5 562H266.5C267.052 562 267.5 561.552 267.5 561V545.071L266.174 549.477C266.114 549.678 265.992 549.854 265.826 549.982L264.721 550.832C264.154 551.268 263.326 550.985 263.144 550.293L261.453 543.853C261.337 543.414 260.94 543.107 260.486 543.107H259.774C259.312 543.107 258.91 542.791 258.802 542.341L258.09 539.386C257.899 538.59 256.838 538.426 256.416 539.128C256.25 539.403 255.952 539.571 255.631 539.571H252.073C251.778 539.571 251.498 539.441 251.308 539.216L250.699 538.492C250.211 537.914 249.284 538.065 249.005 538.767L247.648 542.182C247.289 543.085 245.983 542.997 245.748 542.054L243.741 533.997C243.69 533.79 243.574 533.605 243.41 533.469L241.205 531.638C240.965 531.439 240.646 531.363 240.342 531.433L238.186 531.93C237.736 532.034 237.273 531.816 237.067 531.403L235.751 528.771C235.384 528.037 234.338 528.033 233.965 528.764L232.207 532.213C231.906 532.804 231.055 532.783 230.783 532.179C230.499 531.552 229.605 531.562 229.335 532.196L228.236 534.782C227.876 535.63 226.658 535.581 226.367 534.708L224.833 530.106C224.521 529.17 223.185 529.204 222.921 530.155L221.163 536.482C221.043 536.915 220.649 537.214 220.199 537.214H219.722C219.278 537.214 218.887 537.507 218.762 537.933L215.332 549.621C215.3 549.73 215.25 549.833 215.183 549.925L211.501 555.022C211.118 555.553 210.336 555.578 209.919 555.073L208.949 553.898C208.667 553.556 208.193 553.441 207.786 553.614L205.309 554.669C204.984 554.808 204.756 555.108 204.709 555.459L204.33 558.345C204.265 558.842 203.841 559.214 203.339 559.214H201.672C201.315 559.214 200.985 559.024 200.806 558.715L198.513 554.747C198.138 554.098 197.207 554.077 196.804 554.71L194.168 558.846C193.804 559.417 192.99 559.469 192.556 558.949L190 555.882C189.582 555.381 188.804 555.408 188.422 555.937L186.714 558.3C186.363 558.786 185.666 558.856 185.225 558.45Z" fill="url(#paint5_linear_1273_27342)"/>
<path d="M183.5 556.857L185.225 558.45C185.666 558.856 186.363 558.786 186.714 558.3L188.422 555.937C188.804 555.408 189.582 555.381 190 555.882L192.556 558.949C192.99 559.469 193.804 559.417 194.168 558.846L196.804 554.71C197.207 554.077 198.138 554.098 198.513 554.747L200.806 558.715C200.985 559.024 201.315 559.214 201.672 559.214H203.339C203.841 559.214 204.265 558.842 204.33 558.345L204.709 555.459C204.756 555.108 204.984 554.808 205.309 554.669L207.786 553.614C208.193 553.441 208.667 553.556 208.949 553.898L209.919 555.073C210.336 555.578 211.118 555.553 211.501 555.022L215.183 549.925C215.25 549.833 215.3 549.73 215.332 549.621L218.762 537.933C218.887 537.507 219.278 537.214 219.722 537.214H220.199C220.649 537.214 221.043 536.915 221.163 536.482L222.921 530.155C223.185 529.204 224.521 529.17 224.833 530.106L226.367 534.708C226.658 535.581 227.876 535.63 228.236 534.782L229.335 532.196C229.605 531.562 230.499 531.552 230.783 532.179V532.179C231.055 532.783 231.906 532.804 232.207 532.213L233.965 528.764C234.338 528.033 235.384 528.037 235.751 528.771L237.067 531.403C237.273 531.816 237.736 532.034 238.186 531.93L240.342 531.433C240.646 531.363 240.965 531.439 241.205 531.638L243.41 533.469C243.574 533.605 243.69 533.79 243.741 533.997L245.748 542.054C245.983 542.997 247.289 543.085 247.648 542.182L249.005 538.767C249.284 538.065 250.211 537.914 250.699 538.492L251.308 539.216C251.498 539.441 251.778 539.571 252.073 539.571H255.631C255.952 539.571 256.25 539.403 256.416 539.128V539.128C256.838 538.426 257.899 538.59 258.09 539.386L258.802 542.341C258.91 542.791 259.312 543.107 259.774 543.107H260.486C260.94 543.107 261.337 543.414 261.453 543.853L263.144 550.293C263.326 550.985 264.154 551.268 264.721 550.832L265.78 550.017C265.974 549.868 266.107 549.653 266.153 549.413L267 545" stroke="#40BF6A" stroke-linecap="round"/>
<path d="M307.474 538.5H309.442V525.817H307.474L304.134 528.19V530.124L307.324 527.848H307.474V538.5ZM316.14 538.5H318.108V525.817H316.14L312.8 528.19V530.124L315.99 527.848H316.14V538.5ZM326.045 525.51C323.382 525.51 321.448 527.373 321.448 529.922V529.939C321.448 532.365 323.188 534.158 325.605 534.158C327.328 534.158 328.479 533.253 328.937 532.233H329.112C329.112 532.33 329.104 532.427 329.104 532.523C329.007 535.055 328.11 537.138 325.975 537.138C324.788 537.138 323.962 536.522 323.602 535.556L323.575 535.468H321.615L321.642 535.573C322.055 537.489 323.725 538.808 325.975 538.808C329.112 538.808 330.984 536.276 330.984 531.979V531.961C330.984 527.303 328.585 525.51 326.045 525.51ZM326.036 532.567C324.507 532.567 323.391 531.442 323.391 529.887V529.869C323.391 528.349 324.577 527.162 326.062 527.162C327.557 527.162 328.726 528.375 328.726 529.922V529.931C328.726 531.46 327.557 532.567 326.036 532.567ZM334.157 538.632C334.887 538.632 335.44 538.069 335.44 537.357C335.44 536.637 334.887 536.074 334.157 536.074C333.428 536.074 332.865 536.637 332.865 537.357C332.865 538.069 333.428 538.632 334.157 538.632ZM342.296 538.808C344.959 538.808 346.884 536.944 346.884 534.396V534.378C346.884 531.952 345.152 530.159 342.735 530.159C341.004 530.159 339.861 531.064 339.396 532.084H339.229C339.229 531.987 339.229 531.891 339.237 531.794C339.334 529.263 340.222 527.18 342.357 527.18C343.553 527.18 344.379 527.795 344.73 528.762L344.766 528.85H346.717L346.699 528.744C346.277 526.828 344.607 525.51 342.366 525.51C339.229 525.51 337.356 528.041 337.356 532.33V532.348C337.356 537.015 339.747 538.808 342.296 538.808ZM339.615 534.396V534.387C339.615 532.857 340.775 531.75 342.296 531.75C343.834 531.75 344.941 532.875 344.941 534.431V534.448C344.941 535.969 343.764 537.155 342.278 537.155C340.784 537.155 339.615 535.942 339.615 534.396ZM353.73 525.51C351.067 525.51 349.134 527.373 349.134 529.922V529.939C349.134 532.365 350.874 534.158 353.291 534.158C355.014 534.158 356.165 533.253 356.622 532.233H356.798C356.798 532.33 356.789 532.427 356.789 532.523C356.692 535.055 355.796 537.138 353.66 537.138C352.474 537.138 351.647 536.522 351.287 535.556L351.261 535.468H349.301L349.327 535.573C349.74 537.489 351.41 538.808 353.66 538.808C356.798 538.808 358.67 536.276 358.67 531.979V531.961C358.67 527.303 356.271 525.51 353.73 525.51ZM353.722 532.567C352.192 532.567 351.076 531.442 351.076 529.887V529.869C351.076 528.349 352.263 527.162 353.748 527.162C355.242 527.162 356.411 528.375 356.411 529.922V529.931C356.411 531.46 355.242 532.567 353.722 532.567Z" fill="white"/>
<path d="M314.22 553H317.78C319.993 553 320.893 554.567 319.793 556.48L319.3 557.333C319.18 557.54 318.96 557.667 318.72 557.667H313.28C313.04 557.667 312.82 557.54 312.7 557.333L312.207 556.48C311.107 554.567 312.007 553 314.22 553Z" fill="#EB5757"/>
<path opacity="0.4" d="M313.86 558.333H318.147C318.407 558.333 318.567 558.613 318.433 558.833L318.007 559.566C316.907 561.48 315.093 561.48 313.993 559.566L313.567 558.833C313.44 558.613 313.6 558.333 313.86 558.333Z" fill="#EB5757"/>
<path d="M327.228 558.57H331.165V557.621H327.228V558.57ZM335.56 561.699C337.429 561.699 338.554 559.994 338.554 557.275V557.264C338.554 554.545 337.429 552.846 335.56 552.846C333.691 552.846 332.577 554.545 332.577 557.264V557.275C332.577 559.994 333.691 561.699 335.56 561.699ZM335.56 560.779C334.347 560.779 333.638 559.432 333.638 557.275V557.264C333.638 555.107 334.347 553.771 335.56 553.771C336.773 553.771 337.493 555.107 337.493 557.264V557.275C337.493 559.432 336.773 560.779 335.56 560.779ZM340.417 561.559C340.839 561.559 341.179 561.213 341.179 560.797C341.179 560.375 340.839 560.035 340.417 560.035C340.001 560.035 339.656 560.375 339.656 560.797C339.656 561.213 340.001 561.559 340.417 561.559ZM345.422 561.699C347.127 561.699 348.381 560.475 348.381 558.787V558.775C348.381 557.152 347.197 555.945 345.609 555.945C344.467 555.945 343.67 556.561 343.359 557.252H343.248C343.248 557.188 343.248 557.117 343.254 557.053C343.318 555.289 343.945 553.789 345.48 553.789C346.336 553.789 346.927 554.229 347.185 554.938L347.209 555.002H348.269L348.252 554.926C347.965 553.678 346.91 552.846 345.492 552.846C343.441 552.846 342.24 554.533 342.24 557.416V557.428C342.24 560.609 343.875 561.699 345.422 561.699ZM343.5 558.775V558.77C343.5 557.668 344.332 556.865 345.427 556.865C346.523 556.865 347.32 557.674 347.32 558.799V558.811C347.32 559.906 346.47 560.768 345.41 560.768C344.338 560.768 343.5 559.889 343.5 558.775ZM351.41 557.492C352.488 557.492 353.145 556.613 353.145 555.213V555.207C353.145 553.807 352.488 552.934 351.41 552.934C350.332 552.934 349.682 553.807 349.682 555.207V555.213C349.682 556.613 350.332 557.492 351.41 557.492ZM352.043 561.5L357.797 553.045H356.848L351.094 561.5H352.043ZM351.41 556.795C350.83 556.795 350.496 556.203 350.496 555.213V555.207C350.496 554.217 350.83 553.631 351.41 553.631C351.99 553.631 352.33 554.217 352.33 555.207V555.213C352.33 556.203 351.99 556.795 351.41 556.795ZM357.469 561.611C358.547 561.611 359.203 560.732 359.203 559.332V559.326C359.203 557.926 358.547 557.053 357.469 557.053C356.391 557.053 355.74 557.926 355.74 559.326V559.332C355.74 560.732 356.391 561.611 357.469 561.611ZM357.469 560.914C356.889 560.914 356.555 560.322 356.555 559.332V559.326C356.555 558.336 356.889 557.75 357.469 557.75C358.049 557.75 358.389 558.336 358.389 559.326V559.332C358.389 560.322 358.049 560.914 357.469 560.914Z" fill="#EB5757"/>
</g>
</g>
<defs>
<linearGradient id="paint0_linear_1273_27342" x1="213.5" y1="311" x2="213.5" y2="346" gradientUnits="userSpaceOnUse">
<stop stop-color="#40BF6A" stop-opacity="0.2"/>
<stop offset="1" stop-color="#40BF6A" stop-opacity="0"/>
</linearGradient>
<linearGradient id="paint1_linear_1273_27342" x1="219" y1="383.25" x2="219" y2="420.25" gradientUnits="userSpaceOnUse">
<stop stop-color="#DF2040" stop-opacity="0.2"/>
<stop offset="1" stop-color="#DF2040" stop-opacity="0"/>
</linearGradient>
<linearGradient id="paint2_linear_1273_27342" x1="233" y1="455" x2="233" y2="490" gradientUnits="userSpaceOnUse">
<stop stop-color="#40BF6A" stop-opacity="0.2"/>
<stop offset="1" stop-color="#40BF6A" stop-opacity="0"/>
</linearGradient>
<linearGradient id="paint3_linear_1273_27342" x1="92" y1="509.5" x2="22.5" y2="575.5" gradientUnits="userSpaceOnUse">
<stop stop-color="#18EEB4" stop-opacity="0.3"/>
<stop offset="1" stop-color="#C355E6" stop-opacity="0.3"/>
</linearGradient>
<linearGradient id="paint4_linear_1273_27342" x1="49.7606" y1="553.055" x2="66.1817" y2="536.634" gradientUnits="userSpaceOnUse">
<stop stop-color="#CB4EE8"/>
<stop offset="1" stop-color="#10F4B1"/>
</linearGradient>
<linearGradient id="paint5_linear_1273_27342" x1="225.5" y1="527" x2="225.5" y2="562" gradientUnits="userSpaceOnUse">
<stop stop-color="#40BF6A" stop-opacity="0.2"/>
<stop offset="1" stop-color="#40BF6A" stop-opacity="0"/>
</linearGradient>
<clipPath id="clip0_1273_27342">
<rect width="390" height="844" fill="white"/>
</clipPath>
<clipPath id="clip1_1273_27342">
<rect width="327" height="266" fill="white" transform="translate(33 303.5)"/>
</clipPath>
<clipPath id="clip2_1273_27342">
<rect width="34" height="34" fill="white" transform="translate(41 455.5)"/>
</clipPath>
</defs>
</svg>
