<svg width="390" height="844" viewBox="0 0 390 844" fill="none" xmlns="http://www.w3.org/2000/svg">
<rect width="390" height="844" fill="#0156FE"/>
<rect x="128" y="831" width="134" height="5" rx="2.5" fill="#625F63"/>
<path d="M37.5352 118.439C29.959 118.439 25.3184 113.5 25.3184 105.238V105.221C25.3184 97.0996 29.9766 92.1953 37.4121 92.1953C43.5117 92.1953 47.6602 95.7461 48.5039 100.51L48.5566 100.756H43.2305L43.1602 100.58C42.3164 98.1191 40.2949 96.6953 37.4297 96.6953C33.2461 96.6953 30.7324 99.7891 30.7324 105.168V105.186C30.7324 110.688 33.4043 113.939 37.623 113.939C41.0859 113.939 43.459 111.883 43.5996 108.754L43.6172 108.385H37.8164V104.43H48.7852V107.348C48.7852 114.256 44.6016 118.439 37.5352 118.439ZM60.9395 118.387C55.1738 118.387 51.6758 114.643 51.6758 108.613V108.596C51.6758 102.602 55.209 98.7695 60.7285 98.7695C66.248 98.7695 69.7109 102.514 69.7109 108.209V109.791H56.7383C56.791 112.797 58.4258 114.555 61.0449 114.555C63.1543 114.555 64.4375 113.395 64.8066 112.34L64.8418 112.234H69.5527L69.5 112.428C68.9199 115.205 66.3184 118.387 60.9395 118.387ZM60.8164 102.602C58.707 102.602 57.125 104.008 56.791 106.557H64.7891C64.4727 103.955 62.9434 102.602 60.8164 102.602ZM80.3535 118.387C76.1699 118.387 74.2012 116.77 74.2012 112.727V103.023H71.582V99.1562H74.2012V94.5508H79.3867V99.1562H82.832V103.023H79.3867V112.164C79.3867 113.922 80.1777 114.52 81.7246 114.52C82.1816 114.52 82.5156 114.467 82.832 114.432V118.193C82.252 118.281 81.4258 118.387 80.3535 118.387ZM93.9219 118V92.6348H99.0547V118H93.9219ZM105.689 96.7305C104.143 96.7305 102.947 95.5176 102.947 94.0586C102.947 92.5996 104.143 91.3867 105.689 91.3867C107.236 91.3867 108.432 92.5996 108.432 94.0586C108.432 95.5176 107.236 96.7305 105.689 96.7305ZM103.123 118V99.1562H108.256V118H103.123ZM117.176 118L110.654 99.1562H116.139L120.076 113.465H120.182L124.066 99.1562H129.428L122.959 118H117.176ZM139.631 118.387C133.865 118.387 130.367 114.643 130.367 108.613V108.596C130.367 102.602 133.9 98.7695 139.42 98.7695C144.939 98.7695 148.402 102.514 148.402 108.209V109.791H135.43C135.482 112.797 137.117 114.555 139.736 114.555C141.846 114.555 143.129 113.395 143.498 112.34L143.533 112.234H148.244L148.191 112.428C147.611 115.205 145.01 118.387 139.631 118.387ZM139.508 102.602C137.398 102.602 135.816 104.008 135.482 106.557H143.48C143.164 103.955 141.635 102.602 139.508 102.602ZM165.609 118.387C161.461 118.387 159.105 115.732 159.105 111.32V99.1562H164.238V110.248C164.238 112.709 165.398 114.133 167.701 114.133C170.004 114.133 171.463 112.445 171.463 109.984V99.1562H176.596V118H171.463V114.889H171.357C170.391 117.051 168.457 118.387 165.609 118.387ZM180.436 124.152V99.1562H185.568V102.443H185.691C186.711 100.158 188.768 98.7695 191.439 98.7695C196.221 98.7695 199.139 102.426 199.139 108.561V108.578C199.139 114.695 196.221 118.387 191.51 118.387C188.82 118.387 186.693 117.016 185.674 114.783H185.568V124.152H180.436ZM189.752 114.133C192.301 114.133 193.918 112.006 193.918 108.578V108.561C193.918 105.115 192.301 103.023 189.752 103.023C187.256 103.023 185.551 105.168 185.551 108.578V108.596C185.551 111.988 187.256 114.133 189.752 114.133ZM209.289 118.387C204.543 118.387 201.625 114.695 201.625 108.578V108.561C201.625 102.426 204.543 98.7695 209.289 98.7695C211.961 98.7695 214.07 100.141 215.09 102.426H215.195V92.6348H220.328V118H215.195V114.783H215.09C214.088 117.016 212.014 118.387 209.289 118.387ZM211.012 114.133C213.508 114.133 215.213 111.988 215.213 108.578V108.561C215.213 105.168 213.49 103.023 211.012 103.023C208.463 103.023 206.846 105.115 206.846 108.561V108.578C206.846 112.006 208.445 114.133 211.012 114.133ZM229.863 118.299C226.084 118.299 223.535 115.926 223.535 112.604V112.568C223.535 109.141 226.189 107.137 230.865 106.838L235.523 106.557V105.396C235.523 103.727 234.434 102.689 232.43 102.689C230.514 102.689 229.354 103.586 229.107 104.799L229.072 104.957H224.379L224.396 104.746C224.678 101.266 227.666 98.7695 232.641 98.7695C237.51 98.7695 240.656 101.283 240.656 105.08V118H235.523V115.188H235.418C234.346 117.121 232.342 118.299 229.863 118.299ZM228.615 112.34C228.615 113.729 229.758 114.555 231.533 114.555C233.836 114.555 235.523 113.078 235.523 111.109V109.756L231.639 110.002C229.652 110.125 228.615 110.969 228.615 112.305V112.34ZM251.967 118.387C247.783 118.387 245.814 116.77 245.814 112.727V103.023H243.195V99.1562H245.814V94.5508H251V99.1562H254.445V103.023H251V112.164C251 113.922 251.791 114.52 253.338 114.52C253.795 114.52 254.129 114.467 254.445 114.432V118.193C253.865 118.281 253.039 118.387 251.967 118.387ZM266.072 118.387C260.307 118.387 256.809 114.643 256.809 108.613V108.596C256.809 102.602 260.342 98.7695 265.861 98.7695C271.381 98.7695 274.844 102.514 274.844 108.209V109.791H261.871C261.924 112.797 263.559 114.555 266.178 114.555C268.287 114.555 269.57 113.395 269.939 112.34L269.975 112.234H274.686L274.633 112.428C274.053 115.205 271.451 118.387 266.072 118.387ZM265.949 102.602C263.84 102.602 262.258 104.008 261.924 106.557H269.922C269.605 103.955 268.076 102.602 265.949 102.602ZM285.75 118.387C280.529 118.387 277.629 115.979 277.225 112.41L277.207 112.252H282.217L282.252 112.41C282.586 113.887 283.693 114.748 285.75 114.748C287.684 114.748 288.861 113.992 288.861 112.779V112.762C288.861 111.76 288.229 111.18 286.383 110.775L283.184 110.107C279.527 109.334 277.682 107.506 277.682 104.693V104.676C277.682 101.09 280.775 98.7695 285.574 98.7695C290.584 98.7695 293.379 101.424 293.502 104.729V104.904H288.773L288.756 104.764C288.58 103.41 287.473 102.391 285.574 102.391C283.799 102.391 282.691 103.182 282.691 104.395V104.412C282.691 105.379 283.342 106.012 285.24 106.416L288.439 107.102C292.377 107.928 293.994 109.475 293.994 112.252V112.27C293.994 115.961 290.602 118.387 285.75 118.387ZM313.311 118.387C307.58 118.387 303.977 114.713 303.977 108.578V108.543C303.977 102.479 307.668 98.7695 313.293 98.7695C318.936 98.7695 322.645 102.443 322.645 108.543V108.578C322.645 114.73 319.006 118.387 313.311 118.387ZM313.328 114.361C315.824 114.361 317.424 112.252 317.424 108.578V108.543C317.424 104.904 315.789 102.795 313.293 102.795C310.814 102.795 309.197 104.904 309.197 108.543V108.578C309.197 112.27 310.797 114.361 313.328 114.361ZM327.17 118V103.023H324.604V99.1562H327.17V97.6445C327.17 93.9531 328.928 92.248 333.375 92.248C334.324 92.248 335.361 92.3359 335.959 92.459V95.8516C335.607 95.7812 335.115 95.7637 334.641 95.7637C332.936 95.7637 332.18 96.4844 332.18 97.8379V99.1562H335.924V103.023H332.303V118H327.17ZM25.6699 161V142.156H30.8027V145.443H30.9082C31.4707 143.123 33 141.77 35.1973 141.77C35.7598 141.77 36.2871 141.857 36.6738 141.963V146.48C36.252 146.305 35.5488 146.199 34.8105 146.199C32.2793 146.199 30.8027 147.711 30.8027 150.453V161H25.6699ZM44.4336 161.299C40.6543 161.299 38.1055 158.926 38.1055 155.604V155.568C38.1055 152.141 40.7598 150.137 45.4355 149.838L50.0938 149.557V148.396C50.0938 146.727 49.0039 145.689 47 145.689C45.084 145.689 43.9238 146.586 43.6777 147.799L43.6426 147.957H38.9492L38.9668 147.746C39.248 144.266 42.2363 141.77 47.2109 141.77C52.0801 141.77 55.2266 144.283 55.2266 148.08V161H50.0938V158.188H49.9883C48.916 160.121 46.9121 161.299 44.4336 161.299ZM43.1855 155.34C43.1855 156.729 44.3281 157.555 46.1035 157.555C48.4062 157.555 50.0938 156.078 50.0938 154.109V152.756L46.209 153.002C44.2227 153.125 43.1855 153.969 43.1855 155.305V155.34ZM66.5371 161.387C62.3535 161.387 60.3848 159.77 60.3848 155.727V146.023H57.7656V142.156H60.3848V137.551H65.5703V142.156H69.0156V146.023H65.5703V155.164C65.5703 156.922 66.3613 157.52 67.9082 157.52C68.3652 157.52 68.6992 157.467 69.0156 157.432V161.193C68.4355 161.281 67.6094 161.387 66.5371 161.387ZM80.6426 161.387C74.877 161.387 71.3789 157.643 71.3789 151.613V151.596C71.3789 145.602 74.9121 141.77 80.4316 141.77C85.9512 141.77 89.4141 145.514 89.4141 151.209V152.791H76.4414C76.4941 155.797 78.1289 157.555 80.748 157.555C82.8574 157.555 84.1406 156.395 84.5098 155.34L84.5449 155.234H89.2559L89.2031 155.428C88.623 158.205 86.0215 161.387 80.6426 161.387ZM80.5195 145.602C78.4102 145.602 76.8281 147.008 76.4941 149.557H84.4922C84.1758 146.955 82.6465 145.602 80.5195 145.602ZM100.32 161.387C95.0996 161.387 92.1992 158.979 91.7949 155.41L91.7773 155.252H96.7871L96.8223 155.41C97.1562 156.887 98.2637 157.748 100.32 157.748C102.254 157.748 103.432 156.992 103.432 155.779V155.762C103.432 154.76 102.799 154.18 100.953 153.775L97.7539 153.107C94.0977 152.334 92.252 150.506 92.252 147.693V147.676C92.252 144.09 95.3457 141.77 100.145 141.77C105.154 141.77 107.949 144.424 108.072 147.729V147.904H103.344L103.326 147.764C103.15 146.41 102.043 145.391 100.145 145.391C98.3691 145.391 97.2617 146.182 97.2617 147.395V147.412C97.2617 148.379 97.9121 149.012 99.8105 149.416L103.01 150.102C106.947 150.928 108.564 152.475 108.564 155.252V155.27C108.564 158.961 105.172 161.387 100.32 161.387ZM124.84 161.299C121.061 161.299 118.512 158.926 118.512 155.604V155.568C118.512 152.141 121.166 150.137 125.842 149.838L130.5 149.557V148.396C130.5 146.727 129.41 145.689 127.406 145.689C125.49 145.689 124.33 146.586 124.084 147.799L124.049 147.957H119.355L119.373 147.746C119.654 144.266 122.643 141.77 127.617 141.77C132.486 141.77 135.633 144.283 135.633 148.08V161H130.5V158.188H130.395C129.322 160.121 127.318 161.299 124.84 161.299ZM123.592 155.34C123.592 156.729 124.734 157.555 126.51 157.555C128.812 157.555 130.5 156.078 130.5 154.109V152.756L126.615 153.002C124.629 153.125 123.592 153.969 123.592 155.305V155.34ZM148.068 161.387C142.32 161.387 138.77 157.643 138.77 151.561V151.543C138.77 145.514 142.373 141.77 148.016 141.77C153.131 141.77 156.383 144.916 156.576 148.994V149.117H151.812L151.777 148.959C151.461 147.166 150.213 145.795 148.086 145.795C145.572 145.795 143.99 147.957 143.99 151.561V151.578C143.99 155.27 145.572 157.361 148.104 157.361C150.16 157.361 151.443 156.096 151.795 154.197L151.812 154.039H156.594V154.145C156.348 158.258 153.096 161.387 148.068 161.387ZM159.572 161V142.156H164.705V145.443H164.811C165.373 143.123 166.902 141.77 169.1 141.77C169.662 141.77 170.189 141.857 170.576 141.963V146.48C170.154 146.305 169.451 146.199 168.713 146.199C166.182 146.199 164.705 147.711 164.705 150.453V161H159.572ZM181.201 161.387C175.471 161.387 171.867 157.713 171.867 151.578V151.543C171.867 145.479 175.559 141.77 181.184 141.77C186.826 141.77 190.535 145.443 190.535 151.543V151.578C190.535 157.73 186.896 161.387 181.201 161.387ZM181.219 157.361C183.715 157.361 185.314 155.252 185.314 151.578V151.543C185.314 147.904 183.68 145.795 181.184 145.795C178.705 145.795 177.088 147.904 177.088 151.543V151.578C177.088 155.27 178.688 157.361 181.219 157.361ZM201.441 161.387C196.221 161.387 193.32 158.979 192.916 155.41L192.898 155.252H197.908L197.943 155.41C198.277 156.887 199.385 157.748 201.441 157.748C203.375 157.748 204.553 156.992 204.553 155.779V155.762C204.553 154.76 203.92 154.18 202.074 153.775L198.875 153.107C195.219 152.334 193.373 150.506 193.373 147.693V147.676C193.373 144.09 196.467 141.77 201.266 141.77C206.275 141.77 209.07 144.424 209.193 147.729V147.904H204.465L204.447 147.764C204.271 146.41 203.164 145.391 201.266 145.391C199.49 145.391 198.383 146.182 198.383 147.395V147.412C198.383 148.379 199.033 149.012 200.932 149.416L204.131 150.102C208.068 150.928 209.686 152.475 209.686 155.252V155.27C209.686 158.961 206.293 161.387 201.441 161.387ZM220.469 161.387C215.248 161.387 212.348 158.979 211.943 155.41L211.926 155.252H216.936L216.971 155.41C217.305 156.887 218.412 157.748 220.469 157.748C222.402 157.748 223.58 156.992 223.58 155.779V155.762C223.58 154.76 222.947 154.18 221.102 153.775L217.902 153.107C214.246 152.334 212.4 150.506 212.4 147.693V147.676C212.4 144.09 215.494 141.77 220.293 141.77C225.303 141.77 228.098 144.424 228.221 147.729V147.904H223.492L223.475 147.764C223.299 146.41 222.191 145.391 220.293 145.391C218.518 145.391 217.41 146.182 217.41 147.395V147.412C217.41 148.379 218.061 149.012 219.959 149.416L223.158 150.102C227.096 150.928 228.713 152.475 228.713 155.252V155.27C228.713 158.961 225.32 161.387 220.469 161.387ZM244.988 161.299C241.209 161.299 238.66 158.926 238.66 155.604V155.568C238.66 152.141 241.314 150.137 245.99 149.838L250.648 149.557V148.396C250.648 146.727 249.559 145.689 247.555 145.689C245.639 145.689 244.479 146.586 244.232 147.799L244.197 147.957H239.504L239.521 147.746C239.803 144.266 242.791 141.77 247.766 141.77C252.635 141.77 255.781 144.283 255.781 148.08V161H250.648V158.188H250.543C249.471 160.121 247.467 161.299 244.988 161.299ZM243.74 155.34C243.74 156.729 244.883 157.555 246.658 157.555C248.961 157.555 250.648 156.078 250.648 154.109V152.756L246.764 153.002C244.777 153.125 243.74 153.969 243.74 155.305V155.34ZM259.727 161V135.635H264.859V161H259.727ZM268.945 161V135.635H274.078V161H268.945ZM34.2832 204.387C28.5352 204.387 24.9844 200.643 24.9844 194.561V194.543C24.9844 188.514 28.5879 184.77 34.2305 184.77C39.3457 184.77 42.5977 187.916 42.791 191.994V192.117H38.0273L37.9922 191.959C37.6758 190.166 36.4277 188.795 34.3008 188.795C31.7871 188.795 30.2051 190.957 30.2051 194.561V194.578C30.2051 198.27 31.7871 200.361 34.3184 200.361C36.375 200.361 37.6582 199.096 38.0098 197.197L38.0273 197.039H42.8086V197.145C42.5625 201.258 39.3105 204.387 34.2832 204.387ZM52.2031 204.387C48.0547 204.387 45.6992 201.732 45.6992 197.32V185.156H50.832V196.248C50.832 198.709 51.9922 200.133 54.2949 200.133C56.5977 200.133 58.0566 198.445 58.0566 195.984V185.156H63.1895V204H58.0566V200.889H57.9512C56.9844 203.051 55.0508 204.387 52.2031 204.387ZM67.0293 204V185.156H72.1621V188.443H72.2676C72.8301 186.123 74.3594 184.77 76.5566 184.77C77.1191 184.77 77.6465 184.857 78.0332 184.963V189.48C77.6113 189.305 76.9082 189.199 76.1699 189.199C73.6387 189.199 72.1621 190.711 72.1621 193.453V204H67.0293ZM80.6426 204V185.156H85.7754V188.443H85.8809C86.4434 186.123 87.9727 184.77 90.1699 184.77C90.7324 184.77 91.2598 184.857 91.6465 184.963V189.48C91.2246 189.305 90.5215 189.199 89.7832 189.199C87.252 189.199 85.7754 190.711 85.7754 193.453V204H80.6426ZM102.201 204.387C96.4355 204.387 92.9375 200.643 92.9375 194.613V194.596C92.9375 188.602 96.4707 184.77 101.99 184.77C107.51 184.77 110.973 188.514 110.973 194.209V195.791H98C98.0527 198.797 99.6875 200.555 102.307 200.555C104.416 200.555 105.699 199.395 106.068 198.34L106.104 198.234H110.814L110.762 198.428C110.182 201.205 107.58 204.387 102.201 204.387ZM102.078 188.602C99.9688 188.602 98.3867 190.008 98.0527 192.557H106.051C105.734 189.955 104.205 188.602 102.078 188.602ZM114.127 204V185.156H119.26V188.25H119.365C120.332 186.088 122.266 184.77 125.113 184.77C129.262 184.77 131.617 187.424 131.617 191.836V204H126.484V192.891C126.484 190.43 125.324 189.023 123.021 189.023C120.719 189.023 119.26 190.711 119.26 193.172V204H114.127ZM143.982 204.387C138.234 204.387 134.684 200.643 134.684 194.561V194.543C134.684 188.514 138.287 184.77 143.93 184.77C149.045 184.77 152.297 187.916 152.49 191.994V192.117H147.727L147.691 191.959C147.375 190.166 146.127 188.795 144 188.795C141.486 188.795 139.904 190.957 139.904 194.561V194.578C139.904 198.27 141.486 200.361 144.018 200.361C146.074 200.361 147.357 199.096 147.709 197.197L147.727 197.039H152.508V197.145C152.262 201.258 149.01 204.387 143.982 204.387ZM158.158 182.73C156.611 182.73 155.416 181.518 155.416 180.059C155.416 178.6 156.611 177.387 158.158 177.387C159.705 177.387 160.9 178.6 160.9 180.059C160.9 181.518 159.705 182.73 158.158 182.73ZM155.592 204V185.156H160.725V204H155.592ZM173.248 204.387C167.482 204.387 163.984 200.643 163.984 194.613V194.596C163.984 188.602 167.518 184.77 173.037 184.77C178.557 184.77 182.02 188.514 182.02 194.209V195.791H169.047C169.1 198.797 170.734 200.555 173.354 200.555C175.463 200.555 176.746 199.395 177.115 198.34L177.15 198.234H181.861L181.809 198.428C181.229 201.205 178.627 204.387 173.248 204.387ZM173.125 188.602C171.016 188.602 169.434 190.008 169.1 192.557H177.098C176.781 189.955 175.252 188.602 173.125 188.602ZM192.926 204.387C187.705 204.387 184.805 201.979 184.4 198.41L184.383 198.252H189.393L189.428 198.41C189.762 199.887 190.869 200.748 192.926 200.748C194.859 200.748 196.037 199.992 196.037 198.779V198.762C196.037 197.76 195.404 197.18 193.559 196.775L190.359 196.107C186.703 195.334 184.857 193.506 184.857 190.693V190.676C184.857 187.09 187.951 184.77 192.75 184.77C197.76 184.77 200.555 187.424 200.678 190.729V190.904H195.949L195.932 190.764C195.756 189.41 194.648 188.391 192.75 188.391C190.975 188.391 189.867 189.182 189.867 190.395V190.412C189.867 191.379 190.518 192.012 192.416 192.416L195.615 193.102C199.553 193.928 201.17 195.475 201.17 198.252V198.27C201.17 201.961 197.777 204.387 192.926 204.387Z" fill="white"/>
<rect x="14" y="269" width="359" height="437" rx="17" fill="white"/>
<g clip-path="url(#clip0_1617_33290)">
<rect x="23" y="281" width="343" height="70" rx="15" fill="black"/>
<path d="M41.0987 309.273C38.2706 309.273 36.5284 307.594 36.5284 305.117V297.727H38.2784V304.984C38.2784 306.617 39.3019 307.727 41.0987 307.727C42.8956 307.727 43.9112 306.617 43.9112 304.984V297.727H45.6612V305.117C45.6612 307.594 43.9347 309.273 41.0987 309.273ZM48.8178 309.117C48.1694 309.117 47.6694 308.617 47.6694 307.984C47.6694 307.344 48.1694 306.844 48.8178 306.844C49.4662 306.844 49.9584 307.344 49.9584 307.984C49.9584 308.617 49.4662 309.117 48.8178 309.117ZM56.2478 309.273C53.7009 309.273 52.0681 307.984 51.9119 306.086L51.9041 305.984H53.6228L53.6306 306.07C53.7244 307.094 54.8103 307.75 56.3181 307.75C57.7556 307.75 58.7791 307.031 58.7791 305.984V305.977C58.7791 305.109 58.1697 304.547 56.6775 304.227L55.4431 303.961C53.1541 303.477 52.1697 302.414 52.1697 300.75V300.742C52.1775 298.797 53.865 297.453 56.2556 297.453C58.6462 297.453 60.2087 298.805 60.3337 300.555L60.3416 300.664H58.6462L58.6306 300.562C58.4822 299.641 57.5994 298.969 56.2322 298.977C54.9119 298.977 53.9353 299.594 53.9353 300.656V300.664C53.9353 301.5 54.5291 302.047 55.99 302.359L57.2166 302.633C59.5837 303.141 60.5525 304.094 60.5525 305.766V305.773C60.5525 307.93 58.8728 309.273 56.2478 309.273ZM66.5922 309V297.727H70.6625C74.0062 297.727 75.9672 299.789 75.9672 303.328V303.344C75.9672 306.922 74.0219 309 70.6625 309H66.5922ZM68.3422 307.492H70.4672C72.8266 307.492 74.1859 305.984 74.1859 303.367V303.352C74.1859 300.758 72.8031 299.234 70.4672 299.234H68.3422V307.492ZM81.4206 309.164C78.9284 309.164 77.405 307.5 77.405 304.766V304.75C77.405 302.023 78.9362 300.352 81.4206 300.352C83.8972 300.352 85.4284 302.016 85.4284 304.75V304.766C85.4284 307.5 83.905 309.164 81.4206 309.164ZM81.4206 307.75C82.8737 307.75 83.7019 306.641 83.7019 304.766V304.75C83.7019 302.867 82.8737 301.766 81.4206 301.766C79.9597 301.766 79.1394 302.867 79.1394 304.75V304.766C79.1394 306.648 79.9597 307.75 81.4206 307.75ZM87.21 309V297.188H88.9053V309H87.21ZM91.1869 309V297.188H92.8822V309H91.1869ZM97.4137 309.141C95.7966 309.141 94.6012 308.156 94.6012 306.617V306.602C94.6012 305.086 95.7419 304.203 97.7653 304.078L100.062 303.945V303.195C100.062 302.266 99.4762 301.75 98.3278 301.75C97.3903 301.75 96.7731 302.094 96.57 302.695L96.5622 302.727H94.9294L94.9372 302.672C95.1403 301.281 96.4762 300.352 98.4059 300.352C100.539 300.352 101.742 301.414 101.742 303.195V309H100.062V307.797H99.9294C99.4294 308.656 98.5387 309.141 97.4137 309.141ZM96.2887 306.547C96.2887 307.328 96.9528 307.789 97.8669 307.789C99.1325 307.789 100.062 306.961 100.062 305.867V305.141L97.9919 305.273C96.82 305.344 96.2887 305.766 96.2887 306.531V306.547ZM103.812 309V300.516H105.508V301.797H105.633C105.938 300.898 106.727 300.367 107.859 300.367C108.133 300.367 108.43 300.406 108.602 300.445V302.008C108.297 301.945 108.008 301.906 107.688 301.906C106.391 301.906 105.508 302.703 105.508 303.93V309H103.812Z" fill="white"/>
<path d="M39.6909 332.199C37.5933 332.199 36.3277 330.934 36.3277 329.094V323.545H37.3823V329.023C37.3823 330.324 38.2261 331.227 39.6909 331.227C41.1558 331.227 41.9878 330.324 41.9878 329.023V323.545H43.0425V329.094C43.0425 330.934 41.7886 332.199 39.6909 332.199ZM47.7185 332.199C45.867 332.199 44.6716 331.227 44.5486 329.85L44.5427 329.785H45.5974L45.6033 329.85C45.6795 330.693 46.5584 331.227 47.7771 331.227C48.9255 331.227 49.7634 330.635 49.7634 329.773V329.768C49.7634 329.064 49.2771 328.584 48.117 328.326L47.1795 328.121C45.4861 327.746 44.7537 326.967 44.7537 325.742V325.736C44.7595 324.336 45.9841 323.346 47.7302 323.346C49.4177 323.346 50.5955 324.342 50.6834 325.602L50.6892 325.684H49.6345L49.6228 325.607C49.5056 324.863 48.8025 324.312 47.7009 324.318C46.6462 324.324 45.8318 324.822 45.8318 325.707V325.713C45.8318 326.387 46.2947 326.844 47.4431 327.096L48.3806 327.307C50.1443 327.699 50.8416 328.408 50.8416 329.627V329.633C50.8416 331.215 49.6052 332.199 47.7185 332.199ZM52.3594 332V323.545H55.2598C57.7676 323.545 59.25 325.109 59.25 327.764V327.775C59.25 330.436 57.7734 332 55.2598 332H52.3594ZM53.4141 331.051H55.1895C57.0762 331.051 58.1719 329.844 58.1719 327.787V327.775C58.1719 325.713 57.0645 324.494 55.1895 324.494H53.4141V331.051Z" fill="white"/>
<path d="M153.225 329.95L151.5 328.357V332.5C151.5 333.052 151.948 333.5 152.5 333.5H234.5C235.052 333.5 235.5 333.052 235.5 332.5V316.571L234.174 320.977C234.114 321.178 233.992 321.354 233.826 321.482L232.721 322.332C232.154 322.768 231.326 322.485 231.144 321.793L229.453 315.353C229.337 314.914 228.94 314.607 228.486 314.607H227.774C227.312 314.607 226.91 314.291 226.802 313.841L226.09 310.886C225.899 310.09 224.838 309.926 224.416 310.628C224.25 310.903 223.952 311.071 223.631 311.071H220.073C219.778 311.071 219.498 310.941 219.308 310.716L218.699 309.992C218.211 309.414 217.284 309.565 217.005 310.267L215.648 313.682C215.289 314.585 213.983 314.497 213.748 313.554L211.741 305.497C211.69 305.29 211.574 305.105 211.41 304.969L209.205 303.138C208.965 302.939 208.646 302.863 208.342 302.933L206.186 303.43C205.736 303.534 205.273 303.316 205.067 302.903L203.751 300.271C203.384 299.537 202.338 299.533 201.965 300.264L200.207 303.713C199.906 304.304 199.055 304.283 198.783 303.679C198.499 303.052 197.605 303.062 197.335 303.696L196.236 306.282C195.876 307.13 194.658 307.081 194.367 306.208L192.833 301.606C192.521 300.67 191.185 300.704 190.921 301.655L189.163 307.982C189.043 308.415 188.649 308.714 188.199 308.714H187.722C187.278 308.714 186.887 309.007 186.762 309.433L183.332 321.121C183.3 321.23 183.25 321.333 183.183 321.425L179.501 326.522C179.118 327.053 178.336 327.078 177.919 326.573L176.949 325.398C176.667 325.056 176.193 324.941 175.786 325.114L173.309 326.169C172.984 326.308 172.756 326.608 172.709 326.959L172.33 329.845C172.265 330.342 171.841 330.714 171.339 330.714H169.672C169.315 330.714 168.985 330.524 168.806 330.215L166.513 326.247C166.138 325.598 165.207 325.577 164.804 326.21L162.168 330.346C161.804 330.917 160.99 330.969 160.556 330.449L158 327.382C157.582 326.881 156.804 326.908 156.422 327.437L154.714 329.8C154.363 330.286 153.666 330.356 153.225 329.95Z" fill="url(#paint0_linear_1617_33290)"/>
<path d="M151.5 328.357L153.225 329.95C153.666 330.356 154.363 330.286 154.714 329.8L156.422 327.437C156.804 326.908 157.582 326.881 158 327.382L160.556 330.449C160.99 330.969 161.804 330.917 162.168 330.346L164.804 326.21C165.207 325.577 166.138 325.598 166.513 326.247L168.806 330.215C168.985 330.524 169.315 330.714 169.672 330.714H171.339C171.841 330.714 172.265 330.342 172.33 329.845L172.709 326.959C172.756 326.608 172.984 326.308 173.309 326.169L175.786 325.114C176.193 324.941 176.667 325.056 176.949 325.398L177.919 326.573C178.336 327.078 179.118 327.053 179.501 326.522L183.183 321.425C183.25 321.333 183.3 321.23 183.332 321.121L186.762 309.433C186.887 309.007 187.278 308.714 187.722 308.714H188.199C188.649 308.714 189.043 308.415 189.163 307.982L190.921 301.655C191.185 300.704 192.521 300.67 192.833 301.606L194.367 306.208C194.658 307.081 195.876 307.13 196.236 306.282L197.335 303.696C197.605 303.062 198.499 303.052 198.783 303.679V303.679C199.055 304.283 199.906 304.304 200.207 303.713L201.965 300.264C202.338 299.533 203.384 299.537 203.751 300.271L205.067 302.903C205.273 303.316 205.736 303.534 206.186 303.43L208.342 302.933C208.646 302.863 208.965 302.939 209.205 303.138L211.41 304.969C211.574 305.105 211.69 305.29 211.741 305.497L213.748 313.554C213.983 314.497 215.289 314.585 215.648 313.682L217.005 310.267C217.284 309.565 218.211 309.414 218.699 309.992L219.308 310.716C219.498 310.941 219.778 311.071 220.073 311.071H223.631C223.952 311.071 224.25 310.903 224.416 310.628V310.628C224.838 309.926 225.899 310.09 226.09 310.886L226.802 313.841C226.91 314.291 227.312 314.607 227.774 314.607H228.486C228.94 314.607 229.337 314.914 229.453 315.353L231.144 321.793C231.326 322.485 232.154 322.768 232.721 322.332L233.78 321.517C233.974 321.368 234.107 321.153 234.153 320.913L235 316.5" stroke="#40BF6A" stroke-linecap="round"/>
<path d="M284.391 308H286.078V305.758H287.633V304.273H286.078V296.727H283.586C282.031 299.062 280.375 301.727 278.891 304.273V305.758H284.391V308ZM280.57 304.305V304.195C281.727 302.219 283.102 300.023 284.312 298.203H284.414V304.305H280.57ZM290.242 308H292.078L296.984 298.242V296.727H289.305V298.203H295.211V298.328L290.242 308ZM297.031 310.93H298.227L299.523 306.344H297.719L297.031 310.93ZM307.156 308H308.844V305.758H310.398V304.273H308.844V296.727H306.352C304.797 299.062 303.141 301.727 301.656 304.273V305.758H307.156V308ZM303.336 304.305V304.195C304.492 302.219 305.867 300.023 307.078 298.203H307.18V304.305H303.336ZM315.117 308H316.867V296.727H315.117L312.148 298.836V300.555L314.984 298.531H315.117V308ZM320.062 308H327.656V306.508H322.445V306.352L324.836 303.969C326.883 301.938 327.477 300.953 327.477 299.672V299.648C327.477 297.789 325.93 296.453 323.828 296.453C321.562 296.453 319.969 297.906 319.961 299.969L319.977 299.984H321.617L321.625 299.961C321.625 298.727 322.469 297.898 323.734 297.898C324.969 297.898 325.727 298.711 325.727 299.812V299.836C325.727 300.75 325.297 301.328 323.805 302.883L320.062 306.812V308ZM331.055 308.117C331.703 308.117 332.195 307.617 332.195 306.984C332.195 306.344 331.703 305.844 331.055 305.844C330.406 305.844 329.906 306.344 329.906 306.984C329.906 307.617 330.406 308.117 331.055 308.117ZM338.289 308.273C340.656 308.273 342.367 306.617 342.367 304.352V304.336C342.367 302.18 340.828 300.586 338.68 300.586C337.141 300.586 336.125 301.391 335.711 302.297H335.562C335.562 302.211 335.562 302.125 335.57 302.039C335.656 299.789 336.445 297.938 338.344 297.938C339.406 297.938 340.141 298.484 340.453 299.344L340.484 299.422H342.219L342.203 299.328C341.828 297.625 340.344 296.453 338.352 296.453C335.562 296.453 333.898 298.703 333.898 302.516V302.531C333.898 306.68 336.023 308.273 338.289 308.273ZM335.906 304.352V304.344C335.906 302.984 336.938 302 338.289 302C339.656 302 340.641 303 340.641 304.383V304.398C340.641 305.75 339.594 306.805 338.273 306.805C336.945 306.805 335.906 305.727 335.906 304.352ZM348.5 308.273C350.875 308.273 352.547 306.68 352.547 304.367V304.352C352.547 302.188 351.031 300.609 348.914 300.609C347.875 300.609 346.992 301.047 346.516 301.805H346.383L346.727 298.211H351.906V296.727H345.352L344.789 303.273H346.297C346.43 303.016 346.609 302.797 346.812 302.617C347.258 302.211 347.844 302.008 348.531 302.008C349.891 302.008 350.875 302.992 350.875 304.383V304.398C350.875 305.812 349.906 306.805 348.516 306.805C347.281 306.805 346.383 306.016 346.234 305.023L346.227 304.961H344.586L344.594 305.062C344.75 306.891 346.281 308.273 348.5 308.273Z" fill="white"/>
<path d="M308.22 332.5H311.78C313.993 332.5 314.893 330.933 313.793 329.02L313.3 328.166C313.18 327.96 312.96 327.833 312.72 327.833H307.28C307.04 327.833 306.82 327.96 306.7 328.166L306.207 329.02C305.107 330.933 306.007 332.5 308.22 332.5Z" fill="#40BF6A"/>
<path opacity="0.4" d="M307.86 327.166H312.147C312.407 327.166 312.567 326.886 312.433 326.666L312.007 325.933C310.907 324.02 309.093 324.02 307.993 325.933L307.567 326.666C307.44 326.886 307.6 327.166 307.86 327.166Z" fill="#40BF6A"/>
<path d="M320.964 330.07H323.589V332.754H324.538V330.07H327.163V329.121H324.538V326.438H323.589V329.121H320.964V330.07ZM330.615 333H331.669V324.545H330.62L328.37 326.162V327.275L330.521 325.717H330.615V333ZM334.417 333.059C334.839 333.059 335.179 332.713 335.179 332.297C335.179 331.875 334.839 331.535 334.417 331.535C334.001 331.535 333.656 331.875 333.656 332.297C333.656 332.713 334.001 333.059 334.417 333.059ZM339.422 333.199C341.127 333.199 342.381 331.975 342.381 330.287V330.275C342.381 328.652 341.197 327.445 339.609 327.445C338.467 327.445 337.67 328.061 337.359 328.752H337.248C337.248 328.688 337.248 328.617 337.254 328.553C337.318 326.789 337.945 325.289 339.48 325.289C340.336 325.289 340.927 325.729 341.185 326.438L341.209 326.502H342.269L342.252 326.426C341.965 325.178 340.91 324.346 339.492 324.346C337.441 324.346 336.24 326.033 336.24 328.916V328.928C336.24 332.109 337.875 333.199 339.422 333.199ZM337.5 330.275V330.27C337.5 329.168 338.332 328.365 339.427 328.365C340.523 328.365 341.32 329.174 341.32 330.299V330.311C341.32 331.406 340.47 332.268 339.41 332.268C338.338 332.268 337.5 331.389 337.5 330.275ZM345.41 328.992C346.488 328.992 347.145 328.113 347.145 326.713V326.707C347.145 325.307 346.488 324.434 345.41 324.434C344.332 324.434 343.682 325.307 343.682 326.707V326.713C343.682 328.113 344.332 328.992 345.41 328.992ZM346.043 333L351.797 324.545H350.848L345.094 333H346.043ZM345.41 328.295C344.83 328.295 344.496 327.703 344.496 326.713V326.707C344.496 325.717 344.83 325.131 345.41 325.131C345.99 325.131 346.33 325.717 346.33 326.707V326.713C346.33 327.703 345.99 328.295 345.41 328.295ZM351.469 333.111C352.547 333.111 353.203 332.232 353.203 330.832V330.826C353.203 329.426 352.547 328.553 351.469 328.553C350.391 328.553 349.74 329.426 349.74 330.826V330.832C349.74 332.232 350.391 333.111 351.469 333.111ZM351.469 332.414C350.889 332.414 350.555 331.822 350.555 330.832V330.826C350.555 329.836 350.889 329.25 351.469 329.25C352.049 329.25 352.389 329.836 352.389 330.826V330.832C352.389 331.822 352.049 332.414 351.469 332.414Z" fill="#40BF6A"/>
<rect x="23" y="367" width="343" height="68" rx="15" fill="black"/>
<path d="M37.2803 394V382.727H44.4366V384.234H39.0303V387.531H44.1475V388.984H39.0303V392.492H44.4366V394H37.2803ZM49.2806 394.164C47.3666 394.164 46.3744 393.016 46.3744 391.008V385.516H48.0697V390.609C48.0697 392.016 48.5853 392.711 49.8275 392.711C51.1869 392.711 51.9134 391.859 51.9134 390.492V385.516H53.6009V394H51.9134V392.719H51.7806C51.3744 393.633 50.515 394.164 49.2806 394.164ZM55.7262 394V385.516H57.4216V386.797H57.5466C57.8512 385.898 58.6403 385.367 59.7731 385.367C60.0466 385.367 60.3434 385.406 60.5153 385.445V387.008C60.2106 386.945 59.9216 386.906 59.6012 386.906C58.3044 386.906 57.4216 387.703 57.4216 388.93V394H55.7262ZM65.1875 394.164C62.6953 394.164 61.1719 392.5 61.1719 389.766V389.75C61.1719 387.023 62.7031 385.352 65.1875 385.352C67.6641 385.352 69.1953 387.016 69.1953 389.75V389.766C69.1953 392.5 67.6719 394.164 65.1875 394.164ZM65.1875 392.75C66.6406 392.75 67.4688 391.641 67.4688 389.766V389.75C67.4688 387.867 66.6406 386.766 65.1875 386.766C63.7266 386.766 62.9062 387.867 62.9062 389.75V389.766C62.9062 391.648 63.7266 392.75 65.1875 392.75Z" fill="white"/>
<path d="M36.7222 417V408.545H41.9605V409.494H37.7769V412.207H41.7437V413.145H37.7769V416.051H41.9605V417H36.7222ZM46.9822 417.199C44.8845 417.199 43.6189 415.934 43.6189 414.094V408.545H44.6736V414.023C44.6736 415.324 45.5173 416.227 46.9822 416.227C48.447 416.227 49.2791 415.324 49.2791 414.023V408.545H50.3337V414.094C50.3337 415.934 49.0798 417.199 46.9822 417.199ZM52.2383 417V408.545H55.4668C57.0957 408.545 58.1621 409.541 58.1621 411.059V411.07C58.1621 412.242 57.5234 413.156 56.4629 413.49L58.4199 417H57.1836L55.373 413.654H53.293V417H52.2383ZM53.293 412.717H55.373C56.457 412.717 57.0723 412.137 57.0723 411.105V411.094C57.0723 410.086 56.416 409.482 55.3262 409.482H53.293V412.717Z" fill="white"/>
<path d="M142.842 415.135H140V419.75C140 420.302 140.448 420.75 141 420.75H223C223.552 420.75 224 420.302 224 419.75V385.245L221.5 383.75L219.439 382.101C219.166 381.883 218.8 381.823 218.472 381.942L213.711 383.673C213.572 383.724 213.446 383.804 213.342 383.91L210.662 386.617C210.367 386.915 209.917 386.997 209.536 386.823L207.112 385.718C206.562 385.467 205.917 385.758 205.74 386.337L203.553 393.518C203.318 394.287 202.318 394.479 201.815 393.851L200.012 391.596C199.731 391.245 199.183 391.3 198.977 391.7C198.803 392.038 198.369 392.141 198.061 391.917L197.501 391.508C197.019 391.156 196.339 391.302 196.043 391.82L194.41 394.679C194.189 395.066 193.738 395.26 193.305 395.155L191.89 394.811C191.371 394.684 190.845 394.988 190.695 395.5L188.026 404.583C187.94 404.876 187.725 405.114 187.443 405.228L184.1 406.583C183.632 406.772 183.096 406.584 182.85 406.143L180.86 402.569C180.472 401.871 179.462 401.888 179.097 402.598L178.594 403.578C178.479 403.802 178.283 403.974 178.047 404.06L175.79 404.883C175.506 404.987 175.285 405.213 175.187 405.498L173.72 409.777C173.613 410.09 173.358 410.33 173.038 410.417L169.78 411.308C169.567 411.367 169.379 411.494 169.246 411.671L167.372 414.156C166.991 414.661 166.242 414.69 165.824 414.215L164.905 413.172C164.575 412.798 164.019 412.724 163.603 412.999L158.495 416.375C158.152 416.601 157.706 416.595 157.369 416.359L156.208 415.545C155.857 415.3 155.39 415.304 155.044 415.556L153.837 416.437C153.665 416.562 153.459 416.629 153.247 416.629H149.891C149.625 416.629 149.37 416.523 149.183 416.335L146.176 413.32C145.752 412.894 145.051 412.936 144.681 413.409L143.63 414.751C143.44 414.993 143.15 415.135 142.842 415.135Z" fill="url(#paint1_linear_1617_33290)"/>
<path d="M140.5 415.135H142.842C143.15 415.135 143.44 414.993 143.63 414.751L144.681 413.409C145.051 412.936 145.752 412.894 146.176 413.32L149.183 416.335C149.37 416.523 149.625 416.629 149.891 416.629H153.247C153.459 416.629 153.665 416.562 153.837 416.437L154.885 415.672C155.303 415.368 155.883 415.431 156.225 415.819L157.29 417.027C157.645 417.431 158.256 417.481 158.673 417.141L163.583 413.129C164 412.788 164.611 412.839 164.966 413.242L165.824 414.215C166.242 414.69 166.991 414.661 167.372 414.156L169.246 411.671C169.379 411.494 169.567 411.367 169.78 411.308L173.038 410.417C173.358 410.33 173.613 410.09 173.72 409.777L175.187 405.498C175.285 405.213 175.506 404.987 175.79 404.883L178.047 404.06C178.283 403.974 178.479 403.802 178.594 403.578L179.097 402.598C179.462 401.888 180.472 401.871 180.86 402.569L182.85 406.143C183.096 406.584 183.632 406.772 184.1 406.583L187.443 405.228C187.725 405.114 187.94 404.876 188.026 404.583L190.695 395.5C190.845 394.988 191.371 394.684 191.89 394.811L193.305 395.155C193.738 395.26 194.189 395.066 194.41 394.679L196.043 391.82C196.339 391.302 197.019 391.156 197.501 391.508L198.061 391.917C198.369 392.141 198.803 392.038 198.977 391.7V391.7C199.183 391.3 199.732 391.245 200.012 391.596L201.815 393.851C202.318 394.479 203.318 394.287 203.553 393.518L205.741 386.337C205.917 385.758 206.562 385.467 207.112 385.718L209.536 386.823C209.917 386.997 210.367 386.915 210.662 386.617L213.371 383.881C213.456 383.794 213.557 383.724 213.667 383.674L218.408 381.519C218.768 381.355 219.19 381.419 219.486 381.681L223.5 385.245" stroke="#DF2040" stroke-linecap="round"/>
<path d="M308.977 394H310.727V382.727H308.977L306.008 384.836V386.555L308.844 384.531H308.977V394ZM314.82 394.117C315.469 394.117 315.961 393.617 315.961 392.984C315.961 392.344 315.469 391.844 314.82 391.844C314.172 391.844 313.672 392.344 313.672 392.984C313.672 393.617 314.172 394.117 314.82 394.117ZM320.742 394H322.492V382.727H320.742L317.773 384.836V386.555L320.609 384.531H320.742V394ZM328.445 394H330.195V382.727H328.445L325.477 384.836V386.555L328.312 384.531H328.445V394ZM337.438 394.211C339.945 394.211 341.711 392.867 341.711 390.953V390.938C341.711 389.516 340.688 388.383 339.211 388.062V388.023C340.477 387.664 341.297 386.719 341.297 385.523V385.508C341.297 383.781 339.688 382.516 337.438 382.516C335.195 382.516 333.578 383.781 333.578 385.508V385.523C333.578 386.719 334.406 387.664 335.672 388.023V388.062C334.195 388.383 333.172 389.516 333.172 390.938V390.953C333.172 392.867 334.938 394.211 337.438 394.211ZM337.438 387.438C336.18 387.438 335.312 386.703 335.312 385.672V385.656C335.312 384.625 336.18 383.906 337.438 383.906C338.695 383.906 339.562 384.625 339.562 385.656V385.672C339.562 386.703 338.703 387.438 337.438 387.438ZM337.438 392.805C336 392.805 334.977 391.984 334.977 390.844V390.828C334.977 389.672 335.992 388.836 337.438 388.836C338.891 388.836 339.906 389.672 339.906 390.828V390.844C339.906 391.984 338.883 392.805 337.438 392.805ZM349.109 394H350.797V391.758H352.352V390.273H350.797V382.727H348.305C346.75 385.062 345.094 387.727 343.609 390.273V391.758H349.109V394ZM345.289 390.305V390.195C346.445 388.219 347.82 386.023 349.031 384.203H349.133V390.305H345.289Z" fill="white"/>
<path d="M300.22 408.5H303.78C305.993 408.5 306.893 410.067 305.793 411.98L305.3 412.833C305.18 413.04 304.96 413.167 304.72 413.167H299.28C299.04 413.167 298.82 413.04 298.7 412.833L298.207 411.98C297.107 410.067 298.007 408.5 300.22 408.5Z" fill="#DF2040"/>
<path opacity="0.4" d="M299.86 413.833H304.147C304.407 413.833 304.567 414.113 304.433 414.333L304.007 415.066C302.907 416.98 301.093 416.98 299.993 415.066L299.567 414.333C299.44 414.113 299.6 413.833 299.86 413.833Z" fill="#DF2040"/>
<path d="M313.745 414.07H317.682V413.121H313.745V414.07ZM322.077 417.199C323.946 417.199 325.071 415.494 325.071 412.775V412.764C325.071 410.045 323.946 408.346 322.077 408.346C320.208 408.346 319.095 410.045 319.095 412.764V412.775C319.095 415.494 320.208 417.199 322.077 417.199ZM322.077 416.279C320.864 416.279 320.155 414.932 320.155 412.775V412.764C320.155 410.607 320.864 409.271 322.077 409.271C323.29 409.271 324.011 410.607 324.011 412.764V412.775C324.011 414.932 323.29 416.279 322.077 416.279ZM326.935 417.059C327.357 417.059 327.697 416.713 327.697 416.297C327.697 415.875 327.357 415.535 326.935 415.535C326.519 415.535 326.173 415.875 326.173 416.297C326.173 416.713 326.519 417.059 326.935 417.059ZM331.898 417.141C333.691 417.141 334.968 416.133 334.968 414.715V414.703C334.968 413.66 334.236 412.793 333.152 412.541V412.518C334.078 412.23 334.664 411.527 334.664 410.637V410.625C334.664 409.348 333.498 408.404 331.898 408.404C330.298 408.404 329.132 409.348 329.132 410.625V410.637C329.132 411.527 329.718 412.23 330.644 412.518V412.541C329.56 412.793 328.828 413.66 328.828 414.703V414.715C328.828 416.133 330.105 417.141 331.898 417.141ZM331.898 412.125C330.878 412.125 330.181 411.545 330.181 410.725V410.713C330.181 409.893 330.878 409.312 331.898 409.312C332.917 409.312 333.615 409.893 333.615 410.713V410.725C333.615 411.545 332.917 412.125 331.898 412.125ZM331.898 416.221C330.732 416.221 329.9 415.564 329.9 414.65V414.639C329.9 413.713 330.726 413.051 331.898 413.051C333.07 413.051 333.896 413.713 333.896 414.639V414.65C333.896 415.564 333.064 416.221 331.898 416.221ZM339.422 417.199C341.127 417.199 342.381 415.975 342.381 414.287V414.275C342.381 412.652 341.197 411.445 339.609 411.445C338.467 411.445 337.67 412.061 337.359 412.752H337.248C337.248 412.688 337.248 412.617 337.254 412.553C337.318 410.789 337.945 409.289 339.48 409.289C340.336 409.289 340.928 409.729 341.185 410.438L341.209 410.502H342.269L342.252 410.426C341.965 409.178 340.91 408.346 339.492 408.346C337.441 408.346 336.24 410.033 336.24 412.916V412.928C336.24 416.109 337.875 417.199 339.422 417.199ZM337.5 414.275V414.27C337.5 413.168 338.332 412.365 339.428 412.365C340.523 412.365 341.32 413.174 341.32 414.299V414.311C341.32 415.406 340.47 416.268 339.41 416.268C338.338 416.268 337.5 415.389 337.5 414.275ZM345.41 412.992C346.488 412.992 347.145 412.113 347.145 410.713V410.707C347.145 409.307 346.488 408.434 345.41 408.434C344.332 408.434 343.682 409.307 343.682 410.707V410.713C343.682 412.113 344.332 412.992 345.41 412.992ZM346.043 417L351.797 408.545H350.848L345.094 417H346.043ZM345.41 412.295C344.83 412.295 344.496 411.703 344.496 410.713V410.707C344.496 409.717 344.83 409.131 345.41 409.131C345.99 409.131 346.33 409.717 346.33 410.707V410.713C346.33 411.703 345.99 412.295 345.41 412.295ZM351.469 417.111C352.547 417.111 353.203 416.232 353.203 414.832V414.826C353.203 413.426 352.547 412.553 351.469 412.553C350.391 412.553 349.74 413.426 349.74 414.826V414.832C349.74 416.232 350.391 417.111 351.469 417.111ZM351.469 416.414C350.889 416.414 350.555 415.822 350.555 414.832V414.826C350.555 413.836 350.889 413.25 351.469 413.25C352.049 413.25 352.389 413.836 352.389 414.826V414.832C352.389 415.822 352.049 416.414 351.469 416.414Z" fill="#DF2040"/>
<rect x="23" y="451" width="343" height="70" rx="15" fill="black"/>
<path d="M36.7018 480V467.317H41.7995C44.1813 467.317 45.6139 468.53 45.6139 470.473V470.49C45.6139 471.809 44.6384 472.995 43.3903 473.206V473.355C45.1042 473.54 46.2468 474.753 46.2468 476.405V476.423C46.2468 478.646 44.6208 480 41.9137 480H36.7018ZM41.3425 468.926H38.6706V472.714H41.0085C42.7487 472.714 43.654 472.063 43.654 470.833V470.815C43.654 469.62 42.8014 468.926 41.3425 468.926ZM41.404 474.217H38.6706V478.392H41.5182C43.2936 478.392 44.2341 477.662 44.2341 476.3V476.282C44.2341 474.92 43.2585 474.217 41.404 474.217ZM48.1983 480V470.455H50.1055V471.896H50.2461C50.5889 470.886 51.4766 470.288 52.751 470.288C53.0586 470.288 53.3926 470.332 53.586 470.376V472.134C53.2432 472.063 52.918 472.02 52.5577 472.02C51.0987 472.02 50.1055 472.916 50.1055 474.296V480H48.1983ZM56.0385 468.75C55.3793 468.75 54.8432 468.214 54.8432 467.563C54.8432 466.904 55.3793 466.368 56.0385 466.368C56.6889 466.368 57.2338 466.904 57.2338 467.563C57.2338 468.214 56.6889 468.75 56.0385 468.75ZM55.0805 480V470.455H56.9789V480H55.0805ZM62.9998 480.062C60.8992 480.062 60.0379 479.323 60.0379 477.486V471.958H58.5437V470.455H60.0379V468.047H61.9802V470.455H64.0281V471.958H61.9802V477.029C61.9802 478.058 62.367 478.479 63.3074 478.479C63.5974 478.479 63.7644 478.471 64.0281 478.444V479.965C63.7205 480.018 63.3689 480.062 62.9998 480.062ZM66.8849 468.75C66.2257 468.75 65.6896 468.214 65.6896 467.563C65.6896 466.904 66.2257 466.368 66.8849 466.368C67.5353 466.368 68.0802 466.904 68.0802 467.563C68.0802 468.214 67.5353 468.75 66.8849 468.75ZM65.9269 480V470.455H67.8253V480H65.9269ZM73.7143 480.185C71.4116 480.185 69.9526 479.104 69.768 477.504V477.495H71.6753L71.6841 477.504C71.9214 478.225 72.6157 478.708 73.7495 478.708C74.9272 478.708 75.7446 478.172 75.7446 477.39V477.372C75.7446 476.774 75.2964 476.37 74.1889 476.115L72.6684 475.764C70.8667 475.351 70.0317 474.533 70.0317 473.136V473.127C70.0317 471.466 71.5786 470.271 73.7407 470.271C75.9204 470.271 77.3179 471.36 77.4848 472.916V472.925H75.6655V472.907C75.4809 472.239 74.8042 471.738 73.7319 471.738C72.686 471.738 71.9302 472.257 71.9302 473.021V473.039C71.9302 473.637 72.3696 474.006 73.4419 474.261L74.9536 474.604C76.7905 475.034 77.6694 475.816 77.6694 477.196V477.214C77.6694 478.98 75.9819 480.185 73.7143 480.185ZM79.6737 480V466.711H81.5809V471.905H81.7215C82.1873 470.886 83.1014 470.271 84.4901 470.271C86.6258 470.271 87.8036 471.545 87.8036 473.821V480H85.9051V474.27C85.9051 472.688 85.2459 471.905 83.8485 471.905C82.451 471.905 81.5809 472.863 81.5809 474.401V480H79.6737ZM94.8882 480V467.317H99.8277C102.315 467.317 104.038 468.987 104.038 471.475V471.492C104.038 473.971 102.315 475.667 99.8277 475.667H96.857V480H94.8882ZM99.3355 468.979H96.857V474.015H99.3355C101.041 474.015 102.034 473.092 102.034 471.501V471.483C102.034 469.901 101.041 468.979 99.3355 468.979ZM109.777 480.185C106.974 480.185 105.26 478.312 105.26 475.236V475.219C105.26 472.151 106.982 470.271 109.777 470.271C112.563 470.271 114.286 472.143 114.286 475.219V475.236C114.286 478.312 112.572 480.185 109.777 480.185ZM109.777 478.594C111.412 478.594 112.344 477.346 112.344 475.236V475.219C112.344 473.101 111.412 471.861 109.777 471.861C108.134 471.861 107.211 473.101 107.211 475.219V475.236C107.211 477.354 108.134 478.594 109.777 478.594ZM119.384 480.185C117.231 480.185 116.115 478.893 116.115 476.634V470.455H118.022V476.186C118.022 477.768 118.602 478.55 119.999 478.55C121.529 478.55 122.346 477.592 122.346 476.054V470.455H124.244V480H122.346V478.559H122.197C121.74 479.587 120.773 480.185 119.384 480.185ZM126.635 480V470.455H128.543V471.905H128.683C129.149 470.886 130.063 470.271 131.452 470.271C133.588 470.271 134.765 471.545 134.765 473.821V480H132.867V474.27C132.867 472.688 132.208 471.905 130.81 471.905C129.413 471.905 128.543 472.863 128.543 474.401V480H126.635ZM140.549 480.158C138.149 480.158 136.594 478.233 136.594 475.236V475.219C136.594 472.195 138.123 470.288 140.549 470.288C141.858 470.288 142.975 470.938 143.484 471.967H143.634V466.711H145.532V480H143.634V478.497H143.484C142.931 479.543 141.885 480.158 140.549 480.158ZM141.094 478.532C142.685 478.532 143.66 477.275 143.66 475.236V475.219C143.66 473.18 142.676 471.923 141.094 471.923C139.494 471.923 138.536 473.171 138.536 475.219V475.236C138.536 477.284 139.494 478.532 141.094 478.532Z" fill="white"/>
<path d="M40.5816 503.199C38.2437 503.199 36.7495 501.477 36.7495 498.775V498.764C36.7495 496.098 38.2671 494.346 40.5816 494.346C42.4566 494.346 43.7749 495.4 44.1089 497.006L44.1206 497.064H43.0542L43.0366 497.006C42.6909 495.916 41.8413 495.318 40.5816 495.318C38.9058 495.318 37.8277 496.666 37.8277 498.764V498.775C37.8277 500.902 38.8882 502.227 40.5874 502.227C42.0991 502.227 43.1187 501.26 43.1187 499.83V499.625H40.7456V498.699H44.1734V499.73C44.1734 501.816 42.7437 503.199 40.5816 503.199ZM45.8025 503V494.545H49.0369C50.5896 494.545 51.5388 495.359 51.5388 496.648V496.66C51.5388 497.533 50.8943 498.33 50.0798 498.477V498.57C51.2341 498.717 51.9666 499.508 51.9666 500.621V500.633C51.9666 502.115 50.9002 503 49.1013 503H45.8025ZM48.8142 495.477H46.8572V498.189H48.5447C49.822 498.189 50.4724 497.732 50.4724 496.842V496.83C50.4724 495.975 49.863 495.477 48.8142 495.477ZM48.8435 499.098H46.8572V502.068H48.9431C50.2146 502.068 50.8826 501.553 50.8826 500.58V500.568C50.8826 499.596 50.1912 499.098 48.8435 499.098ZM53.4492 503V494.545H56.6367C58.2246 494.545 59.3496 495.641 59.3496 497.246V497.258C59.3496 498.863 58.2246 499.982 56.6367 499.982H54.5039V503H53.4492ZM56.3672 495.482H54.5039V499.045H56.3672C57.5742 499.045 58.2715 498.383 58.2715 497.27V497.258C58.2715 496.145 57.5742 495.482 56.3672 495.482Z" fill="white"/>
<path d="M165.307 499.913H163V502.5C163 503.052 163.448 503.5 164 503.5H246C246.552 503.5 247 503.052 247 502.5V477L244.215 486.826C243.92 487.868 242.411 487.763 242.262 486.69L241.645 482.22C241.534 481.42 240.57 481.075 239.977 481.622L239.617 481.952C239.109 482.421 238.29 482.244 238.02 481.608L237.224 479.738C236.92 479.022 235.95 478.912 235.494 479.543L231.434 485.152C231.142 485.556 230.586 485.666 230.162 485.403C229.637 485.077 228.945 485.331 228.756 485.92L226.832 491.918C226.529 492.864 225.181 492.836 224.916 491.879L223.274 485.938C223.262 485.892 223.246 485.848 223.227 485.804L221.002 480.706C220.671 479.946 219.612 479.897 219.211 480.623L218.77 481.419C218.455 481.99 217.687 482.111 217.211 481.665L215.162 479.746C214.581 479.202 213.628 479.521 213.493 480.306L212.556 485.731C212.54 485.823 212.511 485.912 212.471 485.996L211.535 487.93C211.192 488.64 210.202 488.692 209.786 488.023L208.681 486.247C208.532 486.007 208.288 485.841 208.01 485.791L207.048 485.617C206.657 485.546 206.345 485.25 206.253 484.863L203.952 475.146C203.739 474.249 202.528 474.093 202.096 474.907L202.044 475.005C201.61 475.822 200.394 475.662 200.186 474.76L199.527 471.896C199.301 470.917 197.935 470.844 197.607 471.794L195.913 476.696C195.774 477.099 195.395 477.37 194.968 477.37H192.248C191.852 477.37 191.493 477.604 191.333 477.967L190.546 479.758C190.264 480.4 189.354 480.4 189.072 479.758C188.753 479.033 187.688 479.156 187.543 479.935L183.763 500.211C183.711 500.492 183.541 500.737 183.296 500.884L181.675 501.862C181.13 502.19 180.421 501.933 180.214 501.332L178.909 497.556C178.652 496.813 177.679 496.643 177.185 497.255L174.165 501.002C173.657 501.632 172.649 501.429 172.425 500.651L171.709 498.164C171.69 498.098 171.665 498.035 171.633 497.974L169.529 493.992C169.107 493.194 167.928 493.318 167.682 494.187L166.27 499.185C166.148 499.616 165.755 499.913 165.307 499.913Z" fill="url(#paint2_linear_1617_33290)"/>
<path d="M163 499.913H165.307C165.755 499.913 166.148 499.616 166.27 499.185L167.682 494.187C167.928 493.318 169.107 493.194 169.529 493.992L171.633 497.974C171.665 498.035 171.69 498.098 171.709 498.164L172.425 500.651C172.649 501.429 173.657 501.632 174.165 501.002L177.185 497.255C177.679 496.643 178.652 496.813 178.909 497.556L180.214 501.332C180.421 501.933 181.13 502.19 181.675 501.862L183.296 500.884C183.541 500.737 183.711 500.492 183.763 500.211L187.543 479.935C187.688 479.156 188.753 479.033 189.072 479.758V479.758C189.354 480.4 190.264 480.4 190.546 479.758L191.333 477.967C191.493 477.604 191.852 477.37 192.248 477.37H194.968C195.395 477.37 195.774 477.099 195.913 476.696L197.607 471.794C197.935 470.844 199.301 470.917 199.527 471.896L200.186 474.76C200.394 475.662 201.61 475.822 202.044 475.005L202.096 474.907C202.528 474.093 203.739 474.249 203.952 475.146L206.253 484.863C206.345 485.25 206.657 485.546 207.048 485.617L208.01 485.791C208.288 485.841 208.532 486.007 208.681 486.247L209.786 488.023C210.202 488.692 211.192 488.64 211.535 487.93L212.471 485.996C212.511 485.912 212.54 485.823 212.556 485.731L213.493 480.306C213.628 479.521 214.581 479.202 215.162 479.746L217.211 481.665C217.687 482.111 218.455 481.99 218.77 481.419L219.211 480.623C219.612 479.897 220.671 479.946 221.002 480.706L223.227 485.804C223.246 485.848 223.262 485.892 223.274 485.938L224.916 491.879C225.181 492.836 226.529 492.864 226.832 491.918L228.756 485.92C228.945 485.331 229.637 485.077 230.162 485.403V485.403C230.586 485.666 231.142 485.556 231.434 485.152L235.494 479.543C235.95 478.912 236.92 479.022 237.224 479.738L238.02 481.608C238.29 482.244 239.109 482.421 239.617 481.952L239.977 481.622C240.57 481.075 241.534 481.42 241.645 482.22L242.205 486.277C242.356 487.368 243.901 487.45 244.166 486.382L246.5 477" stroke="#40BF6A" stroke-linecap="round"/>
<path d="M309.474 480H311.442V467.317H309.474L306.134 469.69V471.624L309.324 469.348H309.474V480ZM319.722 480.308C322.385 480.308 324.31 478.444 324.31 475.896V475.878C324.31 473.452 322.578 471.659 320.161 471.659C318.43 471.659 317.287 472.564 316.821 473.584H316.654C316.654 473.487 316.654 473.391 316.663 473.294C316.76 470.763 317.647 468.68 319.783 468.68C320.979 468.68 321.805 469.295 322.156 470.262L322.191 470.35H324.143L324.125 470.244C323.703 468.328 322.033 467.01 319.792 467.01C316.654 467.01 314.782 469.541 314.782 473.83V473.848C314.782 478.515 317.173 480.308 319.722 480.308ZM317.041 475.896V475.887C317.041 474.357 318.201 473.25 319.722 473.25C321.26 473.25 322.367 474.375 322.367 475.931V475.948C322.367 477.469 321.189 478.655 319.704 478.655C318.21 478.655 317.041 477.442 317.041 475.896ZM331.156 467.01C328.493 467.01 326.56 468.873 326.56 471.422V471.439C326.56 473.865 328.3 475.658 330.717 475.658C332.439 475.658 333.591 474.753 334.048 473.733H334.224C334.224 473.83 334.215 473.927 334.215 474.023C334.118 476.555 333.222 478.638 331.086 478.638C329.899 478.638 329.073 478.022 328.713 477.056L328.687 476.968H326.727L326.753 477.073C327.166 478.989 328.836 480.308 331.086 480.308C334.224 480.308 336.096 477.776 336.096 473.479V473.461C336.096 468.803 333.696 467.01 331.156 467.01ZM331.147 474.067C329.618 474.067 328.502 472.942 328.502 471.387V471.369C328.502 469.849 329.688 468.662 331.174 468.662C332.668 468.662 333.837 469.875 333.837 471.422V471.431C333.837 472.96 332.668 474.067 331.147 474.067ZM339.269 480.132C339.998 480.132 340.552 479.569 340.552 478.857C340.552 478.137 339.998 477.574 339.269 477.574C338.539 477.574 337.977 478.137 337.977 478.857C337.977 479.569 338.539 480.132 339.269 480.132ZM347.407 480.308C350.07 480.308 351.995 478.444 351.995 475.896V475.878C351.995 473.452 350.264 471.659 347.847 471.659C346.115 471.659 344.973 472.564 344.507 473.584H344.34C344.34 473.487 344.34 473.391 344.349 473.294C344.445 470.763 345.333 468.68 347.469 468.68C348.664 468.68 349.49 469.295 349.842 470.262L349.877 470.35H351.828L351.811 470.244C351.389 468.328 349.719 467.01 347.478 467.01C344.34 467.01 342.468 469.541 342.468 473.83V473.848C342.468 478.515 344.858 480.308 347.407 480.308ZM344.727 475.896V475.887C344.727 474.357 345.887 473.25 347.407 473.25C348.945 473.25 350.053 474.375 350.053 475.931V475.948C350.053 477.469 348.875 478.655 347.39 478.655C345.896 478.655 344.727 477.442 344.727 475.896Z" fill="white"/>
<path d="M308.22 502.5H311.78C313.993 502.5 314.893 500.933 313.793 499.02L313.3 498.166C313.18 497.96 312.96 497.833 312.72 497.833H307.28C307.04 497.833 306.82 497.96 306.7 498.166L306.207 499.02C305.107 500.933 306.007 502.5 308.22 502.5Z" fill="#40BF6A"/>
<path opacity="0.4" d="M307.86 497.166H312.147C312.407 497.166 312.567 496.886 312.433 496.666L312.007 495.933C310.907 494.02 309.093 494.02 307.993 495.933L307.567 496.666C307.44 496.886 307.6 497.166 307.86 497.166Z" fill="#40BF6A"/>
<path d="M321.128 500.07H323.753V502.754H324.702V500.07H327.327V499.121H324.702V496.438H323.753V499.121H321.128V500.07ZM330.779 503H331.833V494.545H330.784L328.534 496.162V497.275L330.685 495.717H330.779V503ZM334.582 503.059C335.003 503.059 335.343 502.713 335.343 502.297C335.343 501.875 335.003 501.535 334.582 501.535C334.166 501.535 333.82 501.875 333.82 502.297C333.82 502.713 334.166 503.059 334.582 503.059ZM336.832 503H342.304V502.051H338.297V501.957L340.219 499.971C341.748 498.395 342.164 497.691 342.164 496.725V496.713C342.164 495.348 341.033 494.346 339.556 494.346C337.939 494.346 336.779 495.424 336.773 496.924L336.785 496.93L337.793 496.936L337.799 496.924C337.799 495.928 338.472 495.266 339.486 495.266C340.482 495.266 341.086 495.934 341.086 496.824V496.836C341.086 497.574 340.769 498.014 339.691 499.18L336.832 502.273V503ZM345.41 498.992C346.488 498.992 347.145 498.113 347.145 496.713V496.707C347.145 495.307 346.488 494.434 345.41 494.434C344.332 494.434 343.682 495.307 343.682 496.707V496.713C343.682 498.113 344.332 498.992 345.41 498.992ZM346.043 503L351.797 494.545H350.848L345.094 503H346.043ZM345.41 498.295C344.83 498.295 344.496 497.703 344.496 496.713V496.707C344.496 495.717 344.83 495.131 345.41 495.131C345.99 495.131 346.33 495.717 346.33 496.707V496.713C346.33 497.703 345.99 498.295 345.41 498.295ZM351.469 503.111C352.547 503.111 353.203 502.232 353.203 500.832V500.826C353.203 499.426 352.547 498.553 351.469 498.553C350.391 498.553 349.74 499.426 349.74 500.826V500.832C349.74 502.232 350.391 503.111 351.469 503.111ZM351.469 502.414C350.889 502.414 350.555 501.822 350.555 500.832V500.826C350.555 499.836 350.889 499.25 351.469 499.25C352.049 499.25 352.389 499.836 352.389 500.826V500.832C352.389 501.822 352.049 502.414 351.469 502.414Z" fill="#40BF6A"/>
<rect x="23" y="537" width="343" height="70" rx="15" fill="black"/>
<path d="M42.157 566.308C38.6326 566.308 36.4353 563.759 36.4353 559.672V559.654C36.4353 555.559 38.6238 553.01 42.1482 553.01C44.9431 553.01 47.0877 554.776 47.4216 557.299L47.4128 557.343H45.4617V557.316C45.0925 555.761 43.8181 554.75 42.1482 554.75C39.8718 554.75 38.448 556.64 38.448 559.654V559.672C38.448 562.678 39.8718 564.567 42.157 564.567C43.8357 564.567 45.0925 563.671 45.4529 562.238L45.4705 562.203H47.4216V562.256C47.0525 564.69 44.9871 566.308 42.157 566.308ZM49.6544 566V553.317H57.5734V555.014H51.6232V559.03H57.0724V560.691H51.6232V566H49.6544ZM58.145 566L62.7241 553.317H64.8511L69.4302 566H67.3559L66.2134 562.572H61.3618L60.2104 566H58.145ZM63.7085 555.541L61.8891 560.99H65.686L63.8579 555.541H63.7085ZM75.8381 566V553.317H83.757V555.014H77.8068V559.03H83.2561V560.691H77.8068V566H75.8381ZM85.7349 566V556.455H87.6421V557.896H87.7828C88.1255 556.886 89.0132 556.288 90.2877 556.288C90.5953 556.288 90.9293 556.332 91.1226 556.376V558.134C90.7798 558.063 90.4546 558.02 90.0943 558.02C88.6353 558.02 87.6421 558.916 87.6421 560.296V566H85.7349ZM95.1308 566.158C93.3114 566.158 91.9667 565.051 91.9667 563.319V563.302C91.9667 561.597 93.2499 560.604 95.5263 560.463L98.1103 560.313V559.47C98.1103 558.424 97.4511 557.844 96.1591 557.844C95.1044 557.844 94.4101 558.23 94.1816 558.907L94.1728 558.942H92.3359L92.3446 558.881C92.5732 557.316 94.0761 556.271 96.247 556.271C98.6464 556.271 99.9999 557.466 99.9999 559.47V566H98.1103V564.646H97.9609C97.3984 565.613 96.3964 566.158 95.1308 566.158ZM93.8652 563.24C93.8652 564.119 94.6122 564.638 95.6405 564.638C97.0644 564.638 98.1103 563.706 98.1103 562.476V561.658L95.7812 561.808C94.4628 561.887 93.8652 562.361 93.8652 563.223V563.24ZM102.329 566V556.455H104.237V557.905H104.377C104.843 556.886 105.757 556.271 107.146 556.271C109.282 556.271 110.459 557.545 110.459 559.821V566H108.561V560.27C108.561 558.688 107.902 557.905 106.504 557.905C105.107 557.905 104.237 558.863 104.237 560.401V566H102.329ZM116.779 566.185C113.993 566.185 112.288 564.286 112.288 561.201V561.184C112.288 558.16 113.984 556.271 116.77 556.271C119.17 556.271 120.602 557.624 120.866 559.479V559.522L119.038 559.531L119.029 559.505C118.818 558.564 118.045 557.861 116.779 557.861C115.188 557.861 114.23 559.127 114.23 561.184V561.201C114.23 563.311 115.206 564.594 116.779 564.594C117.974 564.594 118.713 564.049 119.02 563.021L119.038 562.977H120.866L120.848 563.056C120.506 564.91 119.143 566.185 116.779 566.185ZM126.14 566.185C123.837 566.185 122.378 565.104 122.193 563.504V563.495H124.101L124.109 563.504C124.347 564.225 125.041 564.708 126.175 564.708C127.353 564.708 128.17 564.172 128.17 563.39V563.372C128.17 562.774 127.722 562.37 126.614 562.115L125.094 561.764C123.292 561.351 122.457 560.533 122.457 559.136V559.127C122.457 557.466 124.004 556.271 126.166 556.271C128.346 556.271 129.743 557.36 129.91 558.916V558.925H128.091V558.907C127.906 558.239 127.229 557.738 126.157 557.738C125.111 557.738 124.355 558.257 124.355 559.021V559.039C124.355 559.637 124.795 560.006 125.867 560.261L127.379 560.604C129.216 561.034 130.095 561.816 130.095 563.196V563.214C130.095 564.98 128.407 566.185 126.14 566.185Z" fill="white"/>
<path d="M36.7981 589V580.545H41.9309V581.494H37.8528V584.4H41.597V585.338H37.8528V589H36.7981ZM46.8296 589.199C44.5327 589.199 43.0972 587.5 43.0972 584.781V584.77C43.0972 582.045 44.5269 580.346 46.8237 580.346C48.605 580.346 49.9937 581.465 50.2456 583.088L50.2398 583.1H49.1792L49.1734 583.088C48.8921 582.004 47.9898 581.318 46.8237 581.318C45.2007 581.318 44.1812 582.654 44.1812 584.77V584.781C44.1812 586.896 45.2007 588.227 46.8296 588.227C48.0073 588.227 48.9038 587.623 49.1675 586.65L49.1792 586.639H50.2456V586.65C49.9644 588.197 48.6284 589.199 46.8296 589.199ZM51.7752 589V580.545H56.908V581.494H52.8298V584.4H56.574V585.338H52.8298V589H51.7752ZM57.3184 589L60.4355 580.545H61.4785L64.5957 589H63.4883L62.6387 586.58H59.2754L58.4258 589H57.3184ZM60.9102 581.91L59.5859 585.684H62.3281L61.0039 581.91H60.9102Z" fill="white"/>
<path d="M153.225 585.95L151.5 584.357V588.5C151.5 589.052 151.948 589.5 152.5 589.5H234.5C235.052 589.5 235.5 589.052 235.5 588.5V578L234.352 577.422C234.175 577.333 234.029 577.194 233.932 577.022L232.544 574.578C232.515 574.526 232.481 574.477 232.443 574.431L229.557 570.967C229.367 570.739 229.085 570.607 228.788 570.607H227.774C227.312 570.607 226.91 570.291 226.802 569.841L226.09 566.886C225.899 566.09 224.838 565.926 224.416 566.628C224.25 566.903 223.952 567.071 223.631 567.071H220.073C219.778 567.071 219.498 566.941 219.308 566.716L218.699 565.992C218.211 565.414 217.284 565.565 217.005 566.267L215.648 569.682C215.289 570.585 213.983 570.497 213.748 569.554L211.741 561.497C211.69 561.29 211.574 561.105 211.41 560.969L209.205 559.138C208.965 558.939 208.646 558.863 208.342 558.933L206.186 559.43C205.736 559.534 205.273 559.316 205.067 558.903L203.751 556.271C203.384 555.537 202.338 555.533 201.965 556.264L200.207 559.713C199.906 560.304 199.055 560.283 198.783 559.679C198.499 559.052 197.605 559.062 197.335 559.696L196.236 562.282C195.876 563.13 194.658 563.081 194.367 562.208L192.833 557.606C192.521 556.67 191.185 556.704 190.921 557.655L189.163 563.982C189.043 564.415 188.649 564.714 188.199 564.714H187.722C187.278 564.714 186.887 565.007 186.762 565.433L183.332 577.121C183.3 577.23 183.25 577.333 183.183 577.425L179.501 582.522C179.118 583.053 178.336 583.078 177.919 582.573L176.949 581.398C176.667 581.056 176.193 580.941 175.786 581.114L173.309 582.169C172.984 582.308 172.756 582.608 172.709 582.959L172.33 585.845C172.265 586.342 171.841 586.714 171.339 586.714H169.672C169.315 586.714 168.985 586.524 168.806 586.215L166.513 582.247C166.138 581.598 165.207 581.577 164.804 582.21L162.168 586.346C161.804 586.917 160.99 586.969 160.556 586.449L158 583.382C157.582 582.881 156.804 582.908 156.422 583.437L154.714 585.8C154.363 586.286 153.666 586.356 153.225 585.95Z" fill="url(#paint3_linear_1617_33290)"/>
<path d="M151.5 584.357L153.225 585.95C153.666 586.356 154.363 586.286 154.714 585.8L156.422 583.437C156.804 582.908 157.582 582.881 158 583.382L160.556 586.449C160.99 586.969 161.804 586.917 162.168 586.346L164.804 582.21C165.207 581.577 166.138 581.598 166.513 582.247L168.806 586.215C168.985 586.524 169.315 586.714 169.672 586.714H171.339C171.841 586.714 172.265 586.342 172.33 585.845L172.709 582.959C172.756 582.608 172.984 582.308 173.309 582.169L175.786 581.114C176.193 580.941 176.667 581.056 176.949 581.398L177.919 582.573C178.336 583.078 179.118 583.053 179.501 582.522L183.183 577.425C183.25 577.333 183.3 577.23 183.332 577.121L186.762 565.433C186.887 565.007 187.278 564.714 187.722 564.714H188.199C188.649 564.714 189.043 564.415 189.163 563.982L190.921 557.655C191.185 556.704 192.521 556.67 192.833 557.606L194.367 562.208C194.658 563.081 195.876 563.13 196.236 562.282L197.335 559.696C197.605 559.062 198.499 559.052 198.783 559.679V559.679C199.055 560.283 199.906 560.304 200.207 559.713L201.965 556.264C202.338 555.533 203.384 555.537 203.751 556.271L205.067 558.903C205.273 559.316 205.736 559.534 206.186 559.43L208.342 558.933C208.646 558.863 208.965 558.939 209.205 559.138L211.41 560.969C211.574 561.105 211.69 561.29 211.741 561.497L213.748 569.554C213.983 570.497 215.289 570.585 215.648 569.682L217.005 566.267C217.284 565.565 218.211 565.414 218.699 565.992L219.308 566.716C219.498 566.941 219.778 567.071 220.073 567.071H223.631C223.952 567.071 224.25 566.903 224.416 566.628V566.628C224.838 565.926 225.899 566.09 226.09 566.886L226.802 569.841C226.91 570.291 227.312 570.607 227.774 570.607H228.767C229.076 570.607 229.368 570.75 229.557 570.994L235 578" stroke="#DF2040" stroke-linecap="round"/>
<path d="M301.474 566H303.442V553.317H301.474L298.134 555.69V557.624L301.324 555.348H301.474V566ZM310.14 566H312.108V553.317H310.14L306.8 555.69V557.624L309.99 555.348H310.14V566ZM320.045 553.01C317.382 553.01 315.448 554.873 315.448 557.422V557.439C315.448 559.865 317.188 561.658 319.605 561.658C321.328 561.658 322.479 560.753 322.937 559.733H323.112C323.112 559.83 323.104 559.927 323.104 560.023C323.007 562.555 322.11 564.638 319.975 564.638C318.788 564.638 317.962 564.022 317.602 563.056L317.575 562.968H315.615L315.642 563.073C316.055 564.989 317.725 566.308 319.975 566.308C323.112 566.308 324.984 563.776 324.984 559.479V559.461C324.984 554.803 322.585 553.01 320.045 553.01ZM320.036 560.067C318.507 560.067 317.391 558.942 317.391 557.387V557.369C317.391 555.849 318.577 554.662 320.062 554.662C321.557 554.662 322.726 555.875 322.726 557.422V557.431C322.726 558.96 321.557 560.067 320.036 560.067ZM328.157 566.132C328.887 566.132 329.44 565.569 329.44 564.857C329.44 564.137 328.887 563.574 328.157 563.574C327.428 563.574 326.865 564.137 326.865 564.857C326.865 565.569 327.428 566.132 328.157 566.132ZM336.296 566.308C338.959 566.308 340.884 564.444 340.884 561.896V561.878C340.884 559.452 339.152 557.659 336.735 557.659C335.004 557.659 333.861 558.564 333.396 559.584H333.229C333.229 559.487 333.229 559.391 333.237 559.294C333.334 556.763 334.222 554.68 336.357 554.68C337.553 554.68 338.379 555.295 338.73 556.262L338.766 556.35H340.717L340.699 556.244C340.277 554.328 338.607 553.01 336.366 553.01C333.229 553.01 331.356 555.541 331.356 559.83V559.848C331.356 564.515 333.747 566.308 336.296 566.308ZM333.615 561.896V561.887C333.615 560.357 334.775 559.25 336.296 559.25C337.834 559.25 338.941 560.375 338.941 561.931V561.948C338.941 563.469 337.764 564.655 336.278 564.655C334.784 564.655 333.615 563.442 333.615 561.896ZM347.73 553.01C345.067 553.01 343.134 554.873 343.134 557.422V557.439C343.134 559.865 344.874 561.658 347.291 561.658C349.014 561.658 350.165 560.753 350.622 559.733H350.798C350.798 559.83 350.789 559.927 350.789 560.023C350.692 562.555 349.796 564.638 347.66 564.638C346.474 564.638 345.647 564.022 345.287 563.056L345.261 562.968H343.301L343.327 563.073C343.74 564.989 345.41 566.308 347.66 566.308C350.798 566.308 352.67 563.776 352.67 559.479V559.461C352.67 554.803 350.271 553.01 347.73 553.01ZM347.722 560.067C346.192 560.067 345.076 558.942 345.076 557.387V557.369C345.076 555.849 346.263 554.662 347.748 554.662C349.242 554.662 350.411 555.875 350.411 557.422V557.431C350.411 558.96 349.242 560.067 347.722 560.067Z" fill="white"/>
<path d="M308.22 580.5H311.78C313.993 580.5 314.893 582.067 313.793 583.98L313.3 584.833C313.18 585.04 312.96 585.167 312.72 585.167H307.28C307.04 585.167 306.82 585.04 306.7 584.833L306.207 583.98C305.107 582.067 306.007 580.5 308.22 580.5Z" fill="#DF2040"/>
<path opacity="0.4" d="M307.86 585.833H312.147C312.407 585.833 312.567 586.113 312.433 586.333L312.007 587.066C310.907 588.98 309.093 588.98 307.993 587.066L307.567 586.333C307.44 586.113 307.6 585.833 307.86 585.833Z" fill="#DF2040"/>
<path d="M321.228 586.07H325.165V585.121H321.228V586.07ZM329.56 589.199C331.429 589.199 332.554 587.494 332.554 584.775V584.764C332.554 582.045 331.429 580.346 329.56 580.346C327.691 580.346 326.577 582.045 326.577 584.764V584.775C326.577 587.494 327.691 589.199 329.56 589.199ZM329.56 588.279C328.347 588.279 327.638 586.932 327.638 584.775V584.764C327.638 582.607 328.347 581.271 329.56 581.271C330.773 581.271 331.493 582.607 331.493 584.764V584.775C331.493 586.932 330.773 588.279 329.56 588.279ZM334.417 589.059C334.839 589.059 335.179 588.713 335.179 588.297C335.179 587.875 334.839 587.535 334.417 587.535C334.001 587.535 333.656 587.875 333.656 588.297C333.656 588.713 334.001 589.059 334.417 589.059ZM339.422 589.199C341.127 589.199 342.381 587.975 342.381 586.287V586.275C342.381 584.652 341.197 583.445 339.609 583.445C338.467 583.445 337.67 584.061 337.359 584.752H337.248C337.248 584.688 337.248 584.617 337.254 584.553C337.318 582.789 337.945 581.289 339.48 581.289C340.336 581.289 340.927 581.729 341.185 582.438L341.209 582.502H342.269L342.252 582.426C341.965 581.178 340.91 580.346 339.492 580.346C337.441 580.346 336.24 582.033 336.24 584.916V584.928C336.24 588.109 337.875 589.199 339.422 589.199ZM337.5 586.275V586.27C337.5 585.168 338.332 584.365 339.427 584.365C340.523 584.365 341.32 585.174 341.32 586.299V586.311C341.32 587.406 340.47 588.268 339.41 588.268C338.338 588.268 337.5 587.389 337.5 586.275ZM345.41 584.992C346.488 584.992 347.145 584.113 347.145 582.713V582.707C347.145 581.307 346.488 580.434 345.41 580.434C344.332 580.434 343.682 581.307 343.682 582.707V582.713C343.682 584.113 344.332 584.992 345.41 584.992ZM346.043 589L351.797 580.545H350.848L345.094 589H346.043ZM345.41 584.295C344.83 584.295 344.496 583.703 344.496 582.713V582.707C344.496 581.717 344.83 581.131 345.41 581.131C345.99 581.131 346.33 581.717 346.33 582.707V582.713C346.33 583.703 345.99 584.295 345.41 584.295ZM351.469 589.111C352.547 589.111 353.203 588.232 353.203 586.832V586.826C353.203 585.426 352.547 584.553 351.469 584.553C350.391 584.553 349.74 585.426 349.74 586.826V586.832C349.74 588.232 350.391 589.111 351.469 589.111ZM351.469 588.414C350.889 588.414 350.555 587.822 350.555 586.832V586.826C350.555 585.836 350.889 585.25 351.469 585.25C352.049 585.25 352.389 585.836 352.389 586.826V586.832C352.389 587.822 352.049 588.414 351.469 588.414Z" fill="#DF2040"/>
<rect x="23" y="623" width="343" height="70" rx="15" fill="black"/>
<path d="M36.2014 652L40.7805 639.317H42.9075L47.4866 652H45.4123L44.2698 648.572H39.4182L38.2668 652H36.2014ZM41.7649 641.541L39.9455 646.99H43.7424L41.9143 641.541H41.7649ZM51.8199 652.185C49.6666 652.185 48.5504 650.893 48.5504 648.634V642.455H50.4576V648.186C50.4576 649.768 51.0377 650.55 52.4352 650.55C53.9644 650.55 54.7818 649.592 54.7818 648.054V642.455H56.6803V652H54.7818V650.559H54.6324C54.1754 651.587 53.2086 652.185 51.8199 652.185ZM62.5429 652.185C60.2402 652.185 58.7812 651.104 58.5966 649.504V649.495H60.5039L60.5127 649.504C60.75 650.225 61.4443 650.708 62.5781 650.708C63.7558 650.708 64.5732 650.172 64.5732 649.39V649.372C64.5732 648.774 64.125 648.37 63.0175 648.115L61.497 647.764C59.6953 647.351 58.8603 646.533 58.8603 645.136V645.127C58.8603 643.466 60.4072 642.271 62.5693 642.271C64.749 642.271 66.1464 643.36 66.3134 644.916V644.925H64.4941V644.907C64.3095 644.239 63.6328 643.738 62.5605 643.738C61.5146 643.738 60.7587 644.257 60.7587 645.021V645.039C60.7587 645.637 61.1982 646.006 62.2705 646.261L63.7822 646.604C65.6191 647.034 66.498 647.816 66.498 649.196V649.214C66.498 650.98 64.8105 652.185 62.5429 652.185ZM71.9476 652.062C69.847 652.062 68.9857 651.323 68.9857 649.486V643.958H67.4915V642.455H68.9857V640.047H70.928V642.455H72.9759V643.958H70.928V649.029C70.928 650.058 71.3148 650.479 72.2552 650.479C72.5452 650.479 72.7122 650.471 72.9759 650.444V651.965C72.6683 652.018 72.3167 652.062 71.9476 652.062ZM74.8395 652V642.455H76.7468V643.896H76.8874C77.2302 642.886 78.1178 642.288 79.3923 642.288C79.6999 642.288 80.0339 642.332 80.2272 642.376V644.134C79.8844 644.063 79.5593 644.02 79.1989 644.02C77.7399 644.02 76.7468 644.916 76.7468 646.296V652H74.8395ZM84.2354 652.158C82.416 652.158 81.0713 651.051 81.0713 649.319V649.302C81.0713 647.597 82.3545 646.604 84.6309 646.463L87.2149 646.313V645.47C87.2149 644.424 86.5557 643.844 85.2637 643.844C84.209 643.844 83.5147 644.23 83.2862 644.907L83.2774 644.942H81.4405L81.4493 644.881C81.6778 643.316 83.1807 642.271 85.3516 642.271C87.751 642.271 89.1045 643.466 89.1045 645.47V652H87.2149V650.646H87.0655C86.503 651.613 85.501 652.158 84.2354 652.158ZM82.9698 649.24C82.9698 650.119 83.7168 650.638 84.7452 650.638C86.169 650.638 87.2149 649.706 87.2149 648.476V647.658L84.8858 647.808C83.5674 647.887 82.9698 648.361 82.9698 649.223V649.24ZM91.5219 652V638.711H93.4291V652H91.5219ZM96.9011 640.75C96.2419 640.75 95.7058 640.214 95.7058 639.563C95.7058 638.904 96.2419 638.368 96.9011 638.368C97.5515 638.368 98.0964 638.904 98.0964 639.563C98.0964 640.214 97.5515 640.75 96.9011 640.75ZM95.9431 652V642.455H97.8416V652H95.9431ZM102.878 652.158C101.059 652.158 99.714 651.051 99.714 649.319V649.302C99.714 647.597 100.997 646.604 103.274 646.463L105.858 646.313V645.47C105.858 644.424 105.198 643.844 103.906 643.844C102.852 643.844 102.157 644.23 101.929 644.907L101.92 644.942H100.083L100.092 644.881C100.32 643.316 101.823 642.271 103.994 642.271C106.394 642.271 107.747 643.466 107.747 645.47V652H105.858V650.646H105.708C105.146 651.613 104.144 652.158 102.878 652.158ZM101.612 649.24C101.612 650.119 102.359 650.638 103.388 650.638C104.812 650.638 105.858 649.706 105.858 648.476V647.658L103.528 647.808C102.21 647.887 101.612 648.361 101.612 649.223V649.24ZM110.077 652V642.455H111.984V643.905H112.124C112.59 642.886 113.504 642.271 114.893 642.271C117.029 642.271 118.207 643.545 118.207 645.821V652H116.308V646.27C116.308 644.688 115.649 643.905 114.251 643.905C112.854 643.905 111.984 644.863 111.984 646.401V652H110.077ZM125.291 652V639.317H129.87C133.632 639.317 135.838 641.638 135.838 645.619V645.637C135.838 649.662 133.65 652 129.87 652H125.291ZM127.26 650.304H129.651C132.305 650.304 133.834 648.607 133.834 645.663V645.646C133.834 642.728 132.279 641.014 129.651 641.014H127.26V650.304ZM141.973 652.185C139.169 652.185 137.456 650.312 137.456 647.236V647.219C137.456 644.151 139.178 642.271 141.973 642.271C144.759 642.271 146.482 644.143 146.482 647.219V647.236C146.482 650.312 144.768 652.185 141.973 652.185ZM141.973 650.594C143.608 650.594 144.54 649.346 144.54 647.236V647.219C144.54 645.101 143.608 643.861 141.973 643.861C140.33 643.861 139.407 645.101 139.407 647.219V647.236C139.407 649.354 140.33 650.594 141.973 650.594ZM148.486 652V638.711H150.393V652H148.486ZM152.96 652V638.711H154.867V652H152.96ZM159.965 652.158C158.146 652.158 156.801 651.051 156.801 649.319V649.302C156.801 647.597 158.085 646.604 160.361 646.463L162.945 646.313V645.47C162.945 644.424 162.286 643.844 160.994 643.844C159.939 643.844 159.245 644.23 159.016 644.907L159.007 644.942H157.171L157.179 644.881C157.408 643.316 158.911 642.271 161.082 642.271C163.481 642.271 164.835 643.466 164.835 645.47V652H162.945V650.646H162.796C162.233 651.613 161.231 652.158 159.965 652.158ZM158.7 649.24C158.7 650.119 159.447 650.638 160.475 650.638C161.899 650.638 162.945 649.706 162.945 648.476V647.658L160.616 647.808C159.297 647.887 158.7 648.361 158.7 649.223V649.24ZM167.164 652V642.455H169.071V643.896H169.212C169.555 642.886 170.442 642.288 171.717 642.288C172.024 642.288 172.358 642.332 172.552 642.376V644.134C172.209 644.063 171.884 644.02 171.523 644.02C170.064 644.02 169.071 644.916 169.071 646.296V652H167.164Z" fill="white"/>
<path d="M35.4077 675L38.5249 666.545H39.5679L42.6851 675H41.5777L40.728 672.58H37.3648L36.5152 675H35.4077ZM38.9995 667.91L37.6753 671.684H40.4175L39.0933 667.91H38.9995ZM47.1033 675.199C45.0056 675.199 43.74 673.934 43.74 672.094V666.545H44.7947V672.023C44.7947 673.324 45.6384 674.227 47.1033 674.227C48.5681 674.227 49.4002 673.324 49.4002 672.023V666.545H50.4548V672.094C50.4548 673.934 49.2009 675.199 47.1033 675.199ZM52.3594 675V666.545H55.2598C57.7676 666.545 59.25 668.109 59.25 670.764V670.775C59.25 673.436 57.7734 675 55.2598 675H52.3594ZM53.4141 674.051H55.1895C57.0762 674.051 58.1719 672.844 58.1719 670.787V670.775C58.1719 668.713 57.0645 667.494 55.1895 667.494H53.4141V674.051Z" fill="white"/>
<path d="M178.225 671.95L176.5 670.357V674.5C176.5 675.052 176.948 675.5 177.5 675.5H259.5C260.052 675.5 260.5 675.052 260.5 674.5V664V662.5V660V648.662C260.5 647.953 259.782 647.469 259.125 647.735L256 649L250.928 650.6C250.696 650.674 250.498 650.83 250.372 651.038L249.44 652.587C249.259 652.888 248.934 653.071 248.583 653.071H245.073C244.778 653.071 244.498 652.941 244.308 652.716L243.699 651.992C243.211 651.414 242.284 651.565 242.005 652.267L240.648 655.682C240.289 656.585 238.983 656.497 238.748 655.554L236.741 647.497C236.69 647.29 236.574 647.105 236.41 646.969L234.205 645.138C233.965 644.939 233.646 644.863 233.342 644.933L231.186 645.43C230.736 645.534 230.273 645.316 230.067 644.903L228.751 642.271C228.384 641.537 227.338 641.533 226.965 642.264L225.207 645.713C224.906 646.304 224.055 646.283 223.783 645.679C223.499 645.052 222.605 645.062 222.335 645.696L221.236 648.282C220.876 649.13 219.658 649.081 219.367 648.208L217.833 643.606C217.521 642.67 216.185 642.704 215.921 643.655L214.163 649.982C214.043 650.415 213.649 650.714 213.199 650.714H212.722C212.278 650.714 211.887 651.007 211.762 651.433L208.332 663.121C208.3 663.23 208.25 663.333 208.183 663.425L204.501 668.522C204.118 669.053 203.336 669.078 202.919 668.573L201.949 667.398C201.667 667.056 201.193 666.941 200.786 667.114L198.309 668.169C197.984 668.308 197.756 668.608 197.709 668.959L197.33 671.845C197.265 672.342 196.841 672.714 196.339 672.714H194.672C194.315 672.714 193.985 672.524 193.806 672.215L191.513 668.247C191.138 667.598 190.207 667.577 189.804 668.21L187.168 672.346C186.804 672.917 185.99 672.969 185.556 672.449L183 669.382C182.582 668.881 181.804 668.908 181.422 669.437L179.714 671.8C179.363 672.286 178.666 672.356 178.225 671.95Z" fill="url(#paint4_linear_1617_33290)"/>
<path d="M176.5 670.357L178.225 671.95C178.666 672.356 179.363 672.286 179.714 671.8L181.422 669.437C181.804 668.908 182.582 668.881 183 669.382L185.556 672.449C185.99 672.969 186.804 672.917 187.168 672.346L189.804 668.21C190.207 667.577 191.138 667.598 191.513 668.247L193.806 672.215C193.985 672.524 194.315 672.714 194.672 672.714H196.339C196.841 672.714 197.265 672.342 197.33 671.845L197.709 668.959C197.756 668.608 197.984 668.308 198.309 668.169L200.786 667.114C201.193 666.941 201.667 667.056 201.949 667.398L202.919 668.573C203.336 669.078 204.118 669.053 204.501 668.522L208.183 663.425C208.25 663.333 208.3 663.23 208.332 663.121L211.762 651.433C211.887 651.007 212.278 650.714 212.722 650.714H213.199C213.649 650.714 214.043 650.415 214.163 649.982L215.921 643.655C216.185 642.704 217.521 642.67 217.833 643.606L219.367 648.208C219.658 649.081 220.876 649.13 221.236 648.282L222.335 645.696C222.605 645.062 223.499 645.052 223.783 645.679V645.679C224.055 646.283 224.906 646.304 225.207 645.713L226.965 642.264C227.338 641.533 228.384 641.537 228.751 642.271L230.067 644.903C230.273 645.316 230.736 645.534 231.186 645.43L233.342 644.933C233.646 644.863 233.965 644.939 234.205 645.138L236.41 646.969C236.574 647.105 236.69 647.29 236.741 647.497L238.748 655.554C238.983 656.497 240.289 656.585 240.648 655.682L242.005 652.267C242.284 651.565 243.211 651.414 243.699 651.992L244.308 652.716C244.498 652.941 244.778 653.071 245.073 653.071H248.583C248.934 653.071 249.259 652.888 249.44 652.587L250.375 651.035C250.499 650.828 250.694 650.673 250.923 650.599L260.5 647.5" stroke="#40BF6A" stroke-linecap="round"/>
<path d="M298.189 652H300.088V649.478H301.837V647.808H300.088V639.317H297.284C295.535 641.945 293.672 644.942 292.002 647.808V649.478H298.189V652ZM293.892 647.843V647.72C295.192 645.496 296.739 643.026 298.102 640.979H298.216V647.843H293.892ZM308.921 652.308C311.584 652.308 313.509 650.444 313.509 647.896V647.878C313.509 645.452 311.777 643.659 309.36 643.659C307.629 643.659 306.486 644.564 306.021 645.584H305.854C305.854 645.487 305.854 645.391 305.862 645.294C305.959 642.763 306.847 640.68 308.982 640.68C310.178 640.68 311.004 641.295 311.355 642.262L311.391 642.35H313.342L313.324 642.244C312.902 640.328 311.232 639.01 308.991 639.01C305.854 639.01 303.981 641.541 303.981 645.83V645.848C303.981 650.515 306.372 652.308 308.921 652.308ZM306.24 647.896V647.887C306.24 646.357 307.4 645.25 308.921 645.25C310.459 645.25 311.566 646.375 311.566 647.931V647.948C311.566 649.469 310.389 650.655 308.903 650.655C307.409 650.655 306.24 649.442 306.24 647.896ZM320.408 652.308C323.08 652.308 324.961 650.515 324.961 647.913V647.896C324.961 645.461 323.256 643.686 320.874 643.686C319.705 643.686 318.712 644.178 318.176 645.03H318.026L318.413 640.987H324.24V639.317H316.866L316.233 646.683H317.93C318.079 646.393 318.281 646.146 318.51 645.944C319.011 645.487 319.67 645.259 320.443 645.259C321.973 645.259 323.08 646.366 323.08 647.931V647.948C323.08 649.539 321.99 650.655 320.426 650.655C319.037 650.655 318.026 649.768 317.859 648.651L317.851 648.581H316.005L316.014 648.695C316.189 650.752 317.912 652.308 320.408 652.308ZM328.257 652.132C328.986 652.132 329.54 651.569 329.54 650.857C329.54 650.137 328.986 649.574 328.257 649.574C327.527 649.574 326.965 650.137 326.965 650.857C326.965 651.569 327.527 652.132 328.257 652.132ZM336.404 652.237C339.094 652.237 341.001 650.673 341.001 648.493V648.476C341.001 646.7 339.753 645.575 337.89 645.408V645.364C339.437 645.039 340.562 643.984 340.562 642.411V642.394C340.562 640.434 338.909 639.08 336.387 639.08C333.908 639.08 332.221 640.495 332.027 642.631L332.019 642.728H333.864L333.873 642.64C333.996 641.444 334.98 640.697 336.387 640.697C337.819 640.697 338.646 641.418 338.646 642.648V642.666C338.646 643.844 337.661 644.696 336.211 644.696H334.726V646.226H336.272C337.96 646.226 338.997 647.025 338.997 648.458V648.476C338.997 649.724 337.951 650.594 336.404 650.594C334.831 650.594 333.768 649.785 333.645 648.634L333.636 648.546H331.755L331.764 648.651C331.931 650.752 333.697 652.237 336.404 652.237ZM347.971 652.237C350.66 652.237 352.567 650.673 352.567 648.493V648.476C352.567 646.7 351.319 645.575 349.456 645.408V645.364C351.003 645.039 352.128 643.984 352.128 642.411V642.394C352.128 640.434 350.476 639.08 347.953 639.08C345.475 639.08 343.787 640.495 343.594 642.631L343.585 642.728H345.431L345.439 642.64C345.562 641.444 346.547 640.697 347.953 640.697C349.386 640.697 350.212 641.418 350.212 642.648V642.666C350.212 643.844 349.228 644.696 347.777 644.696H346.292V646.226H347.839C349.526 646.226 350.563 647.025 350.563 648.458V648.476C350.563 649.724 349.518 650.594 347.971 650.594C346.397 650.594 345.334 649.785 345.211 648.634L345.202 648.546H343.321L343.33 648.651C343.497 650.752 345.264 652.237 347.971 652.237Z" fill="white"/>
<path d="M299.22 674.5H302.78C304.993 674.5 305.893 672.933 304.793 671.02L304.3 670.166C304.18 669.96 303.96 669.833 303.72 669.833H298.28C298.04 669.833 297.82 669.96 297.7 670.166L297.207 671.02C296.107 672.933 297.007 674.5 299.22 674.5Z" fill="#40BF6A"/>
<path opacity="0.4" d="M298.86 669.166H303.147C303.407 669.166 303.567 668.886 303.433 668.666L303.007 667.933C301.907 666.02 300.093 666.02 298.993 667.933L298.567 668.666C298.44 668.886 298.6 669.166 298.86 669.166Z" fill="#40BF6A"/>
<path d="M311.77 672.07H314.395V674.754H315.345V672.07H317.97V671.121H315.345V668.438H314.395V671.121H311.77V672.07ZM322.183 675.199C324.052 675.199 325.177 673.494 325.177 670.775V670.764C325.177 668.045 324.052 666.346 322.183 666.346C320.314 666.346 319.2 668.045 319.2 670.764V670.775C319.2 673.494 320.314 675.199 322.183 675.199ZM322.183 674.279C320.97 674.279 320.261 672.932 320.261 670.775V670.764C320.261 668.607 320.97 667.271 322.183 667.271C323.396 667.271 324.116 668.607 324.116 670.764V670.775C324.116 672.932 323.396 674.279 322.183 674.279ZM327.04 675.059C327.462 675.059 327.802 674.713 327.802 674.297C327.802 673.875 327.462 673.535 327.04 673.535C326.624 673.535 326.279 673.875 326.279 674.297C326.279 674.713 326.624 675.059 327.04 675.059ZM333.035 675H334.066V673.248H335.267V672.305H334.066V666.545H332.537C331.353 668.309 330.058 670.371 328.916 672.287V673.248H333.035V675ZM329.994 672.311V672.24C330.914 670.688 332.021 668.941 332.97 667.523H333.041V672.311H329.994ZM339.433 675.199C341.15 675.199 342.375 674.01 342.375 672.305V672.293C342.375 670.658 341.232 669.469 339.644 669.469C338.877 669.469 338.215 669.779 337.84 670.348H337.746L338.033 667.488H341.906V666.545H337.201L336.756 671.402H337.67C337.775 671.203 337.91 671.039 338.056 670.898C338.42 670.553 338.9 670.383 339.463 670.383C340.558 670.383 341.344 671.186 341.344 672.311V672.322C341.344 673.465 340.57 674.268 339.445 674.268C338.455 674.268 337.722 673.623 337.623 672.814L337.617 672.768H336.603L336.609 672.832C336.732 674.186 337.857 675.199 339.433 675.199ZM345.41 670.992C346.488 670.992 347.145 670.113 347.145 668.713V668.707C347.145 667.307 346.488 666.434 345.41 666.434C344.332 666.434 343.682 667.307 343.682 668.707V668.713C343.682 670.113 344.332 670.992 345.41 670.992ZM346.043 675L351.797 666.545H350.848L345.094 675H346.043ZM345.41 670.295C344.83 670.295 344.496 669.703 344.496 668.713V668.707C344.496 667.717 344.83 667.131 345.41 667.131C345.99 667.131 346.33 667.717 346.33 668.707V668.713C346.33 669.703 345.99 670.295 345.41 670.295ZM351.469 675.111C352.547 675.111 353.203 674.232 353.203 672.832V672.826C353.203 671.426 352.547 670.553 351.469 670.553C350.391 670.553 349.74 671.426 349.74 672.826V672.832C349.74 674.232 350.391 675.111 351.469 675.111ZM351.469 674.414C350.889 674.414 350.555 673.822 350.555 672.832V672.826C350.555 671.836 350.889 671.25 351.469 671.25C352.049 671.25 352.389 671.836 352.389 672.826V672.832C352.389 673.822 352.049 674.414 351.469 674.414Z" fill="#40BF6A"/>
</g>
<defs>
<linearGradient id="paint0_linear_1617_33290" x1="193.5" y1="298.5" x2="193.5" y2="333.5" gradientUnits="userSpaceOnUse">
<stop stop-color="#40BF6A" stop-opacity="0.2"/>
<stop offset="1" stop-color="#40BF6A" stop-opacity="0"/>
</linearGradient>
<linearGradient id="paint1_linear_1617_33290" x1="182" y1="383.75" x2="182" y2="420.75" gradientUnits="userSpaceOnUse">
<stop stop-color="#DF2040" stop-opacity="0.2"/>
<stop offset="1" stop-color="#DF2040" stop-opacity="0"/>
</linearGradient>
<linearGradient id="paint2_linear_1617_33290" x1="205" y1="468.5" x2="205" y2="503.5" gradientUnits="userSpaceOnUse">
<stop stop-color="#40BF6A" stop-opacity="0.2"/>
<stop offset="1" stop-color="#40BF6A" stop-opacity="0"/>
</linearGradient>
<linearGradient id="paint3_linear_1617_33290" x1="193.5" y1="554.5" x2="193.5" y2="589.5" gradientUnits="userSpaceOnUse">
<stop stop-color="#DF2040" stop-opacity="0.2"/>
<stop offset="1" stop-color="#DF2040" stop-opacity="0"/>
</linearGradient>
<linearGradient id="paint4_linear_1617_33290" x1="218.5" y1="640.5" x2="218.5" y2="675.5" gradientUnits="userSpaceOnUse">
<stop stop-color="#27AE60" stop-opacity="0.2"/>
<stop offset="1" stop-color="#27AE60" stop-opacity="0"/>
</linearGradient>
<clipPath id="clip0_1617_33290">
<rect width="343" height="434" fill="white" transform="translate(23 281)"/>
</clipPath>
</defs>
</svg>
