<svg width="418" height="869" viewBox="0 0 418 869" fill="none" xmlns="http://www.w3.org/2000/svg">
<rect width="418" height="869" fill="#0156FE"/>
<g clip-path="url(#clip0_1617_33178)">
<rect width="391" height="417" transform="translate(13 309)" fill="#F7F7F7"/>
<g clip-path="url(#clip1_1617_33178)">
<path d="M54.8786 328.723C57.4352 328.723 59.6599 330.541 59.6599 334.857V334.874C59.6599 338.908 57.842 341.299 54.8288 341.299C52.6291 341.299 50.9855 339.996 50.6037 338.161L50.5871 338.07H52.6955L52.7204 338.153C53.0358 338.991 53.7746 339.539 54.8288 339.539C56.7297 339.539 57.5349 337.68 57.6262 335.389C57.6262 335.297 57.6345 335.206 57.6345 335.115H57.4684C57.0285 336.061 55.9826 336.899 54.3391 336.899C52.0397 336.899 50.4294 335.223 50.4294 332.948V332.932C50.4294 330.5 52.2805 328.723 54.8786 328.723ZM54.8703 335.256C56.2233 335.256 57.2609 334.276 57.2609 332.923V332.907C57.2609 331.537 56.2233 330.466 54.8952 330.466C53.5754 330.466 52.5212 331.521 52.5212 332.857V332.874C52.5212 334.26 53.509 335.256 54.8703 335.256ZM63.0204 333.239C62.265 333.239 61.7006 332.658 61.7006 331.927C61.7006 331.188 62.265 330.616 63.0204 330.616C63.7841 330.616 64.3402 331.188 64.3402 331.927C64.3402 332.658 63.7841 333.239 63.0204 333.239ZM63.0204 339.398C62.265 339.398 61.7006 338.825 61.7006 338.086C61.7006 337.348 62.265 336.775 63.0204 336.775C63.7841 336.775 64.3402 337.348 64.3402 338.086C64.3402 338.825 63.7841 339.398 63.0204 339.398ZM72.1915 341V338.701H66.3312V336.949C67.8834 334.251 69.5851 331.496 71.212 329.022H74.2418V336.933H75.8522V338.701H74.2418V341H72.1915ZM68.3233 336.982H72.2247V330.732H72.1002C70.8717 332.608 69.4855 334.824 68.3233 336.858V336.982ZM80.408 341V331.13H80.2669L77.2869 333.239V331.222L80.4163 329.022H82.5496V341H80.408Z" fill="black"/>
<path opacity="0.35" d="M349.5 332C349.5 330.067 351.067 328.5 353 328.5H370C371.933 328.5 373.5 330.067 373.5 332V337C373.5 338.933 371.933 340.5 370 340.5H353C351.067 340.5 349.5 338.933 349.5 337V332Z" stroke="black"/>
<path opacity="0.4" d="M375 333V337.22C375.849 336.863 376.401 336.031 376.401 335.11C376.401 334.189 375.849 333.357 375 333Z" fill="black"/>
<path d="M351 332C351 330.895 351.895 330 353 330H370C371.105 330 372 330.895 372 332V337C372 338.105 371.105 339 370 339H353C351.895 339 351 338.105 351 337V332Z" fill="black"/>
<path fill-rule="evenodd" clip-rule="evenodd" d="M333.5 331.588C335.967 331.588 338.339 332.555 340.127 334.29C340.261 334.424 340.477 334.422 340.609 334.286L341.896 332.96C341.963 332.891 342.001 332.798 342 332.701C341.999 332.604 341.961 332.511 341.893 332.442C337.201 327.853 329.799 327.853 325.107 332.442C325.039 332.51 325.001 332.603 325 332.701C324.999 332.798 325.037 332.891 325.104 332.96L326.391 334.286C326.523 334.422 326.739 334.424 326.873 334.29C328.661 332.555 331.034 331.588 333.5 331.588ZM333.536 335.589C334.891 335.589 336.198 336.103 337.203 337.032C337.338 337.164 337.552 337.161 337.685 337.026L338.97 335.7C339.038 335.63 339.075 335.536 339.074 335.438C339.073 335.34 339.034 335.247 338.965 335.178C335.906 332.274 331.169 332.274 328.109 335.178C328.04 335.247 328.001 335.34 328 335.438C327.999 335.536 328.037 335.631 328.105 335.7L329.39 337.026C329.522 337.161 329.736 337.164 329.872 337.032C330.876 336.104 332.182 335.59 333.536 335.589ZM336.15 338.177C336.152 338.275 336.114 338.37 336.045 338.439L333.822 340.729C333.756 340.796 333.668 340.834 333.575 340.834C333.482 340.834 333.393 340.796 333.328 340.729L331.105 338.439C331.036 338.37 330.998 338.275 331 338.177C331.002 338.078 331.044 337.985 331.115 337.919C332.535 336.694 334.615 336.694 336.035 337.919C336.106 337.985 336.148 338.078 336.15 338.177Z" fill="black"/>
<path d="M309 332C309 331.448 309.448 331 310 331H311C311.552 331 312 331.448 312 332V340C312 340.552 311.552 341 311 341H310C309.448 341 309 340.552 309 340V332Z" fill="black"/>
<path d="M314 330C314 329.448 314.448 329 315 329H316C316.552 329 317 329.448 317 330V340C317 340.552 316.552 341 316 341H315C314.448 341 314 340.552 314 340V330Z" fill="black"/>
<path d="M304 335.5C304 334.948 304.448 334.5 305 334.5H306C306.552 334.5 307 334.948 307 335.5V340C307 340.552 306.552 341 306 341H305C304.448 341 304 340.552 304 340V335.5Z" fill="black"/>
<path d="M299 338C299 337.448 299.448 337 300 337H301C301.552 337 302 337.448 302 338V340C302 340.552 301.552 341 301 341H300C299.448 341 299 340.552 299 340V338Z" fill="black"/>
</g>
<path fill-rule="evenodd" clip-rule="evenodd" d="M50.9995 379C50.9995 379.298 50.881 379.585 50.6701 379.796C50.4591 380.006 50.173 380.125 49.8747 380.125H36.8426L41.6725 384.953C41.7771 385.057 41.8601 385.181 41.9167 385.318C41.9733 385.455 42.0024 385.601 42.0024 385.749C42.0024 385.897 41.9733 386.043 41.9167 386.18C41.8601 386.317 41.7771 386.441 41.6725 386.545C41.568 386.65 41.4438 386.733 41.3072 386.79C41.1705 386.846 41.0241 386.875 40.8762 386.875C40.7283 386.875 40.5818 386.846 40.4452 386.79C40.3085 386.733 40.1844 386.65 40.0798 386.545L33.3309 379.797C33.2261 379.692 33.143 379.568 33.0863 379.431C33.0296 379.295 33.0004 379.148 33.0004 379C33.0004 378.852 33.0296 378.706 33.0863 378.569C33.143 378.432 33.2261 378.308 33.3309 378.204L40.0798 371.455C40.291 371.244 40.5775 371.125 40.8762 371.125C41.1749 371.125 41.4613 371.244 41.6725 371.455C41.8838 371.666 42.0024 371.953 42.0024 372.251C42.0024 372.55 41.8838 372.836 41.6725 373.048L36.8426 377.875H49.8747C50.173 377.875 50.4591 377.994 50.6701 378.205C50.881 378.416 50.9995 378.702 50.9995 379Z" fill="#191B1E"/>
<path d="M363.75 376.25L368.879 381.379C369.081 381.581 369.411 381.573 369.603 381.362L374.25 376.25" stroke="#2C64E3" stroke-width="2.5" stroke-linecap="round"/>
<path d="M43.3945 436.439C35.9766 436.439 31.3184 431.482 31.3184 423.309V423.291C31.3184 415.117 35.9941 410.195 43.3945 410.195C49.5469 410.195 53.959 414.08 54.4512 419.459L54.4688 419.617H49.3008L49.2305 419.318C48.6328 416.523 46.5586 414.695 43.3945 414.695C39.334 414.695 36.7324 417.965 36.7324 423.273V423.291C36.7324 428.635 39.334 431.939 43.3945 431.939C46.4531 431.939 48.5977 430.182 49.2832 427.176L49.3184 427H54.4863L54.4688 427.193C53.9766 432.59 49.5293 436.439 43.3945 436.439ZM66.4824 436.387C60.752 436.387 57.1484 432.713 57.1484 426.578V426.543C57.1484 420.479 60.8398 416.77 66.4648 416.77C72.1074 416.77 75.8164 420.443 75.8164 426.543V426.578C75.8164 432.73 72.1777 436.387 66.4824 436.387ZM66.5 432.361C68.9961 432.361 70.5957 430.252 70.5957 426.578V426.543C70.5957 422.904 68.9609 420.795 66.4648 420.795C63.9863 420.795 62.3691 422.904 62.3691 426.543V426.578C62.3691 430.27 63.9688 432.361 66.5 432.361ZM78.9707 436V417.156H84.1035V420.25H84.209C85.1758 418.088 87.1094 416.77 89.957 416.77C94.1055 416.77 96.4609 419.424 96.4609 423.836V436H91.3281V424.891C91.3281 422.43 90.168 421.023 87.8652 421.023C85.5625 421.023 84.1035 422.711 84.1035 425.172V436H78.9707ZM105.082 436L98.5605 417.156H104.045L107.982 431.465H108.088L111.973 417.156H117.334L110.865 436H105.082ZM127.537 436.387C121.771 436.387 118.273 432.643 118.273 426.613V426.596C118.273 420.602 121.807 416.77 127.326 416.77C132.846 416.77 136.309 420.514 136.309 426.209V427.791H123.336C123.389 430.797 125.023 432.555 127.643 432.555C129.752 432.555 131.035 431.395 131.404 430.34L131.439 430.234H136.15L136.098 430.428C135.518 433.205 132.916 436.387 127.537 436.387ZM127.414 420.602C125.305 420.602 123.723 422.008 123.389 424.557H131.387C131.07 421.955 129.541 420.602 127.414 420.602ZM139.463 436V417.156H144.596V420.443H144.701C145.264 418.123 146.793 416.77 148.99 416.77C149.553 416.77 150.08 416.857 150.467 416.963V421.48C150.045 421.305 149.342 421.199 148.604 421.199C146.072 421.199 144.596 422.711 144.596 425.453V436H139.463ZM161.268 436.387C157.084 436.387 155.115 434.77 155.115 430.727V421.023H152.496V417.156H155.115V412.551H160.301V417.156H163.746V421.023H160.301V430.164C160.301 431.922 161.092 432.52 162.639 432.52C163.096 432.52 163.43 432.467 163.746 432.432V436.193C163.166 436.281 162.34 436.387 161.268 436.387ZM175.373 436.387C169.607 436.387 166.109 432.643 166.109 426.613V426.596C166.109 420.602 169.643 416.77 175.162 416.77C180.682 416.77 184.145 420.514 184.145 426.209V427.791H171.172C171.225 430.797 172.859 432.555 175.479 432.555C177.588 432.555 178.871 431.395 179.24 430.34L179.275 430.234H183.986L183.934 430.428C183.354 433.205 180.752 436.387 175.373 436.387ZM175.25 420.602C173.141 420.602 171.559 422.008 171.225 424.557H179.223C178.906 421.955 177.377 420.602 175.25 420.602ZM187.299 436V417.156H192.432V420.443H192.537C193.1 418.123 194.629 416.77 196.826 416.77C197.389 416.77 197.916 416.857 198.303 416.963V421.48C197.881 421.305 197.178 421.199 196.439 421.199C193.908 421.199 192.432 422.711 192.432 425.453V436H187.299Z" fill="#191B1E"/>
<rect x="30" y="498" width="356" height="89" rx="16" fill="#E0E3E7"/>
<path d="M54.7495 536.256C50.9966 536.256 48.6587 534.052 48.6587 530.781V521.204H51.3042V530.565C51.3042 532.616 52.5552 533.959 54.7495 533.959C56.9438 533.959 58.1846 532.616 58.1846 530.565V521.204H60.8198V530.781C60.8198 534.052 58.5127 536.256 54.7495 536.256ZM69.1436 536.256C65.7495 536.256 63.5142 534.657 63.3398 532.001L63.3296 531.847H65.8623L65.8828 531.97C66.0776 533.242 67.3799 534.031 69.2358 534.031C71.1021 534.031 72.271 533.201 72.271 531.929V531.919C72.271 530.812 71.502 530.217 69.5947 529.817L68.0054 529.489C65.0933 528.884 63.6577 527.53 63.6577 525.326V525.315C63.668 522.711 65.9546 520.947 69.1436 520.947C72.3735 520.947 74.4858 522.649 74.6396 525.182L74.6499 525.356H72.1172L72.0967 525.233C71.9224 523.941 70.7842 523.172 69.123 523.172C67.3901 523.183 66.3135 523.993 66.3135 525.172V525.182C66.3135 526.228 67.1235 526.843 68.9077 527.212L70.5073 527.541C73.5835 528.176 74.9268 529.427 74.9268 531.734V531.745C74.9268 534.503 72.7529 536.256 69.1436 536.256ZM77.4058 536V521.204H82.8096C87.2188 521.204 89.8438 523.87 89.8438 528.545V528.566C89.8438 533.252 87.2393 536 82.8096 536H77.4058ZM80.0513 533.765H82.5327C85.5063 533.765 87.147 531.95 87.147 528.576V528.556C87.147 525.254 85.4756 523.439 82.5327 523.439H80.0513V533.765Z" fill="black"/>
<path d="M102.75 526.25L107.879 531.379C108.081 531.581 108.411 531.573 108.603 531.362L113.25 526.25" stroke="#191B1E" stroke-width="2.5" stroke-linecap="round"/>
<path d="M340.126 538.987V537.264C337.378 537.1 335.399 535.634 335.235 533.265L335.225 533.122H337.614L337.634 533.234C337.819 534.26 338.537 535.049 340.126 535.213V531.081L339.552 530.958C336.886 530.363 335.491 529.143 335.491 527.021V527C335.491 524.672 337.388 523.114 340.126 522.939V521.217H341.233V522.939C343.889 523.124 345.694 524.601 345.878 526.897L345.889 527.062H343.5L343.489 526.969C343.335 525.852 342.505 525.154 341.233 525V528.969L341.859 529.102C344.638 529.728 346.063 530.866 346.063 533.06V533.081C346.063 535.624 344.002 537.1 341.233 537.264V538.987H340.126ZM337.962 526.836C337.962 527.738 338.557 528.364 340.126 528.723V524.99C338.701 525.144 337.962 525.944 337.962 526.826V526.836ZM343.602 533.286C343.602 532.322 343.069 531.748 341.233 531.327V535.224C342.905 535.101 343.602 534.321 343.602 533.306V533.286ZM352.654 537.5V525.226H352.592L348.768 527.851V525.421L352.633 522.704H355.248V537.5H352.654ZM364.689 537.756C361.613 537.756 359.521 535.921 359.327 533.47L359.316 533.337H361.798L361.808 533.409C362.023 534.649 363.151 535.603 364.71 535.603C366.474 535.603 367.694 534.393 367.694 532.66V532.64C367.694 530.948 366.453 529.738 364.72 529.738C363.879 529.738 363.151 529.994 362.587 530.466C362.311 530.691 362.064 530.979 361.89 531.307H359.583L360.291 522.704H369.375V524.867H362.403L361.993 529.328H362.044C362.69 528.333 363.91 527.749 365.397 527.749C368.217 527.749 370.247 529.789 370.247 532.599V532.619C370.247 535.665 367.96 537.756 364.689 537.756Z" fill="black"/>
<rect x="369" y="516" width="2" height="28" rx="1" fill="#AEC3E6"/>
<rect x="30" y="595" width="356" height="86" rx="16" fill="#EDEFF2"/>
<path d="M48.7661 633V618.204H58.1997V620.429H51.4116V624.807H57.6152V626.96H51.4116V633H48.7661ZM67.0669 633.256C62.8115 633.256 60.125 630.324 60.125 625.597V625.586C60.125 620.859 62.8218 617.947 67.0669 617.947C70.4712 617.947 72.9731 620.07 73.3628 623.084L73.373 623.187H70.7788L70.7275 622.992C70.2969 621.3 68.9946 620.244 67.0669 620.244C64.4829 620.244 62.832 622.305 62.832 625.586V625.597C62.832 628.888 64.4932 630.959 67.0669 630.959C68.9536 630.959 70.2764 629.944 70.7583 628.119L70.7891 628.017H73.3833L73.3628 628.119C72.9834 631.154 70.4712 633.256 67.0669 633.256ZM75.8931 633V618.204H85.3267V620.429H78.5386V624.807H84.7422V626.96H78.5386V633H75.8931ZM85.7036 633L90.9946 618.204H93.9683L99.2593 633H96.4805L95.2295 629.175H89.7231L88.4722 633H85.7036ZM92.4507 620.839L90.3896 627.135H94.563L92.5122 620.839H92.4507Z" fill="black"/>
<path d="M111.75 623.25L116.879 628.379C117.081 628.581 117.411 628.573 117.603 628.362L122.25 623.25" stroke="#191B1E" stroke-width="2.5" stroke-linecap="round"/>
<path d="M227.654 634.5V619.704H237.087V621.929H230.299V626.307H236.503V628.46H230.299V634.5H227.654ZM245.955 634.756C241.699 634.756 239.013 631.824 239.013 627.097V627.086C239.013 622.359 241.709 619.447 245.955 619.447C249.359 619.447 251.861 621.57 252.25 624.584L252.261 624.687H249.667L249.615 624.492C249.185 622.8 247.882 621.744 245.955 621.744C243.371 621.744 241.72 623.805 241.72 627.086V627.097C241.72 630.388 243.381 632.459 245.955 632.459C247.841 632.459 249.164 631.444 249.646 629.619L249.677 629.517H252.271L252.25 629.619C251.871 632.654 249.359 634.756 245.955 634.756ZM254.781 634.5V619.704H264.214V621.929H257.426V626.307H263.63V628.46H257.426V634.5H254.781ZM264.591 634.5L269.882 619.704H272.856L278.147 634.5H275.368L274.117 630.675H268.611L267.36 634.5H264.591ZM271.338 622.339L269.277 628.635H273.451L271.4 622.339H271.338ZM285.404 619.447C288.665 619.447 291.382 621.734 291.382 626.922V626.943C291.382 631.834 289.116 634.756 285.343 634.756C282.605 634.756 280.554 633.177 280.093 630.942L280.072 630.829H282.697L282.728 630.921C283.128 631.937 284.03 632.593 285.353 632.593C287.732 632.593 288.727 630.316 288.829 627.517C288.839 627.363 288.85 627.209 288.85 627.045H288.788C288.204 628.399 286.727 629.424 284.728 629.424C281.877 629.424 279.867 627.374 279.867 624.595V624.574C279.867 621.59 282.215 619.447 285.404 619.447ZM285.404 627.384C287.096 627.384 288.388 626.194 288.388 624.543V624.533C288.388 622.893 287.096 621.611 285.435 621.611C283.794 621.611 282.472 622.882 282.472 624.482V624.502C282.472 626.184 283.723 627.384 285.404 627.384ZM292.692 637.525L293.502 632.09H295.974L294.477 637.525H292.692ZM304.246 634.756C301.17 634.756 299.078 632.921 298.883 630.47L298.873 630.337H301.354L301.365 630.409C301.58 631.649 302.708 632.603 304.267 632.603C306.03 632.603 307.25 631.393 307.25 629.66V629.64C307.25 627.948 306.01 626.738 304.277 626.738C303.436 626.738 302.708 626.994 302.144 627.466C301.867 627.691 301.621 627.979 301.447 628.307H299.14L299.847 619.704H308.932V621.867H301.959L301.549 626.328H301.601C302.247 625.333 303.467 624.749 304.954 624.749C307.773 624.749 309.804 626.789 309.804 629.599V629.619C309.804 632.665 307.517 634.756 304.246 634.756ZM319.143 634.5V631.66H311.76V629.404L317.902 619.704H321.665V629.486H323.675V631.66H321.665V634.5H319.143ZM314.139 629.547H319.184V621.703H319.122L314.139 629.476V629.547ZM331.332 634.756C328.256 634.756 326.164 632.921 325.969 630.47L325.959 630.337H328.44L328.451 630.409C328.666 631.649 329.794 632.603 331.353 632.603C333.116 632.603 334.336 631.393 334.336 629.66V629.64C334.336 627.948 333.096 626.738 331.363 626.738C330.522 626.738 329.794 626.994 329.23 627.466C328.953 627.691 328.707 627.979 328.533 628.307H326.226L326.933 619.704H336.018V621.867H329.045L328.635 626.328H328.687C329.333 625.333 330.553 624.749 332.04 624.749C334.859 624.749 336.89 626.789 336.89 629.599V629.619C336.89 632.665 334.603 634.756 331.332 634.756ZM340.456 634.664C339.625 634.664 338.969 634.008 338.969 633.177C338.969 632.357 339.625 631.701 340.456 631.701C341.286 631.701 341.932 632.357 341.932 633.177C341.932 634.008 341.286 634.664 340.456 634.664ZM351.671 634.5V631.66H344.288V629.404L350.43 619.704H354.193V629.486H356.203V631.66H354.193V634.5H351.671ZM346.667 629.547H351.712V621.703H351.65L346.667 629.476V629.547ZM363.953 634.756C360.323 634.756 358.139 631.813 358.139 627.107V627.086C358.139 622.38 360.323 619.447 363.953 619.447C367.572 619.447 369.767 622.38 369.767 627.086V627.107C369.767 631.813 367.572 634.756 363.953 634.756ZM363.953 632.593C365.942 632.593 367.101 630.521 367.101 627.107V627.086C367.101 623.672 365.942 621.621 363.953 621.621C361.953 621.621 360.805 623.672 360.805 627.086V627.107C360.805 630.521 361.953 632.593 363.953 632.593Z" fill="black"/>
<rect x="191" y="574" width="34" height="34" rx="17" fill="white"/>
<path d="M208 597.25C208 596.85 208 588.583 208 584.75M208 584.75L203.5 589.25M208 584.75L212.5 589.25" stroke="#2C64E3" stroke-width="2" stroke-linecap="round"/>
</g>
<path d="M35.3945 126.439C27.9766 126.439 23.3184 121.482 23.3184 113.309V113.291C23.3184 105.117 27.9941 100.195 35.3945 100.195C41.5469 100.195 45.959 104.08 46.4512 109.459L46.4688 109.617H41.3008L41.2305 109.318C40.6328 106.523 38.5586 104.695 35.3945 104.695C31.334 104.695 28.7324 107.965 28.7324 113.273V113.291C28.7324 118.635 31.334 121.939 35.3945 121.939C38.4531 121.939 40.5977 120.182 41.2832 117.176L41.3184 117H46.4863L46.4688 117.193C45.9766 122.59 41.5293 126.439 35.3945 126.439ZM58.4824 126.387C52.752 126.387 49.1484 122.713 49.1484 116.578V116.543C49.1484 110.479 52.8398 106.77 58.4648 106.77C64.1074 106.77 67.8164 110.443 67.8164 116.543V116.578C67.8164 122.73 64.1777 126.387 58.4824 126.387ZM58.5 122.361C60.9961 122.361 62.5957 120.252 62.5957 116.578V116.543C62.5957 112.904 60.9609 110.795 58.4648 110.795C55.9863 110.795 54.3691 112.904 54.3691 116.543V116.578C54.3691 120.27 55.9688 122.361 58.5 122.361ZM70.9707 126V107.156H76.1035V110.32H76.209C76.9824 108.176 78.9512 106.77 81.4824 106.77C84.1191 106.77 86.0352 108.176 86.668 110.654H86.7734C87.6172 108.281 89.8672 106.77 92.627 106.77C96.3184 106.77 98.7969 109.318 98.7969 113.115V126H93.6641V114.398C93.6641 112.219 92.5742 111.023 90.5879 111.023C88.6367 111.023 87.3535 112.447 87.3535 114.539V126H82.4141V114.24C82.4141 112.219 81.2715 111.023 79.373 111.023C77.4219 111.023 76.1035 112.5 76.1035 114.627V126H70.9707ZM102.549 132.152V107.156H107.682V110.443H107.805C108.824 108.158 110.881 106.77 113.553 106.77C118.334 106.77 121.252 110.426 121.252 116.561V116.578C121.252 122.695 118.334 126.387 113.623 126.387C110.934 126.387 108.807 125.016 107.787 122.783H107.682V132.152H102.549ZM111.865 122.133C114.414 122.133 116.031 120.006 116.031 116.578V116.561C116.031 113.115 114.414 111.023 111.865 111.023C109.369 111.023 107.664 113.168 107.664 116.578V116.596C107.664 119.988 109.369 122.133 111.865 122.133ZM130.031 126.299C126.252 126.299 123.703 123.926 123.703 120.604V120.568C123.703 117.141 126.357 115.137 131.033 114.838L135.691 114.557V113.396C135.691 111.727 134.602 110.689 132.598 110.689C130.682 110.689 129.521 111.586 129.275 112.799L129.24 112.957H124.547L124.564 112.746C124.846 109.266 127.834 106.77 132.809 106.77C137.678 106.77 140.824 109.283 140.824 113.08V126H135.691V123.188H135.586C134.514 125.121 132.51 126.299 130.031 126.299ZM128.783 120.34C128.783 121.729 129.926 122.555 131.701 122.555C134.004 122.555 135.691 121.078 135.691 119.109V117.756L131.807 118.002C129.82 118.125 128.783 118.969 128.783 120.305V120.34ZM144.646 126V107.156H149.779V110.443H149.885C150.447 108.123 151.977 106.77 154.174 106.77C154.736 106.77 155.264 106.857 155.65 106.963V111.48C155.229 111.305 154.525 111.199 153.787 111.199C151.256 111.199 149.779 112.711 149.779 115.453V126H144.646ZM166.205 126.387C160.439 126.387 156.941 122.643 156.941 116.613V116.596C156.941 110.602 160.475 106.77 165.994 106.77C171.514 106.77 174.977 110.514 174.977 116.209V117.791H162.004C162.057 120.797 163.691 122.555 166.311 122.555C168.42 122.555 169.703 121.395 170.072 120.34L170.107 120.234H174.818L174.766 120.428C174.186 123.205 171.584 126.387 166.205 126.387ZM166.082 110.602C163.973 110.602 162.391 112.008 162.057 114.557H170.055C169.738 111.955 168.209 110.602 166.082 110.602ZM193.256 126.387C189.072 126.387 187.104 124.77 187.104 120.727V111.023H184.484V107.156H187.104V102.551H192.289V107.156H195.734V111.023H192.289V120.164C192.289 121.922 193.08 122.52 194.627 122.52C195.084 122.52 195.418 122.467 195.734 122.432V126.193C195.154 126.281 194.328 126.387 193.256 126.387ZM199.188 126V100.635H204.32V110.408H204.426C205.393 108.07 207.379 106.77 210.209 106.77C214.287 106.77 216.818 109.617 216.818 114.17V126H211.686V115.225C211.686 112.588 210.385 111.023 208.047 111.023C205.779 111.023 204.32 112.746 204.32 115.207V126H199.188ZM229.201 126.387C223.436 126.387 219.938 122.643 219.938 116.613V116.596C219.938 110.602 223.471 106.77 228.99 106.77C234.51 106.77 237.973 110.514 237.973 116.209V117.791H225C225.053 120.797 226.688 122.555 229.307 122.555C231.416 122.555 232.699 121.395 233.068 120.34L233.104 120.234H237.814L237.762 120.428C237.182 123.205 234.58 126.387 229.201 126.387ZM229.078 110.602C226.969 110.602 225.387 112.008 225.053 114.557H233.051C232.734 111.955 231.205 110.602 229.078 110.602ZM259.926 126.387C257.219 126.387 255.145 125.016 254.125 122.783H254.02V126H248.887V100.635H254.02V110.426H254.125C255.162 108.141 257.254 106.77 259.943 106.77C264.672 106.77 267.607 110.426 267.607 116.561V116.578C267.607 122.695 264.672 126.387 259.926 126.387ZM258.221 122.133C260.77 122.133 262.387 120.006 262.387 116.578V116.561C262.387 113.115 260.77 111.023 258.221 111.023C255.742 111.023 254.02 113.168 254.02 116.561V116.578C254.02 119.988 255.725 122.133 258.221 122.133ZM279.322 126.387C273.557 126.387 270.059 122.643 270.059 116.613V116.596C270.059 110.602 273.592 106.77 279.111 106.77C284.631 106.77 288.094 110.514 288.094 116.209V117.791H275.121C275.174 120.797 276.809 122.555 279.428 122.555C281.537 122.555 282.82 121.395 283.189 120.34L283.225 120.234H287.936L287.883 120.428C287.303 123.205 284.701 126.387 279.322 126.387ZM279.199 110.602C277.09 110.602 275.508 112.008 275.174 114.557H283.172C282.855 111.955 281.326 110.602 279.199 110.602ZM299 126.387C293.779 126.387 290.879 123.979 290.475 120.41L290.457 120.252H295.467L295.502 120.41C295.836 121.887 296.943 122.748 299 122.748C300.934 122.748 302.111 121.992 302.111 120.779V120.762C302.111 119.76 301.479 119.18 299.633 118.775L296.434 118.107C292.777 117.334 290.932 115.506 290.932 112.693V112.676C290.932 109.09 294.025 106.77 298.824 106.77C303.834 106.77 306.629 109.424 306.752 112.729V112.904H302.023L302.006 112.764C301.83 111.41 300.723 110.391 298.824 110.391C297.049 110.391 295.941 111.182 295.941 112.395V112.412C295.941 113.379 296.592 114.012 298.49 114.416L301.689 115.102C305.627 115.928 307.244 117.475 307.244 120.252V120.27C307.244 123.961 303.852 126.387 299 126.387ZM317.764 126.387C313.58 126.387 311.611 124.77 311.611 120.727V111.023H308.992V107.156H311.611V102.551H316.797V107.156H320.242V111.023H316.797V120.164C316.797 121.922 317.588 122.52 319.135 122.52C319.592 122.52 319.926 122.467 320.242 122.432V126.193C319.662 126.281 318.836 126.387 317.764 126.387ZM23.6699 169V150.156H28.8027V153.443H28.9082C29.4707 151.123 31 149.77 33.1973 149.77C33.7598 149.77 34.2871 149.857 34.6738 149.963V154.48C34.252 154.305 33.5488 154.199 32.8105 154.199C30.2793 154.199 28.8027 155.711 28.8027 158.453V169H23.6699ZM42.4336 169.299C38.6543 169.299 36.1055 166.926 36.1055 163.604V163.568C36.1055 160.141 38.7598 158.137 43.4355 157.838L48.0938 157.557V156.396C48.0938 154.727 47.0039 153.689 45 153.689C43.084 153.689 41.9238 154.586 41.6777 155.799L41.6426 155.957H36.9492L36.9668 155.746C37.248 152.266 40.2363 149.77 45.2109 149.77C50.0801 149.77 53.2266 152.283 53.2266 156.08V169H48.0938V166.188H47.9883C46.916 168.121 44.9121 169.299 42.4336 169.299ZM41.1855 163.34C41.1855 164.729 42.3281 165.555 44.1035 165.555C46.4062 165.555 48.0938 164.078 48.0938 162.109V160.756L44.209 161.002C42.2227 161.125 41.1855 161.969 41.1855 163.305V163.34ZM64.5371 169.387C60.3535 169.387 58.3848 167.77 58.3848 163.727V154.023H55.7656V150.156H58.3848V145.551H63.5703V150.156H67.0156V154.023H63.5703V163.164C63.5703 164.922 64.3613 165.52 65.9082 165.52C66.3652 165.52 66.6992 165.467 67.0156 165.432V169.193C66.4355 169.281 65.6094 169.387 64.5371 169.387ZM78.6426 169.387C72.877 169.387 69.3789 165.643 69.3789 159.613V159.596C69.3789 153.602 72.9121 149.77 78.4316 149.77C83.9512 149.77 87.4141 153.514 87.4141 159.209V160.791H74.4414C74.4941 163.797 76.1289 165.555 78.748 165.555C80.8574 165.555 82.1406 164.395 82.5098 163.34L82.5449 163.234H87.2559L87.2031 163.428C86.623 166.205 84.0215 169.387 78.6426 169.387ZM78.5195 153.602C76.4102 153.602 74.8281 155.008 74.4941 157.557H82.4922C82.1758 154.955 80.6465 153.602 78.5195 153.602ZM98.3203 169.387C93.0996 169.387 90.1992 166.979 89.7949 163.41L89.7773 163.252H94.7871L94.8223 163.41C95.1562 164.887 96.2637 165.748 98.3203 165.748C100.254 165.748 101.432 164.992 101.432 163.779V163.762C101.432 162.76 100.799 162.18 98.9531 161.775L95.7539 161.107C92.0977 160.334 90.252 158.506 90.252 155.693V155.676C90.252 152.09 93.3457 149.77 98.1445 149.77C103.154 149.77 105.949 152.424 106.072 155.729V155.904H101.344L101.326 155.764C101.15 154.41 100.043 153.391 98.1445 153.391C96.3691 153.391 95.2617 154.182 95.2617 155.395V155.412C95.2617 156.379 95.9121 157.012 97.8105 157.416L101.01 158.102C104.947 158.928 106.564 160.475 106.564 163.252V163.27C106.564 166.961 103.172 169.387 98.3203 169.387ZM122.84 169.299C119.061 169.299 116.512 166.926 116.512 163.604V163.568C116.512 160.141 119.166 158.137 123.842 157.838L128.5 157.557V156.396C128.5 154.727 127.41 153.689 125.406 153.689C123.49 153.689 122.33 154.586 122.084 155.799L122.049 155.957H117.355L117.373 155.746C117.654 152.266 120.643 149.77 125.617 149.77C130.486 149.77 133.633 152.283 133.633 156.08V169H128.5V166.188H128.395C127.322 168.121 125.318 169.299 122.84 169.299ZM121.592 163.34C121.592 164.729 122.734 165.555 124.51 165.555C126.812 165.555 128.5 164.078 128.5 162.109V160.756L124.615 161.002C122.629 161.125 121.592 161.969 121.592 163.305V163.34ZM137.455 169V150.156H142.588V153.25H142.693C143.66 151.088 145.594 149.77 148.441 149.77C152.59 149.77 154.945 152.424 154.945 156.836V169H149.812V157.891C149.812 155.43 148.652 154.023 146.35 154.023C144.047 154.023 142.588 155.711 142.588 158.172V169H137.455ZM165.676 169.387C160.93 169.387 158.012 165.695 158.012 159.578V159.561C158.012 153.426 160.93 149.77 165.676 149.77C168.348 149.77 170.457 151.141 171.477 153.426H171.582V143.635H176.715V169H171.582V165.783H171.477C170.475 168.016 168.4 169.387 165.676 169.387ZM167.398 165.133C169.895 165.133 171.6 162.988 171.6 159.578V159.561C171.6 156.168 169.877 154.023 167.398 154.023C164.85 154.023 163.232 156.115 163.232 159.561V159.578C163.232 163.006 164.832 165.133 167.398 165.133ZM189.65 169V154.023H187.084V150.156H189.65V148.645C189.65 144.953 191.408 143.248 195.855 143.248C196.805 143.248 197.842 143.336 198.439 143.459V146.852C198.088 146.781 197.596 146.764 197.121 146.764C195.416 146.764 194.66 147.484 194.66 148.838V150.156H198.404V154.023H194.783V169H189.65ZM204.283 147.73C202.736 147.73 201.541 146.518 201.541 145.059C201.541 143.6 202.736 142.387 204.283 142.387C205.83 142.387 207.025 143.6 207.025 145.059C207.025 146.518 205.83 147.73 204.283 147.73ZM201.717 169V150.156H206.85V169H201.717ZM210.795 169V150.156H215.928V153.25H216.033C217 151.088 218.934 149.77 221.781 149.77C225.93 149.77 228.285 152.424 228.285 156.836V169H223.152V157.891C223.152 155.43 221.992 154.023 219.689 154.023C217.387 154.023 215.928 155.711 215.928 158.172V169H210.795ZM239.016 169.387C234.27 169.387 231.352 165.695 231.352 159.578V159.561C231.352 153.426 234.27 149.77 239.016 149.77C241.688 149.77 243.797 151.141 244.816 153.426H244.922V143.635H250.055V169H244.922V165.783H244.816C243.814 168.016 241.74 169.387 239.016 169.387ZM240.738 165.133C243.234 165.133 244.939 162.988 244.939 159.578V159.561C244.939 156.168 243.217 154.023 240.738 154.023C238.189 154.023 236.572 156.115 236.572 159.561V159.578C236.572 163.006 238.172 165.133 240.738 165.133ZM269.107 169.387C264.924 169.387 262.955 167.77 262.955 163.727V154.023H260.336V150.156H262.955V145.551H268.141V150.156H271.586V154.023H268.141V163.164C268.141 164.922 268.932 165.52 270.479 165.52C270.936 165.52 271.27 165.467 271.586 165.432V169.193C271.006 169.281 270.18 169.387 269.107 169.387ZM275.039 169V143.635H280.172V153.408H280.277C281.244 151.07 283.23 149.77 286.061 149.77C290.139 149.77 292.67 152.617 292.67 157.17V169H287.537V158.225C287.537 155.588 286.236 154.023 283.898 154.023C281.631 154.023 280.172 155.746 280.172 158.207V169H275.039ZM305.053 169.387C299.287 169.387 295.789 165.643 295.789 159.613V159.596C295.789 153.602 299.322 149.77 304.842 149.77C310.361 149.77 313.824 153.514 313.824 159.209V160.791H300.852C300.904 163.797 302.539 165.555 305.158 165.555C307.268 165.555 308.551 164.395 308.92 163.34L308.955 163.234H313.666L313.613 163.428C313.033 166.205 310.432 169.387 305.053 169.387ZM304.93 153.602C302.82 153.602 301.238 155.008 300.904 157.557H308.902C308.586 154.955 307.057 153.602 304.93 153.602ZM34.832 212.387C32.125 212.387 30.0508 211.016 29.0312 208.783H28.9258V212H23.793V186.635H28.9258V196.426H29.0312C30.0684 194.141 32.1602 192.77 34.8496 192.77C39.5781 192.77 42.5137 196.426 42.5137 202.561V202.578C42.5137 208.695 39.5781 212.387 34.832 212.387ZM33.127 208.133C35.6758 208.133 37.293 206.006 37.293 202.578V202.561C37.293 199.115 35.6758 197.023 33.127 197.023C30.6484 197.023 28.9258 199.168 28.9258 202.561V202.578C28.9258 205.988 30.6309 208.133 33.127 208.133ZM54.2285 212.387C48.4629 212.387 44.9648 208.643 44.9648 202.613V202.596C44.9648 196.602 48.498 192.77 54.0176 192.77C59.5371 192.77 63 196.514 63 202.209V203.791H50.0273C50.0801 206.797 51.7148 208.555 54.334 208.555C56.4434 208.555 57.7266 207.395 58.0957 206.34L58.1309 206.234H62.8418L62.7891 206.428C62.209 209.205 59.6074 212.387 54.2285 212.387ZM54.1055 196.602C51.9961 196.602 50.4141 198.008 50.0801 200.557H58.0781C57.7617 197.955 56.2324 196.602 54.1055 196.602ZM73.9062 212.387C68.6855 212.387 65.7852 209.979 65.3809 206.41L65.3633 206.252H70.373L70.4082 206.41C70.7422 207.887 71.8496 208.748 73.9062 208.748C75.8398 208.748 77.0176 207.992 77.0176 206.779V206.762C77.0176 205.76 76.3848 205.18 74.5391 204.775L71.3398 204.107C67.6836 203.334 65.8379 201.506 65.8379 198.693V198.676C65.8379 195.09 68.9316 192.77 73.7305 192.77C78.7402 192.77 81.5352 195.424 81.6582 198.729V198.904H76.9297L76.9121 198.764C76.7363 197.41 75.6289 196.391 73.7305 196.391C71.9551 196.391 70.8477 197.182 70.8477 198.395V198.412C70.8477 199.379 71.498 200.012 73.3965 200.416L76.5957 201.102C80.5332 201.928 82.1504 203.475 82.1504 206.252V206.27C82.1504 209.961 78.7578 212.387 73.9062 212.387ZM92.6699 212.387C88.4863 212.387 86.5176 210.77 86.5176 206.727V197.023H83.8984V193.156H86.5176V188.551H91.7031V193.156H95.1484V197.023H91.7031V206.164C91.7031 207.922 92.4941 208.52 94.041 208.52C94.498 208.52 94.832 208.467 95.1484 208.432V212.193C94.5684 212.281 93.7422 212.387 92.6699 212.387ZM109.789 212L104.779 193.156H109.947L112.795 207.131H112.9L116.24 193.156H121.162L124.52 207.131H124.625L127.49 193.156H132.553L127.561 212H122.094L118.684 198.676H118.578L115.186 212H109.789ZM140.031 212.299C136.252 212.299 133.703 209.926 133.703 206.604V206.568C133.703 203.141 136.357 201.137 141.033 200.838L145.691 200.557V199.396C145.691 197.727 144.602 196.689 142.598 196.689C140.682 196.689 139.521 197.586 139.275 198.799L139.24 198.957H134.547L134.564 198.746C134.846 195.266 137.834 192.77 142.809 192.77C147.678 192.77 150.824 195.283 150.824 199.08V212H145.691V209.188H145.586C144.514 211.121 142.51 212.299 140.031 212.299ZM138.783 206.34C138.783 207.729 139.926 208.555 141.701 208.555C144.004 208.555 145.691 207.078 145.691 205.109V203.756L141.807 204.002C139.82 204.125 138.783 204.969 138.783 206.305V206.34ZM157.494 218.205C156.492 218.205 155.473 218.082 154.875 217.977V214.162C155.244 214.232 155.842 214.338 156.598 214.338C158.127 214.338 158.971 213.898 159.428 212.615L159.656 212L152.994 193.156H158.637L162.609 207.887H162.75L166.74 193.156H172.154L165.686 212.334C164.209 216.781 161.678 218.205 157.494 218.205ZM189.572 212.387C185.389 212.387 183.42 210.77 183.42 206.727V197.023H180.801V193.156H183.42V188.551H188.605V193.156H192.051V197.023H188.605V206.164C188.605 207.922 189.396 208.52 190.943 208.52C191.4 208.52 191.734 208.467 192.051 208.432V212.193C191.471 212.281 190.645 212.387 189.572 212.387ZM203.748 212.387C198.018 212.387 194.414 208.713 194.414 202.578V202.543C194.414 196.479 198.105 192.77 203.73 192.77C209.373 192.77 213.082 196.443 213.082 202.543V202.578C213.082 208.73 209.443 212.387 203.748 212.387ZM203.766 208.361C206.262 208.361 207.861 206.252 207.861 202.578V202.543C207.861 198.904 206.227 196.795 203.73 196.795C201.252 196.795 199.635 198.904 199.635 202.543V202.578C199.635 206.27 201.234 208.361 203.766 208.361ZM231.625 212.387C226.404 212.387 223.504 209.979 223.1 206.41L223.082 206.252H228.092L228.127 206.41C228.461 207.887 229.568 208.748 231.625 208.748C233.559 208.748 234.736 207.992 234.736 206.779V206.762C234.736 205.76 234.104 205.18 232.258 204.775L229.059 204.107C225.402 203.334 223.557 201.506 223.557 198.693V198.676C223.557 195.09 226.65 192.77 231.449 192.77C236.459 192.77 239.254 195.424 239.377 198.729V198.904H234.648L234.631 198.764C234.455 197.41 233.348 196.391 231.449 196.391C229.674 196.391 228.566 197.182 228.566 198.395V198.412C228.566 199.379 229.217 200.012 231.115 200.416L234.314 201.102C238.252 201.928 239.869 203.475 239.869 206.252V206.27C239.869 209.961 236.477 212.387 231.625 212.387ZM251.479 212.387C245.713 212.387 242.215 208.643 242.215 202.613V202.596C242.215 196.602 245.748 192.77 251.268 192.77C256.787 192.77 260.25 196.514 260.25 202.209V203.791H247.277C247.33 206.797 248.965 208.555 251.584 208.555C253.693 208.555 254.977 207.395 255.346 206.34L255.381 206.234H260.092L260.039 206.428C259.459 209.205 256.857 212.387 251.479 212.387ZM251.355 196.602C249.246 196.602 247.664 198.008 247.33 200.557H255.328C255.012 197.955 253.482 196.602 251.355 196.602ZM263.404 212V193.156H268.537V196.25H268.643C269.609 194.088 271.543 192.77 274.391 192.77C278.539 192.77 280.895 195.424 280.895 199.836V212H275.762V200.891C275.762 198.43 274.602 197.023 272.299 197.023C269.996 197.023 268.537 198.711 268.537 201.172V212H263.404ZM291.625 212.387C286.879 212.387 283.961 208.695 283.961 202.578V202.561C283.961 196.426 286.879 192.77 291.625 192.77C294.297 192.77 296.406 194.141 297.426 196.426H297.531V186.635H302.664V212H297.531V208.783H297.426C296.424 211.016 294.35 212.387 291.625 212.387ZM293.348 208.133C295.844 208.133 297.549 205.988 297.549 202.578V202.561C297.549 199.168 295.826 197.023 293.348 197.023C290.799 197.023 289.182 199.115 289.182 202.561V202.578C289.182 206.006 290.781 208.133 293.348 208.133ZM23.6699 255V236.156H28.8027V239.32H28.9082C29.6816 237.176 31.6504 235.77 34.1816 235.77C36.8184 235.77 38.7344 237.176 39.3672 239.654H39.4727C40.3164 237.281 42.5664 235.77 45.3262 235.77C49.0176 235.77 51.4961 238.318 51.4961 242.115V255H46.3633V243.398C46.3633 241.219 45.2734 240.023 43.2871 240.023C41.3359 240.023 40.0527 241.447 40.0527 243.539V255H35.1133V243.24C35.1133 241.219 33.9707 240.023 32.0723 240.023C30.1211 240.023 28.8027 241.5 28.8027 243.627V255H23.6699ZM63.8965 255.387C58.166 255.387 54.5625 251.713 54.5625 245.578V245.543C54.5625 239.479 58.2539 235.77 63.8789 235.77C69.5215 235.77 73.2305 239.443 73.2305 245.543V245.578C73.2305 251.73 69.5918 255.387 63.8965 255.387ZM63.9141 251.361C66.4102 251.361 68.0098 249.252 68.0098 245.578V245.543C68.0098 241.904 66.375 239.795 63.8789 239.795C61.4004 239.795 59.7832 241.904 59.7832 245.543V245.578C59.7832 249.27 61.3828 251.361 63.9141 251.361ZM76.3848 255V236.156H81.5176V239.25H81.623C82.5898 237.088 84.5234 235.77 87.3711 235.77C91.5195 235.77 93.875 238.424 93.875 242.836V255H88.7422V243.891C88.7422 241.43 87.582 240.023 85.2793 240.023C82.9766 240.023 81.5176 241.711 81.5176 244.172V255H76.3848ZM106.205 255.387C100.439 255.387 96.9414 251.643 96.9414 245.613V245.596C96.9414 239.602 100.475 235.77 105.994 235.77C111.514 235.77 114.977 239.514 114.977 245.209V246.791H102.004C102.057 249.797 103.691 251.555 106.311 251.555C108.42 251.555 109.703 250.395 110.072 249.34L110.107 249.234H114.818L114.766 249.428C114.186 252.205 111.584 255.387 106.205 255.387ZM106.082 239.602C103.973 239.602 102.391 241.008 102.057 243.557H110.055C109.738 240.955 108.209 239.602 106.082 239.602ZM120.381 261.205C119.379 261.205 118.359 261.082 117.762 260.977V257.162C118.131 257.232 118.729 257.338 119.484 257.338C121.014 257.338 121.857 256.898 122.314 255.615L122.543 255L115.881 236.156H121.523L125.496 250.887H125.637L129.627 236.156H135.041L128.572 255.334C127.096 259.781 124.564 261.205 120.381 261.205Z" fill="white"/>
<rect x="142" y="856" width="134" height="5" rx="2.5" fill="#625F63"/>
<defs>
<clipPath id="clip0_1617_33178">
<rect width="391" height="417" fill="white" transform="translate(13 309)"/>
</clipPath>
<clipPath id="clip1_1617_33178">
<rect width="390" height="47" fill="white" transform="translate(13 309)"/>
</clipPath>
</defs>
</svg>
