<svg width="24" height="24" viewBox="0 0 24 24" fill="none" xmlns="http://www.w3.org/2000/svg">
  <path d="M17.0425 11.3897C17.0164 8.70976 19.2382 7.39467 19.3436 7.33183C17.9861 5.39972 15.9372 5.13452 15.1914 5.10977C13.4389 4.93345 11.7437 6.12616 10.8537 6.12616C9.94634 6.12616 8.54395 5.13452 7.04156 5.16741C5.10945 5.20029 3.31199 6.31775 2.33793 8.05743C0.323075 11.5908 1.81071 16.7689 3.73468 19.4159C4.70874 20.7063 5.83434 22.1581 7.30198 22.0983C8.73487 22.0385 9.28296 21.1733 10.9897 21.1733C12.6717 21.1733 13.1874 22.0983 14.6879 22.0684C16.2208 22.0385 17.2123 20.7558 18.1616 19.4531C19.2872 17.9774 19.7534 16.5197 19.7781 16.4475C19.7286 16.4299 17.0722 15.4011 17.0425 11.3897Z" fill="currentColor"/>
  <path d="M14.4868 3.67177C15.2945 2.68957 15.8426 1.32956 15.6962 0C14.5088 0.0493901 13.0826 0.790241 12.2502 1.74773C11.5042 2.59538 10.8424 3.99777 11.0136 5.27812C12.3288 5.37575 13.6541 4.65398 14.4868 3.67177Z" fill="currentColor"/>
</svg> 