<svg width="32" height="32" viewBox="0 0 32 32" xmlns="http://www.w3.org/2000/svg">
  <g fill="none">
    <circle cx="16" cy="16" r="16" fill="#1B314F"/>
    <path d="M22.783 14.875c-.133.285-.437.399-.722.399h-2.433c-.266 0-.513.114-.646.342-.152.285-.038.57.152.798l1.843 2.147c.209.228.209.627-.019.855l-1.254 1.254c-.228.228-.627.228-.855 0l-1.843-2.147c-.19-.228-.513-.285-.779-.152-.266.152-.418.437-.38.741v2.907c0 .361-.266.646-.646.646h-1.767c-.361 0-.646-.285-.646-.646v-2.907c0-.304-.152-.589-.38-.741-.266-.133-.589-.076-.779.152l-1.843 2.147c-.228.228-.627.228-.855 0l-1.254-1.254c-.228-.228-.228-.627 0-.855l1.843-2.147c.19-.228.304-.513.152-.798-.133-.228-.38-.342-.646-.342H7.615c-.285 0-.589-.114-.722-.399-.076-.247-.019-.551.19-.741l6.764-6.764c.228-.228.627-.228.855 0l6.764 6.764c.304.19.361.494.19.741h.127z" fill="#FFF"/>
  </g>
</svg>