<svg xmlns="http://www.w3.org/2000/svg" viewBox="0 0 32 32"><circle cx="16" cy="16" r="16" fill="#2EBAC6"/><path d="M24.452 12.027c-.797-1.595-2.846-2.172-4.531-1.276a3.34 3.34 0 00-1.473 1.593l-3.03 6.359-1.987-5.264a3.314 3.314 0 00-1.219-1.595c-1.584-.996-3.733-.319-4.53 1.276-1.085 2.171-.199 4.343 1.584 5.339.797.398 1.684.598 2.57.598.687 0 1.375-.1 1.972-.299l4.134 1.993c.398.2.797.3 1.285.3.489 0 .887-.1 1.286-.3l4.133-1.993c1.883.498 3.953-.1 4.927-1.893.974-1.794.487-3.944-1.187-4.838h-.02c-1.087-.598-2.372-.697-3.459-.2l-.399.2h-.056z" fill="#FFF"/></svg> 