<svg xmlns="http://www.w3.org/2000/svg" viewBox="0 0 32 32"><circle cx="16" cy="16" r="16" fill="#0033AD"/><path d="M15.725 5.29a.575.575 0 01.55 0l1.378.765a.575.575 0 01.289.498v1.53a.575.575 0 01-.289.498l-1.378.765a.575.575 0 01-.55 0l-1.378-.765a.575.575 0 01-.289-.498v-1.53a.575.575 0 01.289-.498l1.378-.765zm-5.573 3.12a.575.575 0 01.55 0l1.378.765a.575.575 0 01.289.498v1.53a.575.575 0 01-.289.498l-1.378.765a.575.575 0 01-.55 0l-1.378-.765a.575.575 0 01-.289-.498v-1.53a.575.575 0 01.289-.498l1.378-.765zm11.146 0a.575.575 0 01.55 0l1.378.765a.575.575 0 01.289.498v1.53a.575.575 0 01-.289.498l-1.378.765a.575.575 0 01-.55 0l-1.378-.765a.575.575 0 01-.289-.498v-1.53a.575.575 0 01.289-.498l1.378-.765zm-14.176 4.95a.575.575 0 01.55 0l1.378.765a.575.575 0 01.289.498v1.53a.575.575 0 01-.289.498l-1.378.765a.575.575 0 01-.55 0l-1.378-.765a.575.575 0 01-.289-.498v-1.53a.575.575 0 01.289-.498l1.378-.765zm17.206 0a.575.575 0 01.55 0l1.378.765a.575.575 0 01.289.498v1.53a.575.575 0 01-.289.498l-1.378.765a.575.575 0 01-.55 0l-1.378-.765a.575.575 0 01-.289-.498v-1.53a.575.575 0 01.289-.498l1.378-.765zm-14.176 4.95a.575.575 0 01.55 0l1.378.765a.575.575 0 01.289.498v1.53a.575.575 0 01-.289.498l-1.378.765a.575.575 0 01-.55 0l-1.378-.765a.575.575 0 01-.289-.498v-1.53a.575.575 0 01.289-.498l1.378-.765zm11.146 0a.575.575 0 01.55 0l1.378.765a.575.575 0 01.289.498v1.53a.575.575 0 01-.289.498l-1.378.765a.575.575 0 01-.55 0l-1.378-.765a.575.575 0 01-.289-.498v-1.53a.575.575 0 01.289-.498l1.378-.765zm-5.573 3.12a.575.575 0 01.55 0l1.378.765a.575.575 0 01.289.498v1.53a.575.575 0 01-.289.498l-1.378.765a.575.575 0 01-.55 0l-1.378-.765a.575.575 0 01-.289-.498v-1.53a.575.575 0 01.289-.498l1.378-.765z" fill="#FFF"/></svg> 