<svg xmlns="http://www.w3.org/2000/svg" viewBox="0 0 32 32"><circle cx="16" cy="16" r="16" fill="#2E3148"/><path d="M16 4c.325 0 .65.122.898.367l6.57 6.57a1.271 1.271 0 010 1.797l-6.57 6.57a1.271 1.271 0 01-1.797 0l-6.57-6.57a1.271 1.271 0 010-1.797l6.57-6.57A1.27 1.27 0 0116 4zm-2.737 7.958a1.271 1.271 0 00-1.797 1.797l1.797 1.797a1.271 1.271 0 001.797-1.797l-1.797-1.797zm5.474 0a1.271 1.271 0 00-1.797 1.797l1.797 1.797a1.271 1.271 0 001.797-1.797l-1.797-1.797zm-2.737 2.737a1.271 1.271 0 00-1.797 1.797l1.797 1.797a1.271 1.271 0 001.797-1.797l-1.797-1.797z" fill="#FFF"/></svg> 