<svg xmlns="http://www.w3.org/2000/svg" viewBox="0 0 32 32"><circle cx="16" cy="16" r="16" fill="#E84142"/><path d="M21.797 17.768c.249-.426.249-.937.017-1.38l-3.964-7.261c-.249-.426-.692-.692-1.184-.692-.493 0-.937.266-1.169.692l-1.135 2.089-1.414-2.616c-.249-.426-.692-.692-1.184-.692-.493 0-.937.266-1.169.692L6.234 16.388c-.249.426-.249.937-.017 1.38l2.121 3.868c.249.426.692.692 1.184.692h8.986c.493 0 .937-.266 1.169-.692l2.121-3.868zm-4.93-5.933l3.253 5.957H14.12l2.747-5.957zm-4.93-.62l3.253 5.957H9.19l2.747-5.957z" fill="#FFF"/></svg> 