<svg xmlns="http://www.w3.org/2000/svg" viewBox="0 0 32 32"><circle cx="16" cy="16" r="16" fill="#00D395"/><path d="M16.49 8.015c2.932 0 5.475 1.613 6.616 3.931.284.575.57 1.149.74 1.724.114.575.228 1.149.228 1.724 0 .575-.114 1.149-.228 1.724-.171.575-.456 1.149-.74 1.724-1.14 2.318-3.798 3.931-6.616 3.931-2.932 0-5.475-1.613-6.616-3.931a7.674 7.674 0 01-.74-1.724 7.721 7.721 0 01-.228-1.724c0-.575.114-1.149.228-1.724.171-.575.456-1.149.74-1.724 1.14-2.318 3.798-3.931 6.616-3.931zm0 2.203c-2.135 0-3.912 1.034-4.823 2.636-.171.345-.342.69-.456 1.034-.114.345-.171.805-.171 1.149 0 .345.057.805.171 1.149.114.345.285.69.456 1.034.911 1.602 2.688 2.636 4.823 2.636 2.135 0 3.912-1.034 4.823-2.636.171-.345.342-.69.456-1.034.114-.345.171-.805.171-1.149 0-.345-.057-.805-.171-1.149-.114-.345-.285-.69-.456-1.034-.911-1.602-2.688-2.636-4.823-2.636zm-1.994 2.636h1.994c1.14 0 1.994.92 1.994 2.068 0 1.149-.854 2.068-1.994 2.068h-1.994v-4.136zm1.994 1.379h-.57v1.379h.57c.342 0 .57-.345.57-.69 0-.345-.228-.69-.57-.69z" fill="#FFF"/></svg> 