<svg xmlns="http://www.w3.org/2000/svg" viewBox="0 0 32 32"><circle cx="16" cy="16" r="16" fill="#000000"/><path d="M16.277 7c-2.805 0-5.254 1.258-6.923 3.219l2.728 1.883c1.078-1.294 2.712-2.143 4.532-2.143 3.238 0 5.86 2.623 5.86 5.86 0 1.82-.849 3.454-2.143 4.532l1.883 2.728A9.27 9.27 0 0025.433 16c0-5.055-4.101-9-9.156-9zm-7.134 3.777A9.27 9.27 0 006.567 16c0 5.055 4.101 9 9.156 9 2.805 0 5.254-1.258 6.923-3.219l-2.728-1.883c-1.078 1.294-2.712 2.143-4.532 2.143-3.238 0-5.86-2.623-5.86-5.86 0-1.82.849-3.454 2.143-4.532l-1.883-2.728-.643-.144z" fill="#FFF"/></svg> 