<svg xmlns="http://www.w3.org/2000/svg" viewBox="0 0 32 32"><circle cx="16" cy="16" r="16" fill="#C3A634"/><path d="M13.248 14.61h4.314v2.286h-4.314v4.818h2.721c1.077 0 1.958-.145 2.644-.437.686-.291 1.224-.694 1.615-1.21a4.4 4.4 0 00.796-1.815 11.4 11.4 0 00.21-2.252 11.4 11.4 0 00-.21-2.252 4.396 4.396 0 00-.796-1.815c-.391-.516-.93-.919-1.615-1.21-.686-.292-1.567-.437-2.644-.437h-2.721v4.325zm-2.766 2.286h-2.25v-2.285h2.25V8h5.69c1.497 0 2.753.22 3.769.658 1.015.439 1.839 1.041 2.47 1.808.63.767 1.085 1.674 1.364 2.72.279 1.047.419 2.191.419 3.432 0 1.24-.14 2.384-.419 3.43-.279 1.047-.733 1.954-1.364 2.721-.631.767-1.455 1.37-2.47 1.808-1.016.439-2.272.658-3.769.658h-5.69v-6.349z" fill="#FFF"/></svg> 