<svg xmlns="http://www.w3.org/2000/svg" viewBox="0 0 32 32"><circle cx="16" cy="16" r="16" fill="#E6007A"/><path d="M16 6.404c-1.873 0-3.397 1.523-3.397 3.397s1.524 3.397 3.397 3.397c1.874 0 3.397-1.523 3.397-3.397S17.874 6.404 16 6.404zm0 4.937c-.85 0-1.54-.69-1.54-1.54s.69-1.54 1.54-1.54 1.54.69 1.54 1.54-.69 1.54-1.54 1.54zm6.138 2.403c-1.873 0-3.397 1.523-3.397 3.397s1.524 3.397 3.397 3.397c1.874 0 3.397-1.523 3.397-3.397s-1.523-3.397-3.397-3.397zm0 4.936c-.85 0-1.54-.69-1.54-1.54s.69-1.54 1.54-1.54 1.54.69 1.54 1.54-.69 1.54-1.54 1.54zM9.862 13.744c-1.873 0-3.397 1.523-3.397 3.397s1.524 3.397 3.397 3.397c1.874 0 3.397-1.523 3.397-3.397s-1.523-3.397-3.397-3.397zm0 4.936c-.85 0-1.54-.69-1.54-1.54s.69-1.54 1.54-1.54 1.54.69 1.54 1.54-.69 1.54-1.54 1.54zM16 18.802c-1.873 0-3.397 1.523-3.397 3.397S14.127 25.596 16 25.596c1.874 0 3.397-1.523 3.397-3.397S17.874 18.802 16 18.802zm0 4.937c-.85 0-1.54-.69-1.54-1.54s.69-1.54 1.54-1.54 1.54.69 1.54 1.54-.69 1.54-1.54 1.54z" fill="#FFF"/></svg> 