<svg width="32" height="32" viewBox="0 0 32 32" xmlns="http://www.w3.org/2000/svg">
  <g fill="none">
    <circle cx="16" cy="16" r="16" fill="#7866D5"/>
    <path d="M22.313 9c.494.057.994.088 1.482.176.967.183 1.283.643 1.119 1.576-.066.378-.31.611-.698.674a5.12 5.12 0 01-.698.05c-3.173.007-6.353.013-9.526.026-.48 0-.955.044-1.422.12-.898.145-1.327.624-1.283 1.477.044.815.534 1.207 1.476 1.383.374.07.755.108 1.136.12 2.963.032 5.926.051 8.89.076.132 0 .264.013.396.025.967.114 1.422.562 1.333 1.49-.07.74-.546 1.207-1.35 1.32-.392.057-.79.089-1.187.095-2.987.032-5.975.057-8.962.082-.437 0-.874.038-1.305.108-.911.145-1.327.605-1.327 1.464 0 .853.473 1.32 1.415 1.496.374.07.755.108 1.136.12 3.031.032 6.062.051 9.094.076.106 0 .212.013.318.025.683.082 1.162.37 1.267.992.117.688-.15 1.452-.612 1.787-.275.196-.604.334-.93.41-.58.133-1.179.183-1.776.177-3.54-.013-7.074-.032-10.613-.057-.437 0-.874-.038-1.305-.082-1.017-.108-1.84-.562-2.401-1.395-.166-.246-.275-.54-.275-.83-.004-3.075 0-6.15-.004-9.225 0-.284.117-.556.239-.815.546-1.17 1.53-1.698 2.872-1.755 3.686-.158 7.372-.24 11.058-.354.15-.006.302-.019.452-.025z" fill="#FFF"/>
  </g>
</svg>