<svg width="32" height="32" viewBox="0 0 32 32" xmlns="http://www.w3.org/2000/svg">
  <g fill="none">
    <circle cx="16" cy="16" r="16" fill="#00A275"/>
    <path d="M21.413 13.997h-5.32c.066-.936.356-1.681.87-2.235.512-.553 1.187-.83 2.024-.83.579 0 1.039.11 1.38.331.34.22.615.579.824 1.074l2.454-.331c-.286-.936-.784-1.634-1.495-2.095-.711-.46-1.66-.691-2.848-.691-1.776 0-3.166.553-4.17 1.66-1.004 1.107-1.506 2.642-1.506 4.604 0 1.995.502 3.541 1.506 4.637 1.004 1.096 2.394 1.644 4.17 1.644 1.221 0 2.187-.243 2.898-.73.711-.485 1.198-1.195 1.462-2.128l-2.454-.298c-.198.507-.468.872-.808 1.091-.34.22-.806.331-1.396.331-.87 0-1.556-.276-2.058-.83-.501-.553-.791-1.376-.87-2.47h5.287v-1.734z" fill="#FFF"/>
  </g>
</svg> 