<svg width="32" height="32" viewBox="0 0 32 32" xmlns="http://www.w3.org/2000/svg">
  <g fill="none">
    <circle cx="16" cy="16" r="16" fill="#000000"/>
    <path d="M25.07 8.767v2.95l-4.14 2.393-4.14-2.393v-2.95L20.93 6.37l4.14 2.396zm-13.8 0v2.95l-4.14 2.393-4.14-2.393v-2.95L7.13 6.37l4.14 2.396zm6.9 5.9v2.95l-4.14 2.393-4.14-2.393v-2.95l4.14-2.396 4.14 2.396zm6.9 5.9v2.95l-4.14 2.393-4.14-2.393v-2.95l4.14-2.396 4.14 2.396zm-13.8 0v2.95l-4.14 2.393-4.14-2.393v-2.95l4.14-2.396 4.14 2.396z" fill="#FFF"/>
  </g>
</svg> 