<svg xmlns="http://www.w3.org/2000/svg" viewBox="0 0 32 32"><circle cx="16" cy="16" r="16" fill="#6747ED"/><path d="M20.477 16.416c.167-.167.371-.296.596-.377.224-.081.464-.112.703-.09.239.021.47.093.676.21.207.117.383.278.515.47.133.193.22.41.255.637.035.227.018.458-.05.677-.067.22-.185.422-.344.59-.159.169-.357.3-.577.384a1.83 1.83 0 01-2.049-.51 1.83 1.83 0 01-.384-1.991c.081-.22.212-.418.38-.577l.279-.423zm-9.276 1.86c.133-.193.309-.354.515-.47.207-.118.437-.19.676-.211.24-.022.479.009.703.09.225.081.429.21.596.376l.279.424c.168.159.299.357.38.577.082.22.112.455.09.688-.022.233-.094.458-.21.66-.117.203-.277.374-.468.504a1.83 1.83 0 01-2.049-.51 1.83 1.83 0 01-.384-1.991c.067-.22.185-.422.344-.59l.528.443zm6.12-6.12c.167-.167.371-.296.596-.377.224-.081.464-.112.703-.09.239.021.47.093.676.21.207.117.383.278.515.47.133.193.22.41.255.637.035.227.018.458-.05.677-.067.22-.185.422-.344.59-.159.169-.357.3-.577.384a1.83 1.83 0 01-2.049-.51 1.83 1.83 0 01-.384-1.991c.081-.22.212-.418.38-.577l.279-.423z" fill="#FFF"/></svg> 