<svg width="32" height="32" viewBox="0 0 32 32" xmlns="http://www.w3.org/2000/svg">
  <g fill="none">
    <circle cx="16" cy="16" r="16" fill="#00DCFA"/>
    <path d="M19.378 18.378c-.378.378-.907.613-1.495.613-.587 0-1.116-.235-1.495-.613l-4.126-4.127c-.378-.378-.613-.907-.613-1.494 0-.588.235-1.116.613-1.495l4.126-4.126c.379-.379.908-.613 1.495-.613.588 0 1.117.234 1.495.613l4.127 4.126c.378.379.613.907.613 1.495 0 .587-.235 1.116-.613 1.494l-4.127 4.127zm-1.495-10.496c-.473 0-.898.192-1.205.5l-4.126 4.126c-.307.307-.5.732-.5 1.205 0 .472.193.898.5 1.205l4.126 4.126c.307.308.732.5 1.205.5.472 0 .898-.192 1.205-.5l4.126-4.126c.308-.307.5-.733.5-1.205 0-.473-.192-.898-.5-1.205l-4.126-4.126c-.307-.308-.733-.5-1.205-.5z" fill="#FFF"/>
  </g>
</svg>