<svg xmlns="http://www.w3.org/2000/svg" viewBox="0 0 32 32"><circle cx="16" cy="16" r="16" fill="#8247E5"/><path d="M21.092 12.693c-.369-.215-.848-.215-1.254 0l-2.879 1.654-1.955 1.078-2.879 1.653c-.369.216-.848.216-1.254 0l-2.288-1.294c-.369-.215-.627-.61-.627-1.042V12.19c0-.431.221-.826.627-1.042l2.25-1.258c.37-.216.85-.216 1.256 0l2.25 1.258c.37.216.628.611.628 1.042v1.654l1.955-1.115v-1.653c0-.432-.222-.827-.628-1.043l-4.167-2.372c-.369-.215-.848-.215-1.254 0L6.727 9.916c-.443.216-.701.611-.701 1.042v4.78c0 .432.222.827.627 1.043l4.204 2.372c.37.215.849.215 1.255 0l2.879-1.654 1.955-1.115 2.879-1.653c.369-.216.848-.216 1.254 0l2.251 1.258c.37.215.627.61.627 1.042v2.552c0 .431-.221.826-.627 1.042l-2.25 1.294c-.37.216-.85.216-1.255 0l-2.251-1.258c-.37-.216-.628-.611-.628-1.042v-1.654l-1.955 1.115v1.653c0 .432.222.827.628 1.043l4.204 2.372c.369.215.848.215 1.254 0l4.204-2.372c.369-.216.627-.611.627-1.043v-4.78c0-.431-.221-.826-.627-1.042l-4.241-2.409z" fill="#FFF"/></svg> 