<svg width="32" height="32" viewBox="0 0 32 32" xmlns="http://www.w3.org/2000/svg">
  <g fill="none">
    <circle cx="16" cy="16" r="16" fill="#000000"/>
    <path d="M20.925 7.127l-6.652 9.998a.107.107 0 01-.172.014l-2.581-2.91a.107.107 0 00-.172.013l-1.248 1.858a.107.107 0 000 .12l3.91 4.848c.05.063.146.063.197 0l8.371-12.193a.107.107 0 00-.089-.166h-1.949a.107.107 0 01-.089-.048zm-10.104 5.79l-1.248 1.858a.107.107 0 00-.014.094l3.362 9.463a.107.107 0 00.202 0l2.138-5.156a.107.107 0 00-.014-.094l-4.253-6.178a.107.107 0 00-.173.013z" fill="#FFF"/>
  </g>
</svg> 