<svg width="32" height="32" viewBox="0 0 32 32" xmlns="http://www.w3.org/2000/svg">
  <g fill="none">
    <circle cx="16" cy="16" r="16" fill="#2775CA"/>
    <path d="M16 5C9.925 5 5 9.925 5 16s4.925 11 11 11 11-4.925 11-11S22.075 5 16 5zm4.828 15.17c-.158.477-.477.875-.913 1.193-.436.317-.953.555-1.589.715-.595.159-1.272.238-2.007.238-.754 0-1.45-.1-2.045-.318a4.843 4.843 0 01-1.59-.895 4.103 4.103 0 01-1.034-1.392c-.238-.555-.357-1.173-.357-1.847h2.92c0 .636.159 1.134.516 1.49.358.359.835.518 1.471.518.358 0 .675-.04.953-.159.278-.08.516-.198.675-.357.159-.159.317-.357.397-.595.08-.238.119-.477.119-.755 0-.278-.04-.516-.119-.754-.08-.199-.238-.397-.437-.556a1.781 1.781 0 00-.754-.397c-.318-.119-.675-.158-1.113-.158h-1.51v-2.125h1.51c.358 0 .675-.04.953-.119.278-.08.516-.199.675-.358.159-.159.318-.357.397-.595.08-.238.12-.477.12-.755 0-.517-.16-.914-.478-1.193-.318-.278-.755-.437-1.312-.437-.596 0-1.034.159-1.352.477-.317.318-.436.755-.436 1.332H13.04c0-.636.119-1.193.357-1.708.238-.516.556-.934.993-1.272.437-.358.954-.596 1.55-.755a6.937 6.937 0 011.988-.278c.715 0 1.352.079 1.947.278.596.159 1.074.397 1.511.715.437.317.754.715.953 1.152.238.437.318.934.318 1.47 0 .795-.159 1.431-.516 1.908-.358.476-.874.793-1.59.952v.04c.874.119 1.55.437 1.987.953.437.516.675 1.193.675 2.045 0 .596-.119 1.113-.278 1.59z" fill="#FFF"/>
  </g>
</svg> 