<svg xmlns="http://www.w3.org/2000/svg" viewBox="0 0 32 32"><circle cx="16" cy="16" r="16" fill="#00D1FF"/><path d="M16.242 5.5l5.089 2.948v3.676L26 14.578v2.971l-4.669-2.454v3.676l4.669 2.454v2.971l-4.669-2.454v3.676L16.242 28l-5.089-2.948v-3.676L6.485 23.83v-2.971l4.668 2.454v-3.676L6.485 17.18v-2.971l4.668 2.454v-3.676L16.242 5.5zm2.544 13.463v3.677l-2.544 1.474-2.544-1.474v-3.677l2.544 1.474 2.544-1.474zm0-8.402v3.676l-2.544 1.474-2.544-1.474v-3.676l2.544 1.474 2.544-1.474z" fill="#FFF"/></svg> 