<svg xmlns="http://www.w3.org/2000/svg" viewBox="0 0 32 32"><circle cx="16" cy="16" r="16" fill="#000000"/><path d="M20.673 10.32a.676.676 0 01.477.198l1.654 1.653a.676.676 0 01.198.477.676.676 0 01-.198.477l-9.36 9.36a.676.676 0 01-.477.198.676.676 0 01-.477-.198l-1.654-1.653a.676.676 0 01-.198-.477c0-.186.071-.363.198-.477l9.36-9.36a.676.676 0 01.477-.198zm-9.36 0a.676.676 0 01.477.198l5.653 5.653a.676.676 0 01.198.477.676.676 0 01-.198.477l-1.654 1.653a.676.676 0 01-.477.198.676.676 0 01-.477-.198l-5.653-5.653a.676.676 0 01-.198-.477c0-.186.071-.363.198-.477l1.654-1.653a.676.676 0 01.477-.198zm13.067 5.653a.676.676 0 01.477.198l1.654 1.653a.676.676 0 01.198.477.676.676 0 01-.198.477l-5.653 5.653a.676.676 0 01-.477.198.676.676 0 01-.477-.198l-1.654-1.653a.676.676 0 01-.198-.477c0-.186.071-.363.198-.477l5.653-5.653a.676.676 0 01.477-.198z" fill="#FFF"/></svg> 