<svg width="32" height="32" viewBox="0 0 32 32" xmlns="http://www.w3.org/2000/svg">
  <g fill="none">
    <circle cx="16" cy="16" r="16" fill="#1E1A31"/>
    <path d="M16.117 5l6.45 3.722v10.54l-6.45 3.723-6.45-3.723v-10.54L16.117 5zm.01 1.891l-4.698 2.713v7.68l4.698 2.714 4.699-2.714v-7.68l-4.699-2.713zm-1.186 3.382c1.278 0 1.917.68 1.917 2.038 0 1.471-.67 2.207-2.01 2.207h-.603v1.471h-1.44v-5.716h2.136zm-.696 3.091h.495c.711 0 1.067-.376 1.067-1.129 0-.649-.33-.973-.99-.973h-.572v2.102z" fill="#FFF"/>
  </g>
</svg> 