<svg width="32" height="32" viewBox="0 0 32 32" xmlns="http://www.w3.org/2000/svg">
  <g fill="none">
    <circle cx="16" cy="16" r="16" fill="#D65892"/>
    <path d="M16.75 12.39c3.24-.14 6.49-.28 9.73-.41-.24 3.28-.48 6.56-.72 9.85-2.58.08-5.15.16-7.73.24-.01 1.31-.02 2.62-.03 3.93-1.53-.02-3.06-.04-4.59-.05.02-1.31.04-2.62.06-3.93-2.73-.24-5.46-.48-8.2-.72.33-3.23.67-6.45 1-9.68 3.5.26 6.99.51 10.48.77zm1.07 2.3c-2.3-.13-4.61-.26-6.91-.39-.14 1.67-.29 3.34-.43 5.01 2.29.11 4.58.22 6.86.33.16-1.65.32-3.3.48-4.95z" fill="#FFF"/>
  </g>
</svg>