<svg xmlns="http://www.w3.org/2000/svg" viewBox="0 0 32 32"><circle cx="16" cy="16" r="16" fill="#FF007A"/><path d="M16.269 7.324c-.233.105-.366.315-.366.496 0 .105.105.315.233.42.128.104.233.18.233.18s-.21.104-.47.18c-.65.21-1.456.63-2.002 1.049-.912.706-1.666 1.726-2.159 2.88-.233.524-.366.944-.65 1.97-.1.367-.233.839-.282 1.049-.128.496-.128.496-.366.576-.128.052-.47.157-.757.21-.602.104-1.018.261-1.438.47-.815.42-1.246.97-1.33 1.726-.05.42-.05.42.13.42.128 0 .18-.052.18-.157 0-.42.416-.97.912-1.258.416-.236.732-.34 1.373-.392.65-.052.962-.157 1.063-.34.05-.105.128-.42.18-.735.05-.315.233-1.048.416-1.621.495-1.622.65-2.015 1.144-2.852.602-1.048 1.33-1.83 2.264-2.433.65-.42 1.711-.787 2.361-.787.416 0 .497-.026.497-.157 0-.157-.128-.367-.233-.367-.05 0-.128.052-.18.104-.1.079-.128.079-.233 0-.128-.105-.128-.105 0-.262.18-.236.18-.524-.05-.681-.18-.105-.416-.105-.65 0zm1.292 2.512c-.416.157-.545.42-.416.891.128.445.416.681.962.681.65 0 .962-.34.962-1.048 0-.42-.05-.524-.282-.629-.233-.104-.912 0-1.226.105zm-3.294 3.088c-.18.079-.416.157-.496.157-.128 0-.128.026-.052.157.128.21.416.262.732.157.18-.052.233-.105.233-.236 0-.157-.128-.315-.416-.236zm6.146.262c-.128.157-.128.262.052.367.18.105.39.052.495-.105.18-.262-.366-.524-.547-.262zm-3.11.577c-.705.157-1.373.577-1.711 1.101-.18.262-.233.42-.233.787 0 .393.026.472.233.682.128.13.366.288.547.34.44.132.992.053 1.373-.21.26-.183.574-.603.574-.787 0-.052-.102-.157-.23-.21-.206-.078-.206-.104-.103-.313.18-.34.18-.524 0-.76-.207-.263-.102-.263-.445-.63zm.784.682c.128.157.128.21-.026.472-.233.367-.65.629-1.063.629-.26 0-.652-.21-.756-.42-.103-.183-.103-.524.026-.786.18-.42.522-.655 1.063-.734.366-.052.574.026.756.262v.577zm-4.535.577c-.128.157-.128.262.052.367.18.105.39.052.495-.105.18-.262-.366-.524-.547-.262zm6.433.577c-.233.105-.337.315-.285.577.05.262.285.42.6.42.285 0 .39-.053.495-.262.128-.21.128-.315 0-.472-.18-.236-.544-.367-.81-.263zm-4.326.367c-.128.157-.128.262.052.367.18.105.39.052.495-.105.18-.262-.366-.524-.547-.262zm2.002 1.258c-.233.105-.337.315-.285.577.05.262.285.42.6.42.285 0 .39-.053.495-.262.128-.21.128-.315 0-.472-.18-.236-.544-.367-.81-.263zm-3.346.577c-.128.157-.128.262.052.367.18.105.39.052.495-.105.18-.262-.366-.524-.547-.262zm4.69.577c-.233.105-.337.315-.285.577.05.262.285.42.6.42.285 0 .39-.053.495-.262.128-.21.128-.315 0-.472-.18-.236-.544-.367-.81-.263z" fill="#FFF"/></svg> 