<svg width="32" height="32" viewBox="0 0 32 32" xmlns="http://www.w3.org/2000/svg">
  <g fill="none">
    <circle cx="16" cy="16" r="16" fill="#006AE3"/>
    <path d="M15.21 22.36V9.754h1.372V22.36z" fill="#FFF"/>
    <path d="M22.197 13.954l-4.24 1.124-.945-4.4 1.26-.284.498 2.084s1.145-1.878-.382-3.824c-.9-1-1.327-1.042-2.336-1.2-.888-.127-2.952.173-3.567 2.582-.26 1.552.033 2.7 2.033 4.203l-.112 1.673s-2.233-1.573-2.809-2.676c-.445-.873-1.21-2.597.17-4.997.742-1.2 2.206-2.351 4.785-2.23 1.296.054 4.463 1.64 3.972 5.342-.085.694-.445 1.618-.445 1.618l1.74-.387.378 1.372z" fill="#FFF"/>
  </g>
</svg>