<svg width="20" height="20" viewBox="0 0 20 20" fill="none" xmlns="http://www.w3.org/2000/svg">
<path id="Vector" fill-rule="evenodd" clip-rule="evenodd" d="M14.8693 13.4573C17.3131 10.3188 17.0923 5.77813 14.2072 2.89295C11.083 -0.231243 6.01763 -0.231243 2.89344 2.89295C-0.230757 6.01715 -0.230757 11.0825 2.89344 14.2067C5.77862 17.0919 10.3193 17.3126 13.4578 14.8689C13.4713 14.8842 13.4854 14.8992 13.5 14.9138L17.7427 19.1564C18.1332 19.547 18.7664 19.547 19.1569 19.1564C19.5474 18.7659 19.5474 18.1328 19.1569 17.7422L14.9143 13.4996C14.8996 13.485 14.8846 13.4709 14.8693 13.4573ZM12.7929 4.30717C15.1361 6.65031 15.1361 10.4493 12.7929 12.7925C10.4498 15.1356 6.65079 15.1356 4.30765 12.7925C1.9645 10.4493 1.9645 6.65031 4.30765 4.30717C6.65079 1.96402 10.4498 1.96402 12.7929 4.30717Z" fill="#777F89"/>
</svg>
